<?xml version="1.0" encoding="UTF-8"?>
<svg width="35px" height="36px" viewBox="0 0 35 36" version="1.1" xmlns="http://www.w3.org/2000/svg" xmlns:xlink="http://www.w3.org/1999/xlink">
    <!-- Generator: Sketch 53.2 (72643) - https://sketchapp.com -->
    <title>Group 3 Copy</title>
    <desc>Created with Sketch.</desc>
    <defs>
        <polygon id="path-1" points="0 0 35 0 35 36 0 36"></polygon>
    </defs>
    <g id="Page-1" stroke="none" stroke-width="1" fill="none" fill-rule="evenodd">
        <g id="Resume" transform="translate(-289.000000, -28.000000)">
            <g id="Group-3-Copy" transform="translate(289.000000, 28.000000)">
                <mask id="mask-2" fill="white">
                    <use xlink:href="#path-1"></use>
                </mask>
                <g id="Clip-2"></g>
                <path d="M27.0428571,12.4804528 C25.4135714,10.3591698 22.8692857,8.90830189 19.9592857,8.64950943 L19.9592857,6.35977358 C20.525,6.40188679 21.0921429,6.48135849 21.6592857,6.59750943 C24.7378571,7.23532075 27.3764286,8.93818868 29.13,11.3257358 L27.0428571,12.4804528 Z M18.0835714,8.64950943 C13.0485714,9.09781132 9.10928571,13.1128302 9.10928571,18 C9.10928571,19.3944906 9.43,20.7176604 10.0042857,21.9070189 L7.91928571,23.0610566 C6.73428571,20.733283 6.38714286,18.0923774 6.985,15.5030943 C8.16214286,10.4114717 12.7342857,6.74015094 18.0835714,6.3570566 L18.0835714,8.64950943 Z M10.9442857,23.4455094 C12.5707143,25.6068679 15.14,27.0883019 18.0835714,27.3504906 L18.0835714,29.6402264 C17.5178571,29.597434 16.9514286,29.5186415 16.3857143,29.4024906 C13.2728571,28.7578868 10.6121429,27.0264906 8.85857143,24.5988679 L10.9442857,23.4455094 Z M19.9592857,27.3504906 C22.8842857,27.0903396 25.4392857,25.626566 27.0671429,23.4869434 L27.3385714,23.6343396 L29.17,24.6260377 C27.065,27.5182642 23.6657143,29.3753208 19.9592857,29.6429434 L19.9592857,27.3504906 Z M35,27.7824906 C31.77,32.508 26.2678571,35.709283 19.9592857,36 L19.9592857,31.1692075 C24.2442857,30.8961509 28.1742857,28.7470189 30.5692857,25.3840755 L35,27.7824906 Z M18.0835714,36 C11.7864286,35.7099623 6.29214286,32.5188679 3.06071429,27.8069434 L7.46785714,25.3691321 C9.44785714,28.1594717 12.485,30.1537358 16.0435714,30.890717 C16.7221429,31.0306415 17.4035714,31.1223396 18.0835714,31.1671698 L18.0835714,36 Z M2.11714286,26.2718491 C0.764285714,23.7939623 0,20.9818868 0,18 C0,8.3445283 8.01357143,0.463245283 18.0835714,0 L18.0835714,4.83011321 C11.9814286,5.21660377 6.75428571,9.38241509 5.415,15.1777358 C4.72928571,18.144 5.14357143,21.1747925 6.52714286,23.8313208 L2.11714286,26.2718491 Z M19.9592857,0 C26.2235714,0.288 31.6914286,3.44649057 34.93,8.11630189 L30.5221429,10.5554717 C28.5407143,7.8045283 25.5257143,5.84015094 22.0007143,5.10928302 C21.3207143,4.96935849 20.6392857,4.87766038 19.9592857,4.83283019 L19.9592857,0 Z" id="Fill-1" fill="#3E4852" mask="url(#mask-2)"></path>
            </g>
        </g>
    </g>
</svg>