<?xml version="1.0" encoding="UTF-8"?>
<svg width="42px" height="42px" viewBox="0 0 42 42" version="1.1" xmlns="http://www.w3.org/2000/svg" xmlns:xlink="http://www.w3.org/1999/xlink">
    <!-- Generator: Sketch 52.3 (67297) - http://www.bohemiancoding.com/sketch -->
    <title>Logo 42px</title>
    <desc>Created with Sketch.</desc>
    <g id="Logo-42px" stroke="none" stroke-width="1" fill="none" fill-rule="evenodd">
        <rect fill="#FFFFFF" x="0" y="0" width="42" height="42"></rect>
        <path d="M19.9014085,41.9717582 C12.9242447,41.6121707 6.84731229,37.847144 3.30060376,32.3066706 L8.7419031,29.1454615 C11.2490245,32.7546968 15.283219,35.2105623 19.9014085,35.5640742 L19.9014085,41.9717582 Z M2.15933676,30.2858092 C0.776825572,27.4860701 0,24.3337537 0,21 C0,9.77051121 8.81406933,0.599658614 19.9014085,0.028241764 L19.9014085,5.43592579 C12.1490041,6.02935469 6.04225352,12.5470573 6.04225352,20.5 C6.04225352,22.8837532 6.59088037,25.1385653 7.56800671,27.1435567 L2.15933676,30.2858092 Z M22.2112676,0.0343490931 C28.9465741,0.417378561 34.8324251,3.97452509 38.3963653,9.23333328 L33.516583,12.0683201 C31.0217412,8.34248852 26.9200732,5.79637414 22.2112676,5.43592579 L22.2112676,0.0343490931 Z M38.9326713,31.9337208 C35.4415218,37.6474171 29.2963864,41.562728 22.2112676,41.9656509 L22.2112676,35.5640742 C26.9638861,35.2002721 31.0980163,32.6099418 33.5858044,28.8273737 L38.9326713,31.9337208 Z M22.2112676,34.3982116 L22.2112676,31.4801036 C25.4684162,31.1372328 28.301498,29.3603919 30.075855,26.788213 L32.5834792,28.245057 C30.2986733,31.6814775 26.5365589,34.0391477 22.2112676,34.3982116 Z M19.9014085,34.3982116 C15.7104009,34.0502953 12.0481441,31.8259444 9.74624473,28.5619733 L12.2607881,27.1011095 C14.0446385,29.5039444 16.7780514,31.1513167 19.9014085,31.4801036 L19.9014085,34.3982116 Z M8.57092145,26.5608974 C7.69064847,24.7281255 7.1971831,22.6720512 7.1971831,20.5 C7.1971831,13.1892286 12.7875845,7.19234219 19.9014085,6.60178844 L19.9014085,9.5198964 C14.3846971,10.1006249 10.084507,14.794986 10.084507,20.5 C10.084507,22.14279 10.4410717,23.7017782 11.0805729,25.1028757 L8.57092145,26.5608974 Z M22.2112676,6.60178844 C26.4927987,6.95721954 30.2224909,9.27102062 32.5136784,12.6509734 L30.0040675,14.1089717 C28.2256112,11.5923181 25.424837,9.8581797 22.2112676,9.5198964 L22.2112676,6.60178844 Z" id="Combined-Shape-Copy" fill="#1F2429" fill-rule="nonzero"></path>
    </g>
</svg>