<svg xmlns="http://www.w3.org/2000/svg" width="42" height="42" viewBox="0 0 42 42">
  <path fill="#1F2429" d="M29.3104837,14.3242349 C27.5526308,12.0158732 24.9047248,10.4378555 21.8869517,10.1167904 L21.8869517,6.99370058 C22.5113017,7.04257097 23.1373753,7.1344658 23.7625238,7.26958603 C27.1607343,8.00999444 30.0718731,9.98547028 32.0073063,12.7553102 L29.3104837,14.3242349 Z M19.8173977,10.0959691 C14.2808018,10.5717234 9.9336961,15.2719336 9.9336961,21 C9.9336961,22.4624166 10.2170481,23.8578357 10.7312051,25.1330616 L8.60026783,26.3727724 C7.29284217,23.6722854 6.9093731,20.6069764 7.56969722,17.6027806 C8.86848142,11.6949339 13.9137501,7.4348139 19.8173977,6.99044858 L19.8173977,10.0959691 Z M11.6810675,26.9679277 C13.4511752,29.7171512 16.408874,31.6111398 19.8173977,31.9040309 L19.8173977,34.006326 C19.1928584,33.9574915 18.5674057,33.8656508 17.9436253,33.7305068 C14.5079402,32.9826088 11.5722813,30.9739344 9.63715245,28.1570117 L11.6810675,26.9679277 Z M21.8869517,31.8832096 C25.2213315,31.5284603 28.1041646,29.6391793 29.8337628,26.9257182 L30.0303119,27.0375925 L32.0509904,28.1884851 C29.7287107,31.5445151 25.9777036,33.6994158 21.8869517,34.0092865 L21.8869517,31.8832096 Z M38.5016741,31.8608098 C35.0521322,37.6286662 28.9379467,41.5810043 21.8869517,41.9686581 L21.8869517,35.7808672 C26.6155153,35.4644097 30.9521414,32.9702147 33.5958716,29.068232 L38.5016741,31.8608098 Z M19.8173886,41.9794281 C12.7253361,41.663862 6.55817942,37.7433138 3.05999376,31.9833911 L8.10185791,29.0501967 C10.2877754,32.2888678 13.6390547,34.6022877 17.5657844,35.4570784 C18.3146582,35.6193246 19.0662488,35.7262681 19.8173977,35.7782301 L19.8173977,41.9794285 Z M2.07613627,30.1683023 C0.74606824,27.397986 0,24.2871955 0,21 C0,9.71632912 8.79079835,0.511208122 19.8173886,0.0205718653 L19.8173977,5.21890938 C13.0834847,5.66682641 7.31490861,10.5014702 5.83685424,17.2247723 C5.08029853,20.6667813 5.53690584,24.1837076 7.06419088,27.2664125 L2.07613627,30.1683023 Z M21.8869517,0.0313418533 C28.5859359,0.399642666 34.4393133,3.98558863 37.9653249,9.28912662 L33.5434258,11.8616453 C31.3566702,8.67038399 28.0297886,6.39044867 24.1401022,5.54295785 C23.3897178,5.38076815 22.6376513,5.27377888 21.8869517,5.22178802 L21.8869517,0.0313418533 Z"/>
</svg>
