<svg xmlns="http://www.w3.org/2000/svg" width="613" height="56" viewBox="0 0 613 56">
  <g fill="none" fill-rule="evenodd">
    <g fill="#252C33" transform="translate(398)">
      <ellipse cx="76.452" cy="48.333" rx="7.679" ry="7.667"/>
      <polygon fill-rule="nonzero" points="0 48.667 0 0 12.599 0 12.599 20.08 38.175 20.08 38.175 0 50.745 0 50.745 48.667 38.175 48.667 38.175 28.563 12.599 28.563 12.599 48.667"/>
      <polygon fill-rule="nonzero" points="116.501 48.667 102.826 48.667 131.871 0 160.916 48.667 147.241 48.667"/>
      <path fill-rule="nonzero" d="M169.596273,48.6666667 L169.596273,0 L192.312194,0 C205.385093,0 212.947695,6.22591146 212.947695,15.8974609 C212.947695,22.5511068 209.32102,27.375 202.770513,29.7513021 L215,48.6666667 L201.561621,48.6666667 L181.769533,48.6666667 L169.596273,48.6666667 Z"/>
    </g>
    <polygon fill="#CCD3DA" fill-rule="nonzero" points="0 50 0 0 12.764 0 12.764 20.63 38.677 20.63 38.677 0 51.412 0 51.412 50 38.677 50 38.677 29.346 12.764 29.346 12.764 50"/>
    <polygon fill="#CCD3DA" fill-rule="nonzero" points="118.501 50 104.826 50 133.87 0 162.915 50 149.24 50"/>
    <path fill="#CCD3DA" fill-rule="nonzero" d="M171.594512,50 L171.594512,0 L195.311933,0 C208.961191,0 216.857213,6.39648437 216.857213,16.3330078 C216.857213,23.1689453 213.070645,28.125 206.231339,30.5664062 L219,50 L204.96915,50 L184.304467,50 L171.594512,50 Z"/>
    <rect width="219" height="11.644" y="19.863" fill="#FFFAF8"/>
    <rect width="30.713" height="11.644" x="65.433" y="19.863" fill="#CCD3DA"/>
    <path fill="#ED9E9A" fill-rule="nonzero" d="M328.5,26 L268,26 L268,23 L328.5,23 L328.5,15 L347.5,24.5 L328.5,34 L328.5,26 Z" opacity=".5"/>
  </g>
</svg>
