<svg xmlns="http://www.w3.org/2000/svg" width="1013" height="241" viewBox="0 0 1013 241">
  <g fill="none" transform="translate(0 1)">
    <path fill="#1F2429" d="M571.575222,103.988532 L571.610378,104.785407 C572.094756,104.176029 572.727562,103.871344 573.508816,103.871344 C574.848666,103.871344 575.524441,104.627196 575.53616,106.138923 L575.53616,110.328376 L574.452175,110.328376 L574.452175,106.133063 C574.448269,105.67603 574.343778,105.338142 574.138699,105.119391 C573.933619,104.90064 573.614287,104.791266 573.180691,104.791266 C572.829127,104.791266 572.520536,104.885015 572.25491,105.072516 C571.989283,105.260017 571.782254,105.506109 571.633816,105.810798 L571.633816,110.328376 L570.549831,110.328376 L570.549831,103.988532 L571.575222,103.988532 Z M576.883816,107.09986 C576.883816,106.478763 577.005885,105.920175 577.250027,105.424079 C577.494169,104.927983 577.834009,104.545174 578.269558,104.275641 C578.705107,104.006109 579.202172,103.871344 579.760769,103.871344 C580.624054,103.871344 581.32229,104.17017 581.855495,104.767829 C582.388701,105.365488 582.6553,106.160402 582.6553,107.152594 L582.6553,107.228766 C582.6553,107.845957 582.537137,108.399662 582.300808,108.889899 C582.064479,109.380136 581.726591,109.761968 581.287136,110.035407 C580.847681,110.308846 580.342803,110.445563 579.772488,110.445563 C578.913108,110.445563 578.216826,110.146738 577.68362,109.549079 C577.150415,108.95142 576.883816,108.160412 576.883816,107.176032 L576.883816,107.09986 Z M577.97366,107.228766 C577.97366,107.931895 578.136744,108.496342 578.462917,108.922126 C578.789091,109.347909 579.22561,109.560798 579.772488,109.560798 C580.323272,109.560798 580.760767,109.344979 581.084988,108.913337 C581.409208,108.481694 581.571316,107.877208 581.571316,107.09986 C581.571316,106.404544 581.406278,105.841073 581.076199,105.40943 C580.746119,104.977788 580.307647,104.761969 579.760769,104.761969 C579.22561,104.761969 578.793974,104.974858 578.465847,105.400641 C578.13772,105.826425 577.97366,106.435794 577.97366,107.228766 Z"/>
    <polyline stroke="#ED9E9A" points="514.462 152.328 539.568 152.328 539.568 107.328 563.462 107.328"/>
    <rect width="65" height="65" x="435.462" y="120.328" fill="#252C33" transform="rotate(-45 467.962 152.828)"/>
    <path fill="#ED9E9A" d="M364.5,102.828376 L364.5,70 L364.5,69.5 L365,69.5 L602,69.5 L602.5,69.5 L602.5,70 L602.5,106.866435 L602.5,107.366435 L602,107.366435 L590.550107,107.366435 L590.550107,106.366435 L601.5,106.366435 L601.5,70.5 L365.5,70.5 L365.5,102.828376 L369.5,102.828376 L365,111.828376 L360.5,102.828376 L364.5,102.828376 Z"/>
    <path fill="#ED9E9A" d="M402.5,26.5 L664.5,26.5 L665,26.5 L665,27 L665,156.328376 L664,156.328376 L664,27.5 L402.5,27.5 L402.5,31.5 L393.5,27 L402.5,22.5 L402.5,26.5 Z"/>
    <polyline stroke="#ED9E9A" points="781 156.328 781 27 664.5 27"/>
    <path fill="#1F2429" d="M572.745144,199.740485 L574.221706,194.988532 L575.381863,194.988532 L572.833035,202.306891 C572.438501,203.361584 571.811554,203.888923 570.952175,203.888923 L570.747097,203.871344 L570.3428,203.795173 L570.3428,202.916266 L570.635769,202.939704 C571.002958,202.939704 571.289088,202.865486 571.494167,202.717048 C571.699246,202.568609 571.86819,202.297128 572.001003,201.902594 L572.241238,201.258063 L569.979519,194.988532 L571.163113,194.988532 L572.745144,199.740485 Z M578.979519,201.445563 C578.12014,201.445563 577.420928,201.163339 576.881863,200.598883 C576.342797,200.034428 576.073269,199.279552 576.073269,198.334235 L576.073269,198.135016 C576.073269,197.506107 576.193385,196.944589 576.43362,196.450446 C576.673856,195.956303 577.00979,195.569588 577.441433,195.29029 C577.873076,195.010991 578.340845,194.871344 578.844753,194.871344 C579.668976,194.871344 580.309595,195.142826 580.766628,195.685798 C581.223662,196.228769 581.452175,197.006105 581.452175,198.017829 L581.452175,198.469001 L577.157253,198.469001 C577.172878,199.094004 577.355494,199.598882 577.705105,199.983649 C578.054716,200.368417 578.499047,200.560798 579.038113,200.560798 C579.420927,200.560798 579.745143,200.482673 580.010769,200.326423 C580.276395,200.170172 580.508815,199.963143 580.708035,199.705329 L581.370144,200.220954 C580.838891,201.037364 580.042024,201.445563 578.979519,201.445563 Z M578.844753,195.761969 C578.407251,195.761969 578.040067,195.921147 577.743191,196.239508 C577.446314,196.557869 577.262722,197.004154 577.19241,197.578376 L580.368191,197.578376 L580.368191,197.496344 C580.336941,196.94556 580.188505,196.518807 579.922878,196.216071 C579.657252,195.913335 579.297881,195.761969 578.844753,195.761969 Z M586.397488,199.646735 C586.397488,199.353765 586.287137,199.126228 586.066433,198.964118 C585.845729,198.802008 585.460967,198.662361 584.912136,198.545173 C584.363305,198.427984 583.927763,198.287361 583.605495,198.123298 C583.283228,197.959234 583.044949,197.763924 582.890652,197.53736 C582.736354,197.310796 582.659206,197.041268 582.659206,196.728766 C582.659206,196.209232 582.878931,195.769784 583.318386,195.410407 C583.757841,195.05103 584.319359,194.871344 585.002956,194.871344 C585.72171,194.871344 586.304712,195.056889 586.75198,195.427985 C587.199248,195.799081 587.422878,196.273685 587.422878,196.851813 L586.333035,196.851813 C586.333035,196.554937 586.207059,196.29908 585.955105,196.084235 C585.70315,195.86939 585.385771,195.761969 585.002956,195.761969 C584.608423,195.761969 584.299833,195.847906 584.077175,196.019782 C583.854518,196.191658 583.743191,196.416265 583.743191,196.69361 C583.743191,196.95533 583.846705,197.152594 584.053738,197.285407 C584.26077,197.41822 584.63479,197.545172 585.175808,197.666266 C585.716826,197.787361 586.155298,197.93189 586.491238,198.09986 C586.827177,198.26783 587.076198,198.469976 587.238308,198.706305 C587.400418,198.942635 587.481472,199.230718 587.481472,199.570563 C587.481472,200.136972 587.254912,200.591069 586.801785,200.932868 C586.348657,201.274666 585.760773,201.445563 585.038113,201.445563 C584.530298,201.445563 584.081083,201.35572 583.690456,201.176032 C583.299829,200.996344 582.994168,200.745369 582.773464,200.423102 C582.55276,200.100835 582.44241,199.752206 582.44241,199.377204 L583.526394,199.377204 C583.545925,199.740487 583.691432,200.02857 583.962917,200.241462 C584.234403,200.454353 584.592798,200.560798 585.038113,200.560798 C585.448271,200.560798 585.777369,200.477791 586.025417,200.311774 C586.273465,200.145758 586.397488,199.92408 586.397488,199.646735 Z"/>
    <rect width="83" height="83" x="739" y="156.328" fill="#252C33"/>
    <path fill="#FFF" d="M768.730469,195.328376 L767.646484,195.328376 L767.646484,188.988532 L768.730469,188.988532 L768.730469,195.328376 Z M767.558594,187.306891 C767.558594,187.131109 767.612304,186.982673 767.719727,186.861579 C767.827149,186.740484 767.986327,186.679938 768.197266,186.679938 C768.408204,186.679938 768.568359,186.740484 768.677734,186.861579 C768.78711,186.982673 768.841797,187.131109 768.841797,187.306891 C768.841797,187.482673 768.78711,187.629156 768.677734,187.746344 C768.568359,187.863532 768.408204,187.922126 768.197266,187.922126 C767.986327,187.922126 767.827149,187.863532 767.719727,187.746344 C767.612304,187.629156 767.558594,187.482673 767.558594,187.306891 Z M771.490234,188.988532 L771.525391,189.785407 C772.009768,189.176029 772.642574,188.871344 773.423828,188.871344 C774.763679,188.871344 775.439453,189.627196 775.451172,191.138923 L775.451172,195.328376 L774.367188,195.328376 L774.367188,191.133063 C774.363281,190.67603 774.25879,190.338142 774.053711,190.119391 C773.848632,189.90064 773.529299,189.791266 773.095703,189.791266 C772.744139,189.791266 772.435548,189.885015 772.169922,190.072516 C771.904296,190.260017 771.697266,190.506109 771.548828,190.810798 L771.548828,195.328376 L770.464844,195.328376 L770.464844,188.988532 L771.490234,188.988532 Z M779.177734,193.857673 L780.748047,188.988532 L781.855469,188.988532 L779.582031,195.328376 L778.755859,195.328376 L776.458984,188.988532 L777.566406,188.988532 L779.177734,193.857673 Z M784.076172,195.328376 L782.992188,195.328376 L782.992188,188.988532 L784.076172,188.988532 L784.076172,195.328376 Z M782.904297,187.306891 C782.904297,187.131109 782.958007,186.982673 783.06543,186.861579 C783.172852,186.740484 783.33203,186.679938 783.542969,186.679938 C783.753907,186.679938 783.914062,186.740484 784.023438,186.861579 C784.132813,186.982673 784.1875,187.131109 784.1875,187.306891 C784.1875,187.482673 784.132813,187.629156 784.023438,187.746344 C783.914062,187.863532 783.753907,187.922126 783.542969,187.922126 C783.33203,187.922126 783.172852,187.863532 783.06543,187.746344 C782.958007,187.629156 782.904297,187.482673 782.904297,187.306891 Z M787.28125,187.453376 L787.28125,188.988532 L788.464844,188.988532 L788.464844,189.826423 L787.28125,189.826423 L787.28125,193.758063 C787.28125,194.011971 787.333984,194.202398 787.439453,194.329352 C787.544922,194.456306 787.724608,194.519782 787.978516,194.519782 C788.103516,194.519782 788.27539,194.496345 788.494141,194.449469 L788.494141,195.328376 C788.208983,195.406501 787.931642,195.445563 787.662109,195.445563 C787.177732,195.445563 786.812501,195.29908 786.566406,195.00611 C786.320311,194.71314 786.197266,194.297128 786.197266,193.758063 L786.197266,189.826423 L785.042969,189.826423 L785.042969,188.988532 L786.197266,188.988532 L786.197266,187.453376 L787.28125,187.453376 Z M792.361328,195.445563 C791.501949,195.445563 790.802737,195.163339 790.263672,194.598883 C789.724607,194.034428 789.455078,193.279552 789.455078,192.334235 L789.455078,192.135016 C789.455078,191.506107 789.575194,190.944589 789.81543,190.450446 C790.055665,189.956303 790.391599,189.569588 790.823242,189.29029 C791.254885,189.010991 791.722654,188.871344 792.226562,188.871344 C793.050785,188.871344 793.691404,189.142826 794.148438,189.685798 C794.605471,190.228769 794.833984,191.006105 794.833984,192.017829 L794.833984,192.469001 L790.539062,192.469001 C790.554688,193.094004 790.737303,193.598882 791.086914,193.983649 C791.436525,194.368417 791.880857,194.560798 792.419922,194.560798 C792.802736,194.560798 793.126952,194.482673 793.392578,194.326423 C793.658204,194.170172 793.890624,193.963143 794.089844,193.705329 L794.751953,194.220954 C794.2207,195.037364 793.423833,195.445563 792.361328,195.445563 Z M792.226562,189.761969 C791.78906,189.761969 791.421876,189.921147 791.125,190.239508 C790.828124,190.557869 790.644532,191.004154 790.574219,191.578376 L793.75,191.578376 L793.75,191.496344 C793.71875,190.94556 793.570314,190.518807 793.304688,190.216071 C793.039061,189.913335 792.67969,189.761969 792.226562,189.761969 Z M763.817383,209.328376 L763.817383,203.826423 L762.81543,203.826423 L762.81543,202.988532 L763.817383,202.988532 L763.817383,202.338141 C763.817383,201.65845 763.999022,201.133065 764.362305,200.761969 C764.725588,200.390874 765.239254,200.205329 765.90332,200.205329 C766.153322,200.205329 766.401366,200.238532 766.647461,200.304938 L766.588867,201.183844 C766.405273,201.148688 766.209962,201.13111 766.00293,201.13111 C765.651365,201.13111 765.379884,201.233648 765.188477,201.438727 C764.997069,201.643806 764.901367,201.937749 764.901367,202.320563 L764.901367,202.988532 L766.254883,202.988532 L766.254883,203.826423 L764.901367,203.826423 L764.901367,209.328376 L763.817383,209.328376 Z M770.514648,203.961188 C770.350585,203.933844 770.172853,203.920173 769.981445,203.920173 C769.270504,203.920173 768.788087,204.222904 768.53418,204.828376 L768.53418,209.328376 L767.450195,209.328376 L767.450195,202.988532 L768.504883,202.988532 L768.522461,203.720954 C768.877931,203.154545 769.381833,202.871344 770.03418,202.871344 C770.245118,202.871344 770.405273,202.898688 770.514648,202.953376 L770.514648,203.961188 Z M772.688477,209.328376 L771.604492,209.328376 L771.604492,202.988532 L772.688477,202.988532 L772.688477,209.328376 Z M771.516602,201.306891 C771.516602,201.131109 771.570312,200.982673 771.677734,200.861579 C771.785157,200.740484 771.944335,200.679938 772.155273,200.679938 C772.366212,200.679938 772.526367,200.740484 772.635742,200.861579 C772.745118,200.982673 772.799805,201.131109 772.799805,201.306891 C772.799805,201.482673 772.745118,201.629156 772.635742,201.746344 C772.526367,201.863532 772.366212,201.922126 772.155273,201.922126 C771.944335,201.922126 771.785157,201.863532 771.677734,201.746344 C771.570312,201.629156 771.516602,201.482673 771.516602,201.306891 Z M777.053711,209.445563 C776.194332,209.445563 775.49512,209.163339 774.956055,208.598883 C774.416989,208.034428 774.147461,207.279552 774.147461,206.334235 L774.147461,206.135016 C774.147461,205.506107 774.267577,204.944589 774.507812,204.450446 C774.748048,203.956303 775.083982,203.569588 775.515625,203.29029 C775.947268,203.010991 776.415037,202.871344 776.918945,202.871344 C777.743168,202.871344 778.383787,203.142826 778.84082,203.685798 C779.297854,204.228769 779.526367,205.006105 779.526367,206.017829 L779.526367,206.469001 L775.231445,206.469001 C775.24707,207.094004 775.429686,207.598882 775.779297,207.983649 C776.128908,208.368417 776.573239,208.560798 777.112305,208.560798 C777.495119,208.560798 777.819335,208.482673 778.084961,208.326423 C778.350587,208.170172 778.583007,207.963143 778.782227,207.705329 L779.444336,208.220954 C778.913083,209.037364 778.116216,209.445563 777.053711,209.445563 Z M776.918945,203.761969 C776.481443,203.761969 776.114259,203.921147 775.817383,204.239508 C775.520506,204.557869 775.336914,205.004154 775.266602,205.578376 L778.442383,205.578376 L778.442383,205.496344 C778.411133,204.94556 778.262697,204.518807 777.99707,204.216071 C777.731444,203.913335 777.372073,203.761969 776.918945,203.761969 Z M781.805664,202.988532 L781.84082,203.785407 C782.325198,203.176029 782.958004,202.871344 783.739258,202.871344 C785.079108,202.871344 785.754883,203.627196 785.766602,205.138923 L785.766602,209.328376 L784.682617,209.328376 L784.682617,205.133063 C784.678711,204.67603 784.57422,204.338142 784.369141,204.119391 C784.164061,203.90064 783.844729,203.791266 783.411133,203.791266 C783.059569,203.791266 782.750978,203.885015 782.485352,204.072516 C782.219725,204.260017 782.012696,204.506109 781.864258,204.810798 L781.864258,209.328376 L780.780273,209.328376 L780.780273,202.988532 L781.805664,202.988532 Z M787.137695,206.105719 C787.137695,205.133058 787.368162,204.35084 787.829102,203.75904 C788.290041,203.16724 788.893551,202.871344 789.639648,202.871344 C790.38184,202.871344 790.969724,203.125248 791.40332,203.633063 L791.40332,200.328376 L792.487305,200.328376 L792.487305,209.328376 L791.491211,209.328376 L791.438477,208.648688 C791.004881,209.179941 790.401371,209.445563 789.62793,209.445563 C788.893551,209.445563 788.294924,209.144785 787.832031,208.543219 C787.369138,207.941654 787.137695,207.156505 787.137695,206.187751 L787.137695,206.105719 Z M788.22168,206.228766 C788.22168,206.94752 788.370116,207.510014 788.666992,207.916266 C788.963869,208.322518 789.374021,208.525641 789.897461,208.525641 C790.584964,208.525641 791.086912,208.217051 791.40332,207.59986 L791.40332,204.687751 C791.0791,204.090091 790.581058,203.791266 789.90918,203.791266 C789.377927,203.791266 788.963869,203.996342 788.666992,204.406501 C788.370116,204.816659 788.22168,205.424075 788.22168,206.228766 Z M797.860352,207.646735 C797.860352,207.353765 797.750001,207.126228 797.529297,206.964118 C797.308593,206.802008 796.923831,206.662361 796.375,206.545173 C795.826169,206.427984 795.390627,206.287361 795.068359,206.123298 C794.746092,205.959234 794.507813,205.763924 794.353516,205.53736 C794.199218,205.310796 794.12207,205.041268 794.12207,204.728766 C794.12207,204.209232 794.341795,203.769784 794.78125,203.410407 C795.220705,203.05103 795.782223,202.871344 796.46582,202.871344 C797.184574,202.871344 797.767576,203.056889 798.214844,203.427985 C798.662112,203.799081 798.885742,204.273685 798.885742,204.851813 L797.795898,204.851813 C797.795898,204.554937 797.669923,204.29908 797.417969,204.084235 C797.166014,203.86939 796.848635,203.761969 796.46582,203.761969 C796.071287,203.761969 795.762696,203.847906 795.540039,204.019782 C795.317382,204.191658 795.206055,204.416265 795.206055,204.69361 C795.206055,204.95533 795.309569,205.152594 795.516602,205.285407 C795.723634,205.41822 796.097654,205.545172 796.638672,205.666266 C797.17969,205.787361 797.618162,205.93189 797.954102,206.09986 C798.290041,206.26783 798.539062,206.469976 798.701172,206.706305 C798.863282,206.942635 798.944336,207.230718 798.944336,207.570563 C798.944336,208.136972 798.717776,208.591069 798.264648,208.932868 C797.811521,209.274666 797.223636,209.445563 796.500977,209.445563 C795.993162,209.445563 795.543947,209.35572 795.15332,209.176032 C794.762693,208.996344 794.457032,208.745369 794.236328,208.423102 C794.015624,208.100835 793.905273,207.752206 793.905273,207.377204 L794.989258,207.377204 C795.008789,207.740487 795.154296,208.02857 795.425781,208.241462 C795.697267,208.454353 796.055662,208.560798 796.500977,208.560798 C796.911135,208.560798 797.240233,208.477791 797.488281,208.311774 C797.736329,208.145758 797.860352,207.92408 797.860352,207.646735 Z"/>
    <rect width="83" height="83" x="623" y="156.328" fill="#252C33"/>
    <path fill="#FFF" d="M634.522461,194.560798 C634.909182,194.560798 635.247069,194.443611 635.536133,194.209235 C635.825197,193.974859 635.985351,193.681893 636.016602,193.330329 L637.041992,193.330329 C637.022461,193.693612 636.897462,194.039312 636.666992,194.367438 C636.436522,194.695565 636.128908,194.957281 635.744141,195.152594 C635.359373,195.347908 634.952151,195.445563 634.522461,195.445563 C633.659175,195.445563 632.972659,195.15748 632.462891,194.581305 C631.953122,194.005131 631.698242,193.217053 631.698242,192.217048 L631.698242,192.035407 C631.698242,191.418216 631.811522,190.869394 632.038086,190.388923 C632.26465,189.908451 632.589842,189.535408 633.013672,189.269782 C633.437502,189.004156 633.938474,188.871344 634.516602,188.871344 C635.227543,188.871344 635.818357,189.084233 636.289062,189.510016 C636.759768,189.9358 637.010742,190.488529 637.041992,191.168219 L636.016602,191.168219 C635.985351,190.758061 635.83008,190.42115 635.550781,190.157477 C635.271483,189.893804 634.92676,189.761969 634.516602,189.761969 C633.965818,189.761969 633.539064,189.96021 633.236328,190.356696 C632.933592,190.753182 632.782227,191.326419 632.782227,192.076423 L632.782227,192.281501 C632.782227,193.011973 632.932616,193.574467 633.233398,193.969001 C633.534181,194.363534 633.963864,194.560798 634.522461,194.560798 Z M639.344727,189.75611 C639.825198,189.166263 640.450191,188.871344 641.219727,188.871344 C642.559577,188.871344 643.235352,189.627196 643.24707,191.138923 L643.24707,195.328376 L642.163086,195.328376 L642.163086,191.133063 C642.15918,190.67603 642.054689,190.338142 641.849609,190.119391 C641.64453,189.90064 641.325197,189.791266 640.891602,189.791266 C640.540037,189.791266 640.231447,189.885015 639.96582,190.072516 C639.700194,190.260017 639.493165,190.506109 639.344727,190.810798 L639.344727,195.328376 L638.260742,195.328376 L638.260742,186.328376 L639.344727,186.328376 L639.344727,189.75611 Z M644.583008,192.09986 C644.583008,191.478763 644.705077,190.920175 644.949219,190.424079 C645.193361,189.927983 645.533201,189.545174 645.96875,189.275641 C646.404299,189.006109 646.901364,188.871344 647.459961,188.871344 C648.323247,188.871344 649.021482,189.17017 649.554688,189.767829 C650.087893,190.365488 650.354492,191.160402 650.354492,192.152594 L650.354492,192.228766 C650.354492,192.845957 650.236329,193.399662 650,193.889899 C649.763671,194.380136 649.425783,194.761968 648.986328,195.035407 C648.546873,195.308846 648.041995,195.445563 647.47168,195.445563 C646.6123,195.445563 645.916018,195.146738 645.382812,194.549079 C644.849607,193.95142 644.583008,193.160412 644.583008,192.176032 L644.583008,192.09986 Z M645.672852,192.228766 C645.672852,192.931895 645.835936,193.496342 646.162109,193.922126 C646.488283,194.347909 646.924802,194.560798 647.47168,194.560798 C648.022464,194.560798 648.459959,194.344979 648.78418,193.913337 C649.1084,193.481694 649.270508,192.877208 649.270508,192.09986 C649.270508,191.404544 649.10547,190.841073 648.775391,190.40943 C648.445311,189.977788 648.006839,189.761969 647.459961,189.761969 C646.924802,189.761969 646.493166,189.974858 646.165039,190.400641 C645.836912,190.826425 645.672852,191.435794 645.672852,192.228766 Z M651.426758,192.09986 C651.426758,191.478763 651.548827,190.920175 651.792969,190.424079 C652.037111,189.927983 652.376951,189.545174 652.8125,189.275641 C653.248049,189.006109 653.745114,188.871344 654.303711,188.871344 C655.166997,188.871344 655.865232,189.17017 656.398438,189.767829 C656.931643,190.365488 657.198242,191.160402 657.198242,192.152594 L657.198242,192.228766 C657.198242,192.845957 657.080079,193.399662 656.84375,193.889899 C656.607421,194.380136 656.269533,194.761968 655.830078,195.035407 C655.390623,195.308846 654.885745,195.445563 654.31543,195.445563 C653.45605,195.445563 652.759768,195.146738 652.226562,194.549079 C651.693357,193.95142 651.426758,193.160412 651.426758,192.176032 L651.426758,192.09986 Z M652.516602,192.228766 C652.516602,192.931895 652.679686,193.496342 653.005859,193.922126 C653.332033,194.347909 653.768552,194.560798 654.31543,194.560798 C654.866214,194.560798 655.303709,194.344979 655.62793,193.913337 C655.95215,193.481694 656.114258,192.877208 656.114258,192.09986 C656.114258,191.404544 655.94922,190.841073 655.619141,190.40943 C655.289061,189.977788 654.850589,189.761969 654.303711,189.761969 C653.768552,189.761969 653.336916,189.974858 653.008789,190.400641 C652.680662,190.826425 652.516602,191.435794 652.516602,192.228766 Z M662.249023,193.646735 C662.249023,193.353765 662.138673,193.126228 661.917969,192.964118 C661.697265,192.802008 661.312503,192.662361 660.763672,192.545173 C660.214841,192.427984 659.779298,192.287361 659.457031,192.123298 C659.134764,191.959234 658.896485,191.763924 658.742188,191.53736 C658.58789,191.310796 658.510742,191.041268 658.510742,190.728766 C658.510742,190.209232 658.730467,189.769784 659.169922,189.410407 C659.609377,189.05103 660.170895,188.871344 660.854492,188.871344 C661.573246,188.871344 662.156248,189.056889 662.603516,189.427985 C663.050783,189.799081 663.274414,190.273685 663.274414,190.851813 L662.18457,190.851813 C662.18457,190.554937 662.058595,190.29908 661.806641,190.084235 C661.554686,189.86939 661.237307,189.761969 660.854492,189.761969 C660.459959,189.761969 660.151368,189.847906 659.928711,190.019782 C659.706054,190.191658 659.594727,190.416265 659.594727,190.69361 C659.594727,190.95533 659.698241,191.152594 659.905273,191.285407 C660.112306,191.41822 660.486325,191.545172 661.027344,191.666266 C661.568362,191.787361 662.006834,191.93189 662.342773,192.09986 C662.678713,192.26783 662.927734,192.469976 663.089844,192.706305 C663.251954,192.942635 663.333008,193.230718 663.333008,193.570563 C663.333008,194.136972 663.106448,194.591069 662.65332,194.932868 C662.200193,195.274666 661.612308,195.445563 660.889648,195.445563 C660.381833,195.445563 659.932619,195.35572 659.541992,195.176032 C659.151365,194.996344 658.845704,194.745369 658.625,194.423102 C658.404296,194.100835 658.293945,193.752206 658.293945,193.377204 L659.37793,193.377204 C659.397461,193.740487 659.542967,194.02857 659.814453,194.241462 C660.085939,194.454353 660.444334,194.560798 660.889648,194.560798 C661.299807,194.560798 661.628905,194.477791 661.876953,194.311774 C662.125001,194.145758 662.249023,193.92408 662.249023,193.646735 Z M667.375977,195.445563 C666.516597,195.445563 665.817386,195.163339 665.27832,194.598883 C664.739255,194.034428 664.469727,193.279552 664.469727,192.334235 L664.469727,192.135016 C664.469727,191.506107 664.589843,190.944589 664.830078,190.450446 C665.070314,189.956303 665.406248,189.569588 665.837891,189.29029 C666.269533,189.010991 666.737302,188.871344 667.241211,188.871344 C668.065434,188.871344 668.706052,189.142826 669.163086,189.685798 C669.620119,190.228769 669.848633,191.006105 669.848633,192.017829 L669.848633,192.469001 L665.553711,192.469001 C665.569336,193.094004 665.751951,193.598882 666.101562,193.983649 C666.451174,194.368417 666.895505,194.560798 667.43457,194.560798 C667.817385,194.560798 668.1416,194.482673 668.407227,194.326423 C668.672853,194.170172 668.905272,193.963143 669.104492,193.705329 L669.766602,194.220954 C669.235349,195.037364 668.438482,195.445563 667.375977,195.445563 Z M667.241211,189.761969 C666.803709,189.761969 666.436525,189.921147 666.139648,190.239508 C665.842772,190.557869 665.65918,191.004154 665.588867,191.578376 L668.764648,191.578376 L668.764648,191.496344 C668.733398,190.94556 668.584962,190.518807 668.319336,190.216071 C668.05371,189.913335 667.694338,189.761969 667.241211,189.761969 Z M674.606445,195.328376 L674.606445,189.826423 L673.604492,189.826423 L673.604492,188.988532 L674.606445,188.988532 L674.606445,188.338141 C674.606445,187.65845 674.788084,187.133065 675.151367,186.761969 C675.51465,186.390874 676.028317,186.205329 676.692383,186.205329 C676.942384,186.205329 677.190428,186.238532 677.436523,186.304938 L677.37793,187.183844 C677.194335,187.148688 676.999024,187.13111 676.791992,187.13111 C676.440428,187.13111 676.168946,187.233648 675.977539,187.438727 C675.786132,187.643806 675.69043,187.937749 675.69043,188.320563 L675.69043,188.988532 L677.043945,188.988532 L677.043945,189.826423 L675.69043,189.826423 L675.69043,195.328376 L674.606445,195.328376 Z M681.303711,189.961188 C681.139648,189.933844 680.961915,189.920173 680.770508,189.920173 C680.059567,189.920173 679.57715,190.222904 679.323242,190.828376 L679.323242,195.328376 L678.239258,195.328376 L678.239258,188.988532 L679.293945,188.988532 L679.311523,189.720954 C679.666994,189.154545 680.170895,188.871344 680.823242,188.871344 C681.034181,188.871344 681.194335,188.898688 681.303711,188.953376 L681.303711,189.961188 Z M682.012695,192.09986 C682.012695,191.478763 682.134764,190.920175 682.378906,190.424079 C682.623048,189.927983 682.962888,189.545174 683.398438,189.275641 C683.833987,189.006109 684.331052,188.871344 684.889648,188.871344 C685.752934,188.871344 686.451169,189.17017 686.984375,189.767829 C687.517581,190.365488 687.78418,191.160402 687.78418,192.152594 L687.78418,192.228766 C687.78418,192.845957 687.666017,193.399662 687.429688,193.889899 C687.193358,194.380136 686.855471,194.761968 686.416016,195.035407 C685.97656,195.308846 685.471683,195.445563 684.901367,195.445563 C684.041988,195.445563 683.345706,195.146738 682.8125,194.549079 C682.279294,193.95142 682.012695,193.160412 682.012695,192.176032 L682.012695,192.09986 Z M683.102539,192.228766 C683.102539,192.931895 683.265623,193.496342 683.591797,193.922126 C683.91797,194.347909 684.354489,194.560798 684.901367,194.560798 C685.452151,194.560798 685.889647,194.344979 686.213867,193.913337 C686.538088,193.481694 686.700195,192.877208 686.700195,192.09986 C686.700195,191.404544 686.535158,190.841073 686.205078,190.40943 C685.874998,189.977788 685.436526,189.761969 684.889648,189.761969 C684.35449,189.761969 683.922853,189.974858 683.594727,190.400641 C683.2666,190.826425 683.102539,191.435794 683.102539,192.228766 Z M690.163086,188.988532 L690.192383,189.691657 C690.657229,189.144779 691.284176,188.871344 692.073242,188.871344 C692.959965,188.871344 693.563475,189.211185 693.883789,189.890876 C694.094728,189.586187 694.369139,189.340095 694.707031,189.152594 C695.044924,188.965093 695.444334,188.871344 695.905273,188.871344 C697.295905,188.871344 698.00293,189.607665 698.026367,191.080329 L698.026367,195.328376 L696.942383,195.328376 L696.942383,191.144782 C696.942383,190.691655 696.838868,190.352791 696.631836,190.12818 C696.424804,189.90357 696.077151,189.791266 695.588867,189.791266 C695.186521,189.791266 694.85254,189.911382 694.586914,190.151618 C694.321288,190.391853 694.166992,190.715092 694.124023,191.121344 L694.124023,195.328376 L693.03418,195.328376 L693.03418,191.174079 C693.03418,190.252199 692.583012,189.791266 691.680664,189.791266 C690.969723,189.791266 690.4834,190.093998 690.22168,190.699469 L690.22168,195.328376 L689.137695,195.328376 L689.137695,188.988532 L690.163086,188.988532 Z M645.072266,208.560798 C645.458986,208.560798 645.796874,208.443611 646.085938,208.209235 C646.375001,207.974859 646.535156,207.681893 646.566406,207.330329 L647.591797,207.330329 C647.572266,207.693612 647.447267,208.039312 647.216797,208.367438 C646.986327,208.695565 646.678713,208.957281 646.293945,209.152594 C645.909178,209.347908 645.501955,209.445563 645.072266,209.445563 C644.20898,209.445563 643.522463,209.15748 643.012695,208.581305 C642.502927,208.005131 642.248047,207.217053 642.248047,206.217048 L642.248047,206.035407 C642.248047,205.418216 642.361327,204.869394 642.587891,204.388923 C642.814454,203.908451 643.139646,203.535408 643.563477,203.269782 C643.987307,203.004156 644.488278,202.871344 645.066406,202.871344 C645.777347,202.871344 646.368162,203.084233 646.838867,203.510016 C647.309573,203.9358 647.560547,204.488529 647.591797,205.168219 L646.566406,205.168219 C646.535156,204.758061 646.379884,204.42115 646.100586,204.157477 C645.821288,203.893804 645.476565,203.761969 645.066406,203.761969 C644.515622,203.761969 644.088869,203.96021 643.786133,204.356696 C643.483397,204.753182 643.332031,205.326419 643.332031,206.076423 L643.332031,206.281501 C643.332031,207.011973 643.48242,207.574467 643.783203,207.969001 C644.083986,208.363534 644.513669,208.560798 645.072266,208.560798 Z M648.523438,206.09986 C648.523438,205.478763 648.645507,204.920175 648.889648,204.424079 C649.13379,203.927983 649.473631,203.545174 649.90918,203.275641 C650.344729,203.006109 650.841794,202.871344 651.400391,202.871344 C652.263676,202.871344 652.961911,203.17017 653.495117,203.767829 C654.028323,204.365488 654.294922,205.160402 654.294922,206.152594 L654.294922,206.228766 C654.294922,206.845957 654.176759,207.399662 653.94043,207.889899 C653.7041,208.380136 653.366213,208.761968 652.926758,209.035407 C652.487302,209.308846 651.982425,209.445563 651.412109,209.445563 C650.55273,209.445563 649.856448,209.146738 649.323242,208.549079 C648.790036,207.95142 648.523438,207.160412 648.523438,206.176032 L648.523438,206.09986 Z M649.613281,206.228766 C649.613281,206.931895 649.776366,207.496342 650.102539,207.922126 C650.428713,208.347909 650.865232,208.560798 651.412109,208.560798 C651.962893,208.560798 652.400389,208.344979 652.724609,207.913337 C653.04883,207.481694 653.210938,206.877208 653.210938,206.09986 C653.210938,205.404544 653.0459,204.841073 652.71582,204.40943 C652.385741,203.977788 651.947268,203.761969 651.400391,203.761969 C650.865232,203.761969 650.433595,203.974858 650.105469,204.400641 C649.777342,204.826425 649.613281,205.435794 649.613281,206.228766 Z M656.679688,202.988532 L656.714844,203.785407 C657.199221,203.176029 657.832027,202.871344 658.613281,202.871344 C659.953132,202.871344 660.628906,203.627196 660.640625,205.138923 L660.640625,209.328376 L659.556641,209.328376 L659.556641,205.133063 C659.552734,204.67603 659.448243,204.338142 659.243164,204.119391 C659.038085,203.90064 658.718752,203.791266 658.285156,203.791266 C657.933592,203.791266 657.625001,203.885015 657.359375,204.072516 C657.093749,204.260017 656.886719,204.506109 656.738281,204.810798 L656.738281,209.328376 L655.654297,209.328376 L655.654297,202.988532 L656.679688,202.988532 Z M663.746094,201.453376 L663.746094,202.988532 L664.929688,202.988532 L664.929688,203.826423 L663.746094,203.826423 L663.746094,207.758063 C663.746094,208.011971 663.798828,208.202398 663.904297,208.329352 C664.009766,208.456306 664.189452,208.519782 664.443359,208.519782 C664.56836,208.519782 664.740233,208.496345 664.958984,208.449469 L664.958984,209.328376 C664.673827,209.406501 664.396486,209.445563 664.126953,209.445563 C663.642576,209.445563 663.277345,209.29908 663.03125,209.00611 C662.785155,208.71314 662.662109,208.297128 662.662109,207.758063 L662.662109,203.826423 L661.507812,203.826423 L661.507812,202.988532 L662.662109,202.988532 L662.662109,201.453376 L663.746094,201.453376 Z M670.109375,209.328376 C670.046875,209.203375 669.996094,208.980721 669.957031,208.660407 C669.453122,209.183847 668.851566,209.445563 668.152344,209.445563 C667.527341,209.445563 667.01465,209.268807 666.614258,208.91529 C666.213865,208.561772 666.013672,208.113535 666.013672,207.570563 C666.013672,206.910404 666.264646,206.397713 666.766602,206.032477 C667.268557,205.667241 667.974605,205.484626 668.884766,205.484626 L669.939453,205.484626 L669.939453,204.986579 C669.939453,204.607671 669.826173,204.305916 669.599609,204.081305 C669.373046,203.856695 669.039065,203.744391 668.597656,203.744391 C668.210936,203.744391 667.88672,203.842047 667.625,204.03736 C667.36328,204.232674 667.232422,204.468999 667.232422,204.746344 L666.142578,204.746344 C666.142578,204.429937 666.254882,204.124276 666.479492,203.829352 C666.704103,203.534429 667.008787,203.301033 667.393555,203.129157 C667.778322,202.957281 668.20117,202.871344 668.662109,202.871344 C669.392582,202.871344 669.964842,203.05396 670.378906,203.419196 C670.792971,203.784432 671.007812,204.287357 671.023438,204.927985 L671.023438,207.845954 C671.023438,208.427988 671.097656,208.890874 671.246094,209.234626 L671.246094,209.328376 L670.109375,209.328376 Z M668.310547,208.502204 C668.650392,208.502204 668.972655,208.414314 669.277344,208.238532 C669.582033,208.06275 669.802734,207.834236 669.939453,207.552985 L669.939453,206.252204 L669.089844,206.252204 C667.761712,206.252204 667.097656,206.640872 667.097656,207.418219 C667.097656,207.758065 667.210936,208.023687 667.4375,208.215094 C667.664064,208.406502 667.955076,208.502204 668.310547,208.502204 Z M675.265625,208.560798 C675.652346,208.560798 675.990233,208.443611 676.279297,208.209235 C676.568361,207.974859 676.728515,207.681893 676.759766,207.330329 L677.785156,207.330329 C677.765625,207.693612 677.640626,208.039312 677.410156,208.367438 C677.179686,208.695565 676.872072,208.957281 676.487305,209.152594 C676.102537,209.347908 675.695315,209.445563 675.265625,209.445563 C674.402339,209.445563 673.715823,209.15748 673.206055,208.581305 C672.696287,208.005131 672.441406,207.217053 672.441406,206.217048 L672.441406,206.035407 C672.441406,205.418216 672.554686,204.869394 672.78125,204.388923 C673.007814,203.908451 673.333006,203.535408 673.756836,203.269782 C674.180666,203.004156 674.681638,202.871344 675.259766,202.871344 C675.970707,202.871344 676.561521,203.084233 677.032227,203.510016 C677.502932,203.9358 677.753906,204.488529 677.785156,205.168219 L676.759766,205.168219 C676.728515,204.758061 676.573244,204.42115 676.293945,204.157477 C676.014647,203.893804 675.669924,203.761969 675.259766,203.761969 C674.708982,203.761969 674.282228,203.96021 673.979492,204.356696 C673.676756,204.753182 673.525391,205.326419 673.525391,206.076423 L673.525391,206.281501 C673.525391,207.011973 673.67578,207.574467 673.976562,207.969001 C674.277345,208.363534 674.707028,208.560798 675.265625,208.560798 Z M680.474609,201.453376 L680.474609,202.988532 L681.658203,202.988532 L681.658203,203.826423 L680.474609,203.826423 L680.474609,207.758063 C680.474609,208.011971 680.527343,208.202398 680.632812,208.329352 C680.738282,208.456306 680.917967,208.519782 681.171875,208.519782 C681.296876,208.519782 681.468749,208.496345 681.6875,208.449469 L681.6875,209.328376 C681.402342,209.406501 681.125001,209.445563 680.855469,209.445563 C680.371091,209.445563 680.005861,209.29908 679.759766,209.00611 C679.513671,208.71314 679.390625,208.297128 679.390625,207.758063 L679.390625,203.826423 L678.236328,203.826423 L678.236328,202.988532 L679.390625,202.988532 L679.390625,201.453376 L680.474609,201.453376 Z M686.615234,207.646735 C686.615234,207.353765 686.504884,207.126228 686.28418,206.964118 C686.063475,206.802008 685.678714,206.662361 685.129883,206.545173 C684.581052,206.427984 684.145509,206.287361 683.823242,206.123298 C683.500975,205.959234 683.262696,205.763924 683.108398,205.53736 C682.954101,205.310796 682.876953,205.041268 682.876953,204.728766 C682.876953,204.209232 683.096677,203.769784 683.536133,203.410407 C683.975588,203.05103 684.537106,202.871344 685.220703,202.871344 C685.939457,202.871344 686.522459,203.056889 686.969727,203.427985 C687.416994,203.799081 687.640625,204.273685 687.640625,204.851813 L686.550781,204.851813 C686.550781,204.554937 686.424806,204.29908 686.172852,204.084235 C685.920897,203.86939 685.603518,203.761969 685.220703,203.761969 C684.82617,203.761969 684.517579,203.847906 684.294922,204.019782 C684.072265,204.191658 683.960938,204.416265 683.960938,204.69361 C683.960938,204.95533 684.064452,205.152594 684.271484,205.285407 C684.478517,205.41822 684.852536,205.545172 685.393555,205.666266 C685.934573,205.787361 686.373045,205.93189 686.708984,206.09986 C687.044924,206.26783 687.293945,206.469976 687.456055,206.706305 C687.618165,206.942635 687.699219,207.230718 687.699219,207.570563 C687.699219,208.136972 687.472659,208.591069 687.019531,208.932868 C686.566404,209.274666 685.978519,209.445563 685.255859,209.445563 C684.748044,209.445563 684.29883,209.35572 683.908203,209.176032 C683.517576,208.996344 683.211915,208.745369 682.991211,208.423102 C682.770507,208.100835 682.660156,207.752206 682.660156,207.377204 L683.744141,207.377204 C683.763672,207.740487 683.909178,208.02857 684.180664,208.241462 C684.45215,208.454353 684.810545,208.560798 685.255859,208.560798 C685.666018,208.560798 685.995116,208.477791 686.243164,208.311774 C686.491212,208.145758 686.615234,207.92408 686.615234,207.646735 Z"/>
    <path fill="#ED9E9A" d="M412.842559 153.328376L392 153.328376 392 152.328376 412.842559 152.328376 412.842559 148.328376 421.842559 152.828376 412.842559 157.328376 412.842559 153.328376zM613.842559 197.328376L593 197.328376 593 196.328376 613.842559 196.328376 613.842559 192.328376 622.842559 196.828376 613.842559 201.328376 613.842559 197.328376z"/>
    <polyline stroke="#ED9E9A" points="514.462 152.328 539.461 152.328 539.461 197.328 563.462 197.328"/>
    <path fill="#ED9E9A" d="M730.5 198.328376L706 198.328376 706 197.328376 730.5 197.328376 730.5 193.328376 739.5 197.828376 730.5 202.328376 730.5 198.328376zM841.5 197.328376L823 197.328376 823 196.328376 841.5 196.328376 841.5 192.328376 850.5 196.828376 841.5 201.328376 841.5 197.328376zM951.5 197.328376L933 197.328376 933 196.328376 951.5 196.328376 951.5 192.328376 960.5 196.828376 951.5 201.328376 951.5 197.328376z"/>
    <ellipse cx="986.5" cy="196.5" fill="#252C33" rx="26.5" ry="18.5"/>
    <path fill="#FFF" d="M980.578125 200.117188C979.718746 200.117188 979.019534 199.834964 978.480469 199.270508 977.941404 198.706052 977.671875 197.951177 977.671875 197.005859L977.671875 196.806641C977.671875 196.177731 977.791991 195.616213 978.032227 195.12207 978.272462 194.627927 978.608396 194.241212 979.040039 193.961914 979.471682 193.682616 979.939451 193.542969 980.443359 193.542969 981.267582 193.542969 981.908201 193.81445 982.365234 194.357422 982.822268 194.900393 983.050781 195.677729 983.050781 196.689453L983.050781 197.140625 978.755859 197.140625C978.771484 197.765628 978.9541 198.270506 979.303711 198.655273 979.653322 199.040041 980.097654 199.232422 980.636719 199.232422 981.019533 199.232422 981.343749 199.154298 981.609375 198.998047 981.875001 198.841796 982.107421 198.634767 982.306641 198.376953L982.96875 198.892578C982.437497 199.708988 981.64063 200.117188 980.578125 200.117188zM980.443359 194.433594C980.005857 194.433594 979.638673 194.592772 979.341797 194.911133 979.04492 195.229494 978.861328 195.675778 978.791016 196.25L981.966797 196.25 981.966797 196.167969C981.935547 195.617185 981.787111 195.190431 981.521484 194.887695 981.255858 194.584959 980.896487 194.433594 980.443359 194.433594zM985.330078 193.660156L985.365234 194.457031C985.849612 193.847653 986.482418 193.542969 987.263672 193.542969 988.603522 193.542969 989.279297 194.298821 989.291016 195.810547L989.291016 200 988.207031 200 988.207031 195.804688C988.203125 195.347654 988.098634 195.009767 987.893555 194.791016 987.688476 194.572265 987.369143 194.462891 986.935547 194.462891 986.583983 194.462891 986.275392 194.55664 986.009766 194.744141 985.744139 194.931642 985.53711 195.177733 985.388672 195.482422L985.388672 200 984.304688 200 984.304688 193.660156 985.330078 193.660156zM990.662109 196.777344C990.662109 195.804683 990.892576 195.022464 991.353516 194.430664 991.814455 193.838864 992.417965 193.542969 993.164062 193.542969 993.906254 193.542969 994.494138 193.796872 994.927734 194.304688L994.927734 191 996.011719 191 996.011719 200 995.015625 200 994.962891 199.320312C994.529295 199.851565 993.925785 200.117188 993.152344 200.117188 992.417965 200.117188 991.819338 199.816409 991.356445 199.214844 990.893552 198.613278 990.662109 197.82813 990.662109 196.859375L990.662109 196.777344zM991.746094 196.900391C991.746094 197.619144 991.89453 198.181639 992.191406 198.587891 992.488283 198.994143 992.898435 199.197266 993.421875 199.197266 994.109378 199.197266 994.611327 198.888675 994.927734 198.271484L994.927734 195.359375C994.603514 194.761716 994.105472 194.462891 993.433594 194.462891 992.902341 194.462891 992.488283 194.667967 992.191406 195.078125 991.89453 195.488283 991.746094 196.095699 991.746094 196.900391zM452.097683 154.105719C452.097683 153.117433 452.326196 152.331308 452.78323 151.747321 453.240263 151.163334 453.845726 150.871344 454.599636 150.871344 455.373077 150.871344 455.976587 151.144779 456.410183 151.691657L456.462917 150.988532 457.453152 150.988532 457.453152 157.176032C457.453152 157.996349 457.20999 158.642826 456.72366 159.115485 456.237329 159.588144 455.584015 159.824469 454.763699 159.824469 454.306665 159.824469 453.859404 159.726814 453.421902 159.531501 452.9844 159.336187 452.650418 159.068612 452.419949 158.728766L452.982449 158.078376C453.447295 158.652597 454.015648 158.939704 454.687527 158.939704 455.214873 158.939704 455.626002 158.791268 455.920925 158.494391 456.215849 158.197515 456.363308 157.77955 456.363308 157.240485L456.363308 156.695563C455.929712 157.195566 455.337921 157.445563 454.587917 157.445563 453.845726 157.445563 453.245146 157.146738 452.78616 156.549079 452.327173 155.95142 452.097683 155.136975 452.097683 154.105719zM453.187527 154.228766C453.187527 154.943614 453.33401 155.505131 453.62698 155.913337 453.91995 156.321542 454.330102 156.525641 454.857449 156.525641 455.541046 156.525641 456.042994 156.215098 456.363308 155.594001L456.363308 152.699469C456.031275 152.093998 455.533233 151.791266 454.869167 151.791266 454.341821 151.791266 453.929716 151.996342 453.632839 152.406501 453.335963 152.816659 453.187527 153.424075 453.187527 154.228766zM458.800808 154.09986C458.800808 153.478763 458.922877 152.920175 459.167019 152.424079 459.411161 151.927983 459.751001 151.545174 460.18655 151.275641 460.622099 151.006109 461.119165 150.871344 461.677761 150.871344 462.541047 150.871344 463.239282 151.17017 463.772488 151.767829 464.305693 152.365488 464.572292 153.160402 464.572292 154.152594L464.572292 154.228766C464.572292 154.845957 464.454129 155.399662 464.2178 155.889899 463.981471 156.380136 463.643584 156.761968 463.204128 157.035407 462.764673 157.308846 462.259795 157.445563 461.68948 157.445563 460.830101 157.445563 460.133818 157.146738 459.600613 156.549079 459.067407 155.95142 458.800808 155.160412 458.800808 154.176032L458.800808 154.09986zM459.890652 154.228766C459.890652 154.931895 460.053736 155.496342 460.37991 155.922126 460.706083 156.347909 461.142602 156.560798 461.68948 156.560798 462.240264 156.560798 462.677759 156.344979 463.00198 155.913337 463.3262 155.481694 463.488308 154.877208 463.488308 154.09986 463.488308 153.404544 463.323271 152.841073 462.993191 152.40943 462.663111 151.977788 462.224639 151.761969 461.677761 151.761969 461.142602 151.761969 460.710966 151.974858 460.382839 152.400641 460.054713 152.826425 459.890652 153.435794 459.890652 154.228766zM465.644558 154.09986C465.644558 153.478763 465.766627 152.920175 466.010769 152.424079 466.254911 151.927983 466.594751 151.545174 467.0303 151.275641 467.465849 151.006109 467.962915 150.871344 468.521511 150.871344 469.384797 150.871344 470.083032 151.17017 470.616238 151.767829 471.149443 152.365488 471.416042 153.160402 471.416042 154.152594L471.416042 154.228766C471.416042 154.845957 471.297879 155.399662 471.06155 155.889899 470.825221 156.380136 470.487334 156.761968 470.047878 157.035407 469.608423 157.308846 469.103545 157.445563 468.53323 157.445563 467.673851 157.445563 466.977568 157.146738 466.444363 156.549079 465.911157 155.95142 465.644558 155.160412 465.644558 154.176032L465.644558 154.09986zM466.734402 154.228766C466.734402 154.931895 466.897486 155.496342 467.22366 155.922126 467.549833 156.347909 467.986352 156.560798 468.53323 156.560798 469.084014 156.560798 469.521509 156.344979 469.84573 155.913337 470.16995 155.481694 470.332058 154.877208 470.332058 154.09986 470.332058 153.404544 470.167021 152.841073 469.836941 152.40943 469.506861 151.977788 469.068389 151.761969 468.521511 151.761969 467.986352 151.761969 467.554716 151.974858 467.226589 152.400641 466.898463 152.826425 466.734402 153.435794 466.734402 154.228766zM472.511745 154.105719C472.511745 153.133058 472.742212 152.35084 473.203152 151.75904 473.664092 151.16724 474.267601 150.871344 475.013699 150.871344 475.75589 150.871344 476.343775 151.125248 476.77737 151.633063L476.77737 148.328376 477.861355 148.328376 477.861355 157.328376 476.865261 157.328376 476.812527 156.648688C476.378931 157.179941 475.775421 157.445563 475.00198 157.445563 474.267601 157.445563 473.668974 157.144785 473.206081 156.543219 472.743188 155.941654 472.511745 155.156505 472.511745 154.187751L472.511745 154.105719zM473.59573 154.228766C473.59573 154.94752 473.744166 155.510014 474.041042 155.916266 474.337919 156.322518 474.748071 156.525641 475.271511 156.525641 475.959015 156.525641 476.460963 156.217051 476.77737 155.59986L476.77737 152.687751C476.45315 152.090091 475.955108 151.791266 475.28323 151.791266 474.751977 151.791266 474.337919 151.996342 474.041042 152.406501 473.744166 152.816659 473.59573 153.424075 473.59573 154.228766zM480.81448 154.926032C480.822292 154.461186 480.875026 154.094002 480.972683 153.824469 481.07034 153.554937 481.269556 153.256112 481.570339 152.927985L482.337917 152.136969C482.666044 151.765874 482.830105 151.36744 482.830105 150.941657 482.830105 150.531499 482.722684 150.210213 482.507839 149.97779 482.292994 149.745367 481.980498 149.629157 481.570339 149.629157 481.1719 149.629157 480.85159 149.734625 480.609402 149.945563 480.367213 150.156502 480.24612 150.439702 480.24612 150.795173L479.162136 150.795173C479.169949 150.162357 479.395532 149.65162 479.838894 149.262946 480.282255 148.874272 480.859398 148.679938 481.570339 148.679938 482.308624 148.679938 482.883814 148.878178 483.295925 149.274665 483.708037 149.671151 483.914089 150.215091 483.914089 150.906501 483.914089 151.590098 483.597686 152.263919 482.96487 152.927985L482.326199 153.560798C482.041041 153.877205 481.898464 154.332279 481.898464 154.926032L480.81448 154.926032zM480.767605 156.783454C480.767605 156.607672 480.821315 156.460212 480.928738 156.341071 481.03616 156.22193 481.195338 156.16236 481.406277 156.16236 481.617215 156.16236 481.77737 156.22193 481.886745 156.341071 481.996121 156.460212 482.050808 156.607672 482.050808 156.783454 482.050808 156.959236 481.996121 157.104742 481.886745 157.219977 481.77737 157.335212 481.617215 157.392829 481.406277 157.392829 481.195338 157.392829 481.03616 157.335212 480.928738 157.219977 480.821315 157.104742 480.767605 156.959236 480.767605 156.783454z"/>
    <rect width="83" height="53" x="311" stroke="#ED9E9A"/>
    <path fill="#FE6763" d="M352.473633,17.9746094 L353.879883,15.6601562 L355.145508,15.6601562 L353.071289,18.7949219 L355.209961,22 L353.956055,22 L352.491211,19.6269531 L351.026367,22 L349.766602,22 L351.905273,18.7949219 L349.831055,15.6601562 L351.084961,15.6601562 L352.473633,17.9746094 Z M338.373047,35.2324219 C338.759768,35.2324219 339.097655,35.1152355 339.386719,34.8808594 C339.675783,34.6464832 339.835937,34.3535174 339.867188,34.0019531 L340.892578,34.0019531 C340.873047,34.3652362 340.748048,34.7109359 340.517578,35.0390625 C340.287108,35.3671891 339.979494,35.6289053 339.594727,35.8242188 C339.209959,36.0195322 338.802737,36.1171875 338.373047,36.1171875 C337.509761,36.1171875 336.823245,35.8291044 336.313477,35.2529297 C335.803708,34.6767549 335.548828,33.8886769 335.548828,32.8886719 L335.548828,32.7070312 C335.548828,32.0898407 335.662108,31.541018 335.888672,31.0605469 C336.115236,30.5800757 336.440428,30.2070326 336.864258,29.9414062 C337.288088,29.6757799 337.78906,29.5429688 338.367188,29.5429688 C339.078129,29.5429688 339.668943,29.7558572 340.139648,30.1816406 C340.610354,30.607424 340.861328,31.1601529 340.892578,31.8398438 L339.867188,31.8398438 C339.835937,31.4296854 339.680665,31.0927748 339.401367,30.8291016 C339.122069,30.5654284 338.777346,30.4335938 338.367188,30.4335938 C337.816403,30.4335938 337.38965,30.631834 337.086914,31.0283203 C336.784178,31.4248067 336.632812,31.9980431 336.632812,32.7480469 L336.632812,32.953125 C336.632812,33.6835974 336.783202,34.2460918 337.083984,34.640625 C337.384767,35.0351582 337.81445,35.2324219 338.373047,35.2324219 Z M346.025391,36 C345.96289,35.8749994 345.91211,35.6523454 345.873047,35.3320312 C345.369138,35.8554714 344.767582,36.1171875 344.068359,36.1171875 C343.443356,36.1171875 342.930666,35.9404315 342.530273,35.5869141 C342.129881,35.2333967 341.929688,34.785159 341.929688,34.2421875 C341.929688,33.5820279 342.180662,33.0693378 342.682617,32.7041016 C343.184573,32.3388654 343.89062,32.15625 344.800781,32.15625 L345.855469,32.15625 L345.855469,31.6582031 C345.855469,31.279295 345.742189,30.9775402 345.515625,30.7529297 C345.289061,30.5283192 344.95508,30.4160156 344.513672,30.4160156 C344.126951,30.4160156 343.802736,30.5136709 343.541016,30.7089844 C343.279296,30.9042979 343.148438,31.1406236 343.148438,31.4179688 L342.058594,31.4179688 C342.058594,31.1015609 342.170897,30.7958999 342.395508,30.5009766 C342.620118,30.2060532 342.924803,29.9726571 343.30957,29.8007812 C343.694338,29.6289054 344.117185,29.5429688 344.578125,29.5429688 C345.308597,29.5429688 345.880857,29.7255841 346.294922,30.0908203 C346.708986,30.4560565 346.923828,30.9589812 346.939453,31.5996094 L346.939453,34.5175781 C346.939453,35.0996123 347.013671,35.5624983 347.162109,35.90625 L347.162109,36 L346.025391,36 Z M344.226562,35.1738281 C344.566408,35.1738281 344.88867,35.0859384 345.193359,34.9101562 C345.498048,34.7343741 345.718749,34.5058608 345.855469,34.2246094 L345.855469,32.9238281 L345.005859,32.9238281 C343.677728,32.9238281 343.013672,33.3124961 343.013672,34.0898438 C343.013672,34.4296892 343.126952,34.6953115 343.353516,34.8867188 C343.580079,35.078126 343.871092,35.1738281 344.226562,35.1738281 Z M349.664062,29.6601562 L349.699219,30.4570312 C350.183596,29.8476532 350.816402,29.5429688 351.597656,29.5429688 C352.937507,29.5429688 353.613281,30.2988206 353.625,31.8105469 L353.625,36 L352.541016,36 L352.541016,31.8046875 C352.537109,31.347654 352.432618,31.0097667 352.227539,30.7910156 C352.02246,30.5722645 351.703127,30.4628906 351.269531,30.4628906 C350.917967,30.4628906 350.609376,30.5566397 350.34375,30.7441406 C350.078124,30.9316416 349.871094,31.1777329 349.722656,31.4824219 L349.722656,36 L348.638672,36 L348.638672,29.6601562 L349.664062,29.6601562 Z M357.802734,35.2324219 C358.189455,35.2324219 358.527342,35.1152355 358.816406,34.8808594 C359.10547,34.6464832 359.265625,34.3535174 359.296875,34.0019531 L360.322266,34.0019531 C360.302734,34.3652362 360.177736,34.7109359 359.947266,35.0390625 C359.716796,35.3671891 359.409182,35.6289053 359.024414,35.8242188 C358.639647,36.0195322 358.232424,36.1171875 357.802734,36.1171875 C356.939449,36.1171875 356.252932,35.8291044 355.743164,35.2529297 C355.233396,34.6767549 354.978516,33.8886769 354.978516,32.8886719 L354.978516,32.7070312 C354.978516,32.0898407 355.091796,31.541018 355.318359,31.0605469 C355.544923,30.5800757 355.870115,30.2070326 356.293945,29.9414062 C356.717776,29.6757799 357.218747,29.5429688 357.796875,29.5429688 C358.507816,29.5429688 359.09863,29.7558572 359.569336,30.1816406 C360.040041,30.607424 360.291015,31.1601529 360.322266,31.8398438 L359.296875,31.8398438 C359.265625,31.4296854 359.110353,31.0927748 358.831055,30.8291016 C358.551756,30.5654284 358.207033,30.4335938 357.796875,30.4335938 C357.246091,30.4335938 356.819337,30.631834 356.516602,31.0283203 C356.213866,31.4248067 356.0625,31.9980431 356.0625,32.7480469 L356.0625,32.953125 C356.0625,33.6835974 356.212889,34.2460918 356.513672,34.640625 C356.814455,35.0351582 357.244138,35.2324219 357.802734,35.2324219 Z M364.171875,36.1171875 C363.312496,36.1171875 362.613284,35.8349638 362.074219,35.2705078 C361.535154,34.7060519 361.265625,33.9511766 361.265625,33.0058594 L361.265625,32.8066406 C361.265625,32.1777312 361.385741,31.6162134 361.625977,31.1220703 C361.866212,30.6279272 362.202146,30.2412123 362.633789,29.9619141 C363.065432,29.6826158 363.533201,29.5429688 364.037109,29.5429688 C364.861332,29.5429688 365.501951,29.8144504 365.958984,30.3574219 C366.416018,30.9003933 366.644531,31.6777293 366.644531,32.6894531 L366.644531,33.140625 L362.349609,33.140625 C362.365234,33.7656281 362.54785,34.2705059 362.897461,34.6552734 C363.247072,35.040041 363.691404,35.2324219 364.230469,35.2324219 C364.613283,35.2324219 364.937499,35.1542977 365.203125,34.9980469 C365.468751,34.8417961 365.701171,34.6347669 365.900391,34.3769531 L366.5625,34.8925781 C366.031247,35.7089885 365.23438,36.1171875 364.171875,36.1171875 Z M364.037109,30.4335938 C363.599607,30.4335938 363.232423,30.5927718 362.935547,30.9111328 C362.63867,31.2294938 362.455078,31.6757784 362.384766,32.25 L365.560547,32.25 L365.560547,32.1679688 C365.529297,31.6171847 365.380861,31.1904312 365.115234,30.8876953 C364.849608,30.5849594 364.490237,30.4335938 364.037109,30.4335938 Z M369.076172,36 L367.992188,36 L367.992188,27 L369.076172,27 L369.076172,36 Z"/>
    <rect width="83" height="83" x="196" y="111.328" fill="#252C33"/>
    <rect width="83" height="83" x="83" y="111" fill="#252C33"/>
    <rect width="83" height="83" x="309" y="111.328" fill="#252C33"/>
    <path fill="#ED9E9A" d="M337 61.5055063L337 111 336 111 336 61.5055063 332 61.5055063 336.5 52.5055063 341 61.5055063 337 61.5055063zM124.5 102.5L124.5 27 124.5 26.5 125 26.5 311 26.5 311 27.5 125.5 27.5 125.5 102.5 129.5 102.5 125 111.5 120.5 102.5 124.5 102.5z"/>
    <ellipse cx="26.5" cy="152.828" fill="#252C33" rx="26.5" ry="18.5"/>
    <path fill="#FFF" d="M18.7041016 154.646735C18.7041016 154.353765 18.5937511 154.126228 18.3730469 153.964118 18.1523426 153.802008 17.7675809 153.662361 17.21875 153.545173 16.6699191 153.427984 16.2343766 153.287361 15.9121094 153.123298 15.5898421 152.959234 15.3515633 152.763924 15.1972656 152.53736 15.042968 152.310796 14.9658203 152.041268 14.9658203 151.728766 14.9658203 151.209232 15.1855447 150.769784 15.625 150.410407 16.0644553 150.05103 16.6259731 149.871344 17.3095703 149.871344 18.0283239 149.871344 18.6113259 150.056889 19.0585938 150.427985 19.5058616 150.799081 19.7294922 151.273685 19.7294922 151.851813L18.6396484 151.851813C18.6396484 151.554937 18.5136731 151.29908 18.2617188 151.084235 18.0097644 150.86939 17.6923847 150.761969 17.3095703 150.761969 16.9150371 150.761969 16.6064464 150.847906 16.3837891 151.019782 16.1611317 151.191658 16.0498047 151.416265 16.0498047 151.69361 16.0498047 151.95533 16.1533193 152.152594 16.3603516 152.285407 16.5673838 152.41822 16.9414035 152.545172 17.4824219 152.666266 18.0234402 152.787361 18.4619124 152.93189 18.7978516 153.09986 19.1337907 153.26783 19.3828117 153.469976 19.5449219 153.706305 19.7070321 153.942635 19.7880859 154.230718 19.7880859 154.570563 19.7880859 155.136972 19.5615257 155.591069 19.1083984 155.932868 18.6552712 156.274666 18.0673864 156.445563 17.3447266 156.445563 16.8369115 156.445563 16.3876973 156.35572 15.9970703 156.176032 15.6064434 155.996344 15.3007824 155.745369 15.0800781 155.423102 14.8593739 155.100835 14.7490234 154.752206 14.7490234 154.377204L15.8330078 154.377204C15.8525392 154.740487 15.9980455 155.02857 16.2695312 155.241462 16.541017 155.454353 16.8994118 155.560798 17.3447266 155.560798 17.7548849 155.560798 18.0839831 155.477791 18.3320312 155.311774 18.5800794 155.145758 18.7041016 154.92408 18.7041016 154.646735zM22.6708984 148.453376L22.6708984 149.988532 23.8544922 149.988532 23.8544922 150.826423 22.6708984 150.826423 22.6708984 154.758063C22.6708984 155.011971 22.7236323 155.202398 22.8291016 155.329352 22.9345708 155.456306 23.1142565 155.519782 23.3681641 155.519782 23.4931647 155.519782 23.665038 155.496345 23.8837891 155.449469L23.8837891 156.328376C23.5986314 156.406501 23.3212904 156.445563 23.0517578 156.445563 22.5673804 156.445563 22.2021497 156.29908 21.9560547 156.00611 21.7099597 155.71314 21.5869141 155.297128 21.5869141 154.758063L21.5869141 150.826423 20.4326172 150.826423 20.4326172 149.988532 21.5869141 149.988532 21.5869141 148.453376 22.6708984 148.453376zM29.0341797 156.328376C28.9716794 156.203375 28.9208986 155.980721 28.8818359 155.660407 28.3779272 156.183847 27.7763707 156.445563 27.0771484 156.445563 26.4521453 156.445563 25.9394551 156.268807 25.5390625 155.91529 25.1386699 155.561772 24.9384766 155.113535 24.9384766 154.570563 24.9384766 153.910404 25.1894506 153.397713 25.6914062 153.032477 26.1933619 152.667241 26.8994095 152.484626 27.8095703 152.484626L28.8642578 152.484626 28.8642578 151.986579C28.8642578 151.607671 28.7509777 151.305916 28.5244141 151.081305 28.2978504 150.856695 27.9638694 150.744391 27.5224609 150.744391 27.1357403 150.744391 26.8115247 150.842047 26.5498047 151.03736 26.2880846 151.232674 26.1572266 151.468999 26.1572266 151.746344L25.0673828 151.746344C25.0673828 151.429937 25.1796864 151.124276 25.4042969 150.829352 25.6289074 150.534429 25.9335918 150.301033 26.3183594 150.129157 26.7031269 149.957281 27.1259743 149.871344 27.5869141 149.871344 28.3173865 149.871344 28.8896464 150.05396 29.3037109 150.419196 29.7177755 150.784432 29.9326171 151.287357 29.9482422 151.927985L29.9482422 154.845954C29.9482422 155.427988 30.0224602 155.890874 30.1708984 156.234626L30.1708984 156.328376 29.0341797 156.328376zM27.2353516 155.502204C27.575197 155.502204 27.8974594 155.414314 28.2021484 155.238532 28.5068375 155.06275 28.7275384 154.834236 28.8642578 154.552985L28.8642578 153.252204 28.0146484 153.252204C26.6865168 153.252204 26.0224609 153.640872 26.0224609 154.418219 26.0224609 154.758065 26.1357411 155.023687 26.3623047 155.215094 26.5888683 155.406502 26.879881 155.502204 27.2353516 155.502204zM34.7119141 150.961188C34.5478507 150.933844 34.3701181 150.920173 34.1787109 150.920173 33.4677699 150.920173 32.9853528 151.222904 32.7314453 151.828376L32.7314453 156.328376 31.6474609 156.328376 31.6474609 149.988532 32.7021484 149.988532 32.7197266 150.720954C33.0751971 150.154545 33.5790983 149.871344 34.2314453 149.871344 34.4423839 149.871344 34.6025385 149.898688 34.7119141 149.953376L34.7119141 150.961188zM37.1787109 148.453376L37.1787109 149.988532 38.3623047 149.988532 38.3623047 150.826423 37.1787109 150.826423 37.1787109 154.758063C37.1787109 155.011971 37.2314448 155.202398 37.3369141 155.329352 37.4423833 155.456306 37.622069 155.519782 37.8759766 155.519782 38.0009772 155.519782 38.1728505 155.496345 38.3916016 155.449469L38.3916016 156.328376C38.1064439 156.406501 37.8291029 156.445563 37.5595703 156.445563 37.0751929 156.445563 36.7099622 156.29908 36.4638672 156.00611 36.2177722 155.71314 36.0947266 155.297128 36.0947266 154.758063L36.0947266 150.826423 34.9404297 150.826423 34.9404297 149.988532 36.0947266 149.988532 36.0947266 148.453376 37.1787109 148.453376zM224.611328 149.560798C224.998049 149.560798 225.335936 149.443611 225.625 149.209235 225.914064 148.974859 226.074219 148.681893 226.105469 148.330329L227.130859 148.330329C227.111328 148.693612 226.986329 149.039312 226.755859 149.367438 226.525389 149.695565 226.217775 149.957281 225.833008 150.152594 225.44824 150.347908 225.041018 150.445563 224.611328 150.445563 223.748043 150.445563 223.061526 150.15748 222.551758 149.581305 222.04199 149.005131 221.787109 148.217053 221.787109 147.217048L221.787109 147.035407C221.787109 146.418216 221.900389 145.869394 222.126953 145.388923 222.353517 144.908451 222.678709 144.535408 223.102539 144.269782 223.526369 144.004156 224.027341 143.871344 224.605469 143.871344 225.31641 143.871344 225.907224 144.084233 226.37793 144.510016 226.848635 144.9358 227.099609 145.488529 227.130859 146.168219L226.105469 146.168219C226.074219 145.758061 225.918947 145.42115 225.639648 145.157477 225.36035 144.893804 225.015627 144.761969 224.605469 144.761969 224.054685 144.761969 223.627931 144.96021 223.325195 145.356696 223.022459 145.753182 222.871094 146.326419 222.871094 147.076423L222.871094 147.281501C222.871094 148.011973 223.021483 148.574467 223.322266 148.969001 223.623048 149.363534 224.052732 149.560798 224.611328 149.560798zM231.414062 144.961188C231.249999 144.933844 231.072267 144.920173 230.880859 144.920173 230.169918 144.920173 229.687501 145.222904 229.433594 145.828376L229.433594 150.328376 228.349609 150.328376 228.349609 143.988532 229.404297 143.988532 229.421875 144.720954C229.777346 144.154545 230.281247 143.871344 230.933594 143.871344 231.144532 143.871344 231.304687 143.898688 231.414062 143.953376L231.414062 144.961188zM235.041016 150.445563C234.181636 150.445563 233.482425 150.163339 232.943359 149.598883 232.404294 149.034428 232.134766 148.279552 232.134766 147.334235L232.134766 147.135016C232.134766 146.506107 232.254882 145.944589 232.495117 145.450446 232.735353 144.956303 233.071287 144.569588 233.50293 144.29029 233.934572 144.010991 234.402341 143.871344 234.90625 143.871344 235.730473 143.871344 236.371091 144.142826 236.828125 144.685798 237.285159 145.228769 237.513672 146.006105 237.513672 147.017829L237.513672 147.469001 233.21875 147.469001C233.234375 148.094004 233.41699 148.598882 233.766602 148.983649 234.116213 149.368417 234.560544 149.560798 235.099609 149.560798 235.482424 149.560798 235.806639 149.482673 236.072266 149.326423 236.337892 149.170172 236.570312 148.963143 236.769531 148.705329L237.431641 149.220954C236.900388 150.037364 236.103521 150.445563 235.041016 150.445563zM234.90625 144.761969C234.468748 144.761969 234.101564 144.921147 233.804688 145.239508 233.507811 145.557869 233.324219 146.004154 233.253906 146.578376L236.429688 146.578376 236.429688 146.496344C236.398437 145.94556 236.250001 145.518807 235.984375 145.216071 235.718749 144.913335 235.359377 144.761969 234.90625 144.761969zM242.681641 150.328376C242.61914 150.203375 242.56836 149.980721 242.529297 149.660407 242.025388 150.183847 241.423832 150.445563 240.724609 150.445563 240.099606 150.445563 239.586916 150.268807 239.186523 149.91529 238.786131 149.561772 238.585938 149.113535 238.585938 148.570563 238.585938 147.910404 238.836912 147.397713 239.338867 147.032477 239.840823 146.667241 240.54687 146.484626 241.457031 146.484626L242.511719 146.484626 242.511719 145.986579C242.511719 145.607671 242.398439 145.305916 242.171875 145.081305 241.945311 144.856695 241.61133 144.744391 241.169922 144.744391 240.783201 144.744391 240.458986 144.842047 240.197266 145.03736 239.935546 145.232674 239.804688 145.468999 239.804688 145.746344L238.714844 145.746344C238.714844 145.429937 238.827147 145.124276 239.051758 144.829352 239.276368 144.534429 239.581053 144.301033 239.96582 144.129157 240.350588 143.957281 240.773435 143.871344 241.234375 143.871344 241.964847 143.871344 242.537107 144.05396 242.951172 144.419196 243.365236 144.784432 243.580078 145.287357 243.595703 145.927985L243.595703 148.845954C243.595703 149.427988 243.669921 149.890874 243.818359 150.234626L243.818359 150.328376 242.681641 150.328376zM240.882812 149.502204C241.222658 149.502204 241.54492 149.414314 241.849609 149.238532 242.154298 149.06275 242.374999 148.834236 242.511719 148.552985L242.511719 147.252204 241.662109 147.252204C240.333978 147.252204 239.669922 147.640872 239.669922 148.418219 239.669922 148.758065 239.783202 149.023687 240.009766 149.215094 240.236329 149.406502 240.527342 149.502204 240.882812 149.502204zM246.765625 142.453376L246.765625 143.988532 247.949219 143.988532 247.949219 144.826423 246.765625 144.826423 246.765625 148.758063C246.765625 149.011971 246.818359 149.202398 246.923828 149.329352 247.029297 149.456306 247.208983 149.519782 247.462891 149.519782 247.587891 149.519782 247.759765 149.496345 247.978516 149.449469L247.978516 150.328376C247.693358 150.406501 247.416017 150.445563 247.146484 150.445563 246.662107 150.445563 246.296876 150.29908 246.050781 150.00611 245.804686 149.71314 245.681641 149.297128 245.681641 148.758063L245.681641 144.826423 244.527344 144.826423 244.527344 143.988532 245.681641 143.988532 245.681641 142.453376 246.765625 142.453376zM251.845703 150.445563C250.986324 150.445563 250.287112 150.163339 249.748047 149.598883 249.208982 149.034428 248.939453 148.279552 248.939453 147.334235L248.939453 147.135016C248.939453 146.506107 249.059569 145.944589 249.299805 145.450446 249.54004 144.956303 249.875974 144.569588 250.307617 144.29029 250.73926 144.010991 251.207029 143.871344 251.710938 143.871344 252.53516 143.871344 253.175779 144.142826 253.632812 144.685798 254.089846 145.228769 254.318359 146.006105 254.318359 147.017829L254.318359 147.469001 250.023438 147.469001C250.039063 148.094004 250.221678 148.598882 250.571289 148.983649 250.9209 149.368417 251.365232 149.560798 251.904297 149.560798 252.287111 149.560798 252.611327 149.482673 252.876953 149.326423 253.142579 149.170172 253.374999 148.963143 253.574219 148.705329L254.236328 149.220954C253.705075 150.037364 252.908208 150.445563 251.845703 150.445563zM251.710938 144.761969C251.273435 144.761969 250.906251 144.921147 250.609375 145.239508 250.312499 145.557869 250.128907 146.004154 250.058594 146.578376L253.234375 146.578376 253.234375 146.496344C253.203125 145.94556 253.054689 145.518807 252.789062 145.216071 252.523436 144.913335 252.164065 144.761969 251.710938 144.761969zM226.916992 164.445563C226.057613 164.445563 225.358401 164.163339 224.819336 163.598883 224.280271 163.034428 224.010742 162.279552 224.010742 161.334235L224.010742 161.135016C224.010742 160.506107 224.130858 159.944589 224.371094 159.450446 224.611329 158.956303 224.947263 158.569588 225.378906 158.29029 225.810549 158.010991 226.278318 157.871344 226.782227 157.871344 227.606449 157.871344 228.247068 158.142826 228.704102 158.685798 229.161135 159.228769 229.389648 160.006105 229.389648 161.017829L229.389648 161.469001 225.094727 161.469001C225.110352 162.094004 225.292967 162.598882 225.642578 162.983649 225.992189 163.368417 226.436521 163.560798 226.975586 163.560798 227.3584 163.560798 227.682616 163.482673 227.948242 163.326423 228.213869 163.170172 228.446288 162.963143 228.645508 162.705329L229.307617 163.220954C228.776365 164.037364 227.979498 164.445563 226.916992 164.445563zM226.782227 158.761969C226.344724 158.761969 225.977541 158.921147 225.680664 159.239508 225.383788 159.557869 225.200196 160.004154 225.129883 160.578376L228.305664 160.578376 228.305664 160.496344C228.274414 159.94556 228.125978 159.518807 227.860352 159.216071 227.594725 158.913335 227.235354 158.761969 226.782227 158.761969zM232.735352 162.857673L234.305664 157.988532 235.413086 157.988532 233.139648 164.328376 232.313477 164.328376 230.016602 157.988532 231.124023 157.988532 232.735352 162.857673zM239.086914 164.445563C238.227535 164.445563 237.528323 164.163339 236.989258 163.598883 236.450193 163.034428 236.180664 162.279552 236.180664 161.334235L236.180664 161.135016C236.180664 160.506107 236.30078 159.944589 236.541016 159.450446 236.781251 158.956303 237.117185 158.569588 237.548828 158.29029 237.980471 158.010991 238.44824 157.871344 238.952148 157.871344 239.776371 157.871344 240.41699 158.142826 240.874023 158.685798 241.331057 159.228769 241.55957 160.006105 241.55957 161.017829L241.55957 161.469001 237.264648 161.469001C237.280274 162.094004 237.462889 162.598882 237.8125 162.983649 238.162111 163.368417 238.606443 163.560798 239.145508 163.560798 239.528322 163.560798 239.852538 163.482673 240.118164 163.326423 240.38379 163.170172 240.61621 162.963143 240.81543 162.705329L241.477539 163.220954C240.946286 164.037364 240.149419 164.445563 239.086914 164.445563zM238.952148 158.761969C238.514646 158.761969 238.147462 158.921147 237.850586 159.239508 237.553709 159.557869 237.370118 160.004154 237.299805 160.578376L240.475586 160.578376 240.475586 160.496344C240.444336 159.94556 240.2959 159.518807 240.030273 159.216071 239.764647 158.913335 239.405276 158.761969 238.952148 158.761969zM243.838867 157.988532L243.874023 158.785407C244.358401 158.176029 244.991207 157.871344 245.772461 157.871344 247.112311 157.871344 247.788086 158.627196 247.799805 160.138923L247.799805 164.328376 246.71582 164.328376 246.71582 160.133063C246.711914 159.67603 246.607423 159.338142 246.402344 159.119391 246.197265 158.90064 245.877932 158.791266 245.444336 158.791266 245.092772 158.791266 244.784181 158.885015 244.518555 159.072516 244.252928 159.260017 244.045899 159.506109 243.897461 159.810798L243.897461 164.328376 242.813477 164.328376 242.813477 157.988532 243.838867 157.988532zM250.905273 156.453376L250.905273 157.988532 252.088867 157.988532 252.088867 158.826423 250.905273 158.826423 250.905273 162.758063C250.905273 163.011971 250.958007 163.202398 251.063477 163.329352 251.168946 163.456306 251.348632 163.519782 251.602539 163.519782 251.72754 163.519782 251.899413 163.496345 252.118164 163.449469L252.118164 164.328376C251.833006 164.406501 251.555665 164.445563 251.286133 164.445563 250.801755 164.445563 250.436525 164.29908 250.19043 164.00611 249.944335 163.71314 249.821289 163.297128 249.821289 162.758063L249.821289 158.826423 248.666992 158.826423 248.666992 157.988532 249.821289 157.988532 249.821289 156.453376 250.905273 156.453376zM110.823242 157.117188C109.963863 157.117188 109.264651 156.834964 108.725586 156.270508 108.186521 155.706052 107.916992 154.951177 107.916992 154.005859L107.916992 153.806641C107.916992 153.177731 108.037108 152.616213 108.277344 152.12207 108.517579 151.627927 108.853513 151.241212 109.285156 150.961914 109.716799 150.682616 110.184568 150.542969 110.688477 150.542969 111.512699 150.542969 112.153318 150.81445 112.610352 151.357422 113.067385 151.900393 113.295898 152.677729 113.295898 153.689453L113.295898 154.140625 109.000977 154.140625C109.016602 154.765628 109.199217 155.270506 109.548828 155.655273 109.898439 156.040041 110.342771 156.232422 110.881836 156.232422 111.26465 156.232422 111.588866 156.154298 111.854492 155.998047 112.120119 155.841796 112.352538 155.634767 112.551758 155.376953L113.213867 155.892578C112.682615 156.708988 111.885748 157.117188 110.823242 157.117188zM110.688477 151.433594C110.250974 151.433594 109.883791 151.592772 109.586914 151.911133 109.290038 152.229494 109.106446 152.675778 109.036133 153.25L112.211914 153.25 112.211914 153.167969C112.180664 152.617185 112.032228 152.190431 111.766602 151.887695 111.500975 151.584959 111.141604 151.433594 110.688477 151.433594zM116.641602 155.529297L118.211914 150.660156 119.319336 150.660156 117.045898 157 116.219727 157 113.922852 150.660156 115.030273 150.660156 116.641602 155.529297zM122.993164 157.117188C122.133785 157.117188 121.434573 156.834964 120.895508 156.270508 120.356443 155.706052 120.086914 154.951177 120.086914 154.005859L120.086914 153.806641C120.086914 153.177731 120.20703 152.616213 120.447266 152.12207 120.687501 151.627927 121.023435 151.241212 121.455078 150.961914 121.886721 150.682616 122.35449 150.542969 122.858398 150.542969 123.682621 150.542969 124.32324 150.81445 124.780273 151.357422 125.237307 151.900393 125.46582 152.677729 125.46582 153.689453L125.46582 154.140625 121.170898 154.140625C121.186524 154.765628 121.369139 155.270506 121.71875 155.655273 122.068361 156.040041 122.512693 156.232422 123.051758 156.232422 123.434572 156.232422 123.758788 156.154298 124.024414 155.998047 124.29004 155.841796 124.52246 155.634767 124.72168 155.376953L125.383789 155.892578C124.852536 156.708988 124.055669 157.117188 122.993164 157.117188zM122.858398 151.433594C122.420896 151.433594 122.053712 151.592772 121.756836 151.911133 121.459959 152.229494 121.276368 152.675778 121.206055 153.25L124.381836 153.25 124.381836 153.167969C124.350586 152.617185 124.20215 152.190431 123.936523 151.887695 123.670897 151.584959 123.311526 151.433594 122.858398 151.433594zM127.745117 150.660156L127.780273 151.457031C128.264651 150.847653 128.897457 150.542969 129.678711 150.542969 131.018561 150.542969 131.694336 151.298821 131.706055 152.810547L131.706055 157 130.62207 157 130.62207 152.804688C130.618164 152.347654 130.513673 152.009767 130.308594 151.791016 130.103515 151.572265 129.784182 151.462891 129.350586 151.462891 128.999022 151.462891 128.690431 151.55664 128.424805 151.744141 128.159178 151.931642 127.952149 152.177733 127.803711 152.482422L127.803711 157 126.719727 157 126.719727 150.660156 127.745117 150.660156zM134.811523 149.125L134.811523 150.660156 135.995117 150.660156 135.995117 151.498047 134.811523 151.498047 134.811523 155.429688C134.811523 155.683595 134.864257 155.874023 134.969727 156.000977 135.075196 156.12793 135.254882 156.191406 135.508789 156.191406 135.63379 156.191406 135.805663 156.167969 136.024414 156.121094L136.024414 157C135.739256 157.078125 135.461915 157.117188 135.192383 157.117188 134.708005 157.117188 134.342775 156.970705 134.09668 156.677734 133.850585 156.384764 133.727539 155.968753 133.727539 155.429688L133.727539 151.498047 132.573242 151.498047 132.573242 150.660156 133.727539 150.660156 133.727539 149.125 134.811523 149.125zM140.952148 155.318359C140.952148 155.025389 140.841798 154.797852 140.621094 154.635742 140.40039 154.473632 140.015628 154.333985 139.466797 154.216797 138.917966 154.099609 138.482423 153.958985 138.160156 153.794922 137.837889 153.630859 137.59961 153.435548 137.445312 153.208984 137.291015 152.982421 137.213867 152.712892 137.213867 152.400391 137.213867 151.880857 137.433592 151.441408 137.873047 151.082031 138.312502 150.722654 138.87402 150.542969 139.557617 150.542969 140.276371 150.542969 140.859373 150.728514 141.306641 151.099609 141.753908 151.470705 141.977539 151.94531 141.977539 152.523438L140.887695 152.523438C140.887695 152.226561 140.76172 151.970704 140.509766 151.755859 140.257811 151.541015 139.940432 151.433594 139.557617 151.433594 139.163084 151.433594 138.854493 151.51953 138.631836 151.691406 138.409179 151.863282 138.297852 152.087889 138.297852 152.365234 138.297852 152.626954 138.401366 152.824218 138.608398 152.957031 138.815431 153.089844 139.18945 153.216796 139.730469 153.337891 140.271487 153.458985 140.709959 153.603515 141.045898 153.771484 141.381838 153.939454 141.630859 154.1416 141.792969 154.37793 141.955079 154.614259 142.036133 154.902342 142.036133 155.242188 142.036133 155.808597 141.809573 156.262694 141.356445 156.604492 140.903318 156.946291 140.315433 157.117188 139.592773 157.117188 139.084958 157.117188 138.635744 157.027345 138.245117 156.847656 137.85449 156.667968 137.548829 156.416994 137.328125 156.094727 137.107421 155.772459 136.99707 155.42383 136.99707 155.048828L138.081055 155.048828C138.100586 155.412111 138.246092 155.700194 138.517578 155.913086 138.789064 156.125978 139.147459 156.232422 139.592773 156.232422 140.002932 156.232422 140.33203 156.149415 140.580078 155.983398 140.828126 155.817382 140.952148 155.595705 140.952148 155.318359zM336.164062 141.217048L336.785156 141.638923C336.421873 142.135019 336.234375 142.67017 336.222656 143.244391L336.222656 144.041266 335.144531 144.041266 335.144531 143.361579C335.144531 142.963139 335.239257 142.568612 335.428711 142.177985 335.618165 141.787358 335.86328 141.467049 336.164062 141.217048zM338.009766 141.217048L338.630859 141.638923C338.267576 142.135019 338.080078 142.67017 338.068359 143.244391L338.068359 144.041266 336.990234 144.041266 336.990234 143.361579C336.990234 142.963139 337.08496 142.568612 337.274414 142.177985 337.463868 141.787358 337.708983 141.467049 338.009766 141.217048zM339.333984 147.105719C339.333984 146.133058 339.564451 145.35084 340.025391 144.75904 340.48633 144.16724 341.08984 143.871344 341.835938 143.871344 342.578129 143.871344 343.166013 144.125248 343.599609 144.633063L343.599609 141.328376 344.683594 141.328376 344.683594 150.328376 343.6875 150.328376 343.634766 149.648688C343.20117 150.179941 342.59766 150.445563 341.824219 150.445563 341.08984 150.445563 340.491213 150.144785 340.02832 149.543219 339.565427 148.941654 339.333984 148.156505 339.333984 147.187751L339.333984 147.105719zM340.417969 147.228766C340.417969 147.94752 340.566405 148.510014 340.863281 148.916266 341.160158 149.322518 341.57031 149.525641 342.09375 149.525641 342.781253 149.525641 343.283202 149.217051 343.599609 148.59986L343.599609 145.687751C343.275389 145.090091 342.777347 144.791266 342.105469 144.791266 341.574216 144.791266 341.160158 144.996342 340.863281 145.406501 340.566405 145.816659 340.417969 146.424075 340.417969 147.228766zM349.429688 144.961188C349.265624 144.933844 349.087892 144.920173 348.896484 144.920173 348.185543 144.920173 347.703126 145.222904 347.449219 145.828376L347.449219 150.328376 346.365234 150.328376 346.365234 143.988532 347.419922 143.988532 347.4375 144.720954C347.792971 144.154545 348.296872 143.871344 348.949219 143.871344 349.160157 143.871344 349.320312 143.898688 349.429688 143.953376L349.429688 144.961188zM350.138672 147.09986C350.138672 146.478763 350.260741 145.920175 350.504883 145.424079 350.749025 144.927983 351.088865 144.545174 351.524414 144.275641 351.959963 144.006109 352.457028 143.871344 353.015625 143.871344 353.878911 143.871344 354.577146 144.17017 355.110352 144.767829 355.643557 145.365488 355.910156 146.160402 355.910156 147.152594L355.910156 147.228766C355.910156 147.845957 355.791993 148.399662 355.555664 148.889899 355.319335 149.380136 354.981448 149.761968 354.541992 150.035407 354.102537 150.308846 353.597659 150.445563 353.027344 150.445563 352.167964 150.445563 351.471682 150.146738 350.938477 149.549079 350.405271 148.95142 350.138672 148.160412 350.138672 147.176032L350.138672 147.09986zM351.228516 147.228766C351.228516 147.931895 351.3916 148.496342 351.717773 148.922126 352.043947 149.347909 352.480466 149.560798 353.027344 149.560798 353.578128 149.560798 354.015623 149.344979 354.339844 148.913337 354.664064 148.481694 354.826172 147.877208 354.826172 147.09986 354.826172 146.404544 354.661134 145.841073 354.331055 145.40943 354.000975 144.977788 353.562503 144.761969 353.015625 144.761969 352.480466 144.761969 352.04883 144.974858 351.720703 145.400641 351.392576 145.826425 351.228516 146.435794 351.228516 147.228766zM362.625 147.228766C362.625 148.193615 362.404299 148.970951 361.962891 149.560798 361.521482 150.150644 360.923832 150.445563 360.169922 150.445563 359.400387 150.445563 358.794924 150.201425 358.353516 149.713141L358.353516 152.765876 357.269531 152.765876 357.269531 143.988532 358.259766 143.988532 358.3125 144.691657C358.753908 144.144779 359.367184 143.871344 360.152344 143.871344 360.914066 143.871344 361.516599 144.158451 361.959961 144.732673 362.403323 145.306894 362.625 146.105714 362.625 147.129157L362.625 147.228766zM361.541016 147.105719C361.541016 146.390872 361.388673 145.826425 361.083984 145.41236 360.779295 144.998295 360.361331 144.791266 359.830078 144.791266 359.173825 144.791266 358.681642 145.082279 358.353516 145.664313L358.353516 148.69361C358.677736 149.271738 359.173825 149.560798 359.841797 149.560798 360.361331 149.560798 360.774413 149.354745 361.081055 148.942633 361.387697 148.530522 361.541016 147.918223 361.541016 147.105719zM364.148438 144.199469L363.533203 143.777594C363.896486 143.269779 364.083984 142.734628 364.095703 142.172126L364.095703 141.328376 365.167969 141.328376 365.167969 142.090094C365.164062 142.480721 365.067384 142.870366 364.87793 143.25904 364.688476 143.647714 364.445314 143.961187 364.148438 144.199469zM365.947266 144.199469L365.332031 143.777594C365.695314 143.269779 365.882812 142.734628 365.894531 142.172126L365.894531 141.328376 366.966797 141.328376 366.966797 142.090094C366.962891 142.480721 366.866212 142.870366 366.676758 143.25904 366.487304 143.647714 366.244142 143.961187 365.947266 144.199469zM334.037109 157.988532L334.066406 158.691657C334.531252 158.144779 335.158199 157.871344 335.947266 157.871344 336.833989 157.871344 337.437498 158.211185 337.757812 158.890876 337.968751 158.586187 338.243162 158.340095 338.581055 158.152594 338.918947 157.965093 339.318357 157.871344 339.779297 157.871344 341.169929 157.871344 341.876953 158.607665 341.900391 160.080329L341.900391 164.328376 340.816406 164.328376 340.816406 160.144782C340.816406 159.691655 340.712892 159.352791 340.505859 159.12818 340.298827 158.90357 339.951174 158.791266 339.462891 158.791266 339.060545 158.791266 338.726564 158.911382 338.460938 159.151618 338.195311 159.391853 338.041016 159.715092 337.998047 160.121344L337.998047 164.328376 336.908203 164.328376 336.908203 160.174079C336.908203 159.252199 336.457036 158.791266 335.554688 158.791266 334.843746 158.791266 334.357423 159.093998 334.095703 159.699469L334.095703 164.328376 333.011719 164.328376 333.011719 157.988532 334.037109 157.988532zM347.449219 164.328376C347.386718 164.203375 347.335938 163.980721 347.296875 163.660407 346.792966 164.183847 346.19141 164.445563 345.492188 164.445563 344.867184 164.445563 344.354494 164.268807 343.954102 163.91529 343.553709 163.561772 343.353516 163.113535 343.353516 162.570563 343.353516 161.910404 343.60449 161.397713 344.106445 161.032477 344.608401 160.667241 345.314449 160.484626 346.224609 160.484626L347.279297 160.484626 347.279297 159.986579C347.279297 159.607671 347.166017 159.305916 346.939453 159.081305 346.712889 158.856695 346.378908 158.744391 345.9375 158.744391 345.550779 158.744391 345.226564 158.842047 344.964844 159.03736 344.703124 159.232674 344.572266 159.468999 344.572266 159.746344L343.482422 159.746344C343.482422 159.429937 343.594725 159.124276 343.819336 158.829352 344.043946 158.534429 344.348631 158.301033 344.733398 158.129157 345.118166 157.957281 345.541013 157.871344 346.001953 157.871344 346.732426 157.871344 347.304685 158.05396 347.71875 158.419196 348.132815 158.784432 348.347656 159.287357 348.363281 159.927985L348.363281 162.845954C348.363281 163.427988 348.437499 163.890874 348.585938 164.234626L348.585938 164.328376 347.449219 164.328376zM345.650391 163.502204C345.990236 163.502204 346.312498 163.414314 346.617188 163.238532 346.921877 163.06275 347.142577 162.834236 347.279297 162.552985L347.279297 161.252204 346.429688 161.252204C345.101556 161.252204 344.4375 161.640872 344.4375 162.418219 344.4375 162.758065 344.55078 163.023687 344.777344 163.215094 345.003907 163.406502 345.29492 163.502204 345.650391 163.502204zM353.126953 158.961188C352.96289 158.933844 352.785157 158.920173 352.59375 158.920173 351.882809 158.920173 351.400392 159.222904 351.146484 159.828376L351.146484 164.328376 350.0625 164.328376 350.0625 157.988532 351.117188 157.988532 351.134766 158.720954C351.490236 158.154545 351.994137 157.871344 352.646484 157.871344 352.857423 157.871344 353.017578 157.898688 353.126953 157.953376L353.126953 158.961188zM355.892578 161.392829L355.212891 162.101813 355.212891 164.328376 354.128906 164.328376 354.128906 155.328376 355.212891 155.328376 355.212891 160.771735 355.792969 160.074469 357.767578 157.988532 359.085938 157.988532 356.619141 160.636969 359.373047 164.328376 358.101562 164.328376 355.892578 161.392829zM362.835938 164.445563C361.976558 164.445563 361.277346 164.163339 360.738281 163.598883 360.199216 163.034428 359.929688 162.279552 359.929688 161.334235L359.929688 161.135016C359.929688 160.506107 360.049803 159.944589 360.290039 159.450446 360.530275 158.956303 360.866209 158.569588 361.297852 158.29029 361.729494 158.010991 362.197263 157.871344 362.701172 157.871344 363.525395 157.871344 364.166013 158.142826 364.623047 158.685798 365.08008 159.228769 365.308594 160.006105 365.308594 161.017829L365.308594 161.469001 361.013672 161.469001C361.029297 162.094004 361.211912 162.598882 361.561523 162.983649 361.911135 163.368417 362.355466 163.560798 362.894531 163.560798 363.277346 163.560798 363.601561 163.482673 363.867188 163.326423 364.132814 163.170172 364.365233 162.963143 364.564453 162.705329L365.226562 163.220954C364.69531 164.037364 363.898443 164.445563 362.835938 164.445563zM362.701172 158.761969C362.26367 158.761969 361.896486 158.921147 361.599609 159.239508 361.302733 159.557869 361.119141 160.004154 361.048828 160.578376L364.224609 160.578376 364.224609 160.496344C364.193359 159.94556 364.044923 159.518807 363.779297 159.216071 363.513671 158.913335 363.154299 158.761969 362.701172 158.761969zM369.626953 158.961188C369.46289 158.933844 369.285157 158.920173 369.09375 158.920173 368.382809 158.920173 367.900392 159.222904 367.646484 159.828376L367.646484 164.328376 366.5625 164.328376 366.5625 157.988532 367.617188 157.988532 367.634766 158.720954C367.990236 158.154545 368.494137 157.871344 369.146484 157.871344 369.357423 157.871344 369.517578 157.898688 369.626953 157.953376L369.626953 158.961188z"/>
    <path fill="#ED9E9A" d="M73.8425594 153.328376L53 153.328376 53 152.328376 73.8425594 152.328376 73.8425594 148.328376 82.8425594 152.828376 73.8425594 157.328376 73.8425594 153.328376zM299.842559 153.328376L279 153.328376 279 152.328376 299.842559 152.328376 299.842559 148.328376 308.842559 152.828376 299.842559 157.328376 299.842559 153.328376zM186.842559 153.328376L166 153.328376 166 152.328376 186.842559 152.328376 186.842559 148.328376 195.842559 152.828376 186.842559 157.328376 186.842559 153.328376z"/>
    <rect width="83" height="83" x="850" y="156" fill="#252C33"/>
    <path fill="#FFF" d="M861.466797,201.232422 C861.853518,201.232422 862.191405,201.115236 862.480469,200.880859 C862.769533,200.646483 862.929687,200.353517 862.960938,200.001953 L863.986328,200.001953 C863.966797,200.365236 863.841798,200.710936 863.611328,201.039062 C863.380858,201.367189 863.073244,201.628905 862.688477,201.824219 C862.303709,202.019532 861.896487,202.117188 861.466797,202.117188 C860.603511,202.117188 859.916995,201.829104 859.407227,201.25293 C858.897458,200.676755 858.642578,199.888677 858.642578,198.888672 L858.642578,198.707031 C858.642578,198.089841 858.755858,197.541018 858.982422,197.060547 C859.208986,196.580076 859.534178,196.207033 859.958008,195.941406 C860.381838,195.67578 860.88281,195.542969 861.460938,195.542969 C862.171879,195.542969 862.762693,195.755857 863.233398,196.181641 C863.704104,196.607424 863.955078,197.160153 863.986328,197.839844 L862.960938,197.839844 C862.929687,197.429685 862.774415,197.092775 862.495117,196.829102 C862.215819,196.565428 861.871096,196.433594 861.460938,196.433594 C860.910153,196.433594 860.4834,196.631834 860.180664,197.02832 C859.877928,197.424807 859.726562,197.998043 859.726562,198.748047 L859.726562,198.953125 C859.726562,199.683597 859.876952,200.246092 860.177734,200.640625 C860.478517,201.035158 860.9082,201.232422 861.466797,201.232422 Z M864.917969,198.771484 C864.917969,198.150388 865.040038,197.591799 865.28418,197.095703 C865.528322,196.599607 865.868162,196.216798 866.303711,195.947266 C866.73926,195.677733 867.236325,195.542969 867.794922,195.542969 C868.658207,195.542969 869.356443,195.841794 869.889648,196.439453 C870.422854,197.037112 870.689453,197.832026 870.689453,198.824219 L870.689453,198.900391 C870.689453,199.517581 870.57129,200.071287 870.334961,200.561523 C870.098632,201.05176 869.760744,201.433592 869.321289,201.707031 C868.881834,201.98047 868.376956,202.117188 867.806641,202.117188 C866.947261,202.117188 866.250979,201.818362 865.717773,201.220703 C865.184568,200.623044 864.917969,199.832036 864.917969,198.847656 L864.917969,198.771484 Z M866.007812,198.900391 C866.007812,199.603519 866.170897,200.167967 866.49707,200.59375 C866.823244,201.019533 867.259763,201.232422 867.806641,201.232422 C868.357425,201.232422 868.79492,201.016604 869.119141,200.584961 C869.443361,200.153318 869.605469,199.548832 869.605469,198.771484 C869.605469,198.076168 869.440431,197.512697 869.110352,197.081055 C868.780272,196.649412 868.3418,196.433594 867.794922,196.433594 C867.259763,196.433594 866.828127,196.646482 866.5,197.072266 C866.171873,197.498049 866.007812,198.107418 866.007812,198.900391 Z M873.074219,195.660156 L873.109375,196.457031 C873.593752,195.847653 874.226559,195.542969 875.007812,195.542969 C876.347663,195.542969 877.023437,196.298821 877.035156,197.810547 L877.035156,202 L875.951172,202 L875.951172,197.804688 C875.947266,197.347654 875.842774,197.009767 875.637695,196.791016 C875.432616,196.572265 875.113283,196.462891 874.679688,196.462891 C874.328123,196.462891 874.019533,196.55664 873.753906,196.744141 C873.48828,196.931642 873.281251,197.177733 873.132812,197.482422 L873.132812,202 L872.048828,202 L872.048828,195.660156 L873.074219,195.660156 Z M879.033203,202 L879.033203,196.498047 L878.03125,196.498047 L878.03125,195.660156 L879.033203,195.660156 L879.033203,195.121094 C879.033203,194.414059 879.23535,193.863283 879.639648,193.46875 C880.043947,193.074217 880.615231,192.876953 881.353516,192.876953 C881.791018,192.876953 882.343747,192.996093 883.011719,193.234375 L882.830078,194.148438 C882.341794,193.953124 881.876955,193.855469 881.435547,193.855469 C880.970701,193.855469 880.635743,193.95996 880.430664,194.168945 C880.225585,194.377931 880.123047,194.691404 880.123047,195.109375 L880.123047,195.660156 L881.417969,195.660156 L881.417969,196.498047 L880.123047,196.498047 L880.123047,202 L879.033203,202 Z M883.550781,202 L882.460938,202 L882.460938,195.660156 L883.550781,195.660156 L883.550781,202 Z M888.378906,196.632812 C888.214843,196.605469 888.03711,196.591797 887.845703,196.591797 C887.134762,196.591797 886.652345,196.894528 886.398438,197.5 L886.398438,202 L885.314453,202 L885.314453,195.660156 L886.369141,195.660156 L886.386719,196.392578 C886.742189,195.826169 887.24609,195.542969 887.898438,195.542969 C888.109376,195.542969 888.269531,195.570312 888.378906,195.625 L888.378906,196.632812 Z M890.394531,195.660156 L890.423828,196.363281 C890.888674,195.816404 891.515621,195.542969 892.304688,195.542969 C893.191411,195.542969 893.79492,195.882809 894.115234,196.5625 C894.326173,196.257811 894.600584,196.01172 894.938477,195.824219 C895.276369,195.636718 895.675779,195.542969 896.136719,195.542969 C897.527351,195.542969 898.234375,196.27929 898.257812,197.751953 L898.257812,202 L897.173828,202 L897.173828,197.816406 C897.173828,197.363279 897.070314,197.024415 896.863281,196.799805 C896.656249,196.575194 896.308596,196.462891 895.820312,196.462891 C895.417967,196.462891 895.083986,196.583007 894.818359,196.823242 C894.552733,197.063478 894.398438,197.386717 894.355469,197.792969 L894.355469,202 L893.265625,202 L893.265625,197.845703 C893.265625,196.923824 892.814458,196.462891 891.912109,196.462891 C891.201168,196.462891 890.714845,196.765622 890.453125,197.371094 L890.453125,202 L889.369141,202 L889.369141,195.660156 L890.394531,195.660156 Z M903.806641,202 C903.74414,201.874999 903.69336,201.652345 903.654297,201.332031 C903.150388,201.855471 902.548832,202.117188 901.849609,202.117188 C901.224606,202.117188 900.711916,201.940431 900.311523,201.586914 C899.911131,201.233397 899.710938,200.785159 899.710938,200.242188 C899.710938,199.582028 899.961912,199.069338 900.463867,198.704102 C900.965823,198.338865 901.67187,198.15625 902.582031,198.15625 L903.636719,198.15625 L903.636719,197.658203 C903.636719,197.279295 903.523439,196.97754 903.296875,196.75293 C903.070311,196.528319 902.73633,196.416016 902.294922,196.416016 C901.908201,196.416016 901.583986,196.513671 901.322266,196.708984 C901.060546,196.904298 900.929688,197.140624 900.929688,197.417969 L899.839844,197.417969 C899.839844,197.101561 899.952147,196.7959 900.176758,196.500977 C900.401368,196.206053 900.706053,195.972657 901.09082,195.800781 C901.475588,195.628905 901.898435,195.542969 902.359375,195.542969 C903.089847,195.542969 903.662107,195.725584 904.076172,196.09082 C904.490236,196.456057 904.705078,196.958981 904.720703,197.599609 L904.720703,200.517578 C904.720703,201.099612 904.794921,201.562498 904.943359,201.90625 L904.943359,202 L903.806641,202 Z M902.007812,201.173828 C902.347658,201.173828 902.66992,201.085938 902.974609,200.910156 C903.279298,200.734374 903.499999,200.505861 903.636719,200.224609 L903.636719,198.923828 L902.787109,198.923828 C901.458978,198.923828 900.794922,199.312496 900.794922,200.089844 C900.794922,200.429689 900.908202,200.695312 901.134766,200.886719 C901.361329,201.078126 901.652342,201.173828 902.007812,201.173828 Z M907.890625,194.125 L907.890625,195.660156 L909.074219,195.660156 L909.074219,196.498047 L907.890625,196.498047 L907.890625,200.429688 C907.890625,200.683595 907.943359,200.874023 908.048828,201.000977 C908.154297,201.12793 908.333983,201.191406 908.587891,201.191406 C908.712891,201.191406 908.884765,201.167969 909.103516,201.121094 L909.103516,202 C908.818358,202.078125 908.541017,202.117188 908.271484,202.117188 C907.787107,202.117188 907.421876,201.970705 907.175781,201.677734 C906.929686,201.384764 906.806641,200.968753 906.806641,200.429688 L906.806641,196.498047 L905.652344,196.498047 L905.652344,195.660156 L906.806641,195.660156 L906.806641,194.125 L907.890625,194.125 Z M911.517578,202 L910.433594,202 L910.433594,195.660156 L911.517578,195.660156 L911.517578,202 Z M910.345703,193.978516 C910.345703,193.802733 910.399414,193.654297 910.506836,193.533203 C910.614258,193.412109 910.773436,193.351562 910.984375,193.351562 C911.195314,193.351562 911.355468,193.412109 911.464844,193.533203 C911.574219,193.654297 911.628906,193.802733 911.628906,193.978516 C911.628906,194.154298 911.574219,194.300781 911.464844,194.417969 C911.355468,194.535157 911.195314,194.59375 910.984375,194.59375 C910.773436,194.59375 910.614258,194.535157 910.506836,194.417969 C910.399414,194.300781 910.345703,194.154298 910.345703,193.978516 Z M912.964844,198.771484 C912.964844,198.150388 913.086913,197.591799 913.331055,197.095703 C913.575197,196.599607 913.915037,196.216798 914.350586,195.947266 C914.786135,195.677733 915.2832,195.542969 915.841797,195.542969 C916.705082,195.542969 917.403318,195.841794 917.936523,196.439453 C918.469729,197.037112 918.736328,197.832026 918.736328,198.824219 L918.736328,198.900391 C918.736328,199.517581 918.618165,200.071287 918.381836,200.561523 C918.145507,201.05176 917.807619,201.433592 917.368164,201.707031 C916.928709,201.98047 916.423831,202.117188 915.853516,202.117188 C914.994136,202.117188 914.297854,201.818362 913.764648,201.220703 C913.231443,200.623044 912.964844,199.832036 912.964844,198.847656 L912.964844,198.771484 Z M914.054688,198.900391 C914.054688,199.603519 914.217772,200.167967 914.543945,200.59375 C914.870119,201.019533 915.306638,201.232422 915.853516,201.232422 C916.4043,201.232422 916.841795,201.016604 917.166016,200.584961 C917.490236,200.153318 917.652344,199.548832 917.652344,198.771484 C917.652344,198.076168 917.487306,197.512697 917.157227,197.081055 C916.827147,196.649412 916.388675,196.433594 915.841797,196.433594 C915.306638,196.433594 914.875002,196.646482 914.546875,197.072266 C914.218748,197.498049 914.054688,198.107418 914.054688,198.900391 Z M921.121094,195.660156 L921.15625,196.457031 C921.640627,195.847653 922.273434,195.542969 923.054688,195.542969 C924.394538,195.542969 925.070312,196.298821 925.082031,197.810547 L925.082031,202 L923.998047,202 L923.998047,197.804688 C923.994141,197.347654 923.889649,197.009767 923.68457,196.791016 C923.479491,196.572265 923.160158,196.462891 922.726562,196.462891 C922.374998,196.462891 922.066408,196.55664 921.800781,196.744141 C921.535155,196.931642 921.328126,197.177733 921.179688,197.482422 L921.179688,202 L920.095703,202 L920.095703,195.660156 L921.121094,195.660156 Z"/>
  </g>
</svg>
