<svg xmlns="http://www.w3.org/2000/svg" width="634" height="367" viewBox="0 0 634 367">
  <g fill="none" fill-rule="evenodd" stroke="#000" stroke-linecap="round" stroke-linejoin="round" transform="translate(0 1)">
    <g transform="translate(334)">
      <path d="M300 82.81L153.972252 82.81C94.8126546 82.81 117.263167 91 20.8024037 91L0 91M0 75.53C41.6003888 75.53 67.253097 74.9880899 84.0663712 70.1108989 89.6535379 68.4901748 99.3225456 65.0039956 103.281542 62.5241573 135.443967 42.7457031 134.097738 27.3 173.064687 27.3L300 27.3"/>
      <path d="M0 82.81C41.6003888 82.81 66.145281 82.81 83.7575115 79.4195979 88.6532344 78.4761352 100.661552 74.9947221 104.082174 73.5875 126.499873 64.365 134.097738 54.6 173.064687 54.6L300 54.6M0 69.16C41.6003888 69.16 66.145281 69.16 83.7575115 63.3969193 101.369742 57.6338386 112.049311 46.1076772 121.937964 34.5815158 131.822199 23.0553544 140.911099 11.5261614 153.605514 5.7630807 166.299929 0 182.604277 0 216.454578 0L300 0"/>
    </g>
    <g transform="translate(333 258)">
      <g transform="translate(.977)">
        <path d="M149.022801 41.6612903L76.4845876 41.6612903C47.0974913 41.6612903 58.2496189 45.7816377 10.3334416 45.7816377L0 45.7816377M0 37.9987593C20.6646883 37.9987593 33.407483 37.7261271 41.7593538 35.2724371 44.5347379 34.457059 49.3377466 32.7031799 51.3043489 31.4555859 67.2807978 21.5051461 66.6120684 13.7344913 85.968615 13.7344913L149.022801 13.7344913"/>
        <path d="M0 41.6612903C20.6646883 41.6612903 32.8571836 41.6612903 41.60593 39.9555963 44.0378444 39.4809449 50.0028884 37.7294637 51.702057 37.0214974 62.8378847 32.3817045 66.6120684 27.4689826 85.968615 27.4689826L149.022801 27.4689826M0 34.7940447C20.6646883 34.7940447 32.8571836 34.7940447 41.60593 31.894668 50.3546764 28.9952914 55.6596739 23.1965382 60.5717899 17.3977849 65.4817111 11.5990317 69.9965559 5.79875325 76.3024135 2.89937662 82.6082711 0 90.7073364 0 107.522225 0L149.022801 0"/>
      </g>
      <g transform="matrix(-1 0 0 1 299.023 0)">
        <path d="M149.022801 41.6612903L76.4845876 41.6612903C47.0974913 41.6612903 58.2496189 45.7816377 10.3334416 45.7816377L0 45.7816377M0 37.9987593C20.6646883 37.9987593 33.407483 37.7261271 41.7593538 35.2724371 44.5347379 34.457059 49.3377466 32.7031799 51.3043489 31.4555859 67.2807978 21.5051461 66.6120684 13.7344913 85.968615 13.7344913L149.022801 13.7344913"/>
        <path d="M0 41.6612903C20.6646883 41.6612903 32.8571836 41.6612903 41.60593 39.9555963 44.0378444 39.4809449 50.0028884 37.7294637 51.702057 37.0214974 62.8378847 32.3817045 66.6120684 27.4689826 85.968615 27.4689826L149.022801 27.4689826M0 34.7940447C20.6646883 34.7940447 32.8571836 34.7940447 41.60593 31.894668 50.3546764 28.9952914 55.6596739 23.1965382 60.5717899 17.3977849 65.4817111 11.5990317 69.9965559 5.79875325 76.3024135 2.89937662 82.6082711 0 90.7073364 0 107.522225 0L149.022801 0"/>
      </g>
      <g transform="matrix(-1 0 0 1 150 61.347)">
        <path d="M149.022801 41.6612903L76.4845876 41.6612903C47.0974913 41.6612903 58.2496189 45.7816377 10.3334416 45.7816377L0 45.7816377M0 37.9987593C20.6646883 37.9987593 33.407483 37.7261271 41.7593538 35.2724371 44.5347379 34.457059 49.3377466 32.7031799 51.3043489 31.4555859 67.2807978 21.5051461 66.6120684 13.7344913 85.968615 13.7344913L149.022801 13.7344913"/>
        <path d="M0 41.6612903C20.6646883 41.6612903 32.8571836 41.6612903 41.60593 39.9555963 44.0378444 39.4809449 50.0028884 37.7294637 51.702057 37.0214974 62.8378847 32.3817045 66.6120684 27.4689826 85.968615 27.4689826L149.022801 27.4689826M0 34.7940447C20.6646883 34.7940447 32.8571836 34.7940447 41.60593 31.894668 50.3546764 28.9952914 55.6596739 23.1965382 60.5717899 17.3977849 65.4817111 11.5990317 69.9965559 5.79875325 76.3024135 2.89937662 82.6082711 0 90.7073364 0 107.522225 0L149.022801 0"/>
      </g>
      <g transform="translate(150 61.347)">
        <path d="M149.022801 41.6612903L76.4845876 41.6612903C47.0974913 41.6612903 58.2496189 45.7816377 10.3334416 45.7816377L0 45.7816377M0 37.9987593C20.6646883 37.9987593 33.407483 37.7261271 41.7593538 35.2724371 44.5347379 34.457059 49.3377466 32.7031799 51.3043489 31.4555859 67.2807978 21.5051461 66.6120684 13.7344913 85.968615 13.7344913L149.022801 13.7344913"/>
        <path d="M0 41.6612903C20.6646883 41.6612903 32.8571836 41.6612903 41.60593 39.9555963 44.0378444 39.4809449 50.0028884 37.7294637 51.702057 37.0214974 62.8378847 32.3817045 66.6120684 27.4689826 85.968615 27.4689826L149.022801 27.4689826M0 34.7940447C20.6646883 34.7940447 32.8571836 34.7940447 41.60593 31.894668 50.3546764 28.9952914 55.6596739 23.1965382 60.5717899 17.3977849 65.4817111 11.5990317 69.9965559 5.79875325 76.3024135 2.89937662 82.6082711 0 90.7073364 0 107.522225 0L149.022801 0"/>
      </g>
    </g>
    <g transform="matrix(-1 0 0 1 634 122)">
      <path d="M300 82.81L153.972252 82.81C94.8126546 82.81 117.263167 91 20.8024037 91L0 91M0 75.53C41.6003888 75.53 67.253097 74.9880899 84.0663712 70.1108989 89.6535379 68.4901748 99.3225456 65.0039956 103.281542 62.5241573 135.443967 42.7457031 134.097738 27.3 173.064687 27.3L300 27.3"/>
      <path d="M0 82.81C41.6003888 82.81 66.145281 82.81 83.7575115 79.4195979 88.6532344 78.4761352 100.661552 74.9947221 104.082174 73.5875 126.499873 64.365 134.097738 54.6 173.064687 54.6L300 54.6M0 69.16C41.6003888 69.16 66.145281 69.16 83.7575115 63.3969193 101.369742 57.6338386 112.049311 46.1076772 121.937964 34.5815158 131.822199 23.0553544 140.911099 11.5261614 153.605514 5.7630807 166.299929 0 182.604277 0 216.454578 0L300 0"/>
    </g>
    <g transform="translate(1)">
      <path d="M0,49.14 C141.51589,49.14 99.1388309,58.5449066 153.943401,60.06 L300,60.06"/>
      <path d="M0,30.03 C141.51589,30.03 99.1388309,39.4349066 153.943401,40.95 L300,40.95" transform="matrix(1 0 0 -1 0 70.98)"/>
      <path d="M300,91 L216.455843,91 C182.603906,91 166.302678,91 153.607839,88.1939246 C140.910101,85.3878492 131.821652,79.7756984 121.93597,74.1664524 C112.050288,68.5543016 101.370273,62.9421508 83.755786,60.1360754 C66.1441976,57.33 41.6010359,57.33 0,57.33"/>
      <path d="M300,33.67 L216.455843,33.67 C182.603906,33.67 166.302678,33.67 153.607839,30.8639246 C140.910101,28.0578492 131.821652,22.4456984 121.93597,16.8364524 C112.050288,11.2243016 101.370273,5.61215081 83.755786,2.8060754 C66.1441976,3.73812092e-15 41.6010359,3.73812092e-15 0,0" transform="matrix(1 0 0 -1 0 33.67)"/>
    </g>
    <g transform="translate(0 258)">
      <g transform="translate(.865)">
        <path d="M0,25.1861538 C70.8214715,25.1861538 49.613919,30.0065329 77.0408057,30.7830769 L150.13467,30.7830769"/>
        <path d="M0,15.3915385 C70.8214715,15.3915385 49.613919,20.2119175 77.0408057,20.9884615 L150.13467,20.9884615" transform="matrix(1 0 0 -1 0 36.38)"/>
        <path d="M150.13467,46.6410256 L108.325089,46.6410256 C91.3839242,46.6410256 83.2259924,46.6410256 76.8728743,45.2028033 C70.5183054,43.7645809 65.9700009,40.8881362 61.0227223,38.0131803 C56.0754438,35.1367356 50.730642,32.2602909 41.9154911,30.8220685 C33.101791,29.3838462 20.8191927,29.3838462 0,29.3838462"/>
        <path d="M150.13467,17.2571795 L108.325089,17.2571795 C91.3839242,17.2571795 83.2259924,17.2571795 76.8728743,15.8189571 C70.5183054,14.3807348 65.9700009,11.50429 61.0227223,8.62933417 C56.0754438,5.75288944 50.730642,2.87644472 41.9154911,1.43822236 C33.101791,1.9159318e-15 20.8191927,1.9159318e-15 0,0" transform="matrix(1 0 0 -1 0 17.257)"/>
      </g>
      <g transform="matrix(-1 0 0 1 301.135 0)">
        <path d="M0,25.1861538 C70.8214715,25.1861538 49.613919,30.0065329 77.0408057,30.7830769 L150.13467,30.7830769"/>
        <path d="M0,15.3915385 C70.8214715,15.3915385 49.613919,20.2119175 77.0408057,20.9884615 L150.13467,20.9884615" transform="matrix(1 0 0 -1 0 36.38)"/>
        <path d="M150.13467,46.6410256 L108.325089,46.6410256 C91.3839242,46.6410256 83.2259924,46.6410256 76.8728743,45.2028033 C70.5183054,43.7645809 65.9700009,40.8881362 61.0227223,38.0131803 C56.0754438,35.1367356 50.730642,32.2602909 41.9154911,30.8220685 C33.101791,29.3838462 20.8191927,29.3838462 0,29.3838462"/>
        <path d="M150.13467,17.2571795 L108.325089,17.2571795 C91.3839242,17.2571795 83.2259924,17.2571795 76.8728743,15.8189571 C70.5183054,14.3807348 65.9700009,11.50429 61.0227223,8.62933417 C56.0754438,5.75288944 50.730642,2.87644472 41.9154911,1.43822236 C33.101791,1.9159318e-15 20.8191927,1.9159318e-15 0,0" transform="matrix(1 0 0 -1 0 17.257)"/>
      </g>
      <g transform="rotate(180 75.5 53.5)">
        <path d="M0,25.1861538 C70.8214715,25.1861538 49.613919,30.0065329 77.0408057,30.7830769 L150.13467,30.7830769"/>
        <path d="M0,15.3915385 C70.8214715,15.3915385 49.613919,20.2119175 77.0408057,20.9884615 L150.13467,20.9884615" transform="matrix(1 0 0 -1 0 36.38)"/>
        <path d="M150.13467,46.6410256 L108.325089,46.6410256 C91.3839242,46.6410256 83.2259924,46.6410256 76.8728743,45.2028033 C70.5183054,43.7645809 65.9700009,40.8881362 61.0227223,38.0131803 C56.0754438,35.1367356 50.730642,32.2602909 41.9154911,30.8220685 C33.101791,29.3838462 20.8191927,29.3838462 0,29.3838462"/>
        <path d="M150.13467,17.2571795 L108.325089,17.2571795 C91.3839242,17.2571795 83.2259924,17.2571795 76.8728743,15.8189571 C70.5183054,14.3807348 65.9700009,11.50429 61.0227223,8.62933417 C56.0754438,5.75288944 50.730642,2.87644472 41.9154911,1.43822236 C33.101791,1.9159318e-15 20.8191927,1.9159318e-15 0,0" transform="matrix(1 0 0 -1 0 17.257)"/>
      </g>
      <g transform="matrix(1 0 0 -1 151 107)">
        <path d="M0,25.1861538 C70.8214715,25.1861538 49.613919,30.0065329 77.0408057,30.7830769 L150.13467,30.7830769"/>
        <path d="M0,15.3915385 C70.8214715,15.3915385 49.613919,20.2119175 77.0408057,20.9884615 L150.13467,20.9884615" transform="matrix(1 0 0 -1 0 36.38)"/>
        <path d="M150.13467,46.6410256 L108.325089,46.6410256 C91.3839242,46.6410256 83.2259924,46.6410256 76.8728743,45.2028033 C70.5183054,43.7645809 65.9700009,40.8881362 61.0227223,38.0131803 C56.0754438,35.1367356 50.730642,32.2602909 41.9154911,30.8220685 C33.101791,29.3838462 20.8191927,29.3838462 0,29.3838462"/>
        <path d="M150.13467,17.2571795 L108.325089,17.2571795 C91.3839242,17.2571795 83.2259924,17.2571795 76.8728743,15.8189571 C70.5183054,14.3807348 65.9700009,11.50429 61.0227223,8.62933417 C56.0754438,5.75288944 50.730642,2.87644472 41.9154911,1.43822236 C33.101791,1.9159318e-15 20.8191927,1.9159318e-15 0,0" transform="matrix(1 0 0 -1 0 17.257)"/>
      </g>
    </g>
    <g transform="rotate(180 150.5 106.5)">
      <path d="M0,49.14 C141.51589,49.14 99.1388309,58.5449066 153.943401,60.06 L300,60.06"/>
      <path d="M0,30.03 C141.51589,30.03 99.1388309,39.4349066 153.943401,40.95 L300,40.95" transform="matrix(1 0 0 -1 0 70.98)"/>
      <path d="M300,91 L216.455843,91 C182.603906,91 166.302678,91 153.607839,88.1939246 C140.910101,85.3878492 131.821652,79.7756984 121.93597,74.1664524 C112.050288,68.5543016 101.370273,62.9421508 83.755786,60.1360754 C66.1441976,57.33 41.6010359,57.33 0,57.33"/>
      <path d="M300,33.67 L216.455843,33.67 C182.603906,33.67 166.302678,33.67 153.607839,30.8639246 C140.910101,28.0578492 131.821652,22.4456984 121.93597,16.8364524 C112.050288,11.2243016 101.370273,5.61215081 83.755786,2.8060754 C66.1441976,3.73812092e-15 41.6010359,3.73812092e-15 0,0" transform="matrix(1 0 0 -1 0 33.67)"/>
    </g>
  </g>
</svg>
