<svg xmlns="http://www.w3.org/2000/svg" width="510" height="234" viewBox="0 0 510 234">
  <g fill="none">
    <ellipse cx="26.5" cy="118.5" fill="#252C33" rx="26.5" ry="18.5"/>
    <path fill="#FFF" d="M18.7041016,120.318359 C18.7041016,120.025389 18.5937511,119.797852 18.3730469,119.635742 C18.1523426,119.473632 17.7675809,119.333985 17.21875,119.216797 C16.6699191,119.099609 16.2343766,118.958985 15.9121094,118.794922 C15.5898421,118.630859 15.3515633,118.435548 15.1972656,118.208984 C15.042968,117.982421 14.9658203,117.712892 14.9658203,117.400391 C14.9658203,116.880857 15.1855447,116.441408 15.625,116.082031 C16.0644553,115.722654 16.6259731,115.542969 17.3095703,115.542969 C18.0283239,115.542969 18.6113259,115.728514 19.0585938,116.099609 C19.5058616,116.470705 19.7294922,116.94531 19.7294922,117.523438 L18.6396484,117.523438 C18.6396484,117.226561 18.5136731,116.970704 18.2617188,116.755859 C18.0097644,116.541015 17.6923847,116.433594 17.3095703,116.433594 C16.9150371,116.433594 16.6064464,116.51953 16.3837891,116.691406 C16.1611317,116.863282 16.0498047,117.087889 16.0498047,117.365234 C16.0498047,117.626954 16.1533193,117.824218 16.3603516,117.957031 C16.5673838,118.089844 16.9414035,118.216796 17.4824219,118.337891 C18.0234402,118.458985 18.4619124,118.603515 18.7978516,118.771484 C19.1337907,118.939454 19.3828117,119.1416 19.5449219,119.37793 C19.7070321,119.614259 19.7880859,119.902342 19.7880859,120.242188 C19.7880859,120.808597 19.5615257,121.262694 19.1083984,121.604492 C18.6552712,121.946291 18.0673864,122.117188 17.3447266,122.117188 C16.8369115,122.117188 16.3876973,122.027345 15.9970703,121.847656 C15.6064434,121.667968 15.3007824,121.416994 15.0800781,121.094727 C14.8593739,120.772459 14.7490234,120.42383 14.7490234,120.048828 L15.8330078,120.048828 C15.8525392,120.412111 15.9980455,120.700194 16.2695312,120.913086 C16.541017,121.125978 16.8994118,121.232422 17.3447266,121.232422 C17.7548849,121.232422 18.0839831,121.149415 18.3320312,120.983398 C18.5800794,120.817382 18.7041016,120.595705 18.7041016,120.318359 Z M22.6708984,114.125 L22.6708984,115.660156 L23.8544922,115.660156 L23.8544922,116.498047 L22.6708984,116.498047 L22.6708984,120.429688 C22.6708984,120.683595 22.7236323,120.874023 22.8291016,121.000977 C22.9345708,121.12793 23.1142565,121.191406 23.3681641,121.191406 C23.4931647,121.191406 23.665038,121.167969 23.8837891,121.121094 L23.8837891,122 C23.5986314,122.078125 23.3212904,122.117188 23.0517578,122.117188 C22.5673804,122.117188 22.2021497,121.970705 21.9560547,121.677734 C21.7099597,121.384764 21.5869141,120.968753 21.5869141,120.429688 L21.5869141,116.498047 L20.4326172,116.498047 L20.4326172,115.660156 L21.5869141,115.660156 L21.5869141,114.125 L22.6708984,114.125 Z M29.0341797,122 C28.9716794,121.874999 28.9208986,121.652345 28.8818359,121.332031 C28.3779272,121.855471 27.7763707,122.117188 27.0771484,122.117188 C26.4521453,122.117188 25.9394551,121.940431 25.5390625,121.586914 C25.1386699,121.233397 24.9384766,120.785159 24.9384766,120.242188 C24.9384766,119.582028 25.1894506,119.069338 25.6914062,118.704102 C26.1933619,118.338865 26.8994095,118.15625 27.8095703,118.15625 L28.8642578,118.15625 L28.8642578,117.658203 C28.8642578,117.279295 28.7509777,116.97754 28.5244141,116.75293 C28.2978504,116.528319 27.9638694,116.416016 27.5224609,116.416016 C27.1357403,116.416016 26.8115247,116.513671 26.5498047,116.708984 C26.2880846,116.904298 26.1572266,117.140624 26.1572266,117.417969 L25.0673828,117.417969 C25.0673828,117.101561 25.1796864,116.7959 25.4042969,116.500977 C25.6289074,116.206053 25.9335918,115.972657 26.3183594,115.800781 C26.7031269,115.628905 27.1259743,115.542969 27.5869141,115.542969 C28.3173865,115.542969 28.8896464,115.725584 29.3037109,116.09082 C29.7177755,116.456057 29.9326171,116.958981 29.9482422,117.599609 L29.9482422,120.517578 C29.9482422,121.099612 30.0224602,121.562498 30.1708984,121.90625 L30.1708984,122 L29.0341797,122 Z M27.2353516,121.173828 C27.575197,121.173828 27.8974594,121.085938 28.2021484,120.910156 C28.5068375,120.734374 28.7275384,120.505861 28.8642578,120.224609 L28.8642578,118.923828 L28.0146484,118.923828 C26.6865168,118.923828 26.0224609,119.312496 26.0224609,120.089844 C26.0224609,120.429689 26.1357411,120.695312 26.3623047,120.886719 C26.5888683,121.078126 26.879881,121.173828 27.2353516,121.173828 Z M34.7119141,116.632812 C34.5478507,116.605469 34.3701181,116.591797 34.1787109,116.591797 C33.4677699,116.591797 32.9853528,116.894528 32.7314453,117.5 L32.7314453,122 L31.6474609,122 L31.6474609,115.660156 L32.7021484,115.660156 L32.7197266,116.392578 C33.0751971,115.826169 33.5790983,115.542969 34.2314453,115.542969 C34.4423839,115.542969 34.6025385,115.570312 34.7119141,115.625 L34.7119141,116.632812 Z M37.1787109,114.125 L37.1787109,115.660156 L38.3623047,115.660156 L38.3623047,116.498047 L37.1787109,116.498047 L37.1787109,120.429688 C37.1787109,120.683595 37.2314448,120.874023 37.3369141,121.000977 C37.4423833,121.12793 37.622069,121.191406 37.8759766,121.191406 C38.0009772,121.191406 38.1728505,121.167969 38.3916016,121.121094 L38.3916016,122 C38.1064439,122.078125 37.8291029,122.117188 37.5595703,122.117188 C37.0751929,122.117188 36.7099622,121.970705 36.4638672,121.677734 C36.2177722,121.384764 36.0947266,120.968753 36.0947266,120.429688 L36.0947266,116.498047 L34.9404297,116.498047 L34.9404297,115.660156 L36.0947266,115.660156 L36.0947266,114.125 L37.1787109,114.125 Z"/>
    <rect width="83" height="83" x="83" y="77" fill="#252C33"/>
    <path fill="#FFF" d="M96.3222656,109.660156 L96.3574219,110.457031 C96.8417993,109.847653 97.4746055,109.542969 98.2558594,109.542969 C99.5957098,109.542969 100.271484,110.298821 100.283203,111.810547 L100.283203,116 L99.1992188,116 L99.1992188,111.804688 C99.1953125,111.347654 99.0908213,111.009767 98.8857422,110.791016 C98.680663,110.572265 98.3613303,110.462891 97.9277344,110.462891 C97.5761701,110.462891 97.2675795,110.55664 97.0019531,110.744141 C96.7363268,110.931642 96.5292976,111.177733 96.3808594,111.482422 L96.3808594,116 L95.296875,116 L95.296875,109.660156 L96.3222656,109.660156 Z M101.630859,112.771484 C101.630859,112.150388 101.752928,111.591799 101.99707,111.095703 C102.241212,110.599607 102.581053,110.216798 103.016602,109.947266 C103.452151,109.677733 103.949216,109.542969 104.507812,109.542969 C105.371098,109.542969 106.069333,109.841794 106.602539,110.439453 C107.135745,111.037112 107.402344,111.832026 107.402344,112.824219 L107.402344,112.900391 C107.402344,113.517581 107.284181,114.071287 107.047852,114.561523 C106.811522,115.05176 106.473635,115.433592 106.03418,115.707031 C105.594724,115.98047 105.089847,116.117188 104.519531,116.117188 C103.660152,116.117188 102.96387,115.818362 102.430664,115.220703 C101.897458,114.623044 101.630859,113.832036 101.630859,112.847656 L101.630859,112.771484 Z M102.720703,112.900391 C102.720703,113.603519 102.883787,114.167967 103.209961,114.59375 C103.536134,115.019533 103.972654,115.232422 104.519531,115.232422 C105.070315,115.232422 105.507811,115.016604 105.832031,114.584961 C106.156252,114.153318 106.318359,113.548832 106.318359,112.771484 C106.318359,112.076168 106.153322,111.512697 105.823242,111.081055 C105.493162,110.649412 105.05469,110.433594 104.507812,110.433594 C103.972654,110.433594 103.541017,110.646482 103.212891,111.072266 C102.884764,111.498049 102.720703,112.107418 102.720703,112.900391 Z M110.232422,108.125 L110.232422,109.660156 L111.416016,109.660156 L111.416016,110.498047 L110.232422,110.498047 L110.232422,114.429688 C110.232422,114.683595 110.285156,114.874023 110.390625,115.000977 C110.496094,115.12793 110.67578,115.191406 110.929688,115.191406 C111.054688,115.191406 111.226561,115.167969 111.445312,115.121094 L111.445312,116 C111.160155,116.078125 110.882814,116.117188 110.613281,116.117188 C110.128904,116.117188 109.763673,115.970705 109.517578,115.677734 C109.271483,115.384764 109.148438,114.968753 109.148438,114.429688 L109.148438,110.498047 L107.994141,110.498047 L107.994141,109.660156 L109.148438,109.660156 L109.148438,108.125 L110.232422,108.125 Z M113.859375,116 L112.775391,116 L112.775391,109.660156 L113.859375,109.660156 L113.859375,116 Z M112.6875,107.978516 C112.6875,107.802733 112.74121,107.654297 112.848633,107.533203 C112.956055,107.412109 113.115233,107.351562 113.326172,107.351562 C113.53711,107.351562 113.697265,107.412109 113.806641,107.533203 C113.916016,107.654297 113.970703,107.802733 113.970703,107.978516 C113.970703,108.154298 113.916016,108.300781 113.806641,108.417969 C113.697265,108.535157 113.53711,108.59375 113.326172,108.59375 C113.115233,108.59375 112.956055,108.535157 112.848633,108.417969 C112.74121,108.300781 112.6875,108.154298 112.6875,107.978516 Z M115.957031,116 L115.957031,110.498047 L114.955078,110.498047 L114.955078,109.660156 L115.957031,109.660156 L115.957031,109.121094 C115.957031,108.414059 116.159178,107.863283 116.563477,107.46875 C116.967775,107.074217 117.539059,106.876953 118.277344,106.876953 C118.714846,106.876953 119.267575,106.996093 119.935547,107.234375 L119.753906,108.148438 C119.265623,107.953124 118.800783,107.855469 118.359375,107.855469 C117.894529,107.855469 117.559571,107.95996 117.354492,108.168945 C117.149413,108.377931 117.046875,108.691404 117.046875,109.109375 L117.046875,109.660156 L118.341797,109.660156 L118.341797,110.498047 L117.046875,110.498047 L117.046875,116 L115.957031,116 Z M120.474609,116 L119.384766,116 L119.384766,109.660156 L120.474609,109.660156 L120.474609,116 Z M124.78125,115.232422 C125.167971,115.232422 125.505858,115.115236 125.794922,114.880859 C126.083986,114.646483 126.24414,114.353517 126.275391,114.001953 L127.300781,114.001953 C127.28125,114.365236 127.156251,114.710936 126.925781,115.039062 C126.695311,115.367189 126.387697,115.628905 126.00293,115.824219 C125.618162,116.019532 125.21094,116.117188 124.78125,116.117188 C123.917964,116.117188 123.231448,115.829104 122.72168,115.25293 C122.211912,114.676755 121.957031,113.888677 121.957031,112.888672 L121.957031,112.707031 C121.957031,112.089841 122.070311,111.541018 122.296875,111.060547 C122.523439,110.580076 122.848631,110.207033 123.272461,109.941406 C123.696291,109.67578 124.197263,109.542969 124.775391,109.542969 C125.486332,109.542969 126.077146,109.755857 126.547852,110.181641 C127.018557,110.607424 127.269531,111.160153 127.300781,111.839844 L126.275391,111.839844 C126.24414,111.429685 126.088869,111.092775 125.80957,110.829102 C125.530272,110.565428 125.185549,110.433594 124.775391,110.433594 C124.224607,110.433594 123.797853,110.631834 123.495117,111.02832 C123.192381,111.424807 123.041016,111.998043 123.041016,112.748047 L123.041016,112.953125 C123.041016,113.683597 123.191405,114.246092 123.492188,114.640625 C123.79297,115.035158 124.222653,115.232422 124.78125,115.232422 Z M132.433594,116 C132.371093,115.874999 132.320313,115.652345 132.28125,115.332031 C131.777341,115.855471 131.175785,116.117188 130.476562,116.117188 C129.851559,116.117188 129.338869,115.940431 128.938477,115.586914 C128.538084,115.233397 128.337891,114.785159 128.337891,114.242188 C128.337891,113.582028 128.588865,113.069338 129.09082,112.704102 C129.592776,112.338865 130.298824,112.15625 131.208984,112.15625 L132.263672,112.15625 L132.263672,111.658203 C132.263672,111.279295 132.150392,110.97754 131.923828,110.75293 C131.697264,110.528319 131.363283,110.416016 130.921875,110.416016 C130.535154,110.416016 130.210939,110.513671 129.949219,110.708984 C129.687499,110.904298 129.556641,111.140624 129.556641,111.417969 L128.466797,111.417969 C128.466797,111.101561 128.5791,110.7959 128.803711,110.500977 C129.028321,110.206053 129.333006,109.972657 129.717773,109.800781 C130.102541,109.628905 130.525388,109.542969 130.986328,109.542969 C131.716801,109.542969 132.28906,109.725584 132.703125,110.09082 C133.11719,110.456057 133.332031,110.958981 133.347656,111.599609 L133.347656,114.517578 C133.347656,115.099612 133.421874,115.562498 133.570312,115.90625 L133.570312,116 L132.433594,116 Z M130.634766,115.173828 C130.974611,115.173828 131.296873,115.085938 131.601562,114.910156 C131.906252,114.734374 132.126952,114.505861 132.263672,114.224609 L132.263672,112.923828 L131.414062,112.923828 C130.085931,112.923828 129.421875,113.312496 129.421875,114.089844 C129.421875,114.429689 129.535155,114.695312 129.761719,114.886719 C129.988282,115.078126 130.279295,115.173828 130.634766,115.173828 Z M136.517578,108.125 L136.517578,109.660156 L137.701172,109.660156 L137.701172,110.498047 L136.517578,110.498047 L136.517578,114.429688 C136.517578,114.683595 136.570312,114.874023 136.675781,115.000977 C136.781251,115.12793 136.960936,115.191406 137.214844,115.191406 C137.339844,115.191406 137.511718,115.167969 137.730469,115.121094 L137.730469,116 C137.445311,116.078125 137.16797,116.117188 136.898438,116.117188 C136.41406,116.117188 136.048829,115.970705 135.802734,115.677734 C135.556639,115.384764 135.433594,114.968753 135.433594,114.429688 L135.433594,110.498047 L134.279297,110.498047 L134.279297,109.660156 L135.433594,109.660156 L135.433594,108.125 L136.517578,108.125 Z M140.144531,116 L139.060547,116 L139.060547,109.660156 L140.144531,109.660156 L140.144531,116 Z M138.972656,107.978516 C138.972656,107.802733 139.026367,107.654297 139.133789,107.533203 C139.241211,107.412109 139.40039,107.351562 139.611328,107.351562 C139.822267,107.351562 139.982421,107.412109 140.091797,107.533203 C140.201172,107.654297 140.255859,107.802733 140.255859,107.978516 C140.255859,108.154298 140.201172,108.300781 140.091797,108.417969 C139.982421,108.535157 139.822267,108.59375 139.611328,108.59375 C139.40039,108.59375 139.241211,108.535157 139.133789,108.417969 C139.026367,108.300781 138.972656,108.154298 138.972656,107.978516 Z M141.591797,112.771484 C141.591797,112.150388 141.713866,111.591799 141.958008,111.095703 C142.20215,110.599607 142.54199,110.216798 142.977539,109.947266 C143.413088,109.677733 143.910153,109.542969 144.46875,109.542969 C145.332036,109.542969 146.030271,109.841794 146.563477,110.439453 C147.096682,111.037112 147.363281,111.832026 147.363281,112.824219 L147.363281,112.900391 C147.363281,113.517581 147.245118,114.071287 147.008789,114.561523 C146.77246,115.05176 146.434573,115.433592 145.995117,115.707031 C145.555662,115.98047 145.050784,116.117188 144.480469,116.117188 C143.621089,116.117188 142.924807,115.818362 142.391602,115.220703 C141.858396,114.623044 141.591797,113.832036 141.591797,112.847656 L141.591797,112.771484 Z M142.681641,112.900391 C142.681641,113.603519 142.844725,114.167967 143.170898,114.59375 C143.497072,115.019533 143.933591,115.232422 144.480469,115.232422 C145.031253,115.232422 145.468748,115.016604 145.792969,114.584961 C146.117189,114.153318 146.279297,113.548832 146.279297,112.771484 C146.279297,112.076168 146.114259,111.512697 145.78418,111.081055 C145.4541,110.649412 145.015628,110.433594 144.46875,110.433594 C143.933591,110.433594 143.501955,110.646482 143.173828,111.072266 C142.845701,111.498049 142.681641,112.107418 142.681641,112.900391 Z M149.748047,109.660156 L149.783203,110.457031 C150.267581,109.847653 150.900387,109.542969 151.681641,109.542969 C153.021491,109.542969 153.697266,110.298821 153.708984,111.810547 L153.708984,116 L152.625,116 L152.625,111.804688 C152.621094,111.347654 152.516603,111.009767 152.311523,110.791016 C152.106444,110.572265 151.787112,110.462891 151.353516,110.462891 C151.001951,110.462891 150.693361,110.55664 150.427734,110.744141 C150.162108,110.931642 149.955079,111.177733 149.806641,111.482422 L149.806641,116 L148.722656,116 L148.722656,109.660156 L149.748047,109.660156 Z M108.228516,128.529297 L109.798828,123.660156 L110.90625,123.660156 L108.632812,130 L107.806641,130 L105.509766,123.660156 L106.617188,123.660156 L108.228516,128.529297 Z M113.126953,130 L112.042969,130 L112.042969,123.660156 L113.126953,123.660156 L113.126953,130 Z M111.955078,121.978516 C111.955078,121.802733 112.008789,121.654297 112.116211,121.533203 C112.223633,121.412109 112.382811,121.351562 112.59375,121.351562 C112.804689,121.351562 112.964843,121.412109 113.074219,121.533203 C113.183594,121.654297 113.238281,121.802733 113.238281,121.978516 C113.238281,122.154298 113.183594,122.300781 113.074219,122.417969 C112.964843,122.535157 112.804689,122.59375 112.59375,122.59375 C112.382811,122.59375 112.223633,122.535157 112.116211,122.417969 C112.008789,122.300781 111.955078,122.154298 111.955078,121.978516 Z M118.775391,130 C118.71289,129.874999 118.66211,129.652345 118.623047,129.332031 C118.119138,129.855471 117.517582,130.117188 116.818359,130.117188 C116.193356,130.117188 115.680666,129.940431 115.280273,129.586914 C114.879881,129.233397 114.679688,128.785159 114.679688,128.242188 C114.679688,127.582028 114.930662,127.069338 115.432617,126.704102 C115.934573,126.338865 116.64062,126.15625 117.550781,126.15625 L118.605469,126.15625 L118.605469,125.658203 C118.605469,125.279295 118.492189,124.97754 118.265625,124.75293 C118.039061,124.528319 117.70508,124.416016 117.263672,124.416016 C116.876951,124.416016 116.552736,124.513671 116.291016,124.708984 C116.029296,124.904298 115.898438,125.140624 115.898438,125.417969 L114.808594,125.417969 C114.808594,125.101561 114.920897,124.7959 115.145508,124.500977 C115.370118,124.206053 115.674803,123.972657 116.05957,123.800781 C116.444338,123.628905 116.867185,123.542969 117.328125,123.542969 C118.058597,123.542969 118.630857,123.725584 119.044922,124.09082 C119.458986,124.456057 119.673828,124.958981 119.689453,125.599609 L119.689453,128.517578 C119.689453,129.099612 119.763671,129.562498 119.912109,129.90625 L119.912109,130 L118.775391,130 Z M116.976562,129.173828 C117.316408,129.173828 117.63867,129.085938 117.943359,128.910156 C118.248048,128.734374 118.468749,128.505861 118.605469,128.224609 L118.605469,126.923828 L117.755859,126.923828 C116.427728,126.923828 115.763672,127.312496 115.763672,128.089844 C115.763672,128.429689 115.876952,128.695312 116.103516,128.886719 C116.330079,129.078126 116.621092,129.173828 116.976562,129.173828 Z M125.830078,122.125 L125.830078,123.660156 L127.013672,123.660156 L127.013672,124.498047 L125.830078,124.498047 L125.830078,128.429688 C125.830078,128.683595 125.882812,128.874023 125.988281,129.000977 C126.093751,129.12793 126.273436,129.191406 126.527344,129.191406 C126.652344,129.191406 126.824218,129.167969 127.042969,129.121094 L127.042969,130 C126.757811,130.078125 126.48047,130.117188 126.210938,130.117188 C125.72656,130.117188 125.361329,129.970705 125.115234,129.677734 C124.869139,129.384764 124.746094,128.968753 124.746094,128.429688 L124.746094,124.498047 L123.591797,124.498047 L123.591797,123.660156 L124.746094,123.660156 L124.746094,122.125 L125.830078,122.125 Z M130.910156,130.117188 C130.050777,130.117188 129.351565,129.834964 128.8125,129.270508 C128.273435,128.706052 128.003906,127.951177 128.003906,127.005859 L128.003906,126.806641 C128.003906,126.177731 128.124022,125.616213 128.364258,125.12207 C128.604493,124.627927 128.940428,124.241212 129.37207,123.961914 C129.803713,123.682616 130.271482,123.542969 130.775391,123.542969 C131.599613,123.542969 132.240232,123.81445 132.697266,124.357422 C133.154299,124.900393 133.382812,125.677729 133.382812,126.689453 L133.382812,127.140625 L129.087891,127.140625 C129.103516,127.765628 129.286131,128.270506 129.635742,128.655273 C129.985353,129.040041 130.429685,129.232422 130.96875,129.232422 C131.351564,129.232422 131.67578,129.154298 131.941406,128.998047 C132.207033,128.841796 132.439452,128.634767 132.638672,128.376953 L133.300781,128.892578 C132.769529,129.708988 131.972662,130.117188 130.910156,130.117188 Z M130.775391,124.433594 C130.337888,124.433594 129.970705,124.592772 129.673828,124.911133 C129.376952,125.229494 129.19336,125.675778 129.123047,126.25 L132.298828,126.25 L132.298828,126.167969 C132.267578,125.617185 132.119142,125.190431 131.853516,124.887695 C131.587889,124.584959 131.228518,124.433594 130.775391,124.433594 Z M136.763672,125.974609 L138.169922,123.660156 L139.435547,123.660156 L137.361328,126.794922 L139.5,130 L138.246094,130 L136.78125,127.626953 L135.316406,130 L134.056641,130 L136.195312,126.794922 L134.121094,123.660156 L135.375,123.660156 L136.763672,125.974609 Z M142.054688,122.125 L142.054688,123.660156 L143.238281,123.660156 L143.238281,124.498047 L142.054688,124.498047 L142.054688,128.429688 C142.054688,128.683595 142.107421,128.874023 142.212891,129.000977 C142.31836,129.12793 142.498046,129.191406 142.751953,129.191406 C142.876954,129.191406 143.048827,129.167969 143.267578,129.121094 L143.267578,130 C142.98242,130.078125 142.705079,130.117188 142.435547,130.117188 C141.951169,130.117188 141.585939,129.970705 141.339844,129.677734 C141.093749,129.384764 140.970703,128.968753 140.970703,128.429688 L140.970703,124.498047 L139.816406,124.498047 L139.816406,123.660156 L140.970703,123.660156 L140.970703,122.125 L142.054688,122.125 Z"/>
    <path fill="#1F2429" d="M233.976562 41.3730469C233.554685 41.8691431 232.935551 42.1171875 232.119141 42.1171875 231.443356 42.1171875 230.928713 41.9209004 230.575195 41.5283203 230.221678 41.1357402 230.042969 40.5546913 230.039062 39.7851562L230.039062 35.6601562 231.123047 35.6601562 231.123047 39.7558594C231.123047 40.7168017 231.513668 41.1972656 232.294922 41.1972656 233.123051 41.1972656 233.673827 40.888675 233.947266 40.2714844L233.947266 35.6601562 235.03125 35.6601562 235.03125 42 234 42 233.976562 41.3730469zM240.369141 40.3183594C240.369141 40.0253892 240.25879 39.7978524 240.038086 39.6357422 239.817382 39.473632 239.43262 39.333985 238.883789 39.2167969 238.334958 39.0996088 237.899416 38.9589852 237.577148 38.7949219 237.254881 38.6308586 237.016602 38.435548 236.862305 38.2089844 236.708007 37.9824207 236.630859 37.7128922 236.630859 37.4003906 236.630859 36.8808568 236.850584 36.441408 237.290039 36.0820312 237.729494 35.7226545 238.291012 35.5429688 238.974609 35.5429688 239.693363 35.5429688 240.276365 35.7285138 240.723633 36.0996094 241.170901 36.470705 241.394531 36.9453096 241.394531 37.5234375L240.304688 37.5234375C240.304688 37.226561 240.178712 36.9707042 239.926758 36.7558594 239.674803 36.5410146 239.357424 36.4335938 238.974609 36.4335938 238.580076 36.4335938 238.271485 36.5195304 238.048828 36.6914062 237.826171 36.8632821 237.714844 37.0878892 237.714844 37.3652344 237.714844 37.6269544 237.818358 37.8242181 238.025391 37.9570312 238.232423 38.0898444 238.606443 38.2167963 239.147461 38.3378906 239.688479 38.458985 240.126951 38.6035148 240.462891 38.7714844 240.79883 38.939454 241.047851 39.1416004 241.209961 39.3779297 241.372071 39.614259 241.453125 39.9023421 241.453125 40.2421875 241.453125 40.8085966 241.226565 41.2626936 240.773438 41.6044922 240.32031 41.9462908 239.732425 42.1171875 239.009766 42.1171875 238.501951 42.1171875 238.052736 42.0273446 237.662109 41.8476562 237.271482 41.6679679 236.965821 41.4169938 236.745117 41.0947266 236.524413 40.7724593 236.414062 40.42383 236.414062 40.0488281L237.498047 40.0488281C237.517578 40.4121112 237.663085 40.7001942 237.93457 40.9130859 238.206056 41.1259776 238.564451 41.2324219 239.009766 41.2324219 239.419924 41.2324219 239.749022 41.1494149 239.99707 40.9833984 240.245118 40.817382 240.369141 40.5957045 240.369141 40.3183594zM245.496094 42.1171875C244.636714 42.1171875 243.937503 41.8349638 243.398438 41.2705078 242.859372 40.7060519 242.589844 39.9511766 242.589844 39.0058594L242.589844 38.8066406C242.589844 38.1777312 242.70996 37.6162134 242.950195 37.1220703 243.190431 36.6279272 243.526365 36.2412123 243.958008 35.9619141 244.389651 35.6826158 244.857419 35.5429688 245.361328 35.5429688 246.185551 35.5429688 246.82617 35.8144504 247.283203 36.3574219 247.740237 36.9003933 247.96875 37.6777293 247.96875 38.6894531L247.96875 39.140625 243.673828 39.140625C243.689453 39.7656281 243.872069 40.2705059 244.22168 40.6552734 244.571291 41.040041 245.015622 41.2324219 245.554688 41.2324219 245.937502 41.2324219 246.261717 41.1542977 246.527344 40.9980469 246.79297 40.8417961 247.02539 40.6347669 247.224609 40.3769531L247.886719 40.8925781C247.355466 41.7089885 246.558599 42.1171875 245.496094 42.1171875zM245.361328 36.4335938C244.923826 36.4335938 244.556642 36.5927718 244.259766 36.9111328 243.962889 37.2294938 243.779297 37.6757784 243.708984 38.25L246.884766 38.25 246.884766 38.1679688C246.853515 37.6171847 246.705079 37.1904312 246.439453 36.8876953 246.173827 36.5849594 245.814455 36.4335938 245.361328 36.4335938zM252.287109 36.6328125C252.123046 36.6054686 251.945313 36.5917969 251.753906 36.5917969 251.042965 36.5917969 250.560548 36.8945282 250.306641 37.5L250.306641 42 249.222656 42 249.222656 35.6601562 250.277344 35.6601562 250.294922 36.3925781C250.650392 35.826169 251.154294 35.5429688 251.806641 35.5429688 252.017579 35.5429688 252.177734 35.5703122 252.287109 35.625L252.287109 36.6328125zM257.337891 36.4277344C257.818362 35.8378877 258.443356 35.5429688 259.212891 35.5429688 260.552741 35.5429688 261.228516 36.2988206 261.240234 37.8105469L261.240234 42 260.15625 42 260.15625 37.8046875C260.152344 37.347654 260.047853 37.0097667 259.842773 36.7910156 259.637694 36.5722645 259.318362 36.4628906 258.884766 36.4628906 258.533201 36.4628906 258.224611 36.5566397 257.958984 36.7441406 257.693358 36.9316416 257.486329 37.1777329 257.337891 37.4824219L257.337891 42 256.253906 42 256.253906 33 257.337891 33 257.337891 36.4277344zM266.777344 42C266.714843 41.8749994 266.664063 41.6523454 266.625 41.3320312 266.121091 41.8554714 265.519535 42.1171875 264.820312 42.1171875 264.195309 42.1171875 263.682619 41.9404315 263.282227 41.5869141 262.881834 41.2333967 262.681641 40.785159 262.681641 40.2421875 262.681641 39.5820279 262.932615 39.0693378 263.43457 38.7041016 263.936526 38.3388654 264.642574 38.15625 265.552734 38.15625L266.607422 38.15625 266.607422 37.6582031C266.607422 37.279295 266.494142 36.9775402 266.267578 36.7529297 266.041014 36.5283192 265.707033 36.4160156 265.265625 36.4160156 264.878904 36.4160156 264.554689 36.5136709 264.292969 36.7089844 264.031249 36.9042979 263.900391 37.1406236 263.900391 37.4179688L262.810547 37.4179688C262.810547 37.1015609 262.92285 36.7958999 263.147461 36.5009766 263.372071 36.2060532 263.676756 35.9726571 264.061523 35.8007812 264.446291 35.6289054 264.869138 35.5429688 265.330078 35.5429688 266.060551 35.5429688 266.63281 35.7255841 267.046875 36.0908203 267.46094 36.4560565 267.675781 36.9589812 267.691406 37.5996094L267.691406 40.5175781C267.691406 41.0996123 267.765624 41.5624983 267.914062 41.90625L267.914062 42 266.777344 42zM264.978516 41.1738281C265.318361 41.1738281 265.640623 41.0859384 265.945312 40.9101562 266.250002 40.7343741 266.470702 40.5058608 266.607422 40.2246094L266.607422 38.9238281 265.757812 38.9238281C264.429681 38.9238281 263.765625 39.3124961 263.765625 40.0898438 263.765625 40.4296892 263.878905 40.6953115 264.105469 40.8867188 264.332032 41.078126 264.623045 41.1738281 264.978516 41.1738281zM273.082031 40.3183594C273.082031 40.0253892 272.971681 39.7978524 272.750977 39.6357422 272.530272 39.473632 272.145511 39.333985 271.59668 39.2167969 271.047849 39.0996088 270.612306 38.9589852 270.290039 38.7949219 269.967772 38.6308586 269.729493 38.435548 269.575195 38.2089844 269.420898 37.9824207 269.34375 37.7128922 269.34375 37.4003906 269.34375 36.8808568 269.563474 36.441408 270.00293 36.0820312 270.442385 35.7226545 271.003903 35.5429688 271.6875 35.5429688 272.406254 35.5429688 272.989256 35.7285138 273.436523 36.0996094 273.883791 36.470705 274.107422 36.9453096 274.107422 37.5234375L273.017578 37.5234375C273.017578 37.226561 272.891603 36.9707042 272.639648 36.7558594 272.387694 36.5410146 272.070314 36.4335938 271.6875 36.4335938 271.292967 36.4335938 270.984376 36.5195304 270.761719 36.6914062 270.539061 36.8632821 270.427734 37.0878892 270.427734 37.3652344 270.427734 37.6269544 270.531249 37.8242181 270.738281 37.9570312 270.945314 38.0898444 271.319333 38.2167963 271.860352 38.3378906 272.40137 38.458985 272.839842 38.6035148 273.175781 38.7714844 273.51172 38.939454 273.760741 39.1416004 273.922852 39.3779297 274.084962 39.614259 274.166016 39.9023421 274.166016 40.2421875 274.166016 40.8085966 273.939455 41.2626936 273.486328 41.6044922 273.033201 41.9462908 272.445316 42.1171875 271.722656 42.1171875 271.214841 42.1171875 270.765627 42.0273446 270.375 41.8476562 269.984373 41.6679679 269.678712 41.4169938 269.458008 41.0947266 269.237304 40.7724593 269.126953 40.42383 269.126953 40.0488281L270.210938 40.0488281C270.230469 40.4121112 270.375975 40.7001942 270.647461 40.9130859 270.918947 41.1259776 271.277342 41.2324219 271.722656 41.2324219 272.132815 41.2324219 272.461913 41.1494149 272.709961 40.9833984 272.958009 40.817382 273.082031 40.5957045 273.082031 40.3183594zM246.738281 56C246.675781 55.8749994 246.625 55.6523454 246.585938 55.3320312 246.082029 55.8554714 245.480472 56.1171875 244.78125 56.1171875 244.156247 56.1171875 243.643557 55.9404315 243.243164 55.5869141 242.842771 55.2333967 242.642578 54.785159 242.642578 54.2421875 242.642578 53.5820279 242.893552 53.0693378 243.395508 52.7041016 243.897463 52.3388654 244.603511 52.15625 245.513672 52.15625L246.568359 52.15625 246.568359 51.6582031C246.568359 51.279295 246.455079 50.9775402 246.228516 50.7529297 246.001952 50.5283192 245.667971 50.4160156 245.226562 50.4160156 244.839842 50.4160156 244.515626 50.5136709 244.253906 50.7089844 243.992186 50.9042979 243.861328 51.1406236 243.861328 51.4179688L242.771484 51.4179688C242.771484 51.1015609 242.883788 50.7958999 243.108398 50.5009766 243.333009 50.2060532 243.637693 49.9726571 244.022461 49.8007812 244.407228 49.6289054 244.830076 49.5429688 245.291016 49.5429688 246.021488 49.5429688 246.593748 49.7255841 247.007812 50.0908203 247.421877 50.4560565 247.636719 50.9589812 247.652344 51.5996094L247.652344 54.5175781C247.652344 55.0996123 247.726562 55.5624983 247.875 55.90625L247.875 56 246.738281 56zM244.939453 55.1738281C245.279299 55.1738281 245.601561 55.0859384 245.90625 54.9101562 246.210939 54.7343741 246.43164 54.5058608 246.568359 54.2246094L246.568359 52.9238281 245.71875 52.9238281C244.390618 52.9238281 243.726562 53.3124961 243.726562 54.0898438 243.726562 54.4296892 243.839843 54.6953115 244.066406 54.8867188 244.29297 55.078126 244.583983 55.1738281 244.939453 55.1738281zM254.707031 52.9003906C254.707031 53.8652392 254.48633 54.6425752 254.044922 55.2324219 253.603513 55.8222686 253.005863 56.1171875 252.251953 56.1171875 251.482418 56.1171875 250.876955 55.8730493 250.435547 55.3847656L250.435547 58.4375 249.351562 58.4375 249.351562 49.6601562 250.341797 49.6601562 250.394531 50.3632812C250.83594 49.8164035 251.449215 49.5429688 252.234375 49.5429688 252.996098 49.5429688 253.598631 49.8300753 254.041992 50.4042969 254.485354 50.9785185 254.707031 51.7773386 254.707031 52.8007812L254.707031 52.9003906zM253.623047 52.7773438C253.623047 52.0624964 253.470705 51.4980489 253.166016 51.0839844 252.861327 50.6699198 252.443362 50.4628906 251.912109 50.4628906 251.255856 50.4628906 250.763674 50.7539033 250.435547 51.3359375L250.435547 54.3652344C250.759767 54.9433623 251.255856 55.2324219 251.923828 55.2324219 252.443362 55.2324219 252.856444 55.0263692 253.163086 54.6142578 253.469728 54.2021464 253.623047 53.5898478 253.623047 52.7773438zM261.439453 52.9003906C261.439453 53.8652392 261.218752 54.6425752 260.777344 55.2324219 260.335935 55.8222686 259.738285 56.1171875 258.984375 56.1171875 258.21484 56.1171875 257.609377 55.8730493 257.167969 55.3847656L257.167969 58.4375 256.083984 58.4375 256.083984 49.6601562 257.074219 49.6601562 257.126953 50.3632812C257.568362 49.8164035 258.181637 49.5429688 258.966797 49.5429688 259.728519 49.5429688 260.331052 49.8300753 260.774414 50.4042969 261.217776 50.9785185 261.439453 51.7773386 261.439453 52.8007812L261.439453 52.9003906zM260.355469 52.7773438C260.355469 52.0624964 260.203127 51.4980489 259.898438 51.0839844 259.593748 50.6699198 259.175784 50.4628906 258.644531 50.4628906 257.988278 50.4628906 257.496095 50.7539033 257.167969 51.3359375L257.167969 54.3652344C257.492189 54.9433623 257.988278 55.2324219 258.65625 55.2324219 259.175784 55.2324219 259.588866 55.0263692 259.895508 54.6142578 260.20215 54.2021464 260.355469 53.5898478 260.355469 52.7773438zM230.060547 182.373047C229.63867 182.869143 229.019535 183.117188 228.203125 183.117188 227.52734 183.117188 227.012697 182.9209 226.65918 182.52832 226.305662 182.13574 226.126953 181.554691 226.123047 180.785156L226.123047 176.660156 227.207031 176.660156 227.207031 180.755859C227.207031 181.716802 227.597652 182.197266 228.378906 182.197266 229.207035 182.197266 229.757811 181.888675 230.03125 181.271484L230.03125 176.660156 231.115234 176.660156 231.115234 183 230.083984 183 230.060547 182.373047zM236.453125 181.318359C236.453125 181.025389 236.342775 180.797852 236.12207 180.635742 235.901366 180.473632 235.516604 180.333985 234.967773 180.216797 234.418943 180.099609 233.9834 179.958985 233.661133 179.794922 233.338866 179.630859 233.100587 179.435548 232.946289 179.208984 232.791991 178.982421 232.714844 178.712892 232.714844 178.400391 232.714844 177.880857 232.934568 177.441408 233.374023 177.082031 233.813479 176.722654 234.374997 176.542969 235.058594 176.542969 235.777347 176.542969 236.360349 176.728514 236.807617 177.099609 237.254885 177.470705 237.478516 177.94531 237.478516 178.523438L236.388672 178.523438C236.388672 178.226561 236.262697 177.970704 236.010742 177.755859 235.758788 177.541015 235.441408 177.433594 235.058594 177.433594 234.664061 177.433594 234.35547 177.51953 234.132812 177.691406 233.910155 177.863282 233.798828 178.087889 233.798828 178.365234 233.798828 178.626954 233.902343 178.824218 234.109375 178.957031 234.316407 179.089844 234.690427 179.216796 235.231445 179.337891 235.772464 179.458985 236.210936 179.603515 236.546875 179.771484 236.882814 179.939454 237.131835 180.1416 237.293945 180.37793 237.456055 180.614259 237.537109 180.902342 237.537109 181.242188 237.537109 181.808597 237.310549 182.262694 236.857422 182.604492 236.404295 182.946291 235.81641 183.117188 235.09375 183.117188 234.585935 183.117188 234.136721 183.027345 233.746094 182.847656 233.355467 182.667968 233.049806 182.416994 232.829102 182.094727 232.608397 181.772459 232.498047 181.42383 232.498047 181.048828L233.582031 181.048828C233.601563 181.412111 233.747069 181.700194 234.018555 181.913086 234.29004 182.125978 234.648435 182.232422 235.09375 182.232422 235.503908 182.232422 235.833007 182.149415 236.081055 181.983398 236.329103 181.817382 236.453125 181.595705 236.453125 181.318359zM241.580078 183.117188C240.720699 183.117188 240.021487 182.834964 239.482422 182.270508 238.943357 181.706052 238.673828 180.951177 238.673828 180.005859L238.673828 179.806641C238.673828 179.177731 238.793944 178.616213 239.03418 178.12207 239.274415 177.627927 239.610349 177.241212 240.041992 176.961914 240.473635 176.682616 240.941404 176.542969 241.445312 176.542969 242.269535 176.542969 242.910154 176.81445 243.367188 177.357422 243.824221 177.900393 244.052734 178.677729 244.052734 179.689453L244.052734 180.140625 239.757812 180.140625C239.773438 180.765628 239.956053 181.270506 240.305664 181.655273 240.655275 182.040041 241.099607 182.232422 241.638672 182.232422 242.021486 182.232422 242.345702 182.154298 242.611328 181.998047 242.876954 181.841796 243.109374 181.634767 243.308594 181.376953L243.970703 181.892578C243.43945 182.708988 242.642583 183.117188 241.580078 183.117188zM241.445312 177.433594C241.00781 177.433594 240.640626 177.592772 240.34375 177.911133 240.046874 178.229494 239.863282 178.675778 239.792969 179.25L242.96875 179.25 242.96875 179.167969C242.9375 178.617185 242.789064 178.190431 242.523438 177.887695 242.257811 177.584959 241.89844 177.433594 241.445312 177.433594zM248.371094 177.632812C248.20703 177.605469 248.029298 177.591797 247.837891 177.591797 247.12695 177.591797 246.644533 177.894528 246.390625 178.5L246.390625 183 245.306641 183 245.306641 176.660156 246.361328 176.660156 246.378906 177.392578C246.734377 176.826169 247.238278 176.542969 247.890625 176.542969 248.101564 176.542969 248.261718 176.570312 248.371094 176.625L248.371094 177.632812zM252.074219 179.777344C252.074219 178.804683 252.304685 178.022464 252.765625 177.430664 253.226565 176.838864 253.830074 176.542969 254.576172 176.542969 255.318363 176.542969 255.906248 176.796872 256.339844 177.304688L256.339844 174 257.423828 174 257.423828 183 256.427734 183 256.375 182.320312C255.941404 182.851565 255.337894 183.117188 254.564453 183.117188 253.830074 183.117188 253.231448 182.816409 252.768555 182.214844 252.305662 181.613278 252.074219 180.82813 252.074219 179.859375L252.074219 179.777344zM253.158203 179.900391C253.158203 180.619144 253.306639 181.181639 253.603516 181.587891 253.900392 181.994143 254.310544 182.197266 254.833984 182.197266 255.521488 182.197266 256.023436 181.888675 256.339844 181.271484L256.339844 178.359375C256.015623 177.761716 255.517581 177.462891 254.845703 177.462891 254.31445 177.462891 253.900392 177.667967 253.603516 178.078125 253.306639 178.488283 253.158203 179.095699 253.158203 179.900391zM258.818359 179.771484C258.818359 179.150388 258.940428 178.591799 259.18457 178.095703 259.428712 177.599607 259.768553 177.216798 260.204102 176.947266 260.639651 176.677733 261.136716 176.542969 261.695312 176.542969 262.558598 176.542969 263.256833 176.841794 263.790039 177.439453 264.323245 178.037112 264.589844 178.832026 264.589844 179.824219L264.589844 179.900391C264.589844 180.517581 264.471681 181.071287 264.235352 181.561523 263.999022 182.05176 263.661135 182.433592 263.22168 182.707031 262.782224 182.98047 262.277347 183.117188 261.707031 183.117188 260.847652 183.117188 260.15137 182.818362 259.618164 182.220703 259.084958 181.623044 258.818359 180.832036 258.818359 179.847656L258.818359 179.771484zM259.908203 179.900391C259.908203 180.603519 260.071287 181.167967 260.397461 181.59375 260.723634 182.019533 261.160154 182.232422 261.707031 182.232422 262.257815 182.232422 262.695311 182.016604 263.019531 181.584961 263.343752 181.153318 263.505859 180.548832 263.505859 179.771484 263.505859 179.076168 263.340822 178.512697 263.010742 178.081055 262.680662 177.649412 262.24219 177.433594 261.695312 177.433594 261.160154 177.433594 260.728517 177.646482 260.400391 178.072266 260.072264 178.498049 259.908203 179.107418 259.908203 179.900391zM268.580078 183.117188C267.720699 183.117188 267.021487 182.834964 266.482422 182.270508 265.943357 181.706052 265.673828 180.951177 265.673828 180.005859L265.673828 179.806641C265.673828 179.177731 265.793944 178.616213 266.03418 178.12207 266.274415 177.627927 266.610349 177.241212 267.041992 176.961914 267.473635 176.682616 267.941404 176.542969 268.445312 176.542969 269.269535 176.542969 269.910154 176.81445 270.367188 177.357422 270.824221 177.900393 271.052734 178.677729 271.052734 179.689453L271.052734 180.140625 266.757812 180.140625C266.773438 180.765628 266.956053 181.270506 267.305664 181.655273 267.655275 182.040041 268.099607 182.232422 268.638672 182.232422 269.021486 182.232422 269.345702 182.154298 269.611328 181.998047 269.876954 181.841796 270.109374 181.634767 270.308594 181.376953L270.970703 181.892578C270.43945 182.708988 269.642583 183.117188 268.580078 183.117188zM268.445312 177.433594C268.00781 177.433594 267.640626 177.592772 267.34375 177.911133 267.046874 178.229494 266.863282 178.675778 266.792969 179.25L269.96875 179.25 269.96875 179.167969C269.9375 178.617185 269.789064 178.190431 269.523438 177.887695 269.257811 177.584959 268.89844 177.433594 268.445312 177.433594zM275.998047 181.318359C275.998047 181.025389 275.887696 180.797852 275.666992 180.635742 275.446288 180.473632 275.061526 180.333985 274.512695 180.216797 273.963864 180.099609 273.528322 179.958985 273.206055 179.794922 272.883787 179.630859 272.645509 179.435548 272.491211 179.208984 272.336913 178.982421 272.259766 178.712892 272.259766 178.400391 272.259766 177.880857 272.47949 177.441408 272.918945 177.082031 273.358401 176.722654 273.919918 176.542969 274.603516 176.542969 275.322269 176.542969 275.905271 176.728514 276.352539 177.099609 276.799807 177.470705 277.023438 177.94531 277.023438 178.523438L275.933594 178.523438C275.933594 178.226561 275.807618 177.970704 275.555664 177.755859 275.30371 177.541015 274.98633 177.433594 274.603516 177.433594 274.208982 177.433594 273.900392 177.51953 273.677734 177.691406 273.455077 177.863282 273.34375 178.087889 273.34375 178.365234 273.34375 178.626954 273.447265 178.824218 273.654297 178.957031 273.861329 179.089844 274.235349 179.216796 274.776367 179.337891 275.317386 179.458985 275.755858 179.603515 276.091797 179.771484 276.427736 179.939454 276.676757 180.1416 276.838867 180.37793 277.000977 180.614259 277.082031 180.902342 277.082031 181.242188 277.082031 181.808597 276.855471 182.262694 276.402344 182.604492 275.949216 182.946291 275.361332 183.117188 274.638672 183.117188 274.130857 183.117188 273.681643 183.027345 273.291016 182.847656 272.900389 182.667968 272.594728 182.416994 272.374023 182.094727 272.153319 181.772459 272.042969 181.42383 272.042969 181.048828L273.126953 181.048828C273.146484 181.412111 273.291991 181.700194 273.563477 181.913086 273.834962 182.125978 274.193357 182.232422 274.638672 182.232422 275.04883 182.232422 275.377928 182.149415 275.625977 181.983398 275.874025 181.817382 275.998047 181.595705 275.998047 181.318359zM230.514648 190.660156L230.549805 191.457031C231.034182 190.847653 231.666988 190.542969 232.448242 190.542969 233.788093 190.542969 234.463867 191.298821 234.475586 192.810547L234.475586 197 233.391602 197 233.391602 192.804688C233.387695 192.347654 233.283204 192.009767 233.078125 191.791016 232.873046 191.572265 232.553713 191.462891 232.120117 191.462891 231.768553 191.462891 231.459962 191.55664 231.194336 191.744141 230.92871 191.931642 230.72168 192.177733 230.573242 192.482422L230.573242 197 229.489258 197 229.489258 190.660156 230.514648 190.660156zM235.823242 193.771484C235.823242 193.150388 235.945311 192.591799 236.189453 192.095703 236.433595 191.599607 236.773435 191.216798 237.208984 190.947266 237.644533 190.677733 238.141599 190.542969 238.700195 190.542969 239.563481 190.542969 240.261716 190.841794 240.794922 191.439453 241.328128 192.037112 241.594727 192.832026 241.594727 193.824219L241.594727 193.900391C241.594727 194.517581 241.476564 195.071287 241.240234 195.561523 241.003905 196.05176 240.666018 196.433592 240.226562 196.707031 239.787107 196.98047 239.282229 197.117188 238.711914 197.117188 237.852535 197.117188 237.156253 196.818362 236.623047 196.220703 236.089841 195.623044 235.823242 194.832036 235.823242 193.847656L235.823242 193.771484zM236.913086 193.900391C236.913086 194.603519 237.07617 195.167967 237.402344 195.59375 237.728517 196.019533 238.165036 196.232422 238.711914 196.232422 239.262698 196.232422 239.700194 196.016604 240.024414 195.584961 240.348634 195.153318 240.510742 194.548832 240.510742 193.771484 240.510742 193.076168 240.345705 192.512697 240.015625 192.081055 239.685545 191.649412 239.247073 191.433594 238.700195 191.433594 238.165036 191.433594 237.7334 191.646482 237.405273 192.072266 237.077147 192.498049 236.913086 193.107418 236.913086 193.900391zM244.424805 189.125L244.424805 190.660156 245.608398 190.660156 245.608398 191.498047 244.424805 191.498047 244.424805 195.429688C244.424805 195.683595 244.477539 195.874023 244.583008 196.000977 244.688477 196.12793 244.868163 196.191406 245.12207 196.191406 245.247071 196.191406 245.418944 196.167969 245.637695 196.121094L245.637695 197C245.352538 197.078125 245.075197 197.117188 244.805664 197.117188 244.321287 197.117188 243.956056 196.970705 243.709961 196.677734 243.463866 196.384764 243.34082 195.968753 243.34082 195.429688L243.34082 191.498047 242.186523 191.498047 242.186523 190.660156 243.34082 190.660156 243.34082 189.125 244.424805 189.125zM250.928711 191.427734C251.409182 190.837888 252.034176 190.542969 252.803711 190.542969 254.143561 190.542969 254.819336 191.298821 254.831055 192.810547L254.831055 197 253.74707 197 253.74707 192.804688C253.743164 192.347654 253.638673 192.009767 253.433594 191.791016 253.228515 191.572265 252.909182 191.462891 252.475586 191.462891 252.124022 191.462891 251.815431 191.55664 251.549805 191.744141 251.284178 191.931642 251.077149 192.177733 250.928711 192.482422L250.928711 197 249.844727 197 249.844727 188 250.928711 188 250.928711 191.427734zM260.368164 197C260.305664 196.874999 260.254883 196.652345 260.21582 196.332031 259.711912 196.855471 259.110355 197.117188 258.411133 197.117188 257.78613 197.117188 257.27344 196.940431 256.873047 196.586914 256.472654 196.233397 256.272461 195.785159 256.272461 195.242188 256.272461 194.582028 256.523435 194.069338 257.025391 193.704102 257.527346 193.338865 258.233394 193.15625 259.143555 193.15625L260.198242 193.15625 260.198242 192.658203C260.198242 192.279295 260.084962 191.97754 259.858398 191.75293 259.631835 191.528319 259.297854 191.416016 258.856445 191.416016 258.469725 191.416016 258.145509 191.513671 257.883789 191.708984 257.622069 191.904298 257.491211 192.140624 257.491211 192.417969L256.401367 192.417969C256.401367 192.101561 256.513671 191.7959 256.738281 191.500977 256.962892 191.206053 257.267576 190.972657 257.652344 190.800781 258.037111 190.628905 258.459959 190.542969 258.920898 190.542969 259.651371 190.542969 260.223631 190.725584 260.637695 191.09082 261.05176 191.456057 261.266601 191.958981 261.282227 192.599609L261.282227 195.517578C261.282227 196.099612 261.356445 196.562498 261.504883 196.90625L261.504883 197 260.368164 197zM258.569336 196.173828C258.909181 196.173828 259.231444 196.085938 259.536133 195.910156 259.840822 195.734374 260.061523 195.505861 260.198242 195.224609L260.198242 193.923828 259.348633 193.923828C258.020501 193.923828 257.356445 194.312496 257.356445 195.089844 257.356445 195.429689 257.469725 195.695312 257.696289 195.886719 257.922853 196.078126 258.213865 196.173828 258.569336 196.173828zM265.073242 195.529297L266.643555 190.660156 267.750977 190.660156 265.477539 197 264.651367 197 262.354492 190.660156 263.461914 190.660156 265.073242 195.529297zM271.424805 197.117188C270.565425 197.117188 269.866214 196.834964 269.327148 196.270508 268.788083 195.706052 268.518555 194.951177 268.518555 194.005859L268.518555 193.806641C268.518555 193.177731 268.638671 192.616213 268.878906 192.12207 269.119142 191.627927 269.455076 191.241212 269.886719 190.961914 270.318362 190.682616 270.78613 190.542969 271.290039 190.542969 272.114262 190.542969 272.754881 190.81445 273.211914 191.357422 273.668948 191.900393 273.897461 192.677729 273.897461 193.689453L273.897461 194.140625 269.602539 194.140625C269.618164 194.765628 269.80078 195.270506 270.150391 195.655273 270.500002 196.040041 270.944333 196.232422 271.483398 196.232422 271.866213 196.232422 272.190428 196.154298 272.456055 195.998047 272.721681 195.841796 272.954101 195.634767 273.15332 195.376953L273.81543 195.892578C273.284177 196.708988 272.48731 197.117188 271.424805 197.117188zM271.290039 191.433594C270.852537 191.433594 270.485353 191.592772 270.188477 191.911133 269.8916 192.229494 269.708008 192.675778 269.637695 193.25L272.813477 193.25 272.813477 193.167969C272.782226 192.617185 272.63379 192.190431 272.368164 191.887695 272.102538 191.584959 271.743166 191.433594 271.290039 191.433594zM246.238281 211C246.175781 210.874999 246.125 210.652345 246.085938 210.332031 245.582029 210.855471 244.980472 211.117188 244.28125 211.117188 243.656247 211.117188 243.143557 210.940431 242.743164 210.586914 242.342771 210.233397 242.142578 209.785159 242.142578 209.242188 242.142578 208.582028 242.393552 208.069338 242.895508 207.704102 243.397463 207.338865 244.103511 207.15625 245.013672 207.15625L246.068359 207.15625 246.068359 206.658203C246.068359 206.279295 245.955079 205.97754 245.728516 205.75293 245.501952 205.528319 245.167971 205.416016 244.726562 205.416016 244.339842 205.416016 244.015626 205.513671 243.753906 205.708984 243.492186 205.904298 243.361328 206.140624 243.361328 206.417969L242.271484 206.417969C242.271484 206.101561 242.383788 205.7959 242.608398 205.500977 242.833009 205.206053 243.137693 204.972657 243.522461 204.800781 243.907228 204.628905 244.330076 204.542969 244.791016 204.542969 245.521488 204.542969 246.093748 204.725584 246.507812 205.09082 246.921877 205.456057 247.136719 205.958981 247.152344 206.599609L247.152344 209.517578C247.152344 210.099612 247.226562 210.562498 247.375 210.90625L247.375 211 246.238281 211zM244.439453 210.173828C244.779299 210.173828 245.101561 210.085938 245.40625 209.910156 245.710939 209.734374 245.93164 209.505861 246.068359 209.224609L246.068359 207.923828 245.21875 207.923828C243.890618 207.923828 243.226562 208.312496 243.226562 209.089844 243.226562 209.429689 243.339843 209.695312 243.566406 209.886719 243.79297 210.078126 244.083983 210.173828 244.439453 210.173828zM254.207031 207.900391C254.207031 208.865239 253.98633 209.642575 253.544922 210.232422 253.103513 210.822269 252.505863 211.117188 251.751953 211.117188 250.982418 211.117188 250.376955 210.873049 249.935547 210.384766L249.935547 213.4375 248.851562 213.4375 248.851562 204.660156 249.841797 204.660156 249.894531 205.363281C250.33594 204.816404 250.949215 204.542969 251.734375 204.542969 252.496098 204.542969 253.098631 204.830075 253.541992 205.404297 253.985354 205.978518 254.207031 206.777339 254.207031 207.800781L254.207031 207.900391zM253.123047 207.777344C253.123047 207.062496 252.970705 206.498049 252.666016 206.083984 252.361327 205.66992 251.943362 205.462891 251.412109 205.462891 250.755856 205.462891 250.263674 205.753903 249.935547 206.335938L249.935547 209.365234C250.259767 209.943362 250.755856 210.232422 251.423828 210.232422 251.943362 210.232422 252.356444 210.026369 252.663086 209.614258 252.969728 209.202146 253.123047 208.589848 253.123047 207.777344zM260.939453 207.900391C260.939453 208.865239 260.718752 209.642575 260.277344 210.232422 259.835935 210.822269 259.238285 211.117188 258.484375 211.117188 257.71484 211.117188 257.109377 210.873049 256.667969 210.384766L256.667969 213.4375 255.583984 213.4375 255.583984 204.660156 256.574219 204.660156 256.626953 205.363281C257.068362 204.816404 257.681637 204.542969 258.466797 204.542969 259.228519 204.542969 259.831052 204.830075 260.274414 205.404297 260.717776 205.978518 260.939453 206.777339 260.939453 207.800781L260.939453 207.900391zM259.855469 207.777344C259.855469 207.062496 259.703127 206.498049 259.398438 206.083984 259.093748 205.66992 258.675784 205.462891 258.144531 205.462891 257.488278 205.462891 256.996095 205.753903 256.667969 206.335938L256.667969 209.365234C256.992189 209.943362 257.488278 210.232422 258.15625 210.232422 258.675784 210.232422 259.088866 210.026369 259.395508 209.614258 259.70215 209.202146 259.855469 208.589848 259.855469 207.777344z"/>
    <rect width="83" height="83" x="316" y="151" fill="#252C33"/>
    <path fill="#FFF" d="M352.738281,190 C352.675781,189.874999 352.625,189.652345 352.585938,189.332031 C352.082029,189.855471 351.480472,190.117188 350.78125,190.117188 C350.156247,190.117188 349.643557,189.940431 349.243164,189.586914 C348.842771,189.233397 348.642578,188.785159 348.642578,188.242188 C348.642578,187.582028 348.893552,187.069338 349.395508,186.704102 C349.897463,186.338865 350.603511,186.15625 351.513672,186.15625 L352.568359,186.15625 L352.568359,185.658203 C352.568359,185.279295 352.455079,184.97754 352.228516,184.75293 C352.001952,184.528319 351.667971,184.416016 351.226562,184.416016 C350.839842,184.416016 350.515626,184.513671 350.253906,184.708984 C349.992186,184.904298 349.861328,185.140624 349.861328,185.417969 L348.771484,185.417969 C348.771484,185.101561 348.883788,184.7959 349.108398,184.500977 C349.333009,184.206053 349.637693,183.972657 350.022461,183.800781 C350.407228,183.628905 350.830076,183.542969 351.291016,183.542969 C352.021488,183.542969 352.593748,183.725584 353.007812,184.09082 C353.421877,184.456057 353.636719,184.958981 353.652344,185.599609 L353.652344,188.517578 C353.652344,189.099612 353.726562,189.562498 353.875,189.90625 L353.875,190 L352.738281,190 Z M350.939453,189.173828 C351.279299,189.173828 351.601561,189.085938 351.90625,188.910156 C352.210939,188.734374 352.43164,188.505861 352.568359,188.224609 L352.568359,186.923828 L351.71875,186.923828 C350.390618,186.923828 349.726562,187.312496 349.726562,188.089844 C349.726562,188.429689 349.839843,188.695312 350.066406,188.886719 C350.29297,189.078126 350.583983,189.173828 350.939453,189.173828 Z M360.707031,186.900391 C360.707031,187.865239 360.48633,188.642575 360.044922,189.232422 C359.603513,189.822269 359.005863,190.117188 358.251953,190.117188 C357.482418,190.117188 356.876955,189.873049 356.435547,189.384766 L356.435547,192.4375 L355.351562,192.4375 L355.351562,183.660156 L356.341797,183.660156 L356.394531,184.363281 C356.83594,183.816404 357.449215,183.542969 358.234375,183.542969 C358.996098,183.542969 359.598631,183.830075 360.041992,184.404297 C360.485354,184.978518 360.707031,185.777339 360.707031,186.800781 L360.707031,186.900391 Z M359.623047,186.777344 C359.623047,186.062496 359.470705,185.498049 359.166016,185.083984 C358.861327,184.66992 358.443362,184.462891 357.912109,184.462891 C357.255856,184.462891 356.763674,184.753903 356.435547,185.335938 L356.435547,188.365234 C356.759767,188.943362 357.255856,189.232422 357.923828,189.232422 C358.443362,189.232422 358.856444,189.026369 359.163086,188.614258 C359.469728,188.202146 359.623047,187.589848 359.623047,186.777344 Z M367.439453,186.900391 C367.439453,187.865239 367.218752,188.642575 366.777344,189.232422 C366.335935,189.822269 365.738285,190.117188 364.984375,190.117188 C364.21484,190.117188 363.609377,189.873049 363.167969,189.384766 L363.167969,192.4375 L362.083984,192.4375 L362.083984,183.660156 L363.074219,183.660156 L363.126953,184.363281 C363.568362,183.816404 364.181637,183.542969 364.966797,183.542969 C365.728519,183.542969 366.331052,183.830075 366.774414,184.404297 C367.217776,184.978518 367.439453,185.777339 367.439453,186.800781 L367.439453,186.900391 Z M366.355469,186.777344 C366.355469,186.062496 366.203127,185.498049 365.898438,185.083984 C365.593748,184.66992 365.175784,184.462891 364.644531,184.462891 C363.988278,184.462891 363.496095,184.753903 363.167969,185.335938 L363.167969,188.365234 C363.492189,188.943362 363.988278,189.232422 364.65625,189.232422 C365.175784,189.232422 365.588866,189.026369 365.895508,188.614258 C366.20215,188.202146 366.355469,187.589848 366.355469,186.777344 Z M348.827148,202.318359 C348.827148,202.025389 348.716798,201.797852 348.496094,201.635742 C348.27539,201.473632 347.890628,201.333985 347.341797,201.216797 C346.792966,201.099609 346.357423,200.958985 346.035156,200.794922 C345.712889,200.630859 345.47461,200.435548 345.320312,200.208984 C345.166015,199.982421 345.088867,199.712892 345.088867,199.400391 C345.088867,198.880857 345.308592,198.441408 345.748047,198.082031 C346.187502,197.722654 346.74902,197.542969 347.432617,197.542969 C348.151371,197.542969 348.734373,197.728514 349.181641,198.099609 C349.628908,198.470705 349.852539,198.94531 349.852539,199.523438 L348.762695,199.523438 C348.762695,199.226561 348.63672,198.970704 348.384766,198.755859 C348.132811,198.541015 347.815432,198.433594 347.432617,198.433594 C347.038084,198.433594 346.729493,198.51953 346.506836,198.691406 C346.284179,198.863282 346.172852,199.087889 346.172852,199.365234 C346.172852,199.626954 346.276366,199.824218 346.483398,199.957031 C346.690431,200.089844 347.06445,200.216796 347.605469,200.337891 C348.146487,200.458985 348.584959,200.603515 348.920898,200.771484 C349.256838,200.939454 349.505859,201.1416 349.667969,201.37793 C349.830079,201.614259 349.911133,201.902342 349.911133,202.242188 C349.911133,202.808597 349.684573,203.262694 349.231445,203.604492 C348.778318,203.946291 348.190433,204.117188 347.467773,204.117188 C346.959958,204.117188 346.510744,204.027345 346.120117,203.847656 C345.72949,203.667968 345.423829,203.416994 345.203125,203.094727 C344.982421,202.772459 344.87207,202.42383 344.87207,202.048828 L345.956055,202.048828 C345.975586,202.412111 346.121092,202.700194 346.392578,202.913086 C346.664064,203.125978 347.022459,203.232422 347.467773,203.232422 C347.877932,203.232422 348.20703,203.149415 348.455078,202.983398 C348.703126,202.817382 348.827148,202.595705 348.827148,202.318359 Z M352.793945,196.125 L352.793945,197.660156 L353.977539,197.660156 L353.977539,198.498047 L352.793945,198.498047 L352.793945,202.429688 C352.793945,202.683595 352.846679,202.874023 352.952148,203.000977 C353.057618,203.12793 353.237303,203.191406 353.491211,203.191406 C353.616212,203.191406 353.788085,203.167969 354.006836,203.121094 L354.006836,204 C353.721678,204.078125 353.444337,204.117188 353.174805,204.117188 C352.690427,204.117188 352.325197,203.970705 352.079102,203.677734 C351.833007,203.384764 351.709961,202.968753 351.709961,202.429688 L351.709961,198.498047 L350.555664,198.498047 L350.555664,197.660156 L351.709961,197.660156 L351.709961,196.125 L352.793945,196.125 Z M354.956055,200.771484 C354.956055,200.150388 355.078124,199.591799 355.322266,199.095703 C355.566407,198.599607 355.906248,198.216798 356.341797,197.947266 C356.777346,197.677733 357.274411,197.542969 357.833008,197.542969 C358.696293,197.542969 359.394529,197.841794 359.927734,198.439453 C360.46094,199.037112 360.727539,199.832026 360.727539,200.824219 L360.727539,200.900391 C360.727539,201.517581 360.609376,202.071287 360.373047,202.561523 C360.136718,203.05176 359.79883,203.433592 359.359375,203.707031 C358.91992,203.98047 358.415042,204.117188 357.844727,204.117188 C356.985347,204.117188 356.289065,203.818362 355.755859,203.220703 C355.222654,202.623044 354.956055,201.832036 354.956055,200.847656 L354.956055,200.771484 Z M356.045898,200.900391 C356.045898,201.603519 356.208983,202.167967 356.535156,202.59375 C356.86133,203.019533 357.297849,203.232422 357.844727,203.232422 C358.395511,203.232422 358.833006,203.016604 359.157227,202.584961 C359.481447,202.153318 359.643555,201.548832 359.643555,200.771484 C359.643555,200.076168 359.478517,199.512697 359.148438,199.081055 C358.818358,198.649412 358.379886,198.433594 357.833008,198.433594 C357.297849,198.433594 356.866213,198.646482 356.538086,199.072266 C356.209959,199.498049 356.045898,200.107418 356.045898,200.900391 Z M365.151367,198.632812 C364.987304,198.605469 364.809571,198.591797 364.618164,198.591797 C363.907223,198.591797 363.424806,198.894528 363.170898,199.5 L363.170898,204 L362.086914,204 L362.086914,197.660156 L363.141602,197.660156 L363.15918,198.392578 C363.51465,197.826169 364.018551,197.542969 364.670898,197.542969 C364.881837,197.542969 365.041992,197.570312 365.151367,197.625 L365.151367,198.632812 Z M368.77832,204.117188 C367.918941,204.117188 367.219729,203.834964 366.680664,203.270508 C366.141599,202.706052 365.87207,201.951177 365.87207,201.005859 L365.87207,200.806641 C365.87207,200.177731 365.992186,199.616213 366.232422,199.12207 C366.472657,198.627927 366.808592,198.241212 367.240234,197.961914 C367.671877,197.682616 368.139646,197.542969 368.643555,197.542969 C369.467778,197.542969 370.108396,197.81445 370.56543,198.357422 C371.022463,198.900393 371.250977,199.677729 371.250977,200.689453 L371.250977,201.140625 L366.956055,201.140625 C366.97168,201.765628 367.154295,202.270506 367.503906,202.655273 C367.853517,203.040041 368.297849,203.232422 368.836914,203.232422 C369.219728,203.232422 369.543944,203.154298 369.80957,202.998047 C370.075197,202.841796 370.307616,202.634767 370.506836,202.376953 L371.168945,202.892578 C370.637693,203.708988 369.840826,204.117188 368.77832,204.117188 Z M368.643555,198.433594 C368.206053,198.433594 367.838869,198.592772 367.541992,198.911133 C367.245116,199.229494 367.061524,199.675778 366.991211,200.25 L370.166992,200.25 L370.166992,200.167969 C370.135742,199.617185 369.987306,199.190431 369.72168,198.887695 C369.456053,198.584959 369.096682,198.433594 368.643555,198.433594 Z"/>
    <rect width="83" height="83" x="427" y="151" fill="#252C33"/>
    <path fill="#FFF" d="M442.90625,193.777344 C442.90625,192.804683 443.136716,192.022464 443.597656,191.430664 C444.058596,190.838864 444.662106,190.542969 445.408203,190.542969 C446.150394,190.542969 446.738279,190.796872 447.171875,191.304688 L447.171875,188 L448.255859,188 L448.255859,197 L447.259766,197 L447.207031,196.320312 C446.773435,196.851565 446.169926,197.117188 445.396484,197.117188 C444.662106,197.117188 444.063479,196.816409 443.600586,196.214844 C443.137693,195.613278 442.90625,194.82813 442.90625,193.859375 L442.90625,193.777344 Z M443.990234,193.900391 C443.990234,194.619144 444.13867,195.181639 444.435547,195.587891 C444.732423,195.994143 445.142576,196.197266 445.666016,196.197266 C446.353519,196.197266 446.855467,195.888675 447.171875,195.271484 L447.171875,192.359375 C446.847655,191.761716 446.349613,191.462891 445.677734,191.462891 C445.146482,191.462891 444.732423,191.667967 444.435547,192.078125 C444.13867,192.488283 443.990234,193.095699 443.990234,193.900391 Z M449.650391,193.771484 C449.650391,193.150388 449.77246,192.591799 450.016602,192.095703 C450.260743,191.599607 450.600584,191.216798 451.036133,190.947266 C451.471682,190.677733 451.968747,190.542969 452.527344,190.542969 C453.390629,190.542969 454.088865,190.841794 454.62207,191.439453 C455.155276,192.037112 455.421875,192.832026 455.421875,193.824219 L455.421875,193.900391 C455.421875,194.517581 455.303712,195.071287 455.067383,195.561523 C454.831054,196.05176 454.493166,196.433592 454.053711,196.707031 C453.614256,196.98047 453.109378,197.117188 452.539062,197.117188 C451.679683,197.117188 450.983401,196.818362 450.450195,196.220703 C449.91699,195.623044 449.650391,194.832036 449.650391,193.847656 L449.650391,193.771484 Z M450.740234,193.900391 C450.740234,194.603519 450.903319,195.167967 451.229492,195.59375 C451.555666,196.019533 451.992185,196.232422 452.539062,196.232422 C453.089847,196.232422 453.527342,196.016604 453.851562,195.584961 C454.175783,195.153318 454.337891,194.548832 454.337891,193.771484 C454.337891,193.076168 454.172853,192.512697 453.842773,192.081055 C453.512694,191.649412 453.074221,191.433594 452.527344,191.433594 C451.992185,191.433594 451.560549,191.646482 451.232422,192.072266 C450.904295,192.498049 450.740234,193.107418 450.740234,193.900391 Z M462.394531,195.505859 L463.613281,190.660156 L464.697266,190.660156 L462.851562,197 L461.972656,197 L460.431641,192.195312 L458.931641,197 L458.052734,197 L456.212891,190.660156 L457.291016,190.660156 L458.539062,195.40625 L460.015625,190.660156 L460.888672,190.660156 L462.394531,195.505859 Z M466.824219,190.660156 L466.859375,191.457031 C467.343752,190.847653 467.976559,190.542969 468.757812,190.542969 C470.097663,190.542969 470.773437,191.298821 470.785156,192.810547 L470.785156,197 L469.701172,197 L469.701172,192.804688 C469.697266,192.347654 469.592774,192.009767 469.387695,191.791016 C469.182616,191.572265 468.863283,191.462891 468.429688,191.462891 C468.078123,191.462891 467.769533,191.55664 467.503906,191.744141 C467.23828,191.931642 467.031251,192.177733 466.882812,192.482422 L466.882812,197 L465.798828,197 L465.798828,190.660156 L466.824219,190.660156 Z M473.597656,197 L472.513672,197 L472.513672,188 L473.597656,188 L473.597656,197 Z M475.044922,193.771484 C475.044922,193.150388 475.166991,192.591799 475.411133,192.095703 C475.655275,191.599607 475.995115,191.216798 476.430664,190.947266 C476.866213,190.677733 477.363278,190.542969 477.921875,190.542969 C478.785161,190.542969 479.483396,190.841794 480.016602,191.439453 C480.549807,192.037112 480.816406,192.832026 480.816406,193.824219 L480.816406,193.900391 C480.816406,194.517581 480.698243,195.071287 480.461914,195.561523 C480.225585,196.05176 479.887698,196.433592 479.448242,196.707031 C479.008787,196.98047 478.503909,197.117188 477.933594,197.117188 C477.074214,197.117188 476.377932,196.818362 475.844727,196.220703 C475.311521,195.623044 475.044922,194.832036 475.044922,193.847656 L475.044922,193.771484 Z M476.134766,193.900391 C476.134766,194.603519 476.29785,195.167967 476.624023,195.59375 C476.950197,196.019533 477.386716,196.232422 477.933594,196.232422 C478.484378,196.232422 478.921873,196.016604 479.246094,195.584961 C479.570314,195.153318 479.732422,194.548832 479.732422,193.771484 C479.732422,193.076168 479.567384,192.512697 479.237305,192.081055 C478.907225,191.649412 478.468753,191.433594 477.921875,191.433594 C477.386716,191.433594 476.95508,191.646482 476.626953,192.072266 C476.298826,192.498049 476.134766,193.107418 476.134766,193.900391 Z M486.089844,197 C486.027343,196.874999 485.976563,196.652345 485.9375,196.332031 C485.433591,196.855471 484.832035,197.117188 484.132812,197.117188 C483.507809,197.117188 482.995119,196.940431 482.594727,196.586914 C482.194334,196.233397 481.994141,195.785159 481.994141,195.242188 C481.994141,194.582028 482.245115,194.069338 482.74707,193.704102 C483.249026,193.338865 483.955074,193.15625 484.865234,193.15625 L485.919922,193.15625 L485.919922,192.658203 C485.919922,192.279295 485.806642,191.97754 485.580078,191.75293 C485.353514,191.528319 485.019533,191.416016 484.578125,191.416016 C484.191404,191.416016 483.867189,191.513671 483.605469,191.708984 C483.343749,191.904298 483.212891,192.140624 483.212891,192.417969 L482.123047,192.417969 C482.123047,192.101561 482.23535,191.7959 482.459961,191.500977 C482.684571,191.206053 482.989256,190.972657 483.374023,190.800781 C483.758791,190.628905 484.181638,190.542969 484.642578,190.542969 C485.373051,190.542969 485.94531,190.725584 486.359375,191.09082 C486.77344,191.456057 486.988281,191.958981 487.003906,192.599609 L487.003906,195.517578 C487.003906,196.099612 487.078124,196.562498 487.226562,196.90625 L487.226562,197 L486.089844,197 Z M484.291016,196.173828 C484.630861,196.173828 484.953123,196.085938 485.257812,195.910156 C485.562502,195.734374 485.783202,195.505861 485.919922,195.224609 L485.919922,193.923828 L485.070312,193.923828 C483.742181,193.923828 483.078125,194.312496 483.078125,195.089844 C483.078125,195.429689 483.191405,195.695312 483.417969,195.886719 C483.644532,196.078126 483.935545,196.173828 484.291016,196.173828 Z M488.439453,193.777344 C488.439453,192.804683 488.66992,192.022464 489.130859,191.430664 C489.591799,190.838864 490.195309,190.542969 490.941406,190.542969 C491.683597,190.542969 492.271482,190.796872 492.705078,191.304688 L492.705078,188 L493.789062,188 L493.789062,197 L492.792969,197 L492.740234,196.320312 C492.306638,196.851565 491.703129,197.117188 490.929688,197.117188 C490.195309,197.117188 489.596682,196.816409 489.133789,196.214844 C488.670896,195.613278 488.439453,194.82813 488.439453,193.859375 L488.439453,193.777344 Z M489.523438,193.900391 C489.523438,194.619144 489.671874,195.181639 489.96875,195.587891 C490.265626,195.994143 490.675779,196.197266 491.199219,196.197266 C491.886722,196.197266 492.38867,195.888675 492.705078,195.271484 L492.705078,192.359375 C492.380858,191.761716 491.882816,191.462891 491.210938,191.462891 C490.679685,191.462891 490.265626,191.667967 489.96875,192.078125 C489.671874,192.488283 489.523438,193.095699 489.523438,193.900391 Z"/>
    <rect width="83" height="83" x="316" fill="#252C33"/>
    <path fill="#FFF" d="M347.946289,39 C347.883789,38.8749994 347.833008,38.6523454 347.793945,38.3320312 C347.290037,38.8554714 346.68848,39.1171875 345.989258,39.1171875 C345.364255,39.1171875 344.851565,38.9404315 344.451172,38.5869141 C344.050779,38.2333967 343.850586,37.785159 343.850586,37.2421875 C343.850586,36.5820279 344.10156,36.0693378 344.603516,35.7041016 C345.105471,35.3388654 345.811519,35.15625 346.72168,35.15625 L347.776367,35.15625 L347.776367,34.6582031 C347.776367,34.279295 347.663087,33.9775402 347.436523,33.7529297 C347.20996,33.5283192 346.875979,33.4160156 346.43457,33.4160156 C346.04785,33.4160156 345.723634,33.5136709 345.461914,33.7089844 C345.200194,33.9042979 345.069336,34.1406236 345.069336,34.4179688 L343.979492,34.4179688 C343.979492,34.1015609 344.091796,33.7958999 344.316406,33.5009766 C344.541017,33.2060532 344.845701,32.9726571 345.230469,32.8007812 C345.615236,32.6289054 346.038084,32.5429688 346.499023,32.5429688 C347.229496,32.5429688 347.801756,32.7255841 348.21582,33.0908203 C348.629885,33.4560565 348.844726,33.9589812 348.860352,34.5996094 L348.860352,37.5175781 C348.860352,38.0996123 348.93457,38.5624983 349.083008,38.90625 L349.083008,39 L347.946289,39 Z M346.147461,38.1738281 C346.487306,38.1738281 346.809569,38.0859384 347.114258,37.9101562 C347.418947,37.7343741 347.639648,37.5058608 347.776367,37.2246094 L347.776367,35.9238281 L346.926758,35.9238281 C345.598626,35.9238281 344.93457,36.3124961 344.93457,37.0898438 C344.93457,37.4296892 345.04785,37.6953115 345.274414,37.8867188 C345.500978,38.078126 345.79199,38.1738281 346.147461,38.1738281 Z M355.915039,35.9003906 C355.915039,36.8652392 355.694338,37.6425752 355.25293,38.2324219 C354.811521,38.8222686 354.213871,39.1171875 353.459961,39.1171875 C352.690426,39.1171875 352.084963,38.8730493 351.643555,38.3847656 L351.643555,41.4375 L350.55957,41.4375 L350.55957,32.6601562 L351.549805,32.6601562 L351.602539,33.3632812 C352.043948,32.8164035 352.657223,32.5429688 353.442383,32.5429688 C354.204105,32.5429688 354.806638,32.8300753 355.25,33.4042969 C355.693362,33.9785185 355.915039,34.7773386 355.915039,35.8007812 L355.915039,35.9003906 Z M354.831055,35.7773438 C354.831055,35.0624964 354.678712,34.4980489 354.374023,34.0839844 C354.069334,33.6699198 353.65137,33.4628906 353.120117,33.4628906 C352.463864,33.4628906 351.971681,33.7539033 351.643555,34.3359375 L351.643555,37.3652344 C351.967775,37.9433623 352.463864,38.2324219 353.131836,38.2324219 C353.65137,38.2324219 354.064452,38.0263692 354.371094,37.6142578 C354.677736,37.2021464 354.831055,36.5898478 354.831055,35.7773438 Z M362.647461,35.9003906 C362.647461,36.8652392 362.42676,37.6425752 361.985352,38.2324219 C361.543943,38.8222686 360.946293,39.1171875 360.192383,39.1171875 C359.422848,39.1171875 358.817385,38.8730493 358.375977,38.3847656 L358.375977,41.4375 L357.291992,41.4375 L357.291992,32.6601562 L358.282227,32.6601562 L358.334961,33.3632812 C358.776369,32.8164035 359.389645,32.5429688 360.174805,32.5429688 C360.936527,32.5429688 361.53906,32.8300753 361.982422,33.4042969 C362.425783,33.9785185 362.647461,34.7773386 362.647461,35.8007812 L362.647461,35.9003906 Z M361.563477,35.7773438 C361.563477,35.0624964 361.411134,34.4980489 361.106445,34.0839844 C360.801756,33.6699198 360.383792,33.4628906 359.852539,33.4628906 C359.196286,33.4628906 358.704103,33.7539033 358.375977,34.3359375 L358.375977,37.3652344 C358.700197,37.9433623 359.196286,38.2324219 359.864258,38.2324219 C360.383792,38.2324219 360.796873,38.0263692 361.103516,37.6142578 C361.410158,37.2021464 361.563477,36.5898478 361.563477,35.7773438 Z M364.100586,32.8710938 L363.485352,32.4492188 C363.848635,31.9414037 364.036133,31.4062528 364.047852,30.84375 L364.047852,30 L365.120117,30 L365.120117,30.7617188 C365.116211,31.1523457 365.019532,31.5419902 364.830078,31.9306641 C364.640624,32.3193379 364.397462,32.6328113 364.100586,32.8710938 Z M370.112305,37.3183594 C370.112305,37.0253892 370.001954,36.7978524 369.78125,36.6357422 C369.560546,36.473632 369.175784,36.333985 368.626953,36.2167969 C368.078122,36.0996088 367.64258,35.9589852 367.320312,35.7949219 C366.998045,35.6308586 366.759766,35.435548 366.605469,35.2089844 C366.451171,34.9824207 366.374023,34.7128922 366.374023,34.4003906 C366.374023,33.8808568 366.593748,33.441408 367.033203,33.0820312 C367.472658,32.7226545 368.034176,32.5429688 368.717773,32.5429688 C369.436527,32.5429688 370.019529,32.7285138 370.466797,33.0996094 C370.914065,33.470705 371.137695,33.9453096 371.137695,34.5234375 L370.047852,34.5234375 C370.047852,34.226561 369.921876,33.9707042 369.669922,33.7558594 C369.417967,33.5410146 369.100588,33.4335938 368.717773,33.4335938 C368.32324,33.4335938 368.01465,33.5195304 367.791992,33.6914062 C367.569335,33.8632821 367.458008,34.0878892 367.458008,34.3652344 C367.458008,34.6269544 367.561522,34.8242181 367.768555,34.9570312 C367.975587,35.0898444 368.349607,35.2167963 368.890625,35.3378906 C369.431643,35.458985 369.870116,35.6035148 370.206055,35.7714844 C370.541994,35.939454 370.791015,36.1416004 370.953125,36.3779297 C371.115235,36.614259 371.196289,36.9023421 371.196289,37.2421875 C371.196289,37.8085966 370.969729,38.2626936 370.516602,38.6044922 C370.063474,38.9462908 369.47559,39.1171875 368.75293,39.1171875 C368.245115,39.1171875 367.7959,39.0273446 367.405273,38.8476562 C367.014646,38.6679679 366.708985,38.4169938 366.488281,38.0947266 C366.267577,37.7724593 366.157227,37.42383 366.157227,37.0488281 L367.241211,37.0488281 C367.260742,37.4121112 367.406249,37.7001942 367.677734,37.9130859 C367.94922,38.1259776 368.307615,38.2324219 368.75293,38.2324219 C369.163088,38.2324219 369.492186,38.1494149 369.740234,37.9833984 C369.988282,37.817382 370.112305,37.5957045 370.112305,37.3183594 Z M338.864258,50.7734375 L335.290039,50.7734375 L334.487305,53 L333.327148,53 L336.584961,44.46875 L337.569336,44.46875 L340.833008,53 L339.678711,53 L338.864258,50.7734375 Z M335.629883,49.8476562 L338.530273,49.8476562 L337.077148,45.8574219 L335.629883,49.8476562 Z M345.110352,49.5488281 L343.106445,49.5488281 L343.106445,53 L341.975586,53 L341.975586,44.46875 L344.799805,44.46875 C345.760747,44.46875 346.499997,44.6874978 347.017578,45.125 C347.535159,45.5625022 347.793945,46.1992146 347.793945,47.0351562 C347.793945,47.5664089 347.650392,48.0292949 347.363281,48.4238281 C347.07617,48.8183613 346.67676,49.1132803 346.165039,49.3085938 L348.168945,52.9296875 L348.168945,53 L346.961914,53 L345.110352,49.5488281 Z M343.106445,48.6289062 L344.834961,48.6289062 C345.393557,48.6289062 345.837889,48.4843764 346.167969,48.1953125 C346.498049,47.9062486 346.663086,47.5195337 346.663086,47.0351562 C346.663086,46.5078099 346.505861,46.103517 346.191406,45.8222656 C345.876952,45.5410142 345.422855,45.3984375 344.829102,45.3945312 L343.106445,45.3945312 L343.106445,48.6289062 Z M353.19043,46.6601562 L353.219727,47.3632812 C353.684573,46.8164035 354.311519,46.5429688 355.100586,46.5429688 C355.987309,46.5429688 356.590819,46.8828091 356.911133,47.5625 C357.122071,47.257811 357.396483,47.0117197 357.734375,46.8242188 C358.072267,46.6367178 358.471677,46.5429688 358.932617,46.5429688 C360.323249,46.5429688 361.030273,47.2792895 361.053711,48.7519531 L361.053711,53 L359.969727,53 L359.969727,48.8164062 C359.969727,48.363279 359.866212,48.0244152 359.65918,47.7998047 C359.452147,47.5751942 359.104495,47.4628906 358.616211,47.4628906 C358.213865,47.4628906 357.879884,47.5830066 357.614258,47.8232422 C357.348631,48.0634778 357.194336,48.3867167 357.151367,48.7929688 L357.151367,53 L356.061523,53 L356.061523,48.8457031 C356.061523,47.9238235 355.610356,47.4628906 354.708008,47.4628906 C353.997067,47.4628906 353.510743,47.765622 353.249023,48.3710938 L353.249023,53 L352.165039,53 L352.165039,46.6601562 L353.19043,46.6601562 Z M362.401367,49.7714844 C362.401367,49.1503875 362.523436,48.5917994 362.767578,48.0957031 C363.01172,47.5996069 363.35156,47.2167982 363.787109,46.9472656 C364.222658,46.677733 364.719724,46.5429688 365.27832,46.5429688 C366.141606,46.5429688 366.839841,46.8417939 367.373047,47.4394531 C367.906253,48.0371124 368.172852,48.8320263 368.172852,49.8242188 L368.172852,49.9003906 C368.172852,50.5175812 368.054689,51.0712866 367.818359,51.5615234 C367.58203,52.0517603 367.244143,52.4335924 366.804688,52.7070312 C366.365232,52.9804701 365.860354,53.1171875 365.290039,53.1171875 C364.43066,53.1171875 363.734378,52.8183624 363.201172,52.2207031 C362.667966,51.6230439 362.401367,50.8320362 362.401367,49.8476562 L362.401367,49.7714844 Z M363.491211,49.9003906 C363.491211,50.6035191 363.654295,51.1679666 363.980469,51.59375 C364.306642,52.0195334 364.743161,52.2324219 365.290039,52.2324219 C365.840823,52.2324219 366.278319,52.0166037 366.602539,51.5849609 C366.926759,51.1533182 367.088867,50.548832 367.088867,49.7714844 C367.088867,49.0761684 366.92383,48.5126975 366.59375,48.0810547 C366.26367,47.6494119 365.825198,47.4335938 365.27832,47.4335938 C364.743161,47.4335938 364.311525,47.6464822 363.983398,48.0722656 C363.655272,48.498049 363.491211,49.1074179 363.491211,49.9003906 Z M369.268555,49.7773438 C369.268555,48.8046826 369.499021,48.0224639 369.959961,47.4306641 C370.420901,46.8388642 371.02441,46.5429688 371.770508,46.5429688 C372.512699,46.5429688 373.100584,46.7968725 373.53418,47.3046875 L373.53418,44 L374.618164,44 L374.618164,53 L373.62207,53 L373.569336,52.3203125 C373.13574,52.8515652 372.53223,53.1171875 371.758789,53.1171875 C371.02441,53.1171875 370.425784,52.8164093 369.962891,52.2148438 C369.499998,51.6132782 369.268555,50.8281298 369.268555,49.859375 L369.268555,49.7773438 Z M370.352539,49.9003906 C370.352539,50.6191442 370.500975,51.1816386 370.797852,51.5878906 C371.094728,51.9941427 371.50488,52.1972656 372.02832,52.1972656 C372.715824,52.1972656 373.217772,51.888675 373.53418,51.2714844 L373.53418,48.359375 C373.209959,47.7617158 372.711917,47.4628906 372.040039,47.4628906 C371.508786,47.4628906 371.094728,47.6679667 370.797852,48.078125 C370.500975,48.4882833 370.352539,49.0956991 370.352539,49.9003906 Z M378.930664,53.1171875 C378.071285,53.1171875 377.372073,52.8349638 376.833008,52.2705078 C376.293943,51.7060519 376.024414,50.9511766 376.024414,50.0058594 L376.024414,49.8066406 C376.024414,49.1777312 376.14453,48.6162134 376.384766,48.1220703 C376.625001,47.6279272 376.960935,47.2412123 377.392578,46.9619141 C377.824221,46.6826158 378.29199,46.5429688 378.795898,46.5429688 C379.620121,46.5429688 380.26074,46.8144504 380.717773,47.3574219 C381.174807,47.9003933 381.40332,48.6777293 381.40332,49.6894531 L381.40332,50.140625 L377.108398,50.140625 C377.124024,50.7656281 377.306639,51.2705059 377.65625,51.6552734 C378.005861,52.040041 378.450193,52.2324219 378.989258,52.2324219 C379.372072,52.2324219 379.696288,52.1542977 379.961914,51.9980469 C380.22754,51.8417961 380.45996,51.6347669 380.65918,51.3769531 L381.321289,51.8925781 C380.790036,52.7089885 379.993169,53.1171875 378.930664,53.1171875 Z M378.795898,47.4335938 C378.358396,47.4335938 377.991212,47.5927718 377.694336,47.9111328 C377.397459,48.2294938 377.213868,48.6757784 377.143555,49.25 L380.319336,49.25 L380.319336,49.1679688 C380.288086,48.6171847 380.13965,48.1904312 379.874023,47.8876953 C379.608397,47.5849594 379.249026,47.4335938 378.795898,47.4335938 Z"/>
    <path fill="#ED9E9A" d="M73.8425594,119 L53,119 L53,118 L73.8425594,118 L73.8425594,114 L82.8425594,118.5 L73.8425594,123 L73.8425594,119 Z"/>
    <polyline stroke="#ED9E9A" points="166 118 191.106 118 191.106 43 215 43"/>
    <polyline stroke="#ED9E9A" points="166 118 190.999 118 190.999 193 215 193"/>
    <path fill="#ED9E9A" d="M306.5 193L288 193 288 192 306.5 192 306.5 188 315.5 192.5 306.5 197 306.5 193zM417.5 193L399 193 399 192 417.5 192 417.5 188 426.5 192.5 417.5 197 417.5 193zM306.5 42L288 42 288 41 306.5 41 306.5 37 315.5 41.5 306.5 46 306.5 42zM417.5 42L399 42 399 41 417.5 41 417.5 37 426.5 41.5 417.5 46 417.5 42z"/>
    <ellipse cx="453.5" cy="42.5" fill="#252C33" rx="26.5" ry="18.5"/>
    <path fill="#FFF" d="M447.578125,46.1171875 C446.718746,46.1171875 446.019534,45.8349638 445.480469,45.2705078 C444.941404,44.7060519 444.671875,43.9511766 444.671875,43.0058594 L444.671875,42.8066406 C444.671875,42.1777312 444.791991,41.6162134 445.032227,41.1220703 C445.272462,40.6279272 445.608396,40.2412123 446.040039,39.9619141 C446.471682,39.6826158 446.939451,39.5429688 447.443359,39.5429688 C448.267582,39.5429688 448.908201,39.8144504 449.365234,40.3574219 C449.822268,40.9003933 450.050781,41.6777293 450.050781,42.6894531 L450.050781,43.140625 L445.755859,43.140625 C445.771484,43.7656281 445.9541,44.2705059 446.303711,44.6552734 C446.653322,45.040041 447.097654,45.2324219 447.636719,45.2324219 C448.019533,45.2324219 448.343749,45.1542977 448.609375,44.9980469 C448.875001,44.8417961 449.107421,44.6347669 449.306641,44.3769531 L449.96875,44.8925781 C449.437497,45.7089885 448.64063,46.1171875 447.578125,46.1171875 Z M447.443359,40.4335938 C447.005857,40.4335938 446.638673,40.5927718 446.341797,40.9111328 C446.04492,41.2294938 445.861328,41.6757784 445.791016,42.25 L448.966797,42.25 L448.966797,42.1679688 C448.935547,41.6171847 448.787111,41.1904312 448.521484,40.8876953 C448.255858,40.5849594 447.896487,40.4335938 447.443359,40.4335938 Z M452.330078,39.6601562 L452.365234,40.4570312 C452.849612,39.8476532 453.482418,39.5429688 454.263672,39.5429688 C455.603522,39.5429688 456.279297,40.2988206 456.291016,41.8105469 L456.291016,46 L455.207031,46 L455.207031,41.8046875 C455.203125,41.347654 455.098634,41.0097667 454.893555,40.7910156 C454.688476,40.5722645 454.369143,40.4628906 453.935547,40.4628906 C453.583983,40.4628906 453.275392,40.5566397 453.009766,40.7441406 C452.744139,40.9316416 452.53711,41.1777329 452.388672,41.4824219 L452.388672,46 L451.304688,46 L451.304688,39.6601562 L452.330078,39.6601562 Z M457.662109,42.7773438 C457.662109,41.8046826 457.892576,41.0224639 458.353516,40.4306641 C458.814455,39.8388642 459.417965,39.5429688 460.164062,39.5429688 C460.906254,39.5429688 461.494138,39.7968725 461.927734,40.3046875 L461.927734,37 L463.011719,37 L463.011719,46 L462.015625,46 L461.962891,45.3203125 C461.529295,45.8515652 460.925785,46.1171875 460.152344,46.1171875 C459.417965,46.1171875 458.819338,45.8164093 458.356445,45.2148438 C457.893552,44.6132782 457.662109,43.8281298 457.662109,42.859375 L457.662109,42.7773438 Z M458.746094,42.9003906 C458.746094,43.6191442 458.89453,44.1816386 459.191406,44.5878906 C459.488283,44.9941427 459.898435,45.1972656 460.421875,45.1972656 C461.109378,45.1972656 461.611327,44.888675 461.927734,44.2714844 L461.927734,41.359375 C461.603514,40.7617158 461.105472,40.4628906 460.433594,40.4628906 C459.902341,40.4628906 459.488283,40.6679667 459.191406,41.078125 C458.89453,41.4882833 458.746094,42.0956991 458.746094,42.9003906 Z"/>
    <path fill="#ED9E9A" d="M357.5,91.5 L357.5,114.20904 L471,114.20904 L471.5,114.20904 L471.5,114.70904 L471.5,150 L470.5,150 L470.5,115.20904 L357,115.20904 L356.5,115.20904 L356.5,114.70904 L356.5,91.5 L352.5,91.5 L357,82.5 L361.5,91.5 L357.5,91.5 Z"/>
  </g>
</svg>
