<?xml version="1.0" encoding="UTF-8"?>
<svg width="162px" height="39px" viewBox="0 0 162 39" version="1.1" xmlns="http://www.w3.org/2000/svg" xmlns:xlink="http://www.w3.org/1999/xlink">
    <!-- Generator: Sketch 53.2 (72643) - https://sketchapp.com -->
    <title>Group 29</title>
    <desc>Created with Sketch.</desc>
    <g id="Page-1" stroke="none" stroke-width="1" fill="none" fill-rule="evenodd">
        <g id="H.AR-1" transform="translate(-639.000000, -184.000000)" fill="#252C33">
            <g id="Group-29" transform="translate(639.000000, 184.000000)">
                <polygon id="Path-Copy-15" points="78.0644343 39 67 39 90.5 0 114 39 102.935566 39"></polygon>
                <path d="M124,39 L124,0 L140.512074,0 C151.741176,0 158.237152,3.61636024 158.237152,12.7397461 C158.237152,18.0717773 156.121981,21.9375 150.495356,23.8417969 L162,39 L149.456966,39 L132.456347,39 L124,39 Z" id="Path-Copy-16"></path>
                <polygon id="Fill-3-Copy-17" points="41 0 41 39 27.3335467 39 27.3335467 25.9998985 13.6667733 25.9998985 13.6667733 39 0 39 0 0 13.6667733 0 13.6667733 12.9997971 27.3335467 12.9997971 27.3335467 0"></polygon>
                <circle id="Oval-Copy" cx="51.5" cy="34.5" r="4.5"></circle>
            </g>
        </g>
    </g>
</svg>