<?xml version="1.0" encoding="UTF-8"?>
<svg width="18px" height="18px" viewBox="0 0 18 18" version="1.1" xmlns="http://www.w3.org/2000/svg" xmlns:xlink="http://www.w3.org/1999/xlink">
    <!-- Generator: Sketch 53.2 (72643) - https://sketchapp.com -->
    <title>icon-linkedin</title>
    <desc>Created with Sketch.</desc>
    <g id="Page-1" stroke="none" stroke-width="1" fill="none" fill-rule="evenodd">
        <g id="icon-linkedin" fill="#3E4852" fill-rule="nonzero">
            <path d="M16.55625,0 L1.5375,0 C0.7171875,0 0,0.590625 0,1.4015625 L0,16.453125 C0,17.26875 0.7171875,17.9953125 1.5375,17.9953125 L16.5515625,17.9953125 C17.3765625,17.9953125 17.9953125,17.2640625 17.9953125,16.453125 L17.9953125,1.4015625 C18,0.590625 17.3765625,0 16.55625,0 Z M5.578125,15 L3,15 L3,6.984375 L5.578125,6.984375 L5.578125,15 Z M4.378125,5.765625 L4.359375,5.765625 C3.534375,5.765625 3,5.1515625 3,4.3828125 C3,3.6 3.5484375,3 4.3921875,3 C5.2359375,3 5.7515625,3.5953125 5.7703125,4.3828125 C5.7703125,5.1515625 5.2359375,5.765625 4.378125,5.765625 Z M15,15 L12.421875,15 L12.421875,10.6171875 C12.421875,9.5671875 12.046875,8.85 11.1140625,8.85 C10.4015625,8.85 9.9796875,9.3328125 9.7921875,9.8015625 C9.721875,9.9703125 9.703125,10.2 9.703125,10.434375 L9.703125,15 L7.125,15 L7.125,6.984375 L9.703125,6.984375 L9.703125,8.1 C10.078125,7.565625 10.6640625,6.796875 12.028125,6.796875 C13.7203125,6.796875 15,7.9125 15,10.3171875 L15,15 Z" id="Shape"></path>
        </g>
    </g>
</svg>