<svg xmlns="http://www.w3.org/2000/svg" width="1035" height="171" viewBox="0 0 1035 171">
  <g fill="none" fill-rule="evenodd">
    <rect width="27" height="27" fill="#FFE8E0" rx="6"/>
    <path fill="#FFF" d="M8.44677211,13.7853125 C7.54329388,12.7160163 7.1689676,11.5825167 7.32379327,10.3848138 C7.6416592,7.92586127 9.15828867,6.41945942 10.7328413,5.66501115 C12.0589798,5.02959078 14.2369454,4.70528211 15.9795809,5.49422684 C17.7222164,6.28317156 18.1971079,7.2394172 18.5930739,8.69366682 C18.9890398,10.1479164 18.7865941,12.2418505 18.5930739,12.9477909 C18.3995536,13.6537313 16.5552643,16.5779732 15.0315574,16.5779732 C13.5078505,16.5779732 12.4994818,15.6906747 12.7685558,14.3147737 C13.0376297,12.9388727 13.8321479,10.9853752 13.8744306,9.94074544 C13.9167133,8.89611573 13.9167133,8.55516157 13.2505023,8.08726482 C12.5842913,7.61936807 11.7925918,7.61936807 10.9776065,8.08726482 C10.1626212,8.55516157 9.65396034,9.3790782 9.65396034,10.5724902 C9.65396034,11.3680981 9.86362931,12.0766603 10.2829672,12.6981767 C9.98105473,14.6957136 9.60616188,16.4136385 9.15828867,17.8519513 C8.87540557,18.7604102 8.55518189,19.4804527 8.19761764,20.012079 L8.44677211,24.970714 C9.78499962,23.7035262 10.6286111,22.5062028 10.9776065,21.3787439 C11.3266019,20.251285 11.6778088,18.8486641 12.0312269,17.1708813 C12.8440772,18.259007 13.653238,18.8030699 14.4587094,18.8030699 C18.5930739,18.8030699 21.1225228,16.2995131 21.8809452,12.5405348 C22.9500315,7.24180935 19.1472077,4.36693971 17.9363712,3.79031111 C16.7255347,3.21368251 15.7108569,2.9119435 14.4587094,2.9119435 C13.2065619,2.9119435 12.6265558,2.79456734 11.2730549,3.14196959 C9.91955395,3.48937184 6.29373073,4.54453632 5.10701687,8.69366682 C4.65929429,10.2590479 4.70632368,12.4000612 5.4748368,13.9317856 C5.98717888,14.9529351 6.80663515,15.5861752 7.93320562,15.8315058 L8.44677211,13.7853125 Z"/>
    <rect width="27" height="27" x="48" fill="#FFE8E0" rx="6"/>
    <g fill-rule="nonzero" transform="translate(52.5 7)">
      <path fill="#FFF" d="M4.73866327,0.109951489 C5.93790143,0.0366504963 7.35834701,-2.58494568e-14 9,0 C10.6389506,2.56766397e-14 12.0574214,0.0365299305 13.2554125,0.109589791 L13.255413,0.109581706 C15.7736916,0.263159713 17.7830257,2.26881287 17.9412209,4.78680566 C17.980407,5.41053032 18,6.08322597 18,6.80489262 C18,7.480719 17.982817,8.11359808 17.948451,8.70352984 L17.9484528,8.70352994 C17.8002665,11.2473188 15.7628302,13.2727591 13.2182107,13.4059215 C12.0197038,13.4686405 10.6136336,13.5 9,13.5 C7.38406543,13.5 5.97628657,13.468551 4.77666342,13.405653 L4.77666305,13.40566 C2.22093655,13.2716595 0.17897401,11.2294511 0.0452811777,8.67370853 C0.0150937259,8.0966293 5.46027585e-17,7.47369066 0,6.80489262 C0,6.09048108 0.0172227856,5.42839769 0.0516683569,4.81864244 L0.0516589788,4.81864191 C0.194620093,2.28794532 2.20865357,0.264593184 4.73866327,0.109951489 Z"/>
      <polygon fill="#FFE8E0" points="9.25 4 12 9 6.5 9" transform="rotate(90 9.25 6.5)"/>
    </g>
    <rect width="27" height="27" x="144" fill="#FFE8E0" rx="6"/>
    <polygon fill="#FFF" fill-rule="nonzero" points="148.5 6 154 6 158 15 161.5 6 166.5 6 166.5 6.5 165 8 165 18.5 166.5 20 166.5 20.5 159.5 20.5 159.5 20 161 18.5 161 10 157 20.5 156 20.5 151.5 10.5 151.5 17.5 153.5 20 153.5 20.5 148 20.5 148 20 150.5 17.5 150.5 9"/>
    <rect width="27" height="27" x="96" fill="#FFE8E0" rx="6"/>
    <circle cx="109.5" cy="13.5" r="5.75" stroke="#FFF" stroke-width="2"/>
    <circle cx="117.696" cy="5.304" r="1.446" fill="#FFF"/>
    <g transform="translate(0 48)">
      <rect width="27" height="27" fill="#FFE8E0" rx="6"/>
      <g fill-rule="nonzero" transform="translate(4.5 7)">
        <path fill="#FFF" d="M4.73866327,0.109951489 C5.93790143,0.0366504963 7.35834701,-2.58494568e-14 9,0 C10.6389506,2.56766397e-14 12.0574214,0.0365299305 13.2554125,0.109589791 L13.255413,0.109581706 C15.7736916,0.263159713 17.7830257,2.26881287 17.9412209,4.78680566 C17.980407,5.41053032 18,6.08322597 18,6.80489262 C18,7.480719 17.982817,8.11359808 17.948451,8.70352984 L17.9484528,8.70352994 C17.8002665,11.2473188 15.7628302,13.2727591 13.2182107,13.4059215 C12.0197038,13.4686405 10.6136336,13.5 9,13.5 C7.38406543,13.5 5.97628657,13.468551 4.77666342,13.405653 L4.77666305,13.40566 C2.22093655,13.2716595 0.17897401,11.2294511 0.0452811777,8.67370853 C0.0150937259,8.0966293 5.46027585e-17,7.47369066 0,6.80489262 C0,6.09048108 0.0172227856,5.42839769 0.0516683569,4.81864244 L0.0516589788,4.81864191 C0.194620093,2.28794532 2.20865357,0.264593184 4.73866327,0.109951489 Z"/>
        <polygon fill="#FFE8E0" points="9.25 4 12 9 6.5 9" transform="rotate(90 9.25 6.5)"/>
      </g>
    </g>
    <g transform="translate(96 48)">
      <rect width="27" height="27" fill="#FFE8E0" rx="6"/>
      <polygon fill="#FFF" fill-rule="nonzero" points="4.5 6 10 6 14 15 17.5 6 22.5 6 22.5 6.5 21 8 21 18.5 22.5 20 22.5 20.5 15.5 20.5 15.5 20 17 18.5 17 10 13 20.5 12 20.5 7.5 10.5 7.5 17.5 9.5 20 9.5 20.5 4 20.5 4 20 6.5 17.5 6.5 9"/>
    </g>
    <g transform="translate(48 48)">
      <rect width="27" height="27" fill="#FFE8E0" rx="6"/>
      <circle cx="13.5" cy="13.5" r="5.75" stroke="#FFF" stroke-width="2"/>
      <circle cx="21.696" cy="5.304" r="1.446" fill="#FFF"/>
    </g>
    <g transform="translate(144 48)">
      <rect width="27" height="27" fill="#FFE8E0" rx="6"/>
      <path fill="#FFF" d="M8.44677211,13.7853125 C7.54329388,12.7160163 7.1689676,11.5825167 7.32379327,10.3848138 C7.6416592,7.92586127 9.15828867,6.41945942 10.7328413,5.66501115 C12.0589798,5.02959078 14.2369454,4.70528211 15.9795809,5.49422684 C17.7222164,6.28317156 18.1971079,7.2394172 18.5930739,8.69366682 C18.9890398,10.1479164 18.7865941,12.2418505 18.5930739,12.9477909 C18.3995536,13.6537313 16.5552643,16.5779732 15.0315574,16.5779732 C13.5078505,16.5779732 12.4994818,15.6906747 12.7685558,14.3147737 C13.0376297,12.9388727 13.8321479,10.9853752 13.8744306,9.94074544 C13.9167133,8.89611573 13.9167133,8.55516157 13.2505023,8.08726482 C12.5842913,7.61936807 11.7925918,7.61936807 10.9776065,8.08726482 C10.1626212,8.55516157 9.65396034,9.3790782 9.65396034,10.5724902 C9.65396034,11.3680981 9.86362931,12.0766603 10.2829672,12.6981767 C9.98105473,14.6957136 9.60616188,16.4136385 9.15828867,17.8519513 C8.87540557,18.7604102 8.55518189,19.4804527 8.19761764,20.012079 L8.44677211,24.970714 C9.78499962,23.7035262 10.6286111,22.5062028 10.9776065,21.3787439 C11.3266019,20.251285 11.6778088,18.8486641 12.0312269,17.1708813 C12.8440772,18.259007 13.653238,18.8030699 14.4587094,18.8030699 C18.5930739,18.8030699 21.1225228,16.2995131 21.8809452,12.5405348 C22.9500315,7.24180935 19.1472077,4.36693971 17.9363712,3.79031111 C16.7255347,3.21368251 15.7108569,2.9119435 14.4587094,2.9119435 C13.2065619,2.9119435 12.6265558,2.79456734 11.2730549,3.14196959 C9.91955395,3.48937184 6.29373073,4.54453632 5.10701687,8.69366682 C4.65929429,10.2590479 4.70632368,12.4000612 5.4748368,13.9317856 C5.98717888,14.9529351 6.80663515,15.5861752 7.93320562,15.8315058 L8.44677211,13.7853125 Z"/>
    </g>
    <g transform="translate(48 96)">
      <rect width="27" height="27" fill="#FFE8E0" rx="6"/>
      <polygon fill="#FFF" fill-rule="nonzero" points="4.5 6 10 6 14 15 17.5 6 22.5 6 22.5 6.5 21 8 21 18.5 22.5 20 22.5 20.5 15.5 20.5 15.5 20 17 18.5 17 10 13 20.5 12 20.5 7.5 10.5 7.5 17.5 9.5 20 9.5 20.5 4 20.5 4 20 6.5 17.5 6.5 9"/>
    </g>
    <g transform="translate(0 96)">
      <rect width="27" height="27" fill="#FFE8E0" rx="6"/>
      <circle cx="13.5" cy="13.5" r="5.75" stroke="#FFF" stroke-width="2"/>
      <circle cx="21.696" cy="5.304" r="1.446" fill="#FFF"/>
    </g>
    <g transform="translate(96 96)">
      <rect width="27" height="27" fill="#FFE8E0" rx="6"/>
      <path fill="#FFF" d="M8.44677211,13.7853125 C7.54329388,12.7160163 7.1689676,11.5825167 7.32379327,10.3848138 C7.6416592,7.92586127 9.15828867,6.41945942 10.7328413,5.66501115 C12.0589798,5.02959078 14.2369454,4.70528211 15.9795809,5.49422684 C17.7222164,6.28317156 18.1971079,7.2394172 18.5930739,8.69366682 C18.9890398,10.1479164 18.7865941,12.2418505 18.5930739,12.9477909 C18.3995536,13.6537313 16.5552643,16.5779732 15.0315574,16.5779732 C13.5078505,16.5779732 12.4994818,15.6906747 12.7685558,14.3147737 C13.0376297,12.9388727 13.8321479,10.9853752 13.8744306,9.94074544 C13.9167133,8.89611573 13.9167133,8.55516157 13.2505023,8.08726482 C12.5842913,7.61936807 11.7925918,7.61936807 10.9776065,8.08726482 C10.1626212,8.55516157 9.65396034,9.3790782 9.65396034,10.5724902 C9.65396034,11.3680981 9.86362931,12.0766603 10.2829672,12.6981767 C9.98105473,14.6957136 9.60616188,16.4136385 9.15828867,17.8519513 C8.87540557,18.7604102 8.55518189,19.4804527 8.19761764,20.012079 L8.44677211,24.970714 C9.78499962,23.7035262 10.6286111,22.5062028 10.9776065,21.3787439 C11.3266019,20.251285 11.6778088,18.8486641 12.0312269,17.1708813 C12.8440772,18.259007 13.653238,18.8030699 14.4587094,18.8030699 C18.5930739,18.8030699 21.1225228,16.2995131 21.8809452,12.5405348 C22.9500315,7.24180935 19.1472077,4.36693971 17.9363712,3.79031111 C16.7255347,3.21368251 15.7108569,2.9119435 14.4587094,2.9119435 C13.2065619,2.9119435 12.6265558,2.79456734 11.2730549,3.14196959 C9.91955395,3.48937184 6.29373073,4.54453632 5.10701687,8.69366682 C4.65929429,10.2590479 4.70632368,12.4000612 5.4748368,13.9317856 C5.98717888,14.9529351 6.80663515,15.5861752 7.93320562,15.8315058 L8.44677211,13.7853125 Z"/>
    </g>
    <g transform="translate(144 96)">
      <rect width="27" height="27" fill="#FFE8E0" rx="6"/>
      <g fill-rule="nonzero" transform="translate(4.5 7)">
        <path fill="#FFF" d="M4.73866327,0.109951489 C5.93790143,0.0366504963 7.35834701,-2.58494568e-14 9,0 C10.6389506,2.56766397e-14 12.0574214,0.0365299305 13.2554125,0.109589791 L13.255413,0.109581706 C15.7736916,0.263159713 17.7830257,2.26881287 17.9412209,4.78680566 C17.980407,5.41053032 18,6.08322597 18,6.80489262 C18,7.480719 17.982817,8.11359808 17.948451,8.70352984 L17.9484528,8.70352994 C17.8002665,11.2473188 15.7628302,13.2727591 13.2182107,13.4059215 C12.0197038,13.4686405 10.6136336,13.5 9,13.5 C7.38406543,13.5 5.97628657,13.468551 4.77666342,13.405653 L4.77666305,13.40566 C2.22093655,13.2716595 0.17897401,11.2294511 0.0452811777,8.67370853 C0.0150937259,8.0966293 5.46027585e-17,7.47369066 0,6.80489262 C0,6.09048108 0.0172227856,5.42839769 0.0516683569,4.81864244 L0.0516589788,4.81864191 C0.194620093,2.28794532 2.20865357,0.264593184 4.73866327,0.109951489 Z"/>
        <polygon fill="#FFE8E0" points="9.25 4 12 9 6.5 9" transform="rotate(90 9.25 6.5)"/>
      </g>
    </g>
    <g transform="translate(0 144)">
      <rect width="27" height="27" fill="#FFE8E0" rx="6"/>
      <polygon fill="#FFF" fill-rule="nonzero" points="4.5 6 10 6 14 15 17.5 6 22.5 6 22.5 6.5 21 8 21 18.5 22.5 20 22.5 20.5 15.5 20.5 15.5 20 17 18.5 17 10 13 20.5 12 20.5 7.5 10.5 7.5 17.5 9.5 20 9.5 20.5 4 20.5 4 20 6.5 17.5 6.5 9"/>
    </g>
    <g transform="translate(48 144)">
      <rect width="27" height="27" fill="#FFE8E0" rx="6"/>
      <path fill="#FFF" d="M8.44677211,13.7853125 C7.54329388,12.7160163 7.1689676,11.5825167 7.32379327,10.3848138 C7.6416592,7.92586127 9.15828867,6.41945942 10.7328413,5.66501115 C12.0589798,5.02959078 14.2369454,4.70528211 15.9795809,5.49422684 C17.7222164,6.28317156 18.1971079,7.2394172 18.5930739,8.69366682 C18.9890398,10.1479164 18.7865941,12.2418505 18.5930739,12.9477909 C18.3995536,13.6537313 16.5552643,16.5779732 15.0315574,16.5779732 C13.5078505,16.5779732 12.4994818,15.6906747 12.7685558,14.3147737 C13.0376297,12.9388727 13.8321479,10.9853752 13.8744306,9.94074544 C13.9167133,8.89611573 13.9167133,8.55516157 13.2505023,8.08726482 C12.5842913,7.61936807 11.7925918,7.61936807 10.9776065,8.08726482 C10.1626212,8.55516157 9.65396034,9.3790782 9.65396034,10.5724902 C9.65396034,11.3680981 9.86362931,12.0766603 10.2829672,12.6981767 C9.98105473,14.6957136 9.60616188,16.4136385 9.15828867,17.8519513 C8.87540557,18.7604102 8.55518189,19.4804527 8.19761764,20.012079 L8.44677211,24.970714 C9.78499962,23.7035262 10.6286111,22.5062028 10.9776065,21.3787439 C11.3266019,20.251285 11.6778088,18.8486641 12.0312269,17.1708813 C12.8440772,18.259007 13.653238,18.8030699 14.4587094,18.8030699 C18.5930739,18.8030699 21.1225228,16.2995131 21.8809452,12.5405348 C22.9500315,7.24180935 19.1472077,4.36693971 17.9363712,3.79031111 C16.7255347,3.21368251 15.7108569,2.9119435 14.4587094,2.9119435 C13.2065619,2.9119435 12.6265558,2.79456734 11.2730549,3.14196959 C9.91955395,3.48937184 6.29373073,4.54453632 5.10701687,8.69366682 C4.65929429,10.2590479 4.70632368,12.4000612 5.4748368,13.9317856 C5.98717888,14.9529351 6.80663515,15.5861752 7.93320562,15.8315058 L8.44677211,13.7853125 Z"/>
    </g>
    <g transform="translate(96 144)">
      <rect width="27" height="27" fill="#FFE8E0" rx="6"/>
      <g fill-rule="nonzero" transform="translate(4.5 7)">
        <path fill="#FFF" d="M4.73866327,0.109951489 C5.93790143,0.0366504963 7.35834701,-2.58494568e-14 9,0 C10.6389506,2.56766397e-14 12.0574214,0.0365299305 13.2554125,0.109589791 L13.255413,0.109581706 C15.7736916,0.263159713 17.7830257,2.26881287 17.9412209,4.78680566 C17.980407,5.41053032 18,6.08322597 18,6.80489262 C18,7.480719 17.982817,8.11359808 17.948451,8.70352984 L17.9484528,8.70352994 C17.8002665,11.2473188 15.7628302,13.2727591 13.2182107,13.4059215 C12.0197038,13.4686405 10.6136336,13.5 9,13.5 C7.38406543,13.5 5.97628657,13.468551 4.77666342,13.405653 L4.77666305,13.40566 C2.22093655,13.2716595 0.17897401,11.2294511 0.0452811777,8.67370853 C0.0150937259,8.0966293 5.46027585e-17,7.47369066 0,6.80489262 C0,6.09048108 0.0172227856,5.42839769 0.0516683569,4.81864244 L0.0516589788,4.81864191 C0.194620093,2.28794532 2.20865357,0.264593184 4.73866327,0.109951489 Z"/>
        <polygon fill="#FFE8E0" points="9.25 4 12 9 6.5 9" transform="rotate(90 9.25 6.5)"/>
      </g>
    </g>
    <g transform="translate(144 144)">
      <rect width="27" height="27" fill="#FFE8E0" rx="6"/>
      <circle cx="13.5" cy="13.5" r="5.75" stroke="#FFF" stroke-width="2"/>
      <circle cx="21.696" cy="5.304" r="1.446" fill="#FFF"/>
    </g>
    <g transform="translate(384 144)">
      <rect width="27" height="27" fill="#FFE8E0" rx="6"/>
      <polygon fill="#FFF" fill-rule="nonzero" points="4.5 6 10 6 14 15 17.5 6 22.5 6 22.5 6.5 21 8 21 18.5 22.5 20 22.5 20.5 15.5 20.5 15.5 20 17 18.5 17 10 13 20.5 12 20.5 7.5 10.5 7.5 17.5 9.5 20 9.5 20.5 4 20.5 4 20 6.5 17.5 6.5 9"/>
      <g transform="translate(48)">
        <rect width="27" height="27" fill="#FFE8E0" rx="6"/>
        <path fill="#FFF" d="M8.44677211,13.7853125 C7.54329388,12.7160163 7.1689676,11.5825167 7.32379327,10.3848138 C7.6416592,7.92586127 9.15828867,6.41945942 10.7328413,5.66501115 C12.0589798,5.02959078 14.2369454,4.70528211 15.9795809,5.49422684 C17.7222164,6.28317156 18.1971079,7.2394172 18.5930739,8.69366682 C18.9890398,10.1479164 18.7865941,12.2418505 18.5930739,12.9477909 C18.3995536,13.6537313 16.5552643,16.5779732 15.0315574,16.5779732 C13.5078505,16.5779732 12.4994818,15.6906747 12.7685558,14.3147737 C13.0376297,12.9388727 13.8321479,10.9853752 13.8744306,9.94074544 C13.9167133,8.89611573 13.9167133,8.55516157 13.2505023,8.08726482 C12.5842913,7.61936807 11.7925918,7.61936807 10.9776065,8.08726482 C10.1626212,8.55516157 9.65396034,9.3790782 9.65396034,10.5724902 C9.65396034,11.3680981 9.86362931,12.0766603 10.2829672,12.6981767 C9.98105473,14.6957136 9.60616188,16.4136385 9.15828867,17.8519513 C8.87540557,18.7604102 8.55518189,19.4804527 8.19761764,20.012079 L8.44677211,24.970714 C9.78499962,23.7035262 10.6286111,22.5062028 10.9776065,21.3787439 C11.3266019,20.251285 11.6778088,18.8486641 12.0312269,17.1708813 C12.8440772,18.259007 13.653238,18.8030699 14.4587094,18.8030699 C18.5930739,18.8030699 21.1225228,16.2995131 21.8809452,12.5405348 C22.9500315,7.24180935 19.1472077,4.36693971 17.9363712,3.79031111 C16.7255347,3.21368251 15.7108569,2.9119435 14.4587094,2.9119435 C13.2065619,2.9119435 12.6265558,2.79456734 11.2730549,3.14196959 C9.91955395,3.48937184 6.29373073,4.54453632 5.10701687,8.69366682 C4.65929429,10.2590479 4.70632368,12.4000612 5.4748368,13.9317856 C5.98717888,14.9529351 6.80663515,15.5861752 7.93320562,15.8315058 L8.44677211,13.7853125 Z"/>
      </g>
      <g transform="translate(96)">
        <rect width="27" height="27" fill="#FFE8E0" rx="6"/>
        <g fill-rule="nonzero" transform="translate(4.5 7)">
          <path fill="#FFF" d="M4.73866327,0.109951489 C5.93790143,0.0366504963 7.35834701,-2.58494568e-14 9,0 C10.6389506,2.56766397e-14 12.0574214,0.0365299305 13.2554125,0.109589791 L13.255413,0.109581706 C15.7736916,0.263159713 17.7830257,2.26881287 17.9412209,4.78680566 C17.980407,5.41053032 18,6.08322597 18,6.80489262 C18,7.480719 17.982817,8.11359808 17.948451,8.70352984 L17.9484528,8.70352994 C17.8002665,11.2473188 15.7628302,13.2727591 13.2182107,13.4059215 C12.0197038,13.4686405 10.6136336,13.5 9,13.5 C7.38406543,13.5 5.97628657,13.468551 4.77666342,13.405653 L4.77666305,13.40566 C2.22093655,13.2716595 0.17897401,11.2294511 0.0452811777,8.67370853 C0.0150937259,8.0966293 5.46027585e-17,7.47369066 0,6.80489262 C0,6.09048108 0.0172227856,5.42839769 0.0516683569,4.81864244 L0.0516589788,4.81864191 C0.194620093,2.28794532 2.20865357,0.264593184 4.73866327,0.109951489 Z"/>
          <polygon fill="#FFE8E0" points="9.25 4 12 9 6.5 9" transform="rotate(90 9.25 6.5)"/>
        </g>
      </g>
      <g transform="translate(144)">
        <rect width="27" height="27" fill="#FFE8E0" rx="6"/>
        <circle cx="13.5" cy="13.5" r="5.75" stroke="#FFF" stroke-width="2"/>
        <circle cx="21.696" cy="5.304" r="1.446" fill="#FFF"/>
      </g>
    </g>
    <g transform="translate(768 144)">
      <rect width="27" height="27" fill="#FFE8E0" rx="6"/>
      <polygon fill="#FFF" fill-rule="nonzero" points="4.5 6 10 6 14 15 17.5 6 22.5 6 22.5 6.5 21 8 21 18.5 22.5 20 22.5 20.5 15.5 20.5 15.5 20 17 18.5 17 10 13 20.5 12 20.5 7.5 10.5 7.5 17.5 9.5 20 9.5 20.5 4 20.5 4 20 6.5 17.5 6.5 9"/>
    </g>
    <g transform="translate(816 144)">
      <rect width="27" height="27" fill="#FFE8E0" rx="6"/>
      <path fill="#FFF" d="M8.44677211,13.7853125 C7.54329388,12.7160163 7.1689676,11.5825167 7.32379327,10.3848138 C7.6416592,7.92586127 9.15828867,6.41945942 10.7328413,5.66501115 C12.0589798,5.02959078 14.2369454,4.70528211 15.9795809,5.49422684 C17.7222164,6.28317156 18.1971079,7.2394172 18.5930739,8.69366682 C18.9890398,10.1479164 18.7865941,12.2418505 18.5930739,12.9477909 C18.3995536,13.6537313 16.5552643,16.5779732 15.0315574,16.5779732 C13.5078505,16.5779732 12.4994818,15.6906747 12.7685558,14.3147737 C13.0376297,12.9388727 13.8321479,10.9853752 13.8744306,9.94074544 C13.9167133,8.89611573 13.9167133,8.55516157 13.2505023,8.08726482 C12.5842913,7.61936807 11.7925918,7.61936807 10.9776065,8.08726482 C10.1626212,8.55516157 9.65396034,9.3790782 9.65396034,10.5724902 C9.65396034,11.3680981 9.86362931,12.0766603 10.2829672,12.6981767 C9.98105473,14.6957136 9.60616188,16.4136385 9.15828867,17.8519513 C8.87540557,18.7604102 8.55518189,19.4804527 8.19761764,20.012079 L8.44677211,24.970714 C9.78499962,23.7035262 10.6286111,22.5062028 10.9776065,21.3787439 C11.3266019,20.251285 11.6778088,18.8486641 12.0312269,17.1708813 C12.8440772,18.259007 13.653238,18.8030699 14.4587094,18.8030699 C18.5930739,18.8030699 21.1225228,16.2995131 21.8809452,12.5405348 C22.9500315,7.24180935 19.1472077,4.36693971 17.9363712,3.79031111 C16.7255347,3.21368251 15.7108569,2.9119435 14.4587094,2.9119435 C13.2065619,2.9119435 12.6265558,2.79456734 11.2730549,3.14196959 C9.91955395,3.48937184 6.29373073,4.54453632 5.10701687,8.69366682 C4.65929429,10.2590479 4.70632368,12.4000612 5.4748368,13.9317856 C5.98717888,14.9529351 6.80663515,15.5861752 7.93320562,15.8315058 L8.44677211,13.7853125 Z"/>
    </g>
    <g transform="translate(864 144)">
      <rect width="27" height="27" fill="#FFE8E0" rx="6"/>
      <g fill-rule="nonzero" transform="translate(4.5 7)">
        <path fill="#FFF" d="M4.73866327,0.109951489 C5.93790143,0.0366504963 7.35834701,-2.58494568e-14 9,0 C10.6389506,2.56766397e-14 12.0574214,0.0365299305 13.2554125,0.109589791 L13.255413,0.109581706 C15.7736916,0.263159713 17.7830257,2.26881287 17.9412209,4.78680566 C17.980407,5.41053032 18,6.08322597 18,6.80489262 C18,7.480719 17.982817,8.11359808 17.948451,8.70352984 L17.9484528,8.70352994 C17.8002665,11.2473188 15.7628302,13.2727591 13.2182107,13.4059215 C12.0197038,13.4686405 10.6136336,13.5 9,13.5 C7.38406543,13.5 5.97628657,13.468551 4.77666342,13.405653 L4.77666305,13.40566 C2.22093655,13.2716595 0.17897401,11.2294511 0.0452811777,8.67370853 C0.0150937259,8.0966293 5.46027585e-17,7.47369066 0,6.80489262 C0,6.09048108 0.0172227856,5.42839769 0.0516683569,4.81864244 L0.0516589788,4.81864191 C0.194620093,2.28794532 2.20865357,0.264593184 4.73866327,0.109951489 Z"/>
        <polygon fill="#FFE8E0" points="9.25 4 12 9 6.5 9" transform="rotate(90 9.25 6.5)"/>
      </g>
    </g>
    <g transform="translate(912 144)">
      <rect width="27" height="27" fill="#FFE8E0" rx="6"/>
      <circle cx="13.5" cy="13.5" r="5.75" stroke="#FFF" stroke-width="2"/>
      <circle cx="21.696" cy="5.304" r="1.446" fill="#FFF"/>
    </g>
    <g transform="translate(192 144)">
      <rect width="27" height="27" fill="#FFE8E0" rx="6"/>
      <polygon fill="#FFF" fill-rule="nonzero" points="4.5 6 10 6 14 15 17.5 6 22.5 6 22.5 6.5 21 8 21 18.5 22.5 20 22.5 20.5 15.5 20.5 15.5 20 17 18.5 17 10 13 20.5 12 20.5 7.5 10.5 7.5 17.5 9.5 20 9.5 20.5 4 20.5 4 20 6.5 17.5 6.5 9"/>
      <g transform="translate(48)">
        <rect width="27" height="27" fill="#FFE8E0" rx="6"/>
        <path fill="#FFF" d="M8.44677211,13.7853125 C7.54329388,12.7160163 7.1689676,11.5825167 7.32379327,10.3848138 C7.6416592,7.92586127 9.15828867,6.41945942 10.7328413,5.66501115 C12.0589798,5.02959078 14.2369454,4.70528211 15.9795809,5.49422684 C17.7222164,6.28317156 18.1971079,7.2394172 18.5930739,8.69366682 C18.9890398,10.1479164 18.7865941,12.2418505 18.5930739,12.9477909 C18.3995536,13.6537313 16.5552643,16.5779732 15.0315574,16.5779732 C13.5078505,16.5779732 12.4994818,15.6906747 12.7685558,14.3147737 C13.0376297,12.9388727 13.8321479,10.9853752 13.8744306,9.94074544 C13.9167133,8.89611573 13.9167133,8.55516157 13.2505023,8.08726482 C12.5842913,7.61936807 11.7925918,7.61936807 10.9776065,8.08726482 C10.1626212,8.55516157 9.65396034,9.3790782 9.65396034,10.5724902 C9.65396034,11.3680981 9.86362931,12.0766603 10.2829672,12.6981767 C9.98105473,14.6957136 9.60616188,16.4136385 9.15828867,17.8519513 C8.87540557,18.7604102 8.55518189,19.4804527 8.19761764,20.012079 L8.44677211,24.970714 C9.78499962,23.7035262 10.6286111,22.5062028 10.9776065,21.3787439 C11.3266019,20.251285 11.6778088,18.8486641 12.0312269,17.1708813 C12.8440772,18.259007 13.653238,18.8030699 14.4587094,18.8030699 C18.5930739,18.8030699 21.1225228,16.2995131 21.8809452,12.5405348 C22.9500315,7.24180935 19.1472077,4.36693971 17.9363712,3.79031111 C16.7255347,3.21368251 15.7108569,2.9119435 14.4587094,2.9119435 C13.2065619,2.9119435 12.6265558,2.79456734 11.2730549,3.14196959 C9.91955395,3.48937184 6.29373073,4.54453632 5.10701687,8.69366682 C4.65929429,10.2590479 4.70632368,12.4000612 5.4748368,13.9317856 C5.98717888,14.9529351 6.80663515,15.5861752 7.93320562,15.8315058 L8.44677211,13.7853125 Z"/>
      </g>
      <g transform="translate(96)">
        <rect width="27" height="27" fill="#FFE8E0" rx="6"/>
        <g fill-rule="nonzero" transform="translate(4.5 7)">
          <path fill="#FFF" d="M4.73866327,0.109951489 C5.93790143,0.0366504963 7.35834701,-2.58494568e-14 9,0 C10.6389506,2.56766397e-14 12.0574214,0.0365299305 13.2554125,0.109589791 L13.255413,0.109581706 C15.7736916,0.263159713 17.7830257,2.26881287 17.9412209,4.78680566 C17.980407,5.41053032 18,6.08322597 18,6.80489262 C18,7.480719 17.982817,8.11359808 17.948451,8.70352984 L17.9484528,8.70352994 C17.8002665,11.2473188 15.7628302,13.2727591 13.2182107,13.4059215 C12.0197038,13.4686405 10.6136336,13.5 9,13.5 C7.38406543,13.5 5.97628657,13.468551 4.77666342,13.405653 L4.77666305,13.40566 C2.22093655,13.2716595 0.17897401,11.2294511 0.0452811777,8.67370853 C0.0150937259,8.0966293 5.46027585e-17,7.47369066 0,6.80489262 C0,6.09048108 0.0172227856,5.42839769 0.0516683569,4.81864244 L0.0516589788,4.81864191 C0.194620093,2.28794532 2.20865357,0.264593184 4.73866327,0.109951489 Z"/>
          <polygon fill="#FFE8E0" points="9.25 4 12 9 6.5 9" transform="rotate(90 9.25 6.5)"/>
        </g>
      </g>
      <g transform="translate(144)">
        <rect width="27" height="27" fill="#FFE8E0" rx="6"/>
        <circle cx="13.5" cy="13.5" r="5.75" stroke="#FFF" stroke-width="2"/>
        <circle cx="21.696" cy="5.304" r="1.446" fill="#FFF"/>
      </g>
    </g>
    <g transform="translate(576 144)">
      <rect width="27" height="27" fill="#FFE8E0" rx="6"/>
      <polygon fill="#FFF" fill-rule="nonzero" points="4.5 6 10 6 14 15 17.5 6 22.5 6 22.5 6.5 21 8 21 18.5 22.5 20 22.5 20.5 15.5 20.5 15.5 20 17 18.5 17 10 13 20.5 12 20.5 7.5 10.5 7.5 17.5 9.5 20 9.5 20.5 4 20.5 4 20 6.5 17.5 6.5 9"/>
      <g transform="translate(48)">
        <rect width="27" height="27" fill="#FFE8E0" rx="6"/>
        <path fill="#FFF" d="M8.44677211,13.7853125 C7.54329388,12.7160163 7.1689676,11.5825167 7.32379327,10.3848138 C7.6416592,7.92586127 9.15828867,6.41945942 10.7328413,5.66501115 C12.0589798,5.02959078 14.2369454,4.70528211 15.9795809,5.49422684 C17.7222164,6.28317156 18.1971079,7.2394172 18.5930739,8.69366682 C18.9890398,10.1479164 18.7865941,12.2418505 18.5930739,12.9477909 C18.3995536,13.6537313 16.5552643,16.5779732 15.0315574,16.5779732 C13.5078505,16.5779732 12.4994818,15.6906747 12.7685558,14.3147737 C13.0376297,12.9388727 13.8321479,10.9853752 13.8744306,9.94074544 C13.9167133,8.89611573 13.9167133,8.55516157 13.2505023,8.08726482 C12.5842913,7.61936807 11.7925918,7.61936807 10.9776065,8.08726482 C10.1626212,8.55516157 9.65396034,9.3790782 9.65396034,10.5724902 C9.65396034,11.3680981 9.86362931,12.0766603 10.2829672,12.6981767 C9.98105473,14.6957136 9.60616188,16.4136385 9.15828867,17.8519513 C8.87540557,18.7604102 8.55518189,19.4804527 8.19761764,20.012079 L8.44677211,24.970714 C9.78499962,23.7035262 10.6286111,22.5062028 10.9776065,21.3787439 C11.3266019,20.251285 11.6778088,18.8486641 12.0312269,17.1708813 C12.8440772,18.259007 13.653238,18.8030699 14.4587094,18.8030699 C18.5930739,18.8030699 21.1225228,16.2995131 21.8809452,12.5405348 C22.9500315,7.24180935 19.1472077,4.36693971 17.9363712,3.79031111 C16.7255347,3.21368251 15.7108569,2.9119435 14.4587094,2.9119435 C13.2065619,2.9119435 12.6265558,2.79456734 11.2730549,3.14196959 C9.91955395,3.48937184 6.29373073,4.54453632 5.10701687,8.69366682 C4.65929429,10.2590479 4.70632368,12.4000612 5.4748368,13.9317856 C5.98717888,14.9529351 6.80663515,15.5861752 7.93320562,15.8315058 L8.44677211,13.7853125 Z"/>
      </g>
      <g transform="translate(96)">
        <rect width="27" height="27" fill="#FFE8E0" rx="6"/>
        <g fill-rule="nonzero" transform="translate(4.5 7)">
          <path fill="#FFF" d="M4.73866327,0.109951489 C5.93790143,0.0366504963 7.35834701,-2.58494568e-14 9,0 C10.6389506,2.56766397e-14 12.0574214,0.0365299305 13.2554125,0.109589791 L13.255413,0.109581706 C15.7736916,0.263159713 17.7830257,2.26881287 17.9412209,4.78680566 C17.980407,5.41053032 18,6.08322597 18,6.80489262 C18,7.480719 17.982817,8.11359808 17.948451,8.70352984 L17.9484528,8.70352994 C17.8002665,11.2473188 15.7628302,13.2727591 13.2182107,13.4059215 C12.0197038,13.4686405 10.6136336,13.5 9,13.5 C7.38406543,13.5 5.97628657,13.468551 4.77666342,13.405653 L4.77666305,13.40566 C2.22093655,13.2716595 0.17897401,11.2294511 0.0452811777,8.67370853 C0.0150937259,8.0966293 5.46027585e-17,7.47369066 0,6.80489262 C0,6.09048108 0.0172227856,5.42839769 0.0516683569,4.81864244 L0.0516589788,4.81864191 C0.194620093,2.28794532 2.20865357,0.264593184 4.73866327,0.109951489 Z"/>
          <polygon fill="#FFE8E0" points="9.25 4 12 9 6.5 9" transform="rotate(90 9.25 6.5)"/>
        </g>
      </g>
      <g transform="translate(144)">
        <rect width="27" height="27" fill="#FFE8E0" rx="6"/>
        <circle cx="13.5" cy="13.5" r="5.75" stroke="#FFF" stroke-width="2"/>
        <circle cx="21.696" cy="5.304" r="1.446" fill="#FFF"/>
      </g>
    </g>
    <g transform="translate(960 144)">
      <rect width="27" height="27" fill="#FFE8E0" rx="6"/>
      <polygon fill="#FFF" fill-rule="nonzero" points="4.5 6 10 6 14 15 17.5 6 22.5 6 22.5 6.5 21 8 21 18.5 22.5 20 22.5 20.5 15.5 20.5 15.5 20 17 18.5 17 10 13 20.5 12 20.5 7.5 10.5 7.5 17.5 9.5 20 9.5 20.5 4 20.5 4 20 6.5 17.5 6.5 9"/>
    </g>
    <g transform="translate(1008 144)">
      <rect width="27" height="27" fill="#FFE8E0" rx="6"/>
      <path fill="#FFF" d="M8.44677211,13.7853125 C7.54329388,12.7160163 7.1689676,11.5825167 7.32379327,10.3848138 C7.6416592,7.92586127 9.15828867,6.41945942 10.7328413,5.66501115 C12.0589798,5.02959078 14.2369454,4.70528211 15.9795809,5.49422684 C17.7222164,6.28317156 18.1971079,7.2394172 18.5930739,8.69366682 C18.9890398,10.1479164 18.7865941,12.2418505 18.5930739,12.9477909 C18.3995536,13.6537313 16.5552643,16.5779732 15.0315574,16.5779732 C13.5078505,16.5779732 12.4994818,15.6906747 12.7685558,14.3147737 C13.0376297,12.9388727 13.8321479,10.9853752 13.8744306,9.94074544 C13.9167133,8.89611573 13.9167133,8.55516157 13.2505023,8.08726482 C12.5842913,7.61936807 11.7925918,7.61936807 10.9776065,8.08726482 C10.1626212,8.55516157 9.65396034,9.3790782 9.65396034,10.5724902 C9.65396034,11.3680981 9.86362931,12.0766603 10.2829672,12.6981767 C9.98105473,14.6957136 9.60616188,16.4136385 9.15828867,17.8519513 C8.87540557,18.7604102 8.55518189,19.4804527 8.19761764,20.012079 L8.44677211,24.970714 C9.78499962,23.7035262 10.6286111,22.5062028 10.9776065,21.3787439 C11.3266019,20.251285 11.6778088,18.8486641 12.0312269,17.1708813 C12.8440772,18.259007 13.653238,18.8030699 14.4587094,18.8030699 C18.5930739,18.8030699 21.1225228,16.2995131 21.8809452,12.5405348 C22.9500315,7.24180935 19.1472077,4.36693971 17.9363712,3.79031111 C16.7255347,3.21368251 15.7108569,2.9119435 14.4587094,2.9119435 C13.2065619,2.9119435 12.6265558,2.79456734 11.2730549,3.14196959 C9.91955395,3.48937184 6.29373073,4.54453632 5.10701687,8.69366682 C4.65929429,10.2590479 4.70632368,12.4000612 5.4748368,13.9317856 C5.98717888,14.9529351 6.80663515,15.5861752 7.93320562,15.8315058 L8.44677211,13.7853125 Z"/>
    </g>
    <g transform="translate(384 96)">
      <g transform="translate(48)">
        <rect width="27" height="27" fill="#FFE8E0" rx="6"/>
        <polygon fill="#FFF" fill-rule="nonzero" points="4.5 6 10 6 14 15 17.5 6 22.5 6 22.5 6.5 21 8 21 18.5 22.5 20 22.5 20.5 15.5 20.5 15.5 20 17 18.5 17 10 13 20.5 12 20.5 7.5 10.5 7.5 17.5 9.5 20 9.5 20.5 4 20.5 4 20 6.5 17.5 6.5 9"/>
      </g>
      <rect width="27" height="27" fill="#FFE8E0" rx="6"/>
      <circle cx="13.5" cy="13.5" r="5.75" stroke="#FFF" stroke-width="2"/>
      <circle cx="21.696" cy="5.304" r="1.446" fill="#FFF"/>
      <g transform="translate(96)">
        <rect width="27" height="27" fill="#FFE8E0" rx="6"/>
        <path fill="#FFF" d="M8.44677211,13.7853125 C7.54329388,12.7160163 7.1689676,11.5825167 7.32379327,10.3848138 C7.6416592,7.92586127 9.15828867,6.41945942 10.7328413,5.66501115 C12.0589798,5.02959078 14.2369454,4.70528211 15.9795809,5.49422684 C17.7222164,6.28317156 18.1971079,7.2394172 18.5930739,8.69366682 C18.9890398,10.1479164 18.7865941,12.2418505 18.5930739,12.9477909 C18.3995536,13.6537313 16.5552643,16.5779732 15.0315574,16.5779732 C13.5078505,16.5779732 12.4994818,15.6906747 12.7685558,14.3147737 C13.0376297,12.9388727 13.8321479,10.9853752 13.8744306,9.94074544 C13.9167133,8.89611573 13.9167133,8.55516157 13.2505023,8.08726482 C12.5842913,7.61936807 11.7925918,7.61936807 10.9776065,8.08726482 C10.1626212,8.55516157 9.65396034,9.3790782 9.65396034,10.5724902 C9.65396034,11.3680981 9.86362931,12.0766603 10.2829672,12.6981767 C9.98105473,14.6957136 9.60616188,16.4136385 9.15828867,17.8519513 C8.87540557,18.7604102 8.55518189,19.4804527 8.19761764,20.012079 L8.44677211,24.970714 C9.78499962,23.7035262 10.6286111,22.5062028 10.9776065,21.3787439 C11.3266019,20.251285 11.6778088,18.8486641 12.0312269,17.1708813 C12.8440772,18.259007 13.653238,18.8030699 14.4587094,18.8030699 C18.5930739,18.8030699 21.1225228,16.2995131 21.8809452,12.5405348 C22.9500315,7.24180935 19.1472077,4.36693971 17.9363712,3.79031111 C16.7255347,3.21368251 15.7108569,2.9119435 14.4587094,2.9119435 C13.2065619,2.9119435 12.6265558,2.79456734 11.2730549,3.14196959 C9.91955395,3.48937184 6.29373073,4.54453632 5.10701687,8.69366682 C4.65929429,10.2590479 4.70632368,12.4000612 5.4748368,13.9317856 C5.98717888,14.9529351 6.80663515,15.5861752 7.93320562,15.8315058 L8.44677211,13.7853125 Z"/>
      </g>
      <g transform="translate(144)">
        <rect width="27" height="27" fill="#FFE8E0" rx="6"/>
        <g fill-rule="nonzero" transform="translate(4.5 7)">
          <path fill="#FFF" d="M4.73866327,0.109951489 C5.93790143,0.0366504963 7.35834701,-2.58494568e-14 9,0 C10.6389506,2.56766397e-14 12.0574214,0.0365299305 13.2554125,0.109589791 L13.255413,0.109581706 C15.7736916,0.263159713 17.7830257,2.26881287 17.9412209,4.78680566 C17.980407,5.41053032 18,6.08322597 18,6.80489262 C18,7.480719 17.982817,8.11359808 17.948451,8.70352984 L17.9484528,8.70352994 C17.8002665,11.2473188 15.7628302,13.2727591 13.2182107,13.4059215 C12.0197038,13.4686405 10.6136336,13.5 9,13.5 C7.38406543,13.5 5.97628657,13.468551 4.77666342,13.405653 L4.77666305,13.40566 C2.22093655,13.2716595 0.17897401,11.2294511 0.0452811777,8.67370853 C0.0150937259,8.0966293 5.46027585e-17,7.47369066 0,6.80489262 C0,6.09048108 0.0172227856,5.42839769 0.0516683569,4.81864244 L0.0516589788,4.81864191 C0.194620093,2.28794532 2.20865357,0.264593184 4.73866327,0.109951489 Z"/>
          <polygon fill="#FFE8E0" points="9.25 4 12 9 6.5 9" transform="rotate(90 9.25 6.5)"/>
        </g>
      </g>
    </g>
    <g transform="translate(192 96)">
      <g transform="translate(48)">
        <rect width="27" height="27" fill="#FFE8E0" rx="6"/>
        <polygon fill="#FFF" fill-rule="nonzero" points="4.5 6 10 6 14 15 17.5 6 22.5 6 22.5 6.5 21 8 21 18.5 22.5 20 22.5 20.5 15.5 20.5 15.5 20 17 18.5 17 10 13 20.5 12 20.5 7.5 10.5 7.5 17.5 9.5 20 9.5 20.5 4 20.5 4 20 6.5 17.5 6.5 9"/>
      </g>
      <rect width="27" height="27" fill="#FFE8E0" rx="6"/>
      <circle cx="13.5" cy="13.5" r="5.75" stroke="#FFF" stroke-width="2"/>
      <circle cx="21.696" cy="5.304" r="1.446" fill="#FFF"/>
      <g transform="translate(96)">
        <rect width="27" height="27" fill="#FFE8E0" rx="6"/>
        <path fill="#FFF" d="M8.44677211,13.7853125 C7.54329388,12.7160163 7.1689676,11.5825167 7.32379327,10.3848138 C7.6416592,7.92586127 9.15828867,6.41945942 10.7328413,5.66501115 C12.0589798,5.02959078 14.2369454,4.70528211 15.9795809,5.49422684 C17.7222164,6.28317156 18.1971079,7.2394172 18.5930739,8.69366682 C18.9890398,10.1479164 18.7865941,12.2418505 18.5930739,12.9477909 C18.3995536,13.6537313 16.5552643,16.5779732 15.0315574,16.5779732 C13.5078505,16.5779732 12.4994818,15.6906747 12.7685558,14.3147737 C13.0376297,12.9388727 13.8321479,10.9853752 13.8744306,9.94074544 C13.9167133,8.89611573 13.9167133,8.55516157 13.2505023,8.08726482 C12.5842913,7.61936807 11.7925918,7.61936807 10.9776065,8.08726482 C10.1626212,8.55516157 9.65396034,9.3790782 9.65396034,10.5724902 C9.65396034,11.3680981 9.86362931,12.0766603 10.2829672,12.6981767 C9.98105473,14.6957136 9.60616188,16.4136385 9.15828867,17.8519513 C8.87540557,18.7604102 8.55518189,19.4804527 8.19761764,20.012079 L8.44677211,24.970714 C9.78499962,23.7035262 10.6286111,22.5062028 10.9776065,21.3787439 C11.3266019,20.251285 11.6778088,18.8486641 12.0312269,17.1708813 C12.8440772,18.259007 13.653238,18.8030699 14.4587094,18.8030699 C18.5930739,18.8030699 21.1225228,16.2995131 21.8809452,12.5405348 C22.9500315,7.24180935 19.1472077,4.36693971 17.9363712,3.79031111 C16.7255347,3.21368251 15.7108569,2.9119435 14.4587094,2.9119435 C13.2065619,2.9119435 12.6265558,2.79456734 11.2730549,3.14196959 C9.91955395,3.48937184 6.29373073,4.54453632 5.10701687,8.69366682 C4.65929429,10.2590479 4.70632368,12.4000612 5.4748368,13.9317856 C5.98717888,14.9529351 6.80663515,15.5861752 7.93320562,15.8315058 L8.44677211,13.7853125 Z"/>
      </g>
      <g transform="translate(144)">
        <rect width="27" height="27" fill="#FFE8E0" rx="6"/>
        <g fill-rule="nonzero" transform="translate(4.5 7)">
          <path fill="#FFF" d="M4.73866327,0.109951489 C5.93790143,0.0366504963 7.35834701,-2.58494568e-14 9,0 C10.6389506,2.56766397e-14 12.0574214,0.0365299305 13.2554125,0.109589791 L13.255413,0.109581706 C15.7736916,0.263159713 17.7830257,2.26881287 17.9412209,4.78680566 C17.980407,5.41053032 18,6.08322597 18,6.80489262 C18,7.480719 17.982817,8.11359808 17.948451,8.70352984 L17.9484528,8.70352994 C17.8002665,11.2473188 15.7628302,13.2727591 13.2182107,13.4059215 C12.0197038,13.4686405 10.6136336,13.5 9,13.5 C7.38406543,13.5 5.97628657,13.468551 4.77666342,13.405653 L4.77666305,13.40566 C2.22093655,13.2716595 0.17897401,11.2294511 0.0452811777,8.67370853 C0.0150937259,8.0966293 5.46027585e-17,7.47369066 0,6.80489262 C0,6.09048108 0.0172227856,5.42839769 0.0516683569,4.81864244 L0.0516589788,4.81864191 C0.194620093,2.28794532 2.20865357,0.264593184 4.73866327,0.109951489 Z"/>
          <polygon fill="#FFE8E0" points="9.25 4 12 9 6.5 9" transform="rotate(90 9.25 6.5)"/>
        </g>
      </g>
    </g>
    <g transform="translate(576 96)">
      <g transform="translate(48)">
        <rect width="27" height="27" fill="#FFE8E0" rx="6"/>
        <polygon fill="#FFF" fill-rule="nonzero" points="4.5 6 10 6 14 15 17.5 6 22.5 6 22.5 6.5 21 8 21 18.5 22.5 20 22.5 20.5 15.5 20.5 15.5 20 17 18.5 17 10 13 20.5 12 20.5 7.5 10.5 7.5 17.5 9.5 20 9.5 20.5 4 20.5 4 20 6.5 17.5 6.5 9"/>
      </g>
      <rect width="27" height="27" fill="#FFE8E0" rx="6"/>
      <circle cx="13.5" cy="13.5" r="5.75" stroke="#FFF" stroke-width="2"/>
      <circle cx="21.696" cy="5.304" r="1.446" fill="#FFF"/>
      <g transform="translate(96)">
        <rect width="27" height="27" fill="#FFE8E0" rx="6"/>
        <path fill="#FFF" d="M8.44677211,13.7853125 C7.54329388,12.7160163 7.1689676,11.5825167 7.32379327,10.3848138 C7.6416592,7.92586127 9.15828867,6.41945942 10.7328413,5.66501115 C12.0589798,5.02959078 14.2369454,4.70528211 15.9795809,5.49422684 C17.7222164,6.28317156 18.1971079,7.2394172 18.5930739,8.69366682 C18.9890398,10.1479164 18.7865941,12.2418505 18.5930739,12.9477909 C18.3995536,13.6537313 16.5552643,16.5779732 15.0315574,16.5779732 C13.5078505,16.5779732 12.4994818,15.6906747 12.7685558,14.3147737 C13.0376297,12.9388727 13.8321479,10.9853752 13.8744306,9.94074544 C13.9167133,8.89611573 13.9167133,8.55516157 13.2505023,8.08726482 C12.5842913,7.61936807 11.7925918,7.61936807 10.9776065,8.08726482 C10.1626212,8.55516157 9.65396034,9.3790782 9.65396034,10.5724902 C9.65396034,11.3680981 9.86362931,12.0766603 10.2829672,12.6981767 C9.98105473,14.6957136 9.60616188,16.4136385 9.15828867,17.8519513 C8.87540557,18.7604102 8.55518189,19.4804527 8.19761764,20.012079 L8.44677211,24.970714 C9.78499962,23.7035262 10.6286111,22.5062028 10.9776065,21.3787439 C11.3266019,20.251285 11.6778088,18.8486641 12.0312269,17.1708813 C12.8440772,18.259007 13.653238,18.8030699 14.4587094,18.8030699 C18.5930739,18.8030699 21.1225228,16.2995131 21.8809452,12.5405348 C22.9500315,7.24180935 19.1472077,4.36693971 17.9363712,3.79031111 C16.7255347,3.21368251 15.7108569,2.9119435 14.4587094,2.9119435 C13.2065619,2.9119435 12.6265558,2.79456734 11.2730549,3.14196959 C9.91955395,3.48937184 6.29373073,4.54453632 5.10701687,8.69366682 C4.65929429,10.2590479 4.70632368,12.4000612 5.4748368,13.9317856 C5.98717888,14.9529351 6.80663515,15.5861752 7.93320562,15.8315058 L8.44677211,13.7853125 Z"/>
      </g>
      <g transform="translate(144)">
        <rect width="27" height="27" fill="#FFE8E0" rx="6"/>
        <g fill-rule="nonzero" transform="translate(4.5 7)">
          <path fill="#FFF" d="M4.73866327,0.109951489 C5.93790143,0.0366504963 7.35834701,-2.58494568e-14 9,0 C10.6389506,2.56766397e-14 12.0574214,0.0365299305 13.2554125,0.109589791 L13.255413,0.109581706 C15.7736916,0.263159713 17.7830257,2.26881287 17.9412209,4.78680566 C17.980407,5.41053032 18,6.08322597 18,6.80489262 C18,7.480719 17.982817,8.11359808 17.948451,8.70352984 L17.9484528,8.70352994 C17.8002665,11.2473188 15.7628302,13.2727591 13.2182107,13.4059215 C12.0197038,13.4686405 10.6136336,13.5 9,13.5 C7.38406543,13.5 5.97628657,13.468551 4.77666342,13.405653 L4.77666305,13.40566 C2.22093655,13.2716595 0.17897401,11.2294511 0.0452811777,8.67370853 C0.0150937259,8.0966293 5.46027585e-17,7.47369066 0,6.80489262 C0,6.09048108 0.0172227856,5.42839769 0.0516683569,4.81864244 L0.0516589788,4.81864191 C0.194620093,2.28794532 2.20865357,0.264593184 4.73866327,0.109951489 Z"/>
          <polygon fill="#FFE8E0" points="9.25 4 12 9 6.5 9" transform="rotate(90 9.25 6.5)"/>
        </g>
      </g>
    </g>
    <g transform="translate(816 96)">
      <rect width="27" height="27" fill="#FFE8E0" rx="6"/>
      <polygon fill="#FFF" fill-rule="nonzero" points="4.5 6 10 6 14 15 17.5 6 22.5 6 22.5 6.5 21 8 21 18.5 22.5 20 22.5 20.5 15.5 20.5 15.5 20 17 18.5 17 10 13 20.5 12 20.5 7.5 10.5 7.5 17.5 9.5 20 9.5 20.5 4 20.5 4 20 6.5 17.5 6.5 9"/>
    </g>
    <g transform="translate(768 96)">
      <rect width="27" height="27" fill="#FFE8E0" rx="6"/>
      <circle cx="13.5" cy="13.5" r="5.75" stroke="#FFF" stroke-width="2"/>
      <circle cx="21.696" cy="5.304" r="1.446" fill="#FFF"/>
    </g>
    <g transform="translate(864 96)">
      <rect width="27" height="27" fill="#FFE8E0" rx="6"/>
      <path fill="#FFF" d="M8.44677211,13.7853125 C7.54329388,12.7160163 7.1689676,11.5825167 7.32379327,10.3848138 C7.6416592,7.92586127 9.15828867,6.41945942 10.7328413,5.66501115 C12.0589798,5.02959078 14.2369454,4.70528211 15.9795809,5.49422684 C17.7222164,6.28317156 18.1971079,7.2394172 18.5930739,8.69366682 C18.9890398,10.1479164 18.7865941,12.2418505 18.5930739,12.9477909 C18.3995536,13.6537313 16.5552643,16.5779732 15.0315574,16.5779732 C13.5078505,16.5779732 12.4994818,15.6906747 12.7685558,14.3147737 C13.0376297,12.9388727 13.8321479,10.9853752 13.8744306,9.94074544 C13.9167133,8.89611573 13.9167133,8.55516157 13.2505023,8.08726482 C12.5842913,7.61936807 11.7925918,7.61936807 10.9776065,8.08726482 C10.1626212,8.55516157 9.65396034,9.3790782 9.65396034,10.5724902 C9.65396034,11.3680981 9.86362931,12.0766603 10.2829672,12.6981767 C9.98105473,14.6957136 9.60616188,16.4136385 9.15828867,17.8519513 C8.87540557,18.7604102 8.55518189,19.4804527 8.19761764,20.012079 L8.44677211,24.970714 C9.78499962,23.7035262 10.6286111,22.5062028 10.9776065,21.3787439 C11.3266019,20.251285 11.6778088,18.8486641 12.0312269,17.1708813 C12.8440772,18.259007 13.653238,18.8030699 14.4587094,18.8030699 C18.5930739,18.8030699 21.1225228,16.2995131 21.8809452,12.5405348 C22.9500315,7.24180935 19.1472077,4.36693971 17.9363712,3.79031111 C16.7255347,3.21368251 15.7108569,2.9119435 14.4587094,2.9119435 C13.2065619,2.9119435 12.6265558,2.79456734 11.2730549,3.14196959 C9.91955395,3.48937184 6.29373073,4.54453632 5.10701687,8.69366682 C4.65929429,10.2590479 4.70632368,12.4000612 5.4748368,13.9317856 C5.98717888,14.9529351 6.80663515,15.5861752 7.93320562,15.8315058 L8.44677211,13.7853125 Z"/>
    </g>
    <g transform="translate(912 96)">
      <rect width="27" height="27" fill="#FFE8E0" rx="6"/>
      <g fill-rule="nonzero" transform="translate(4.5 7)">
        <path fill="#FFF" d="M4.73866327,0.109951489 C5.93790143,0.0366504963 7.35834701,-2.58494568e-14 9,0 C10.6389506,2.56766397e-14 12.0574214,0.0365299305 13.2554125,0.109589791 L13.255413,0.109581706 C15.7736916,0.263159713 17.7830257,2.26881287 17.9412209,4.78680566 C17.980407,5.41053032 18,6.08322597 18,6.80489262 C18,7.480719 17.982817,8.11359808 17.948451,8.70352984 L17.9484528,8.70352994 C17.8002665,11.2473188 15.7628302,13.2727591 13.2182107,13.4059215 C12.0197038,13.4686405 10.6136336,13.5 9,13.5 C7.38406543,13.5 5.97628657,13.468551 4.77666342,13.405653 L4.77666305,13.40566 C2.22093655,13.2716595 0.17897401,11.2294511 0.0452811777,8.67370853 C0.0150937259,8.0966293 5.46027585e-17,7.47369066 0,6.80489262 C0,6.09048108 0.0172227856,5.42839769 0.0516683569,4.81864244 L0.0516589788,4.81864191 C0.194620093,2.28794532 2.20865357,0.264593184 4.73866327,0.109951489 Z"/>
        <polygon fill="#FFE8E0" points="9.25 4 12 9 6.5 9" transform="rotate(90 9.25 6.5)"/>
      </g>
    </g>
    <g transform="translate(1008 96)">
      <rect width="27" height="27" fill="#FFE8E0" rx="6"/>
      <polygon fill="#FFF" fill-rule="nonzero" points="4.5 6 10 6 14 15 17.5 6 22.5 6 22.5 6.5 21 8 21 18.5 22.5 20 22.5 20.5 15.5 20.5 15.5 20 17 18.5 17 10 13 20.5 12 20.5 7.5 10.5 7.5 17.5 9.5 20 9.5 20.5 4 20.5 4 20 6.5 17.5 6.5 9"/>
    </g>
    <g transform="translate(960 96)">
      <rect width="27" height="27" fill="#FFE8E0" rx="6"/>
      <circle cx="13.5" cy="13.5" r="5.75" stroke="#FFF" stroke-width="2"/>
      <circle cx="21.696" cy="5.304" r="1.446" fill="#FFF"/>
    </g>
    <g transform="translate(384 48)">
      <rect width="27" height="27" fill="#FFE8E0" rx="6"/>
      <g fill-rule="nonzero" transform="translate(4.5 7)">
        <path fill="#FFF" d="M4.73866327,0.109951489 C5.93790143,0.0366504963 7.35834701,-2.58494568e-14 9,0 C10.6389506,2.56766397e-14 12.0574214,0.0365299305 13.2554125,0.109589791 L13.255413,0.109581706 C15.7736916,0.263159713 17.7830257,2.26881287 17.9412209,4.78680566 C17.980407,5.41053032 18,6.08322597 18,6.80489262 C18,7.480719 17.982817,8.11359808 17.948451,8.70352984 L17.9484528,8.70352994 C17.8002665,11.2473188 15.7628302,13.2727591 13.2182107,13.4059215 C12.0197038,13.4686405 10.6136336,13.5 9,13.5 C7.38406543,13.5 5.97628657,13.468551 4.77666342,13.405653 L4.77666305,13.40566 C2.22093655,13.2716595 0.17897401,11.2294511 0.0452811777,8.67370853 C0.0150937259,8.0966293 5.46027585e-17,7.47369066 0,6.80489262 C0,6.09048108 0.0172227856,5.42839769 0.0516683569,4.81864244 L0.0516589788,4.81864191 C0.194620093,2.28794532 2.20865357,0.264593184 4.73866327,0.109951489 Z"/>
        <polygon fill="#FFE8E0" points="9.25 4 12 9 6.5 9" transform="rotate(90 9.25 6.5)"/>
      </g>
      <g transform="translate(96)">
        <rect width="27" height="27" fill="#FFE8E0" rx="6"/>
        <polygon fill="#FFF" fill-rule="nonzero" points="4.5 6 10 6 14 15 17.5 6 22.5 6 22.5 6.5 21 8 21 18.5 22.5 20 22.5 20.5 15.5 20.5 15.5 20 17 18.5 17 10 13 20.5 12 20.5 7.5 10.5 7.5 17.5 9.5 20 9.5 20.5 4 20.5 4 20 6.5 17.5 6.5 9"/>
      </g>
      <g transform="translate(48)">
        <rect width="27" height="27" fill="#FFE8E0" rx="6"/>
        <circle cx="13.5" cy="13.5" r="5.75" stroke="#FFF" stroke-width="2"/>
        <circle cx="21.696" cy="5.304" r="1.446" fill="#FFF"/>
      </g>
      <g transform="translate(144)">
        <rect width="27" height="27" fill="#FFE8E0" rx="6"/>
        <path fill="#FFF" d="M8.44677211,13.7853125 C7.54329388,12.7160163 7.1689676,11.5825167 7.32379327,10.3848138 C7.6416592,7.92586127 9.15828867,6.41945942 10.7328413,5.66501115 C12.0589798,5.02959078 14.2369454,4.70528211 15.9795809,5.49422684 C17.7222164,6.28317156 18.1971079,7.2394172 18.5930739,8.69366682 C18.9890398,10.1479164 18.7865941,12.2418505 18.5930739,12.9477909 C18.3995536,13.6537313 16.5552643,16.5779732 15.0315574,16.5779732 C13.5078505,16.5779732 12.4994818,15.6906747 12.7685558,14.3147737 C13.0376297,12.9388727 13.8321479,10.9853752 13.8744306,9.94074544 C13.9167133,8.89611573 13.9167133,8.55516157 13.2505023,8.08726482 C12.5842913,7.61936807 11.7925918,7.61936807 10.9776065,8.08726482 C10.1626212,8.55516157 9.65396034,9.3790782 9.65396034,10.5724902 C9.65396034,11.3680981 9.86362931,12.0766603 10.2829672,12.6981767 C9.98105473,14.6957136 9.60616188,16.4136385 9.15828867,17.8519513 C8.87540557,18.7604102 8.55518189,19.4804527 8.19761764,20.012079 L8.44677211,24.970714 C9.78499962,23.7035262 10.6286111,22.5062028 10.9776065,21.3787439 C11.3266019,20.251285 11.6778088,18.8486641 12.0312269,17.1708813 C12.8440772,18.259007 13.653238,18.8030699 14.4587094,18.8030699 C18.5930739,18.8030699 21.1225228,16.2995131 21.8809452,12.5405348 C22.9500315,7.24180935 19.1472077,4.36693971 17.9363712,3.79031111 C16.7255347,3.21368251 15.7108569,2.9119435 14.4587094,2.9119435 C13.2065619,2.9119435 12.6265558,2.79456734 11.2730549,3.14196959 C9.91955395,3.48937184 6.29373073,4.54453632 5.10701687,8.69366682 C4.65929429,10.2590479 4.70632368,12.4000612 5.4748368,13.9317856 C5.98717888,14.9529351 6.80663515,15.5861752 7.93320562,15.8315058 L8.44677211,13.7853125 Z"/>
      </g>
    </g>
    <g transform="translate(192 48)">
      <rect width="27" height="27" fill="#FFE8E0" rx="6"/>
      <g fill-rule="nonzero" transform="translate(4.5 7)">
        <path fill="#FFF" d="M4.73866327,0.109951489 C5.93790143,0.0366504963 7.35834701,-2.58494568e-14 9,0 C10.6389506,2.56766397e-14 12.0574214,0.0365299305 13.2554125,0.109589791 L13.255413,0.109581706 C15.7736916,0.263159713 17.7830257,2.26881287 17.9412209,4.78680566 C17.980407,5.41053032 18,6.08322597 18,6.80489262 C18,7.480719 17.982817,8.11359808 17.948451,8.70352984 L17.9484528,8.70352994 C17.8002665,11.2473188 15.7628302,13.2727591 13.2182107,13.4059215 C12.0197038,13.4686405 10.6136336,13.5 9,13.5 C7.38406543,13.5 5.97628657,13.468551 4.77666342,13.405653 L4.77666305,13.40566 C2.22093655,13.2716595 0.17897401,11.2294511 0.0452811777,8.67370853 C0.0150937259,8.0966293 5.46027585e-17,7.47369066 0,6.80489262 C0,6.09048108 0.0172227856,5.42839769 0.0516683569,4.81864244 L0.0516589788,4.81864191 C0.194620093,2.28794532 2.20865357,0.264593184 4.73866327,0.109951489 Z"/>
        <polygon fill="#FFE8E0" points="9.25 4 12 9 6.5 9" transform="rotate(90 9.25 6.5)"/>
      </g>
      <g transform="translate(96)">
        <rect width="27" height="27" fill="#FFE8E0" rx="6"/>
        <polygon fill="#FFF" fill-rule="nonzero" points="4.5 6 10 6 14 15 17.5 6 22.5 6 22.5 6.5 21 8 21 18.5 22.5 20 22.5 20.5 15.5 20.5 15.5 20 17 18.5 17 10 13 20.5 12 20.5 7.5 10.5 7.5 17.5 9.5 20 9.5 20.5 4 20.5 4 20 6.5 17.5 6.5 9"/>
      </g>
      <g transform="translate(48)">
        <rect width="27" height="27" fill="#FFE8E0" rx="6"/>
        <circle cx="13.5" cy="13.5" r="5.75" stroke="#FFF" stroke-width="2"/>
        <circle cx="21.696" cy="5.304" r="1.446" fill="#FFF"/>
      </g>
      <g transform="translate(144)">
        <rect width="27" height="27" fill="#FFE8E0" rx="6"/>
        <path fill="#FFF" d="M8.44677211,13.7853125 C7.54329388,12.7160163 7.1689676,11.5825167 7.32379327,10.3848138 C7.6416592,7.92586127 9.15828867,6.41945942 10.7328413,5.66501115 C12.0589798,5.02959078 14.2369454,4.70528211 15.9795809,5.49422684 C17.7222164,6.28317156 18.1971079,7.2394172 18.5930739,8.69366682 C18.9890398,10.1479164 18.7865941,12.2418505 18.5930739,12.9477909 C18.3995536,13.6537313 16.5552643,16.5779732 15.0315574,16.5779732 C13.5078505,16.5779732 12.4994818,15.6906747 12.7685558,14.3147737 C13.0376297,12.9388727 13.8321479,10.9853752 13.8744306,9.94074544 C13.9167133,8.89611573 13.9167133,8.55516157 13.2505023,8.08726482 C12.5842913,7.61936807 11.7925918,7.61936807 10.9776065,8.08726482 C10.1626212,8.55516157 9.65396034,9.3790782 9.65396034,10.5724902 C9.65396034,11.3680981 9.86362931,12.0766603 10.2829672,12.6981767 C9.98105473,14.6957136 9.60616188,16.4136385 9.15828867,17.8519513 C8.87540557,18.7604102 8.55518189,19.4804527 8.19761764,20.012079 L8.44677211,24.970714 C9.78499962,23.7035262 10.6286111,22.5062028 10.9776065,21.3787439 C11.3266019,20.251285 11.6778088,18.8486641 12.0312269,17.1708813 C12.8440772,18.259007 13.653238,18.8030699 14.4587094,18.8030699 C18.5930739,18.8030699 21.1225228,16.2995131 21.8809452,12.5405348 C22.9500315,7.24180935 19.1472077,4.36693971 17.9363712,3.79031111 C16.7255347,3.21368251 15.7108569,2.9119435 14.4587094,2.9119435 C13.2065619,2.9119435 12.6265558,2.79456734 11.2730549,3.14196959 C9.91955395,3.48937184 6.29373073,4.54453632 5.10701687,8.69366682 C4.65929429,10.2590479 4.70632368,12.4000612 5.4748368,13.9317856 C5.98717888,14.9529351 6.80663515,15.5861752 7.93320562,15.8315058 L8.44677211,13.7853125 Z"/>
      </g>
    </g>
    <g transform="translate(576 48)">
      <rect width="27" height="27" fill="#FFE8E0" rx="6"/>
      <g fill-rule="nonzero" transform="translate(4.5 7)">
        <path fill="#FFF" d="M4.73866327,0.109951489 C5.93790143,0.0366504963 7.35834701,-2.58494568e-14 9,0 C10.6389506,2.56766397e-14 12.0574214,0.0365299305 13.2554125,0.109589791 L13.255413,0.109581706 C15.7736916,0.263159713 17.7830257,2.26881287 17.9412209,4.78680566 C17.980407,5.41053032 18,6.08322597 18,6.80489262 C18,7.480719 17.982817,8.11359808 17.948451,8.70352984 L17.9484528,8.70352994 C17.8002665,11.2473188 15.7628302,13.2727591 13.2182107,13.4059215 C12.0197038,13.4686405 10.6136336,13.5 9,13.5 C7.38406543,13.5 5.97628657,13.468551 4.77666342,13.405653 L4.77666305,13.40566 C2.22093655,13.2716595 0.17897401,11.2294511 0.0452811777,8.67370853 C0.0150937259,8.0966293 5.46027585e-17,7.47369066 0,6.80489262 C0,6.09048108 0.0172227856,5.42839769 0.0516683569,4.81864244 L0.0516589788,4.81864191 C0.194620093,2.28794532 2.20865357,0.264593184 4.73866327,0.109951489 Z"/>
        <polygon fill="#FFE8E0" points="9.25 4 12 9 6.5 9" transform="rotate(90 9.25 6.5)"/>
      </g>
      <g transform="translate(96)">
        <rect width="27" height="27" fill="#FFE8E0" rx="6"/>
        <polygon fill="#FFF" fill-rule="nonzero" points="4.5 6 10 6 14 15 17.5 6 22.5 6 22.5 6.5 21 8 21 18.5 22.5 20 22.5 20.5 15.5 20.5 15.5 20 17 18.5 17 10 13 20.5 12 20.5 7.5 10.5 7.5 17.5 9.5 20 9.5 20.5 4 20.5 4 20 6.5 17.5 6.5 9"/>
      </g>
      <g transform="translate(48)">
        <rect width="27" height="27" fill="#FFE8E0" rx="6"/>
        <circle cx="13.5" cy="13.5" r="5.75" stroke="#FFF" stroke-width="2"/>
        <circle cx="21.696" cy="5.304" r="1.446" fill="#FFF"/>
      </g>
      <g transform="translate(144)">
        <rect width="27" height="27" fill="#FFE8E0" rx="6"/>
        <path fill="#FFF" d="M8.44677211,13.7853125 C7.54329388,12.7160163 7.1689676,11.5825167 7.32379327,10.3848138 C7.6416592,7.92586127 9.15828867,6.41945942 10.7328413,5.66501115 C12.0589798,5.02959078 14.2369454,4.70528211 15.9795809,5.49422684 C17.7222164,6.28317156 18.1971079,7.2394172 18.5930739,8.69366682 C18.9890398,10.1479164 18.7865941,12.2418505 18.5930739,12.9477909 C18.3995536,13.6537313 16.5552643,16.5779732 15.0315574,16.5779732 C13.5078505,16.5779732 12.4994818,15.6906747 12.7685558,14.3147737 C13.0376297,12.9388727 13.8321479,10.9853752 13.8744306,9.94074544 C13.9167133,8.89611573 13.9167133,8.55516157 13.2505023,8.08726482 C12.5842913,7.61936807 11.7925918,7.61936807 10.9776065,8.08726482 C10.1626212,8.55516157 9.65396034,9.3790782 9.65396034,10.5724902 C9.65396034,11.3680981 9.86362931,12.0766603 10.2829672,12.6981767 C9.98105473,14.6957136 9.60616188,16.4136385 9.15828867,17.8519513 C8.87540557,18.7604102 8.55518189,19.4804527 8.19761764,20.012079 L8.44677211,24.970714 C9.78499962,23.7035262 10.6286111,22.5062028 10.9776065,21.3787439 C11.3266019,20.251285 11.6778088,18.8486641 12.0312269,17.1708813 C12.8440772,18.259007 13.653238,18.8030699 14.4587094,18.8030699 C18.5930739,18.8030699 21.1225228,16.2995131 21.8809452,12.5405348 C22.9500315,7.24180935 19.1472077,4.36693971 17.9363712,3.79031111 C16.7255347,3.21368251 15.7108569,2.9119435 14.4587094,2.9119435 C13.2065619,2.9119435 12.6265558,2.79456734 11.2730549,3.14196959 C9.91955395,3.48937184 6.29373073,4.54453632 5.10701687,8.69366682 C4.65929429,10.2590479 4.70632368,12.4000612 5.4748368,13.9317856 C5.98717888,14.9529351 6.80663515,15.5861752 7.93320562,15.8315058 L8.44677211,13.7853125 Z"/>
      </g>
    </g>
    <g transform="translate(768 48)">
      <rect width="27" height="27" fill="#FFE8E0" rx="6"/>
      <g fill-rule="nonzero" transform="translate(4.5 7)">
        <path fill="#FFF" d="M4.73866327,0.109951489 C5.93790143,0.0366504963 7.35834701,-2.58494568e-14 9,0 C10.6389506,2.56766397e-14 12.0574214,0.0365299305 13.2554125,0.109589791 L13.255413,0.109581706 C15.7736916,0.263159713 17.7830257,2.26881287 17.9412209,4.78680566 C17.980407,5.41053032 18,6.08322597 18,6.80489262 C18,7.480719 17.982817,8.11359808 17.948451,8.70352984 L17.9484528,8.70352994 C17.8002665,11.2473188 15.7628302,13.2727591 13.2182107,13.4059215 C12.0197038,13.4686405 10.6136336,13.5 9,13.5 C7.38406543,13.5 5.97628657,13.468551 4.77666342,13.405653 L4.77666305,13.40566 C2.22093655,13.2716595 0.17897401,11.2294511 0.0452811777,8.67370853 C0.0150937259,8.0966293 5.46027585e-17,7.47369066 0,6.80489262 C0,6.09048108 0.0172227856,5.42839769 0.0516683569,4.81864244 L0.0516589788,4.81864191 C0.194620093,2.28794532 2.20865357,0.264593184 4.73866327,0.109951489 Z"/>
        <polygon fill="#FFE8E0" points="9.25 4 12 9 6.5 9" transform="rotate(90 9.25 6.5)"/>
      </g>
    </g>
    <g transform="translate(960 48)">
      <rect width="27" height="27" fill="#FFE8E0" rx="6"/>
      <g fill-rule="nonzero" transform="translate(4.5 7)">
        <path fill="#FFF" d="M4.73866327,0.109951489 C5.93790143,0.0366504963 7.35834701,-2.58494568e-14 9,0 C10.6389506,2.56766397e-14 12.0574214,0.0365299305 13.2554125,0.109589791 L13.255413,0.109581706 C15.7736916,0.263159713 17.7830257,2.26881287 17.9412209,4.78680566 C17.980407,5.41053032 18,6.08322597 18,6.80489262 C18,7.480719 17.982817,8.11359808 17.948451,8.70352984 L17.9484528,8.70352994 C17.8002665,11.2473188 15.7628302,13.2727591 13.2182107,13.4059215 C12.0197038,13.4686405 10.6136336,13.5 9,13.5 C7.38406543,13.5 5.97628657,13.468551 4.77666342,13.405653 L4.77666305,13.40566 C2.22093655,13.2716595 0.17897401,11.2294511 0.0452811777,8.67370853 C0.0150937259,8.0966293 5.46027585e-17,7.47369066 0,6.80489262 C0,6.09048108 0.0172227856,5.42839769 0.0516683569,4.81864244 L0.0516589788,4.81864191 C0.194620093,2.28794532 2.20865357,0.264593184 4.73866327,0.109951489 Z"/>
        <polygon fill="#FFE8E0" points="9.25 4 12 9 6.5 9" transform="rotate(90 9.25 6.5)"/>
      </g>
    </g>
    <g transform="translate(864 48)">
      <rect width="27" height="27" fill="#FFE8E0" rx="6"/>
      <polygon fill="#FFF" fill-rule="nonzero" points="4.5 6 10 6 14 15 17.5 6 22.5 6 22.5 6.5 21 8 21 18.5 22.5 20 22.5 20.5 15.5 20.5 15.5 20 17 18.5 17 10 13 20.5 12 20.5 7.5 10.5 7.5 17.5 9.5 20 9.5 20.5 4 20.5 4 20 6.5 17.5 6.5 9"/>
    </g>
    <g transform="translate(816 48)">
      <rect width="27" height="27" fill="#FFE8E0" rx="6"/>
      <circle cx="13.5" cy="13.5" r="5.75" stroke="#FFF" stroke-width="2"/>
      <circle cx="21.696" cy="5.304" r="1.446" fill="#FFF"/>
    </g>
    <g transform="translate(1008 48)">
      <rect width="27" height="27" fill="#FFE8E0" rx="6"/>
      <circle cx="13.5" cy="13.5" r="5.75" stroke="#FFF" stroke-width="2"/>
      <circle cx="21.696" cy="5.304" r="1.446" fill="#FFF"/>
    </g>
    <g transform="translate(912 48)">
      <rect width="27" height="27" fill="#FFE8E0" rx="6"/>
      <path fill="#FFF" d="M8.44677211,13.7853125 C7.54329388,12.7160163 7.1689676,11.5825167 7.32379327,10.3848138 C7.6416592,7.92586127 9.15828867,6.41945942 10.7328413,5.66501115 C12.0589798,5.02959078 14.2369454,4.70528211 15.9795809,5.49422684 C17.7222164,6.28317156 18.1971079,7.2394172 18.5930739,8.69366682 C18.9890398,10.1479164 18.7865941,12.2418505 18.5930739,12.9477909 C18.3995536,13.6537313 16.5552643,16.5779732 15.0315574,16.5779732 C13.5078505,16.5779732 12.4994818,15.6906747 12.7685558,14.3147737 C13.0376297,12.9388727 13.8321479,10.9853752 13.8744306,9.94074544 C13.9167133,8.89611573 13.9167133,8.55516157 13.2505023,8.08726482 C12.5842913,7.61936807 11.7925918,7.61936807 10.9776065,8.08726482 C10.1626212,8.55516157 9.65396034,9.3790782 9.65396034,10.5724902 C9.65396034,11.3680981 9.86362931,12.0766603 10.2829672,12.6981767 C9.98105473,14.6957136 9.60616188,16.4136385 9.15828867,17.8519513 C8.87540557,18.7604102 8.55518189,19.4804527 8.19761764,20.012079 L8.44677211,24.970714 C9.78499962,23.7035262 10.6286111,22.5062028 10.9776065,21.3787439 C11.3266019,20.251285 11.6778088,18.8486641 12.0312269,17.1708813 C12.8440772,18.259007 13.653238,18.8030699 14.4587094,18.8030699 C18.5930739,18.8030699 21.1225228,16.2995131 21.8809452,12.5405348 C22.9500315,7.24180935 19.1472077,4.36693971 17.9363712,3.79031111 C16.7255347,3.21368251 15.7108569,2.9119435 14.4587094,2.9119435 C13.2065619,2.9119435 12.6265558,2.79456734 11.2730549,3.14196959 C9.91955395,3.48937184 6.29373073,4.54453632 5.10701687,8.69366682 C4.65929429,10.2590479 4.70632368,12.4000612 5.4748368,13.9317856 C5.98717888,14.9529351 6.80663515,15.5861752 7.93320562,15.8315058 L8.44677211,13.7853125 Z"/>
    </g>
    <rect width="27" height="27" x="384" fill="#FFE8E0" rx="6"/>
    <path fill="#FFF" d="M392.446772,13.7853125 C391.543294,12.7160163 391.168968,11.5825167 391.323793,10.3848138 C391.641659,7.92586127 393.158289,6.41945942 394.732841,5.66501115 C396.05898,5.02959078 398.236945,4.70528211 399.979581,5.49422684 C401.722216,6.28317156 402.197108,7.2394172 402.593074,8.69366682 C402.98904,10.1479164 402.786594,12.2418505 402.593074,12.9477909 C402.399554,13.6537313 400.555264,16.5779732 399.031557,16.5779732 C397.50785,16.5779732 396.499482,15.6906747 396.768556,14.3147737 C397.03763,12.9388727 397.832148,10.9853752 397.874431,9.94074544 C397.916713,8.89611573 397.916713,8.55516157 397.250502,8.08726482 C396.584291,7.61936807 395.792592,7.61936807 394.977607,8.08726482 C394.162621,8.55516157 393.65396,9.3790782 393.65396,10.5724902 C393.65396,11.3680981 393.863629,12.0766603 394.282967,12.6981767 C393.981055,14.6957136 393.606162,16.4136385 393.158289,17.8519513 C392.875406,18.7604102 392.555182,19.4804527 392.197618,20.012079 L392.446772,24.970714 C393.785,23.7035262 394.628611,22.5062028 394.977607,21.3787439 C395.326602,20.251285 395.677809,18.8486641 396.031227,17.1708813 C396.844077,18.259007 397.653238,18.8030699 398.458709,18.8030699 C402.593074,18.8030699 405.122523,16.2995131 405.880945,12.5405348 C406.950032,7.24180935 403.147208,4.36693971 401.936371,3.79031111 C400.725535,3.21368251 399.710857,2.9119435 398.458709,2.9119435 C397.206562,2.9119435 396.626556,2.79456734 395.273055,3.14196959 C393.919554,3.48937184 390.293731,4.54453632 389.107017,8.69366682 C388.659294,10.2590479 388.706324,12.4000612 389.474837,13.9317856 C389.987179,14.9529351 390.806635,15.5861752 391.933206,15.8315058 L392.446772,13.7853125 Z"/>
    <rect width="27" height="27" x="432" fill="#FFE8E0" rx="6"/>
    <g fill-rule="nonzero" transform="translate(436.5 7)">
      <path fill="#FFF" d="M4.73866327,0.109951489 C5.93790143,0.0366504963 7.35834701,-2.58494568e-14 9,0 C10.6389506,2.56766397e-14 12.0574214,0.0365299305 13.2554125,0.109589791 L13.255413,0.109581706 C15.7736916,0.263159713 17.7830257,2.26881287 17.9412209,4.78680566 C17.980407,5.41053032 18,6.08322597 18,6.80489262 C18,7.480719 17.982817,8.11359808 17.948451,8.70352984 L17.9484528,8.70352994 C17.8002665,11.2473188 15.7628302,13.2727591 13.2182107,13.4059215 C12.0197038,13.4686405 10.6136336,13.5 9,13.5 C7.38406543,13.5 5.97628657,13.468551 4.77666342,13.405653 L4.77666305,13.40566 C2.22093655,13.2716595 0.17897401,11.2294511 0.0452811777,8.67370853 C0.0150937259,8.0966293 5.46027585e-17,7.47369066 0,6.80489262 C0,6.09048108 0.0172227856,5.42839769 0.0516683569,4.81864244 L0.0516589788,4.81864191 C0.194620093,2.28794532 2.20865357,0.264593184 4.73866327,0.109951489 Z"/>
      <polygon fill="#FFE8E0" points="9.25 4 12 9 6.5 9" transform="rotate(90 9.25 6.5)"/>
    </g>
    <rect width="27" height="27" x="528" fill="#FFE8E0" rx="6"/>
    <polygon fill="#FFF" fill-rule="nonzero" points="532.5 6 538 6 542 15 545.5 6 550.5 6 550.5 6.5 549 8 549 18.5 550.5 20 550.5 20.5 543.5 20.5 543.5 20 545 18.5 545 10 541 20.5 540 20.5 535.5 10.5 535.5 17.5 537.5 20 537.5 20.5 532 20.5 532 20 534.5 17.5 534.5 9"/>
    <rect width="27" height="27" x="480" fill="#FFE8E0" rx="6"/>
    <circle cx="493.5" cy="13.5" r="5.75" stroke="#FFF" stroke-width="2"/>
    <circle cx="501.696" cy="5.304" r="1.446" fill="#FFF"/>
    <g transform="translate(192)">
      <rect width="27" height="27" fill="#FFE8E0" rx="6"/>
      <path fill="#FFF" d="M8.44677211,13.7853125 C7.54329388,12.7160163 7.1689676,11.5825167 7.32379327,10.3848138 C7.6416592,7.92586127 9.15828867,6.41945942 10.7328413,5.66501115 C12.0589798,5.02959078 14.2369454,4.70528211 15.9795809,5.49422684 C17.7222164,6.28317156 18.1971079,7.2394172 18.5930739,8.69366682 C18.9890398,10.1479164 18.7865941,12.2418505 18.5930739,12.9477909 C18.3995536,13.6537313 16.5552643,16.5779732 15.0315574,16.5779732 C13.5078505,16.5779732 12.4994818,15.6906747 12.7685558,14.3147737 C13.0376297,12.9388727 13.8321479,10.9853752 13.8744306,9.94074544 C13.9167133,8.89611573 13.9167133,8.55516157 13.2505023,8.08726482 C12.5842913,7.61936807 11.7925918,7.61936807 10.9776065,8.08726482 C10.1626212,8.55516157 9.65396034,9.3790782 9.65396034,10.5724902 C9.65396034,11.3680981 9.86362931,12.0766603 10.2829672,12.6981767 C9.98105473,14.6957136 9.60616188,16.4136385 9.15828867,17.8519513 C8.87540557,18.7604102 8.55518189,19.4804527 8.19761764,20.012079 L8.44677211,24.970714 C9.78499962,23.7035262 10.6286111,22.5062028 10.9776065,21.3787439 C11.3266019,20.251285 11.6778088,18.8486641 12.0312269,17.1708813 C12.8440772,18.259007 13.653238,18.8030699 14.4587094,18.8030699 C18.5930739,18.8030699 21.1225228,16.2995131 21.8809452,12.5405348 C22.9500315,7.24180935 19.1472077,4.36693971 17.9363712,3.79031111 C16.7255347,3.21368251 15.7108569,2.9119435 14.4587094,2.9119435 C13.2065619,2.9119435 12.6265558,2.79456734 11.2730549,3.14196959 C9.91955395,3.48937184 6.29373073,4.54453632 5.10701687,8.69366682 C4.65929429,10.2590479 4.70632368,12.4000612 5.4748368,13.9317856 C5.98717888,14.9529351 6.80663515,15.5861752 7.93320562,15.8315058 L8.44677211,13.7853125 Z"/>
      <rect width="27" height="27" x="48" fill="#FFE8E0" rx="6"/>
      <g fill-rule="nonzero" transform="translate(52.5 7)">
        <path fill="#FFF" d="M4.73866327,0.109951489 C5.93790143,0.0366504963 7.35834701,-2.58494568e-14 9,0 C10.6389506,2.56766397e-14 12.0574214,0.0365299305 13.2554125,0.109589791 L13.255413,0.109581706 C15.7736916,0.263159713 17.7830257,2.26881287 17.9412209,4.78680566 C17.980407,5.41053032 18,6.08322597 18,6.80489262 C18,7.480719 17.982817,8.11359808 17.948451,8.70352984 L17.9484528,8.70352994 C17.8002665,11.2473188 15.7628302,13.2727591 13.2182107,13.4059215 C12.0197038,13.4686405 10.6136336,13.5 9,13.5 C7.38406543,13.5 5.97628657,13.468551 4.77666342,13.405653 L4.77666305,13.40566 C2.22093655,13.2716595 0.17897401,11.2294511 0.0452811777,8.67370853 C0.0150937259,8.0966293 5.46027585e-17,7.47369066 0,6.80489262 C0,6.09048108 0.0172227856,5.42839769 0.0516683569,4.81864244 L0.0516589788,4.81864191 C0.194620093,2.28794532 2.20865357,0.264593184 4.73866327,0.109951489 Z"/>
        <polygon fill="#FFE8E0" points="9.25 4 12 9 6.5 9" transform="rotate(90 9.25 6.5)"/>
      </g>
      <rect width="27" height="27" x="144" fill="#FFE8E0" rx="6"/>
      <polygon fill="#FFF" fill-rule="nonzero" points="148.5 6 154 6 158 15 161.5 6 166.5 6 166.5 6.5 165 8 165 18.5 166.5 20 166.5 20.5 159.5 20.5 159.5 20 161 18.5 161 10 157 20.5 156 20.5 151.5 10.5 151.5 17.5 153.5 20 153.5 20.5 148 20.5 148 20 150.5 17.5 150.5 9"/>
      <rect width="27" height="27" x="96" fill="#FFE8E0" rx="6"/>
      <circle cx="109.5" cy="13.5" r="5.75" stroke="#FFF" stroke-width="2"/>
      <circle cx="117.696" cy="5.304" r="1.446" fill="#FFF"/>
    </g>
    <rect width="27" height="27" x="576" fill="#FFE8E0" rx="6"/>
    <path fill="#FFF" d="M584.446772,13.7853125 C583.543294,12.7160163 583.168968,11.5825167 583.323793,10.3848138 C583.641659,7.92586127 585.158289,6.41945942 586.732841,5.66501115 C588.05898,5.02959078 590.236945,4.70528211 591.979581,5.49422684 C593.722216,6.28317156 594.197108,7.2394172 594.593074,8.69366682 C594.98904,10.1479164 594.786594,12.2418505 594.593074,12.9477909 C594.399554,13.6537313 592.555264,16.5779732 591.031557,16.5779732 C589.50785,16.5779732 588.499482,15.6906747 588.768556,14.3147737 C589.03763,12.9388727 589.832148,10.9853752 589.874431,9.94074544 C589.916713,8.89611573 589.916713,8.55516157 589.250502,8.08726482 C588.584291,7.61936807 587.792592,7.61936807 586.977607,8.08726482 C586.162621,8.55516157 585.65396,9.3790782 585.65396,10.5724902 C585.65396,11.3680981 585.863629,12.0766603 586.282967,12.6981767 C585.981055,14.6957136 585.606162,16.4136385 585.158289,17.8519513 C584.875406,18.7604102 584.555182,19.4804527 584.197618,20.012079 L584.446772,24.970714 C585.785,23.7035262 586.628611,22.5062028 586.977607,21.3787439 C587.326602,20.251285 587.677809,18.8486641 588.031227,17.1708813 C588.844077,18.259007 589.653238,18.8030699 590.458709,18.8030699 C594.593074,18.8030699 597.122523,16.2995131 597.880945,12.5405348 C598.950032,7.24180935 595.147208,4.36693971 593.936371,3.79031111 C592.725535,3.21368251 591.710857,2.9119435 590.458709,2.9119435 C589.206562,2.9119435 588.626556,2.79456734 587.273055,3.14196959 C585.919554,3.48937184 582.293731,4.54453632 581.107017,8.69366682 C580.659294,10.2590479 580.706324,12.4000612 581.474837,13.9317856 C581.987179,14.9529351 582.806635,15.5861752 583.933206,15.8315058 L584.446772,13.7853125 Z"/>
    <rect width="27" height="27" x="624" fill="#FFE8E0" rx="6"/>
    <g fill-rule="nonzero" transform="translate(628.5 7)">
      <path fill="#FFF" d="M4.73866327,0.109951489 C5.93790143,0.0366504963 7.35834701,-2.58494568e-14 9,0 C10.6389506,2.56766397e-14 12.0574214,0.0365299305 13.2554125,0.109589791 L13.255413,0.109581706 C15.7736916,0.263159713 17.7830257,2.26881287 17.9412209,4.78680566 C17.980407,5.41053032 18,6.08322597 18,6.80489262 C18,7.480719 17.982817,8.11359808 17.948451,8.70352984 L17.9484528,8.70352994 C17.8002665,11.2473188 15.7628302,13.2727591 13.2182107,13.4059215 C12.0197038,13.4686405 10.6136336,13.5 9,13.5 C7.38406543,13.5 5.97628657,13.468551 4.77666342,13.405653 L4.77666305,13.40566 C2.22093655,13.2716595 0.17897401,11.2294511 0.0452811777,8.67370853 C0.0150937259,8.0966293 5.46027585e-17,7.47369066 0,6.80489262 C0,6.09048108 0.0172227856,5.42839769 0.0516683569,4.81864244 L0.0516589788,4.81864191 C0.194620093,2.28794532 2.20865357,0.264593184 4.73866327,0.109951489 Z"/>
      <polygon fill="#FFE8E0" points="9.25 4 12 9 6.5 9" transform="rotate(90 9.25 6.5)"/>
    </g>
    <rect width="27" height="27" x="720" fill="#FFE8E0" rx="6"/>
    <polygon fill="#FFF" fill-rule="nonzero" points="724.5 6 730 6 734 15 737.5 6 742.5 6 742.5 6.5 741 8 741 18.5 742.5 20 742.5 20.5 735.5 20.5 735.5 20 737 18.5 737 10 733 20.5 732 20.5 727.5 10.5 727.5 17.5 729.5 20 729.5 20.5 724 20.5 724 20 726.5 17.5 726.5 9"/>
    <rect width="27" height="27" x="672" fill="#FFE8E0" rx="6"/>
    <circle cx="685.5" cy="13.5" r="5.75" stroke="#FFF" stroke-width="2"/>
    <circle cx="693.696" cy="5.304" r="1.446" fill="#FFF"/>
    <g transform="translate(768)">
      <rect width="27" height="27" fill="#FFE8E0" rx="6"/>
      <path fill="#FFF" d="M8.44677211,13.7853125 C7.54329388,12.7160163 7.1689676,11.5825167 7.32379327,10.3848138 C7.6416592,7.92586127 9.15828867,6.41945942 10.7328413,5.66501115 C12.0589798,5.02959078 14.2369454,4.70528211 15.9795809,5.49422684 C17.7222164,6.28317156 18.1971079,7.2394172 18.5930739,8.69366682 C18.9890398,10.1479164 18.7865941,12.2418505 18.5930739,12.9477909 C18.3995536,13.6537313 16.5552643,16.5779732 15.0315574,16.5779732 C13.5078505,16.5779732 12.4994818,15.6906747 12.7685558,14.3147737 C13.0376297,12.9388727 13.8321479,10.9853752 13.8744306,9.94074544 C13.9167133,8.89611573 13.9167133,8.55516157 13.2505023,8.08726482 C12.5842913,7.61936807 11.7925918,7.61936807 10.9776065,8.08726482 C10.1626212,8.55516157 9.65396034,9.3790782 9.65396034,10.5724902 C9.65396034,11.3680981 9.86362931,12.0766603 10.2829672,12.6981767 C9.98105473,14.6957136 9.60616188,16.4136385 9.15828867,17.8519513 C8.87540557,18.7604102 8.55518189,19.4804527 8.19761764,20.012079 L8.44677211,24.970714 C9.78499962,23.7035262 10.6286111,22.5062028 10.9776065,21.3787439 C11.3266019,20.251285 11.6778088,18.8486641 12.0312269,17.1708813 C12.8440772,18.259007 13.653238,18.8030699 14.4587094,18.8030699 C18.5930739,18.8030699 21.1225228,16.2995131 21.8809452,12.5405348 C22.9500315,7.24180935 19.1472077,4.36693971 17.9363712,3.79031111 C16.7255347,3.21368251 15.7108569,2.9119435 14.4587094,2.9119435 C13.2065619,2.9119435 12.6265558,2.79456734 11.2730549,3.14196959 C9.91955395,3.48937184 6.29373073,4.54453632 5.10701687,8.69366682 C4.65929429,10.2590479 4.70632368,12.4000612 5.4748368,13.9317856 C5.98717888,14.9529351 6.80663515,15.5861752 7.93320562,15.8315058 L8.44677211,13.7853125 Z"/>
    </g>
    <g transform="translate(960)">
      <rect width="27" height="27" fill="#FFE8E0" rx="6"/>
      <path fill="#FFF" d="M8.44677211,13.7853125 C7.54329388,12.7160163 7.1689676,11.5825167 7.32379327,10.3848138 C7.6416592,7.92586127 9.15828867,6.41945942 10.7328413,5.66501115 C12.0589798,5.02959078 14.2369454,4.70528211 15.9795809,5.49422684 C17.7222164,6.28317156 18.1971079,7.2394172 18.5930739,8.69366682 C18.9890398,10.1479164 18.7865941,12.2418505 18.5930739,12.9477909 C18.3995536,13.6537313 16.5552643,16.5779732 15.0315574,16.5779732 C13.5078505,16.5779732 12.4994818,15.6906747 12.7685558,14.3147737 C13.0376297,12.9388727 13.8321479,10.9853752 13.8744306,9.94074544 C13.9167133,8.89611573 13.9167133,8.55516157 13.2505023,8.08726482 C12.5842913,7.61936807 11.7925918,7.61936807 10.9776065,8.08726482 C10.1626212,8.55516157 9.65396034,9.3790782 9.65396034,10.5724902 C9.65396034,11.3680981 9.86362931,12.0766603 10.2829672,12.6981767 C9.98105473,14.6957136 9.60616188,16.4136385 9.15828867,17.8519513 C8.87540557,18.7604102 8.55518189,19.4804527 8.19761764,20.012079 L8.44677211,24.970714 C9.78499962,23.7035262 10.6286111,22.5062028 10.9776065,21.3787439 C11.3266019,20.251285 11.6778088,18.8486641 12.0312269,17.1708813 C12.8440772,18.259007 13.653238,18.8030699 14.4587094,18.8030699 C18.5930739,18.8030699 21.1225228,16.2995131 21.8809452,12.5405348 C22.9500315,7.24180935 19.1472077,4.36693971 17.9363712,3.79031111 C16.7255347,3.21368251 15.7108569,2.9119435 14.4587094,2.9119435 C13.2065619,2.9119435 12.6265558,2.79456734 11.2730549,3.14196959 C9.91955395,3.48937184 6.29373073,4.54453632 5.10701687,8.69366682 C4.65929429,10.2590479 4.70632368,12.4000612 5.4748368,13.9317856 C5.98717888,14.9529351 6.80663515,15.5861752 7.93320562,15.8315058 L8.44677211,13.7853125 Z"/>
    </g>
    <g transform="translate(816)">
      <rect width="27" height="27" fill="#FFE8E0" rx="6"/>
      <path fill="#FFF" fill-rule="nonzero" d="M9.23866327,7.10995149 C10.4379014,7.0366505 11.858347,7 13.5,7 C15.1389506,7 16.5574214,7.03652993 17.7554125,7.10958979 L17.755413,7.10958171 C20.2736916,7.26315971 22.2830257,9.26881287 22.4412209,11.7868057 C22.480407,12.4105303 22.5,13.083226 22.5,13.8048926 C22.5,14.480719 22.482817,15.1135981 22.448451,15.7035298 L22.4484528,15.7035299 C22.3002665,18.2473188 20.2628302,20.2727591 17.7182107,20.4059215 C16.5197038,20.4686405 15.1136336,20.5 13.5,20.5 C11.8840654,20.5 10.4762866,20.468551 9.27666342,20.405653 L9.27666305,20.40566 C6.72093655,20.2716595 4.67897401,18.2294511 4.54528118,15.6737085 C4.51509373,15.0966293 4.5,14.4736907 4.5,13.8048926 C4.5,13.0904811 4.51722279,12.4283977 4.55166836,11.8186424 L4.55165898,11.8186419 C4.69462009,9.28794532 6.70865357,7.26459318 9.23866327,7.10995149 Z"/>
      <polygon fill="#FFE8E0" fill-rule="nonzero" points="13.75 11 16.5 16 11 16" transform="rotate(90 13.75 13.5)"/>
    </g>
    <g transform="translate(1008)">
      <rect width="27" height="27" fill="#FFE8E0" rx="6"/>
      <path fill="#FFF" fill-rule="nonzero" d="M9.23866327,7.10995149 C10.4379014,7.0366505 11.858347,7 13.5,7 C15.1389506,7 16.5574214,7.03652993 17.7554125,7.10958979 L17.755413,7.10958171 C20.2736916,7.26315971 22.2830257,9.26881287 22.4412209,11.7868057 C22.480407,12.4105303 22.5,13.083226 22.5,13.8048926 C22.5,14.480719 22.482817,15.1135981 22.448451,15.7035298 L22.4484528,15.7035299 C22.3002665,18.2473188 20.2628302,20.2727591 17.7182107,20.4059215 C16.5197038,20.4686405 15.1136336,20.5 13.5,20.5 C11.8840654,20.5 10.4762866,20.468551 9.27666342,20.405653 L9.27666305,20.40566 C6.72093655,20.2716595 4.67897401,18.2294511 4.54528118,15.6737085 C4.51509373,15.0966293 4.5,14.4736907 4.5,13.8048926 C4.5,13.0904811 4.51722279,12.4283977 4.55166836,11.8186424 L4.55165898,11.8186419 C4.69462009,9.28794532 6.70865357,7.26459318 9.23866327,7.10995149 Z"/>
      <polygon fill="#FFE8E0" fill-rule="nonzero" points="13.75 11 16.5 16 11 16" transform="rotate(90 13.75 13.5)"/>
    </g>
    <g transform="translate(912)">
      <rect width="27" height="27" fill="#FFE8E0" rx="6"/>
      <polygon fill="#FFF" fill-rule="nonzero" points="4.5 6 10 6 14 15 17.5 6 22.5 6 22.5 6.5 21 8 21 18.5 22.5 20 22.5 20.5 15.5 20.5 15.5 20 17 18.5 17 10 13 20.5 12 20.5 7.5 10.5 7.5 17.5 9.5 20 9.5 20.5 4 20.5 4 20 6.5 17.5 6.5 9"/>
    </g>
    <g transform="translate(864)">
      <rect width="27" height="27" fill="#FFE8E0" rx="6"/>
      <circle cx="13.5" cy="13.5" r="5.75" stroke="#FFF" stroke-width="2"/>
      <circle cx="21.696" cy="5.304" r="1.446" fill="#FFF"/>
    </g>
  </g>
</svg>
