<?xml version="1.0" encoding="UTF-8"?>
<svg width="212px" height="50px" viewBox="0 0 212 50" version="1.1" xmlns="http://www.w3.org/2000/svg" xmlns:xlink="http://www.w3.org/1999/xlink">
    <!-- Generator: Sketch 53.2 (72643) - https://sketchapp.com -->
    <title>Group 7</title>
    <desc>Created with Sketch.</desc>
    <defs>
        <linearGradient x1="54.7453314%" y1="82.8863633%" x2="50%" y2="18.0985475%" id="linearGradient-1">
            <stop stop-color="#00C0FF" offset="0%"></stop>
            <stop stop-color="#FF005D" offset="100%"></stop>
        </linearGradient>
        <linearGradient x1="50%" y1="88.8543711%" x2="75.7422074%" y2="19.0383501%" id="linearGradient-2">
            <stop stop-color="#FF0082" offset="0%"></stop>
            <stop stop-color="#FFBE00" offset="100%"></stop>
        </linearGradient>
    </defs>
    <g id="Page-1" stroke="none" stroke-width="1" fill="none" fill-rule="evenodd">
        <g id="Desktop_Klutch-Case-Study-" transform="translate(-615.000000, -168.000000)">
            <g id="Group-7" transform="translate(615.000000, 168.000000)">
                <g id="Group-77">
                    <path d="M19.5,0 C29.8777508,-5.41282514e-13 39,16.3330473 39,30.8434256 C39,45.353804 26.5444185,50 19.5,50 C12.4555815,50 6.64406724e-16,44.7544324 0,30.8434256 C0,16.9324189 9.1222492,5.41900509e-13 19.5,0 Z" id="Path-17-Copy-15" fill="#1F2429" opacity="0.0962611607" transform="translate(19.500000, 25.000000) rotate(-360.000000) translate(-19.500000, -25.000000) "></path>
                    <path d="M37.9381561,37.6218868 C34.7796955,46.8465279 25.303512,50 19.5,50 C12.4555815,50 1.0036821e-14,44.7544324 1.27796282e-14,30.8434256 C1.34431907e-14,28.1342261 0.345992594,25.3104291 0.9798689,22.5194266 C4.89496187,19.3078826 9.83860382,17.3913043 15.2128455,17.3913043 C26.7107417,17.3913043 36.2376854,26.1639166 37.9381561,37.6218868 Z" id="Combined-Shape" fill="url(#linearGradient-1)" opacity="0.7"></path>
                    <path d="M1.72417636e-13,27.6340942 C1.23720293,14.4608643 9.75545309,4.99666185e-13 19.3459445,1.22340884e-15 C25.3232128,-3.09074821e-13 30.8839799,5.4183399 34.5251254,12.7859588 C31.4642468,23.0055027 22.1885063,30.4347826 11.2209445,30.4347826 C7.17464238,30.4347826 3.35861742,29.4235684 1.63868918e-13,27.6340942 Z" id="Combined-Shape" fill="url(#linearGradient-2)" opacity="0.7"></path>
                </g>
                <path d="M88.994429,41.072 C89.2033437,41.3493347 89.3774366,41.6873313 89.5167131,42.086 C89.6559896,42.4846687 89.7256267,42.8573316 89.7256267,43.204 C89.7256267,44.1400047 89.3687362,44.9199969 88.6549443,45.544 C87.9411524,46.1680031 87.1142108,46.48 86.1740947,46.48 C85.7214462,46.48 85.2862138,46.376001 84.8683844,46.168 C84.450555,45.959999 84.1023691,45.6653352 83.8238162,45.284 L72.4902507,30.412 L67.5285515,35.144 L67.5285515,43.308 C67.5285515,44.2440047 67.2238888,45.0066637 66.6145543,45.596 C66.0052198,46.1853363 65.2130968,46.48 64.2381616,46.48 C63.2980454,46.48 62.5233317,46.1766697 61.9139972,45.57 C61.3046627,44.9633303 61,44.2093378 61,43.308 L61,13.252 C61,12.3506622 61.3133673,11.5966697 61.9401114,10.99 C62.5668555,10.3833303 63.3676831,10.08 64.3426184,10.08 C65.2827345,10.08 66.0487436,10.3746637 66.6406685,10.964 C67.2325935,11.5533363 67.5285515,12.3159953 67.5285515,13.252 L67.5285515,27.396 L84.2416435,11.016 C85.0424831,10.2186627 85.8955386,9.82 86.8008357,9.82 C87.6016753,9.82 88.2806379,10.14933 88.8377437,10.808 C89.3948496,11.46667 89.6733983,12.1599964 89.6733983,12.888 C89.6733983,13.6160036 89.360031,14.2919969 88.7332869,14.916 L77.347493,25.732 L88.994429,41.072 Z M101.477019,43.308 C101.477019,44.2093378 101.172357,44.9633303 100.563022,45.57 C99.9536878,46.1766697 99.1963834,46.48 98.2910864,46.48 C97.4206085,46.48 96.689418,46.1766697 96.097493,45.57 C95.5055681,44.9633303 95.20961,44.2093378 95.20961,43.308 L95.20961,11.172 C95.20961,10.2706622 95.5142727,9.5166697 96.1236072,8.91 C96.7329418,8.3033303 97.4902462,8 98.3955432,8 C99.2660211,8 99.9972115,8.3033303 100.589136,8.91 C101.181061,9.5166697 101.477019,10.2706622 101.477019,11.172 L101.477019,43.308 Z M129.262535,18.66 C130.167832,18.66 130.916432,18.9633303 131.508357,19.57 C132.100282,20.1766697 132.39624,20.9306622 132.39624,21.832 L132.39624,35.04 C132.39624,38.7840187 131.360386,41.7133228 129.288649,43.828 C127.216912,45.9426772 124.266036,47 120.435933,47 C116.60583,47 113.663659,45.9426772 111.609331,43.828 C109.555004,41.7133228 108.527855,38.7840187 108.527855,35.04 L108.527855,21.832 C108.527855,20.9306622 108.823813,20.1766697 109.415738,19.57 C110.007663,18.9633303 110.756263,18.66 111.66156,18.66 C112.566857,18.66 113.315457,18.9633303 113.907382,19.57 C114.499307,20.1766697 114.795265,20.9306622 114.795265,21.832 L114.795265,35.04 C114.795265,37.1546772 115.265316,38.7233282 116.205432,39.746 C117.145548,40.7686718 118.555701,41.28 120.435933,41.28 C122.350985,41.28 123.778547,40.7686718 124.718663,39.746 C125.658779,38.7233282 126.12883,37.1546772 126.12883,35.04 L126.12883,21.832 C126.12883,20.9306622 126.424788,20.1766697 127.016713,19.57 C127.608638,18.9633303 128.357238,18.66 129.262535,18.66 Z M152.660864,40.604 C153.148331,40.604 153.592268,40.8379977 153.992688,41.306 C154.393108,41.7740023 154.593315,42.3893295 154.593315,43.152 C154.593315,44.0880047 154.079741,44.8766635 153.052577,45.518 C152.025413,46.1593365 150.867694,46.48 149.579387,46.48 C147.420602,46.48 145.601331,46.0206713 144.121518,45.102 C142.641706,44.1833287 141.901811,42.2333482 141.901811,39.252 L141.901811,24.9 L139.499304,24.9 C138.663645,24.9 137.967273,24.6226694 137.410167,24.068 C136.853061,23.5133306 136.574513,22.8200042 136.574513,21.988 C136.574513,21.1906627 136.853061,20.523336 137.410167,19.986 C137.967273,19.448664 138.663645,19.18 139.499304,19.18 L141.901811,19.18 L141.901811,15.852 C141.901811,14.9506622 142.206473,14.1966697 142.815808,13.59 C143.425142,12.9833303 144.182447,12.68 145.087744,12.68 C145.958222,12.68 146.689412,12.9833303 147.281337,13.59 C147.873262,14.1966697 148.16922,14.9506622 148.16922,15.852 L148.16922,19.18 L151.877437,19.18 C152.713096,19.18 153.409468,19.4573306 153.966574,20.012 C154.52368,20.5666694 154.802228,21.2599958 154.802228,22.092 C154.802228,22.8893373 154.52368,23.556664 153.966574,24.094 C153.409468,24.631336 152.713096,24.9 151.877437,24.9 L148.16922,24.9 L148.16922,38.992 C148.16922,39.7200036 148.360722,40.248665 148.743733,40.578 C149.126743,40.907335 149.649022,41.072 150.310585,41.072 C150.589138,41.072 150.972142,41.0026674 151.45961,40.864 C151.877439,40.6906658 152.277853,40.604 152.660864,40.604 Z M172.455432,18.14 C175.415057,18.14 177.80013,18.5993287 179.610724,19.518 C181.421318,20.4366713 182.326602,21.658659 182.326602,23.184 C182.326602,23.9466705 182.100281,24.6139971 181.647632,25.186 C181.194984,25.7580029 180.603068,26.044 179.871866,26.044 C179.31476,26.044 178.862119,25.9660008 178.513928,25.81 C178.165736,25.6539992 177.826255,25.4460013 177.495474,25.186 C177.164692,24.9259987 176.84262,24.7093342 176.529248,24.536 C176.181057,24.3626658 175.667483,24.2066674 174.98851,24.068 C174.309537,23.9293326 173.761144,23.86 173.343315,23.86 C170.731881,23.86 168.686289,24.6659919 167.206476,26.278 C165.726664,27.8900081 164.986769,29.995987 164.986769,32.596 C164.986769,35.0920125 165.735369,37.1633251 167.232591,38.81 C168.729813,40.4566749 170.644835,41.28 172.977716,41.28 C174.683853,41.28 175.954731,41.0720021 176.79039,40.656 C176.999305,40.5519995 177.286558,40.3700013 177.652159,40.11 C178.017759,39.8499987 178.357241,39.6506674 178.670613,39.512 C178.983985,39.3733326 179.366989,39.304 179.819638,39.304 C180.690116,39.304 181.377783,39.5813306 181.88266,40.136 C182.387537,40.6906694 182.639972,41.401329 182.639972,42.268 C182.639972,43.1000042 182.152512,43.8799964 181.177577,44.608 C180.202641,45.3360036 178.914353,45.9166645 177.312674,46.35 C175.710995,46.7833355 174.004884,47 172.19429,47 C169.513218,47 167.154258,46.3760062 165.11734,45.128 C163.080422,43.8799938 161.50488,42.1553443 160.390669,39.954 C159.276457,37.7526557 158.719359,35.3000135 158.719359,32.596 C158.719359,29.787986 159.302571,27.2920109 160.469011,25.108 C161.635452,22.9239891 163.263221,21.2166728 165.352368,19.986 C167.441515,18.7553272 169.809179,18.14 172.455432,18.14 Z M201.860028,18.14 C205.30712,18.14 207.692194,19.1886562 209.01532,21.286 C210.338447,23.3833438 211,26.2866481 211,29.996 L211,43.308 C211,44.2093378 210.704042,44.9633303 210.112117,45.57 C209.520192,46.1766697 208.771592,46.48 207.866295,46.48 C206.960998,46.48 206.212399,46.1766697 205.620474,45.57 C205.028549,44.9633303 204.732591,44.2093378 204.732591,43.308 L204.732591,29.996 C204.732591,28.0893238 204.358291,26.5900055 203.60968,25.498 C202.861069,24.4059945 201.546667,23.86 199.666435,23.86 C197.716564,23.86 196.193251,24.4406609 195.096448,25.602 C193.999646,26.7633391 193.451253,28.2279912 193.451253,29.996 L193.451253,43.308 C193.451253,44.2093378 193.155295,44.9633303 192.56337,45.57 C191.971446,46.1766697 191.222846,46.48 190.317549,46.48 C189.412252,46.48 188.663652,46.1766697 188.071727,45.57 C187.479802,44.9633303 187.183844,44.2093378 187.183844,43.308 L187.183844,11.172 C187.183844,10.2706622 187.479802,9.5166697 188.071727,8.91 C188.663652,8.3033303 189.412252,8 190.317549,8 C191.222846,8 191.971446,8.3033303 192.56337,8.91 C193.155295,9.5166697 193.451253,10.2706622 193.451253,11.172 L193.451253,22.664 C194.39137,21.4159938 195.583906,20.3500044 197.0289,19.466 C198.473893,18.5819956 200.084253,18.14 201.860028,18.14 Z" id="Klutch" stroke="#3E4852" fill="#3E4852" fill-rule="nonzero"></path>
            </g>
        </g>
    </g>
</svg>