<svg xmlns="http://www.w3.org/2000/svg" width="408" height="134" viewBox="0 0 408 134">
  <defs>
    <linearGradient id="klutch-logos-a" x1="54.745%" x2="50%" y1="94.514%" y2="6.819%">
      <stop offset="0%" stop-color="#00C0FF"/>
      <stop offset="100%" stop-color="#FF005D"/>
    </linearGradient>
    <linearGradient id="klutch-logos-b" x1="50%" x2="75.742%" y1="100%" y2="10.157%">
      <stop offset="0%" stop-color="#FF0082"/>
      <stop offset="100%" stop-color="#FFBE00"/>
    </linearGradient>
    <linearGradient id="klutch-logos-c" x1="79.071%" x2="27.425%" y1="23.795%" y2="77.066%">
      <stop offset="0%" stop-color="#424A53"/>
      <stop offset="100%"/>
    </linearGradient>
    <linearGradient id="klutch-logos-d" x1="84.457%" x2="50%" y1="15.344%" y2="100%">
      <stop offset="0%" stop-color="#424A53"/>
      <stop offset="100%" stop-color="#06090C"/>
    </linearGradient>
  </defs>
  <g fill="none" fill-rule="evenodd">
    <g transform="translate(308)">
      <path fill="#1F2429" d="M49.9208269,1.68187633 C76.488309,1.68187633 99.8416538,44.2606329 99.8416538,82.0878589 C99.8416538,119.915085 67.9548369,132.027292 49.9208269,132.027292 C31.8868169,132.027292 1.70090939e-15,118.352578 0,82.0878589 C0,45.8231399 23.3533448,1.68187633 49.9208269,1.68187633 Z" opacity=".096"/>
      <path fill="url(#klutch-logos-a)" d="M96.3479462,102.390072 C88.0602683,125.710621 64.2780969,133.709168 49.6541267,133.709168 C31.7164628,133.709168 1.69182234e-15,120.122678 0,84.0919251 C0,77.2236978 0.844044434,70.0711112 2.39338428,62.9921423 C12.1729881,56.1534182 24.0946912,52.1381662 36.9597144,52.1381662 C66.9113662,52.1381662 91.7499745,73.9018907 96.3479462,102.390072 Z" opacity=".7"/>
      <path fill="url(#klutch-logos-b)" d="M1.57683337,66.6379844 C6.08528468,34.0133267 26.739516,1.23247556e-12 49.8647392,0 C65.5622956,-8.3565858e-13 80.1212721,15.1178338 89.2644743,35.2783125 C80.6423622,58.3842548 58.3300385,74.8434966 32.1640487,74.8434966 C21.015032,74.8434966 10.5656525,71.8553038 1.57683337,66.6379844 Z" opacity=".7"/>
    </g>
    <g fill="#1F2429">
      <path d="M49.9208269,1.68187633 C76.488309,1.68187633 99.8416538,44.2606329 99.8416538,82.0878589 C99.8416538,119.915085 67.9548369,132.027292 49.9208269,132.027292 C31.8868169,132.027292 1.70090939e-15,118.352578 0,82.0878589 C0,45.8231399 23.3533448,1.68187633 49.9208269,1.68187633 Z" opacity=".096"/>
      <path d="M96.3479462,102.390072 C88.0602683,125.710621 64.2780969,133.709168 49.6541267,133.709168 C31.7164628,133.709168 1.69182234e-15,120.122678 0,84.0919251 C0,77.2236978 0.844044434,70.0711112 2.39338428,62.9921423 C12.1729881,56.1534182 24.0946912,52.1381662 36.9597144,52.1381662 C66.9113662,52.1381662 91.7499745,73.9018907 96.3479462,102.390072 Z" opacity=".7"/>
      <path d="M1.57683337,66.6379844 C6.08528468,34.0133267 26.739516,1.23247556e-12 49.8647392,0 C65.5622956,-8.3565858e-13 80.1212721,15.1178338 89.2644743,35.2783125 C80.6423622,58.3842548 58.3300385,74.8434966 32.1640487,74.8434966 C21.015032,74.8434966 10.5656525,71.8553038 1.57683337,66.6379844 Z" opacity=".5"/>
    </g>
    <g transform="translate(154)">
      <path fill="#1F2429" d="M50,1.36054422 C76.6096174,1.36054422 100,44.0264636 100,81.9311255 C100,119.835787 68.0626115,131.972789 50,131.972789 C31.9373885,131.972789 1.70360699e-15,118.270082 0,81.9311255 C0,45.5921692 23.3903826,1.36054422 50,1.36054422 Z" opacity=".096"/>
      <path fill="url(#klutch-logos-c)" d="M96.5986395,102.670838 C88.2893974,126.009013 64.4453458,134.013605 49.7833246,134.013605 C31.7989876,134.013605 1.69622439e-15,120.416847 0,84.3588619 C0,77.4854436 0.846240602,70.3274511 2.39961177,63.2431319 C12.2046617,56.3992391 24.1573845,52.3809524 37.055882,52.3809524 C67.0854668,52.3809524 91.988704,74.1611259 96.5986395,102.670838 Z" opacity=".7"/>
      <path fill="url(#klutch-logos-d)" d="M1.36054422,66.6259069 C5.87246404,34.0071622 26.5425854,1.28909561e-12 49.6855996,5.68434189e-14 C65.3952327,-7.78663707e-13 79.9654099,15.1150939 89.1156463,35.2719186 C80.4869009,58.3736732 58.1574115,74.829932 31.9712913,74.829932 C20.8136973,74.829932 10.3562788,71.8422807 1.36054422,66.6259069 Z" opacity=".5"/>
    </g>
  </g>
</svg>
