<svg xmlns="http://www.w3.org/2000/svg" width="29" height="29" viewBox="0 0 29 29">
  <g fill="none" fill-rule="evenodd">
    <circle cx="14.5" cy="14.5" r="14.5" fill="#252C33"/>
    <path fill="#FFF" fill-rule="nonzero" d="M20.0229492,22 L10.2407227,22 L10.2407227,20.6362305 L15.4086914,14.894043 C16.1743202,14.0258746 16.7023911,13.3200711 16.9929199,12.7766113 C17.2834487,12.2331516 17.4287109,11.6709013 17.4287109,11.0898438 C17.4287109,10.310543 17.1928735,9.67138921 16.7211914,9.17236328 C16.2495094,8.67333735 15.6206094,8.42382812 14.8344727,8.42382812 C13.8911086,8.42382812 13.1579616,8.69213599 12.6350098,9.22875977 C12.1120579,9.76538354 11.8505859,10.5122022 11.8505859,11.4692383 L9.95361328,11.4692383 C9.95361328,10.095208 10.3962358,8.98437924 11.2814941,8.13671875 C12.1667525,7.28905826 13.3510668,6.86523438 14.8344727,6.86523438 C16.2221749,6.86523438 17.3193319,7.22924441 18.1259766,7.95727539 C18.9326212,8.68530637 19.3359375,9.65429083 19.3359375,10.8642578 C19.3359375,12.3339917 18.3994234,14.0839742 16.5263672,16.1142578 L12.5273438,20.4516602 L20.0229492,20.4516602 L20.0229492,22 Z"/>
  </g>
</svg>
