<svg xmlns="http://www.w3.org/2000/svg" width="29" height="29" viewBox="0 0 29 29">
  <g fill="none" fill-rule="evenodd">
    <circle cx="14.5" cy="14.5" r="14.5" fill="#252C33"/>
    <path fill="#FFF" fill-rule="nonzero" d="M12.9990234,13.6123047 L14.4243164,13.6123047 C15.3198287,13.5986327 16.0239232,13.3627953 16.5366211,12.9047852 C17.049319,12.4467751 17.3056641,11.8281289 17.3056641,11.0488281 C17.3056641,9.29881937 16.4340907,8.42382812 14.690918,8.42382812 C13.8706014,8.42382812 13.2160669,8.65795664 12.7272949,9.1262207 C12.2385229,9.59448476 11.9941406,10.2148399 11.9941406,10.9873047 L10.097168,10.9873047 C10.097168,9.80468159 10.5295367,8.8220254 11.3942871,8.03930664 C12.2590375,7.25658788 13.3579035,6.86523438 14.690918,6.86523438 C16.0991281,6.86523438 17.203121,7.23778924 18.0029297,7.98291016 C18.8027384,8.72803107 19.2026367,9.76366524 19.2026367,11.0898438 C19.2026367,11.7392611 18.9924337,12.368161 18.5720215,12.9765625 C18.1516092,13.584964 17.5791052,14.0395493 16.8544922,14.340332 C17.6748088,14.600099 18.3088357,15.0307587 18.7565918,15.6323242 C19.2043479,16.2338897 19.4282227,16.9687457 19.4282227,17.8369141 C19.4282227,19.1767645 18.990727,20.2397422 18.1157227,21.0258789 C17.2407183,21.8120156 16.1025461,22.2050781 14.7011719,22.2050781 C13.2997977,22.2050781 12.1599165,21.8256874 11.2814941,21.0668945 C10.4030718,20.3081017 9.96386719,19.3066468 9.96386719,18.0625 L11.8710938,18.0625 C11.8710938,18.8486367 12.1274388,19.4775367 12.6401367,19.9492188 C13.1528346,20.4209008 13.8398394,20.6567383 14.7011719,20.6567383 C15.6171921,20.6567383 16.3178687,20.4174829 16.8032227,19.9389648 C17.2885766,19.4604468 17.53125,18.773442 17.53125,17.8779297 C17.53125,17.0097613 17.2646511,16.343264 16.7314453,15.878418 C16.1982395,15.4135719 15.4292042,15.1743165 14.4243164,15.1606445 L12.9990234,15.1606445 L12.9990234,13.6123047 Z"/>
  </g>
</svg>
