<svg xmlns="http://www.w3.org/2000/svg" width="30" height="30" viewBox="0 0 30 30">
  <g fill="none" fill-rule="evenodd">
    <circle cx="15" cy="15" r="15" fill="#FE6763"/>
    <path fill="#FFF" fill-rule="nonzero" d="M20.761382,22.8980334 L10.6418373,22.8980334 L10.6418373,21.4872373 L15.9880119,15.5470434 C16.7800417,14.6489381 17.3263219,13.9187966 17.6268689,13.3565968 C17.927416,12.7943971 18.0776872,12.2127589 18.0776872,11.6116649 C18.0776872,10.8054917 17.8337174,10.1442981 17.3457705,9.62806439 C16.8578235,9.11183066 16.2072374,8.85371767 15.3939925,8.85371767 C14.4180986,8.85371767 13.6596707,9.13127753 13.118686,9.68640558 C12.5777014,10.2415336 12.3072131,11.0141047 12.3072131,12.004142 L10.3448276,12.004142 C10.3448276,10.5827313 10.802713,9.43359813 11.7184974,8.55670797 C12.6342819,7.67981781 13.8594347,7.24137931 15.3939925,7.24137931 C16.8295465,7.24137931 17.9645365,7.61794141 18.7989965,8.37107691 C19.6334565,9.12421241 20.0506802,10.1266101 20.0506802,11.3783001 C20.0506802,12.8987145 19.0818726,14.7090412 17.1442282,16.8093346 L13.0073074,21.2963025 L20.761382,21.2963025 L20.761382,22.8980334 Z"/>
  </g>
</svg>
