<svg xmlns="http://www.w3.org/2000/svg" width="29" height="29" viewBox="0 0 29 29">
  <g fill="none" fill-rule="evenodd">
    <circle cx="14.5" cy="14.5" r="14.5" fill="#FE6763"/>
    <path fill="#FFF" fill-rule="nonzero" d="M17.6850586,7.06005859 L17.6850586,8.66992188 L17.3364258,8.66992188 C15.8598559,8.69726576 14.6840864,9.13476139 13.809082,9.98242188 C12.9340777,10.8300824 12.4282233,12.0229415 12.2915039,13.5610352 C13.0776406,12.6586869 14.1508721,12.2075195 15.5112305,12.2075195 C16.8100651,12.2075195 17.8474082,12.6655228 18.623291,13.581543 C19.3991738,14.4975632 19.7871094,15.6801685 19.7871094,17.1293945 C19.7871094,18.6674882 19.3684124,19.8979446 18.5310059,20.8208008 C17.6935993,21.743657 16.5708078,22.2050781 15.1625977,22.2050781 C13.7338796,22.2050781 12.5751998,21.6564996 11.6865234,20.5593262 C10.7978471,19.4621527 10.3535156,18.0488368 10.3535156,16.3193359 L10.3535156,15.5913086 C10.3535156,12.843248 10.9396914,10.7429272 12.1120605,9.2902832 C13.2844297,7.83763922 15.0292853,7.09423845 17.3466797,7.06005859 L17.6850586,7.06005859 Z M15.1933594,13.7866211 C14.5439421,13.7866211 13.9458035,13.9814434 13.3989258,14.3710938 C12.852048,14.7607441 12.4726573,15.2495088 12.2607422,15.8374023 L12.2607422,16.534668 C12.2607422,17.7651429 12.5375949,18.7563439 13.0913086,19.5083008 C13.6450223,20.2602577 14.3354451,20.6362305 15.1625977,20.6362305 C16.0170941,20.6362305 16.6887183,20.3217805 17.1774902,19.6928711 C17.6662622,19.0639617 17.9106445,18.2402395 17.9106445,17.2216797 C17.9106445,16.1962839 17.6628443,15.3674348 17.1672363,14.7351074 C16.6716284,14.10278 16.013676,13.7866211 15.1933594,13.7866211 Z"/>
  </g>
</svg>
