<svg xmlns="http://www.w3.org/2000/svg" width="30" height="30" viewBox="0 0 30 30">
  <g fill="none" fill-rule="evenodd">
    <circle cx="15" cy="15" r="15" fill="#FE6763"/>
    <path fill="#FFF" fill-rule="nonzero" d="M10.896417,14.9424165 L11.6813712,7.24137931 L19.5945582,7.24137931 L19.5945582,9.05525997 L13.346747,9.05525997 L12.8800175,13.2664332 C13.6366889,12.8209164 14.4958869,12.5981614 15.4576374,12.5981614 C16.8649047,12.5981614 17.9822157,13.0631183 18.809604,13.9930462 C19.6369923,14.9229741 20.0506802,16.179949 20.0506802,17.7640086 C20.0506802,19.35514 19.6210812,20.6085791 18.7618703,21.5243636 C17.9026594,22.440148 16.7022572,22.8980334 15.1606277,22.8980334 C13.7957906,22.8980334 12.6820154,22.5197034 11.8192686,21.7630321 C10.9565218,21.0063607 10.4650464,19.9597656 10.3448276,18.6232152 L12.2011382,18.6232152 C12.321357,19.5071771 12.6360427,20.1736743 13.1452047,20.622727 C13.6543668,21.0717796 14.3261677,21.2963025 15.1606277,21.2963025 C16.0728763,21.2963025 16.7888747,20.9851526 17.3086443,20.3628435 C17.8284138,19.7405343 18.0882947,18.8813363 18.0882947,17.7852236 C18.0882947,16.7527562 17.8071991,15.9236124 17.2449993,15.2977674 C16.6827996,14.6719224 15.9349791,14.3590046 15.0015154,14.3590046 C14.1458403,14.3590046 13.4740393,14.5464017 12.9860924,14.9212015 L12.4663254,15.3455011 L10.896417,14.9424165 Z"/>
  </g>
</svg>
