<svg xmlns="http://www.w3.org/2000/svg" width="30" height="30" viewBox="0 0 30 30">
  <g fill="none" fill-rule="evenodd">
    <circle cx="15" cy="15" r="15" fill="#FE6763"/>
    <path fill="#FFF" fill-rule="nonzero" d="M13.4846444,14.2211072 L14.9590854,14.2211072 C15.8854774,14.2069638 16.6138511,13.962994 17.1442282,13.4891905 C17.6746053,13.0153869 17.9397899,12.3754081 17.9397899,11.5692349 C17.9397899,9.75888103 17.0381623,8.85371767 15.2348801,8.85371767 C14.3862767,8.85371767 13.7091721,9.09591959 13.2035459,9.58033068 C12.6979198,10.0647418 12.4451105,10.7064885 12.4451105,11.50559 L10.4827249,11.50559 C10.4827249,10.2821868 10.9300029,9.26564589 11.8245723,8.45593683 C12.7191417,7.64622777 13.8558996,7.24137931 15.2348801,7.24137931 C16.6916493,7.24137931 17.8337108,7.6267809 18.6610991,8.39759564 C19.4884874,9.16841037 19.9021754,10.2397561 19.9021754,11.6116649 C19.9021754,12.2834759 19.684724,12.934062 19.2498148,13.5634429 C18.8149056,14.1928237 18.22266,14.6630844 17.4730603,14.974239 C18.3216637,15.2429634 18.9775536,15.6884735 19.4407496,16.3107826 C19.9039456,16.9330917 20.1355401,17.6932875 20.1355401,18.5913928 C20.1355401,19.977445 19.6829585,21.077077 18.7777815,21.8903219 C17.8726046,22.7035668 16.6951851,23.1101832 15.2454876,23.1101832 C13.7957902,23.1101832 12.6166027,22.71771 11.70789,21.9327519 C10.7991772,21.1477938 10.3448276,20.111806 10.3448276,18.8247575 L12.3178206,18.8247575 C12.3178206,19.6380024 12.5830052,20.2885886 13.1133823,20.7765356 C13.6437594,21.2644825 14.3544541,21.5084523 15.2454876,21.5084523 C16.1930947,21.5084523 16.9179326,21.2609467 17.4200229,20.7659281 C17.9221132,20.2709094 18.1731546,19.5602148 18.1731546,18.6338227 C18.1731546,17.7357175 17.8973627,17.0462376 17.3457705,16.5653623 C16.7941783,16.0844871 15.9986245,15.8369815 14.9590854,15.8228381 L13.4846444,15.8228381 L13.4846444,14.2211072 Z"/>
  </g>
</svg>
