<svg xmlns="http://www.w3.org/2000/svg" width="30" height="30" viewBox="0 0 30 30">
  <path fill="#ED9E9A" d="M25.7085472,7.23214286 L24.6373577,7.23214286 L24.6373577,6.83035714 C25.2332069,6.22767857 25.7085472,5.296875 25.7085472,4.28571429 C25.7085472,1.921875 23.7871011,0 21.4237893,0 C20.3325151,0 19.3416648,0.408482143 18.5851372,1.078125 C17.7549654,0.401785714 16.6971658,0 15.5456371,0 C14.4878375,0 13.5103771,0.341517857 12.71368,0.917410714 C12.0508815,0.348214286 11.1805401,0 10.2365543,0 C9.0917206,0 8.06739567,0.508928571 7.37112252,1.30580357 C6.58781522,0.502232143 5.49654095,0 4.28475787,0 C1.92144611,0 0,1.921875 0,4.28571429 C0,5.37053571 0.408390984,6.36160714 1.07118947,7.11830357 L1.07118947,10.78125 C1.07118947,12.5558036 2.51060031,13.9955357 4.28475787,13.9955357 L4.28475787,25.6808036 C4.28475787,28.0446429 6.21289891,30 8.5829056,30 L20.3525999,30 C22.7159116,30 24.6440527,28.0446429 24.6440527,25.6808036 L24.6440527,22.7678571 L25.7152421,22.7678571 C29.0627092,22.7678571 30,20.578125 30,18.2142857 L30,11.7857143 C29.9933051,9.421875 28.8551663,7.23214286 25.7085472,7.23214286 Z M21.4237893,10.7142857 L7.49832627,10.7142857 L7.49832627,7.11830357 C7.51841107,7.09151786 7.54519081,7.06473214 7.56527561,7.03794643 C7.64561482,6.9375 7.72595403,6.83705357 7.7995983,6.72991071 C7.90002232,6.81026786 8.00044633,6.890625 8.10756528,6.95758929 C8.71680428,7.36607143 9.44655211,7.60714286 10.2298594,7.60714286 C10.6583352,7.60714286 11.0734211,7.53348214 11.4550324,7.40625 C12.3119839,8.75892857 13.8183441,9.66294643 15.5389422,9.66294643 C17.0118277,9.66294643 18.3307297,9 19.2144611,7.96205357 C19.5960723,7.51339286 19.8973443,6.99776786 20.0914974,6.42857143 L21.4237893,6.42857143 L21.4237893,10.7142857 Z M4.28475787,6.43526786 L4.28475787,11.4575893 C3.68221379,11.4575893 3.2135684,10.9754464 3.2135684,10.3861607 L3.2135684,6.14732143 C2.67797367,5.84598214 2.31644722,5.33705357 2.18924347,4.74107143 C2.1557688,4.60044643 2.14237893,4.44642857 2.14237893,4.29241071 C2.14237893,3.11383929 3.10644945,2.14955357 4.28475787,2.14955357 C5.0747601,2.14955357 5.84467753,2.66517857 6.29993305,3.18080357 C6.75518857,3.69642857 8.08748047,3.69642857 8.56951573,3.18080357 C9.02477126,2.69196429 9.52689132,2.14955357 10.2298594,2.14955357 C10.6315555,2.14955357 11.0064718,2.296875 11.2943539,2.53794643 C11.4215577,2.64508929 11.5353716,2.77232143 11.6224057,2.91294643 C11.69605,3.03348214 11.7563044,3.19419643 11.8299487,3.30133929 C12.0107119,3.52901786 12.2651194,3.66964286 12.5797813,3.66964286 C12.8743584,3.66964286 13.1354608,3.54241071 13.3162241,3.33482143 C13.3563937,3.28794643 13.3965633,3.234375 13.4300379,3.18080357 C13.5639366,3.01339286 13.7112252,2.859375 13.8785985,2.72544643 C14.3338541,2.36383929 14.9163133,2.14955357 15.5389422,2.14955357 C16.2486052,2.14955357 16.8913189,2.42410714 17.3733542,2.87946429 C17.487168,2.98660714 17.8219148,3.18080357 18.2570855,3.22098214 C18.5583575,3.24776786 18.6654765,3.24107143 18.8060701,3.22098214 C19.4956483,3.13392857 19.7701406,2.90625 19.9040393,2.77901786 C20.2923455,2.390625 20.8279402,2.14955357 21.4170944,2.14955357 C22.5954028,2.14955357 23.5594733,3.11383929 23.5594733,4.29241071 C23.5728632,4.5 23.5393885,4.70758929 23.4791341,4.90178571 C23.3117608,4.53348214 22.9368445,4.28571429 22.5016737,4.28571429 L18.8194599,4.28571429 C18.8194599,4.28571429 18.2370007,4.23883929 18.2370007,4.83482143 C18.2370007,5.43080357 18.0428476,5.97991071 17.7147958,6.421875 C17.2260656,7.08482143 16.4360634,7.52008929 15.5456371,7.52008929 C14.5480919,7.52008929 13.6777505,6.97767857 13.2158,6.16741071 C13.1086811,5.98660714 13.0283419,5.79241071 12.9680875,5.59151786 C12.9613925,5.55133929 12.9480027,5.51785714 12.9413077,5.484375 C12.8074091,5.08928571 12.4391877,4.80133929 11.997322,4.80133929 C11.7362196,4.80133929 11.495202,4.90178571 11.3144387,5.06919643 L11.3077438,5.07589286 C11.1470654,5.21651786 10.9529123,5.32366071 10.7453693,5.390625 C10.5846909,5.44419643 10.4106226,5.47098214 10.2298594,5.47098214 C9.72773934,5.47098214 9.24570408,5.203125 8.97121178,4.89508929 C8.30171837,4.13169643 7.38451239,4.43973214 6.98281634,4.52678571 C6.58112029,4.61383929 6.16603437,5.31026786 6.16603437,5.31026786 C6.09239009,5.45089286 6.00535595,5.578125 5.90493193,5.69866071 C5.50323588,6.14732143 4.88730194,6.43526786 4.28475787,6.43526786 Z M26.7797367,18.2142857 C26.7797367,19.3995536 26.3579558,19.8214286 25.1729525,19.8214286 L24.6373577,19.8214286 L24.6373577,10.1785714 L25.1729525,10.1785714 C26.3579558,10.1785714 26.7797367,10.6004464 26.7797367,11.7857143 L26.7797367,18.2142857 Z"/>
</svg>
