<svg xmlns="http://www.w3.org/2000/svg" width="467" height="247" viewBox="0 0 467 247">
  <defs>
    <filter id="sh-co-a" width="131.1%" height="123%" x="-15.5%" y="-11.5%" filterUnits="objectBoundingBox">
      <feOffset dy="2" in="SourceAlpha" result="shadowOffsetOuter1"/>
      <feGaussianBlur in="shadowOffsetOuter1" result="shadowBlurOuter1" stdDeviation="3"/>
      <feColorMatrix in="shadowBlurOuter1" result="shadowMatrixOuter1" values="0 0 0 0 0.505882353   0 0 0 0 0.560784314   0 0 0 0 0.588235294  0 0 0 0.15 0"/>
      <feMerge>
        <feMergeNode in="shadowMatrixOuter1"/>
        <feMergeNode in="SourceGraphic"/>
      </feMerge>
    </filter>
  </defs>
  <g fill="none" transform="translate(0 3)">
    <path fill="#FFFAF8" d="M17.4455073,213.428394 C44.5403558,254.346739 158.793337,225.428394 247.445507,221.428394 C336.097677,217.428394 412.445507,290.428394 460.445507,192.428394 C508.445507,94.4283937 238.445507,-17.9494033 108.445507,24.0505967 C-21.5544927,66.0505967 -9.64934127,172.510048 17.4455073,213.428394 Z"/>
    <g transform="translate(103)">
      <g fill="#FCD2C3" transform="translate(134)">
        <ellipse cx="51.5" cy="14.45" rx="13.733" ry="13.762"/>
        <path d="M52.1866667,33.7178218 C56.9933333,33.7178218 59.74,32.3415842 62.4866667,30.2772277 C64.3177778,28.9009901 74.3888889,19.1747074 92.7,1.09837967 C96.3622222,-0.0926193189 99.1088889,0.458745875 100.94,2.75247525 C102.771111,5.04620462 103.228889,7.33993399 102.313333,9.63366337 L68.0346166,45.0580272 L67.98,132.806931 C66.1488889,136.476898 63.86,138.311881 61.1133333,138.311881 C58.3666667,138.311881 55.8488889,136.476898 53.56,132.806931 L53.56,83.950495 C53.393091,82.5742574 52.6229699,81.8861386 51.2496366,81.8861386 C49.8763032,81.8861386 49.0442022,82.5742574 48.7533333,83.950495 L48.7533333,132.806931 C47.8377778,136.476898 45.7777778,138.311881 42.5733333,138.311881 C39.3688889,138.311881 36.8511111,136.706271 35.02,133.49505 L35.02,45.0580272 L0.686666667,10.3217822 C-0.228888889,6.65181518 0.457777778,3.89933993 2.74666667,2.06435644 C5.03555556,0.229372937 7.78222222,-0.0926193189 10.9866667,1.09837967 C28.84,19.1747074 38.9111111,28.9009901 41.2,30.2772277 C44.6333333,32.3415842 47.38,33.7178218 52.1866667,33.7178218 Z"/>
      </g>
      <g fill="#FCD2C3" transform="translate(0 1)">
        <ellipse cx="51.5" cy="14.45" rx="13.733" ry="13.762"/>
        <path d="M52.1866667,33.7178218 C56.9933333,33.7178218 59.74,32.3415842 62.4866667,30.2772277 C64.3177778,28.9009901 74.3888889,19.1747074 92.7,1.09837967 C96.3622222,-0.0926193189 99.1088889,0.458745875 100.94,2.75247525 C102.771111,5.04620462 103.228889,7.33993399 102.313333,9.63366337 L68.0346166,45.0580272 L67.98,132.806931 C66.1488889,136.476898 63.86,138.311881 61.1133333,138.311881 C58.3666667,138.311881 55.8488889,136.476898 53.56,132.806931 L53.56,83.950495 C53.393091,82.5742574 52.6229699,81.8861386 51.2496366,81.8861386 C49.8763032,81.8861386 49.0442022,82.5742574 48.7533333,83.950495 L48.7533333,132.806931 C47.8377778,136.476898 45.7777778,138.311881 42.5733333,138.311881 C39.3688889,138.311881 36.8511111,136.706271 35.02,133.49505 L35.02,45.0580272 L0.686666667,10.3217822 C-0.228888889,6.65181518 0.457777778,3.89933993 2.74666667,2.06435644 C5.03555556,0.229372937 7.78222222,-0.0926193189 10.9866667,1.09837967 C28.84,19.1747074 38.9111111,28.9009901 41.2,30.2772277 C44.6333333,32.3415842 47.38,33.7178218 52.1866667,33.7178218 Z"/>
      </g>
      <g fill="#ED9E9A" filter="url(#sh-co-a)" transform="translate(67 1)">
        <ellipse cx="51.5" cy="14.45" rx="13.733" ry="13.762"/>
        <path d="M52.1866667,33.7178218 C56.9933333,33.7178218 59.74,32.3415842 62.4866667,30.2772277 C64.3177778,28.9009901 74.3888889,19.1747074 92.7,1.09837967 C96.3622222,-0.0926193189 99.1088889,0.458745875 100.94,2.75247525 C102.771111,5.04620462 103.228889,7.33993399 102.313333,9.63366337 L68.0346166,45.0580272 L67.98,132.806931 C66.1488889,136.476898 63.86,138.311881 61.1133333,138.311881 C58.3666667,138.311881 55.8488889,136.476898 53.56,132.806931 L53.56,83.950495 C53.393091,82.5742574 52.6229699,81.8861386 51.2496366,81.8861386 C49.8763032,81.8861386 49.0442022,82.5742574 48.7533333,83.950495 L48.7533333,132.806931 C47.8377778,136.476898 45.7777778,138.311881 42.5733333,138.311881 C39.3688889,138.311881 36.8511111,136.706271 35.02,133.49505 L35.02,45.0580272 L0.686666667,10.3217822 C-0.228888889,6.65181518 0.457777778,3.89933993 2.74666667,2.06435644 C5.03555556,0.229372937 7.78222222,-0.0926193189 10.9866667,1.09837967 C28.84,19.1747074 38.9111111,28.9009901 41.2,30.2772277 C44.6333333,32.3415842 47.38,33.7178218 52.1866667,33.7178218 Z"/>
      </g>
    </g>
  </g>
</svg>
