<svg xmlns="http://www.w3.org/2000/svg" width="449" height="287" viewBox="0 0 449 287">
  <defs>
    <filter id="sh-feed-a" width="169.6%" height="145.7%" x="-34.8%" y="-22.9%" filterUnits="objectBoundingBox">
      <feOffset dy="2" in="SourceAlpha" result="shadowOffsetOuter1"/>
      <feGaussianBlur in="shadowOffsetOuter1" result="shadowBlurOuter1" stdDeviation="3"/>
      <feColorMatrix in="shadowBlurOuter1" result="shadowMatrixOuter1" values="0 0 0 0 0.505882353   0 0 0 0 0.560784314   0 0 0 0 0.588235294  0 0 0 0.15 0"/>
      <feMerge>
        <feMergeNode in="shadowMatrixOuter1"/>
        <feMergeNode in="SourceGraphic"/>
      </feMerge>
    </filter>
    <filter id="sh-feed-b" width="169.6%" height="169.6%" x="-34.8%" y="-34.8%" filterUnits="objectBoundingBox">
      <feOffset dy="2" in="SourceAlpha" result="shadowOffsetOuter1"/>
      <feGaussianBlur in="shadowOffsetOuter1" result="shadowBlurOuter1" stdDeviation="3"/>
      <feColorMatrix in="shadowBlurOuter1" result="shadowMatrixOuter1" values="0 0 0 0 0.505882353   0 0 0 0 0.560784314   0 0 0 0 0.588235294  0 0 0 0.15 0"/>
      <feMerge>
        <feMergeNode in="shadowMatrixOuter1"/>
        <feMergeNode in="SourceGraphic"/>
      </feMerge>
    </filter>
    <filter id="sh-feed-c" width="169.6%" height="169.6%" x="-34.8%" y="-34.8%" filterUnits="objectBoundingBox">
      <feOffset dy="2" in="SourceAlpha" result="shadowOffsetOuter1"/>
      <feGaussianBlur in="shadowOffsetOuter1" result="shadowBlurOuter1" stdDeviation="3"/>
      <feColorMatrix in="shadowBlurOuter1" result="shadowMatrixOuter1" values="0 0 0 0 0.505882353   0 0 0 0 0.560784314   0 0 0 0 0.588235294  0 0 0 0.15 0"/>
      <feMerge>
        <feMergeNode in="shadowMatrixOuter1"/>
        <feMergeNode in="SourceGraphic"/>
      </feMerge>
    </filter>
  </defs>
  <g fill="none">
    <path fill="#FFFAF8" d="M6.15458356,98.4251816 C29.2190814,29.7269952 91.1545836,-10.5748184 159.154584,2.42518155 C227.154584,15.4251816 271.154654,87.8162615 313.154584,77.4251816 C355.154513,67.0341016 452.154584,52.4251816 448.320141,145.01736 C444.485698,237.609538 287.154584,298.425182 155.154584,284.425182 C23.1545836,270.425182 -16.9099142,167.123368 6.15458356,98.4251816 Z"/>
    <g transform="translate(180 42)">
      <g filter="url(#sh-feed-a)" transform="translate(70)">
        <ellipse cx="23" cy="22.871" fill="#ED9E9A" rx="23" ry="22.871"/>
        <path fill="#FFF" d="M10.5284483,10.2920792 C13.3749678,10.2920792 15.7034483,7.97630778 15.7034483,5.1460396 C15.7034483,2.31577143 13.3749678,0 10.5284483,0 C7.68192874,0 5.35344828,2.31577143 5.35344828,5.1460396 C5.35344828,7.97630778 7.68192874,10.2920792 10.5284483,10.2920792 Z M10.35,12.7763742 C6.92167031,12.7763742 0,14.5332341 0,17.9815637 L0,20.5841584 L20.7,20.5841584 L20.7,17.9815637 C20.7,14.5332341 13.7783297,12.7763742 10.35,12.7763742 Z" transform="translate(12.65 12.007)"/>
        <polygon fill="#ED9E9A" points="19.489 51.728 10.272 56.71 19.489 61.687 19.489 57.952 35.687 57.952 35.687 55.463 19.489 55.463" transform="rotate(-90 22.98 56.707)"/>
      </g>
      <g filter="url(#sh-feed-b)" transform="translate(0 122)">
        <ellipse cx="22.989" cy="22.906" fill="#ED9E9A" rx="22.989" ry="22.906"/>
        <path fill="#FFF" d="M10.5233049,10.3076471 C13.3684339,10.3076471 15.6957768,7.98837278 15.6957768,5.15382353 C15.6957768,2.31927427 13.3684339,0 10.5233049,0 C7.67817597,0 5.35083301,2.31927427 5.35083301,5.15382353 C5.35083301,7.98837278 7.67817597,10.3076471 10.5233049,10.3076471 Z M10.3449438,12.7956998 C6.91828894,12.7956998 0,14.5552171 0,18.0087627 L0,20.6152941 L20.6898876,20.6152941 L20.6898876,18.0087627 C20.6898876,14.5552171 13.7715987,12.7956998 10.3449438,12.7956998 Z" transform="translate(12.644 12.026)"/>
      </g>
      <polygon fill="#ED9E9A" points="49.015 121.71 39.776 126.664 49.033 131.646 49.026 127.919 65.277 127.948 65.273 125.466 49.021 125.436" transform="rotate(150 52.526 126.678)"/>
      <g filter="url(#sh-feed-c)" transform="translate(139 122)">
        <ellipse cx="22.875" cy="22.906" fill="#ED9E9A" rx="22.875" ry="22.906"/>
        <path fill="#FFF" d="M10.4712284,10.3076471 C13.3022778,10.3076471 15.6181034,7.98837278 15.6181034,5.15382353 C15.6181034,2.31927427 13.3022778,0 10.4712284,0 C7.64017913,0 5.32435345,2.31927427 5.32435345,5.15382353 C5.32435345,7.98837278 7.64017913,10.3076471 10.4712284,10.3076471 Z M10.29375,12.7956998 C6.88405254,12.7956998 0,14.5552171 0,18.0087627 L0,20.6152941 L20.5875,20.6152941 L20.5875,18.0087627 C20.5875,14.5552171 13.7034475,12.7956998 10.29375,12.7956998 Z" transform="translate(12.581 12.026)"/>
      </g>
      <polygon fill="#ED9E9A" points="128.995 121.695 119.774 126.647 129.002 131.607 129 127.889 145.211 127.9 145.209 125.424 128.998 125.413" transform="rotate(30 132.492 126.65)"/>
      <g fill="#ED9E9A" stroke="#ED9E9A" transform="translate(76 75)">
        <path d="M17,46 C7.61115925,46 0,38.3888407 0,29 C0,19.6111593 7.61115925,12 17,12 C26.3888407,12 34,19.6111593 34,29 C34,38.3888407 26.3888407,46 17,46 Z M17,43.3846154 C24.9444037,43.3846154 31.3846154,36.9444037 31.3846154,29 C31.3846154,21.0555963 24.9444037,14.6153846 17,14.6153846 C9.05559629,14.6153846 2.61538462,21.0555963 2.61538462,29 C2.61538462,36.9444037 9.05559629,43.3846154 17,43.3846154 Z"/>
        <circle cx="11" cy="24" r="2"/>
        <circle cx="23" cy="24" r="2"/>
        <path d="M8.21407967 32.8629326C7.82185952 32.3104833 7.98374314 31.5658763 8.57565685 31.1998064 9.16757056 30.8337366 9.96536868 30.984827 10.3575888 31.5372764 11.8151332 33.5902547 13.9789985 34.6000522 17 34.6000522 20.0210015 34.6000522 22.1848668 33.5902547 23.6424112 31.5372764 24.0346313 30.984827 24.8324294 30.8337366 25.4243432 31.1998064 26.0162569 31.5658763 26.1781405 32.3104833 25.7859203 32.8629326 23.8357031 35.6098498 20.8567912 37 17 37 13.1432088 37 10.1642969 35.6098498 8.21407967 32.8629326zM29 8.75C29 9.44035594 28.5522847 10 28 10 27.4477153 10 27 9.44035594 27 8.75L27 1.25C27 .559644063 27.4477153 0 28 0 28.5522847 0 29 .559644063 29 1.25L29 8.75zM36.1876726 13.6246547C35.6872123 14.1251151 34.8758057 14.1251151 34.3753453 13.6246547 33.8748849 13.1241943 33.8748849 12.3127877 34.3753453 11.8123274L39.8123274 6.37534529C40.3127877 5.8748849 41.1241943 5.8748849 41.6246547 6.37534529 42.1251151 6.87580567 42.1251151 7.68721226 41.6246547 8.18767264L36.1876726 13.6246547zM37.25 20C36.5596441 20 36 19.5522847 36 19 36 18.4477153 36.5596441 18 37.25 18L44.75 18C45.4403559 18 46 18.4477153 46 19 46 19.5522847 45.4403559 20 44.75 20L37.25 20z"/>
      </g>
    </g>
  </g>
</svg>
