<svg xmlns="http://www.w3.org/2000/svg" width="30" height="11" viewBox="0 0 30 11">
  <path fill="#ED9E9A" fill-rule="evenodd" d="M30,0 L16.0714286,0 L16.0714286,0.00654761905 L13.9285714,0.00654761905 L13.9285714,0 L0,0 L0,3.14285714 L0.736607143,3.14285714 L1.07142857,4.55059524 C2.14285714,8.9702381 3.78348214,10.4761905 7.5,10.4761905 C11.2165179,10.4761905 13.9285714,9.33690476 13.9285714,4.55059524 L13.9285714,3.14285714 C13.9285714,3.14285714 14.0290179,2.0952381 15,2.0952381 C15.9709821,2.0952381 16.0714286,3.14285714 16.0714286,3.14285714 L16.0714286,4.5702381 C16.0714286,9.35 18.890625,10.4761905 22.5669643,10.4761905 C26.2433036,10.4761905 27.8571429,8.83928571 28.9285714,4.5702381 L29.2633929,3.14285714 L30,3.14285714 L30,0 Z"/>
</svg>
