<svg xmlns="http://www.w3.org/2000/svg" width="419" height="271" viewBox="0 0 419 271">
  <defs>
    <filter id="sh-hats-a" width="149.2%" height="147.8%" x="-24.6%" y="-23.9%" filterUnits="objectBoundingBox">
      <feOffset dy="2" in="SourceAlpha" result="shadowOffsetOuter1"/>
      <feGaussianBlur in="shadowOffsetOuter1" result="shadowBlurOuter1" stdDeviation="3"/>
      <feColorMatrix in="shadowBlurOuter1" result="shadowMatrixOuter1" values="0 0 0 0 0.505882353   0 0 0 0 0.560784314   0 0 0 0 0.588235294  0 0 0 0.15 0"/>
      <feMerge>
        <feMergeNode in="shadowMatrixOuter1"/>
        <feMergeNode in="SourceGraphic"/>
      </feMerge>
    </filter>
    <filter id="sh-hats-b" width="149.2%" height="140.5%" x="-24.6%" y="-20.3%" filterUnits="objectBoundingBox">
      <feOffset dy="2" in="SourceAlpha" result="shadowOffsetOuter1"/>
      <feGaussianBlur in="shadowOffsetOuter1" result="shadowBlurOuter1" stdDeviation="3"/>
      <feColorMatrix in="shadowBlurOuter1" result="shadowMatrixOuter1" values="0 0 0 0 0.505882353   0 0 0 0 0.560784314   0 0 0 0 0.588235294  0 0 0 0.15 0"/>
      <feMerge>
        <feMergeNode in="shadowMatrixOuter1"/>
        <feMergeNode in="SourceGraphic"/>
      </feMerge>
    </filter>
    <filter id="sh-hats-c" width="149.2%" height="143.2%" x="-24.6%" y="-21.6%" filterUnits="objectBoundingBox">
      <feOffset dy="2" in="SourceAlpha" result="shadowOffsetOuter1"/>
      <feGaussianBlur in="shadowOffsetOuter1" result="shadowBlurOuter1" stdDeviation="3"/>
      <feColorMatrix in="shadowBlurOuter1" result="shadowMatrixOuter1" values="0 0 0 0 0.505882353   0 0 0 0 0.560784314   0 0 0 0 0.588235294  0 0 0 0.15 0"/>
      <feMerge>
        <feMergeNode in="shadowMatrixOuter1"/>
        <feMergeNode in="SourceGraphic"/>
      </feMerge>
    </filter>
  </defs>
  <g fill="none">
    <path fill="#FFFAF8" d="M30.4996359,65.1356729 C95.4865046,7.62541767 150.483875,-2.8551916 257.749696,0.58626383 C321,2.61555051 392,69.8733066 375,112.762311 C348.285788,180.159131 345,180.020067 297,183.919067 C175.801426,193.763927 228.749696,250.264124 118.749696,268.784375 C8.74969597,287.304627 -34.4872327,122.645928 30.4996359,65.1356729 Z"/>
    <g fill="#ED9E9A" transform="translate(131 89)">
      <g filter="url(#sh-hats-a)" transform="translate(0 12)">
        <path d="M32.0010909,66.1095289 C14.3273764,66.1095289 2.4158453e-13,53.548983 2.4158453e-13,38.0547645 C2.4158453e-13,22.5605459 14.3273764,10 32.0010909,10 C49.6748053,10 64.0021817,22.5605459 64.0021817,38.0547645 C64.0021817,53.548983 49.6748053,66.1095289 32.0010909,66.1095289 Z M32.0010909,61.7934113 C46.9557723,61.7934113 59.078937,51.1652571 59.078937,38.0547645 C59.078937,24.9442718 46.9557723,14.3161176 32.0010909,14.3161176 C17.0464094,14.3161176 4.92324475,24.9442718 4.92324475,38.0547645 C4.92324475,51.1652571 17.0464094,61.7934113 32.0010909,61.7934113 Z"/>
        <ellipse cx="20.862" cy="32.868" rx="3.862" ry="3.868"/>
        <ellipse cx="43.862" cy="32.868" rx="3.862" ry="3.868"/>
        <path d="M16.4068473,45.7739967 C15.6614533,44.6548247 15.9691047,43.1463728 17.0940059,42.4047752 C18.218907,41.6631775 19.7350808,41.969262 20.4804748,43.0884341 C23.250462,47.2474323 27.3627753,49.2931169 33.1040313,49.2931169 C38.8452873,49.2931169 42.9576006,47.2474323 45.7275878,43.0884341 C46.4729818,41.969262 47.9891556,41.6631775 49.1140568,42.4047752 C50.238958,43.1463728 50.5466093,44.6548247 49.8012154,45.7739967 C46.0949291,51.3388014 40.4336622,54.1550184 33.1040313,54.1550184 C25.7744004,54.1550184 20.1131335,51.3388014 16.4068473,45.7739967 Z"/>
        <rect width="64" height="11" y="15"/>
        <path d="M6,17 C6,7.61115925 17.6405965,0 32,0 C46.3594035,0 58,7.61115925 58,17 L6,17 Z"/>
      </g>
      <g filter="url(#sh-hats-b)" transform="translate(109)">
        <path d="M32.0010909,78.1095289 C14.3273764,78.1095289 2.4158453e-13,65.548983 2.4158453e-13,50.0547645 C2.4158453e-13,34.5605459 14.3273764,22 32.0010909,22 C49.6748053,22 64.0021817,34.5605459 64.0021817,50.0547645 C64.0021817,65.548983 49.6748053,78.1095289 32.0010909,78.1095289 Z M32.0010909,73.7934113 C46.9557723,73.7934113 59.078937,63.1652571 59.078937,50.0547645 C59.078937,36.9442718 46.9557723,26.3161176 32.0010909,26.3161176 C17.0464094,26.3161176 4.92324475,36.9442718 4.92324475,50.0547645 C4.92324475,63.1652571 17.0464094,73.7934113 32.0010909,73.7934113 Z"/>
        <ellipse cx="20.862" cy="44.868" rx="3.862" ry="3.868"/>
        <ellipse cx="43.862" cy="44.868" rx="3.862" ry="3.868"/>
        <path d="M16.4068473,57.7739967 C15.6614533,56.6548247 15.9691047,55.1463728 17.0940059,54.4047752 C18.218907,53.6631775 19.7350808,53.969262 20.4804748,55.0884341 C23.250462,59.2474323 27.3627753,61.2931169 33.1040313,61.2931169 C38.8452873,61.2931169 42.9576006,59.2474323 45.7275878,55.0884341 C46.4729818,53.969262 47.9891556,53.6631775 49.1140568,54.4047752 C50.238958,55.1463728 50.5466093,56.6548247 49.8012154,57.7739967 C46.0949291,63.3388014 40.4336622,66.1550184 33.1040313,66.1550184 C25.7744004,66.1550184 20.1131335,63.3388014 16.4068473,57.7739967 Z"/>
        <rect width="64" height="16" y="22"/>
        <polygon points="32 0 42 22 22 22"/>
        <polygon points="56.975 8 57 22 37 22"/>
        <polygon points="7.018 8 27 22 7 22"/>
      </g>
      <g filter="url(#sh-hats-c)" transform="translate(218 5)">
        <path d="M32.0010909,73.1095289 C14.3273764,73.1095289 2.4158453e-13,60.548983 2.4158453e-13,45.0547645 C2.4158453e-13,29.5605459 14.3273764,17 32.0010909,17 C49.6748053,17 64.0021817,29.5605459 64.0021817,45.0547645 C64.0021817,60.548983 49.6748053,73.1095289 32.0010909,73.1095289 Z M32.0010909,68.7934113 C46.9557723,68.7934113 59.078937,58.1652571 59.078937,45.0547645 C59.078937,31.9442718 46.9557723,21.3161176 32.0010909,21.3161176 C17.0464094,21.3161176 4.92324475,31.9442718 4.92324475,45.0547645 C4.92324475,58.1652571 17.0464094,68.7934113 32.0010909,68.7934113 Z"/>
        <ellipse cx="20.862" cy="39.868" rx="3.862" ry="3.868"/>
        <ellipse cx="43.862" cy="39.868" rx="3.862" ry="3.868"/>
        <path d="M16.4068473,52.7739967 C15.6614533,51.6548247 15.9691047,50.1463728 17.0940059,49.4047752 C18.218907,48.6631775 19.7350808,48.969262 20.4804748,50.0884341 C23.250462,54.2474323 27.3627753,56.2931169 33.1040313,56.2931169 C38.8452873,56.2931169 42.9576006,54.2474323 45.7275878,50.0884341 C46.4729818,48.969262 47.9891556,48.6631775 49.1140568,49.4047752 C50.238958,50.1463728 50.5466093,51.6548247 49.8012154,52.7739967 C46.0949291,58.3388014 40.4336622,61.1550184 33.1040313,61.1550184 C25.7744004,61.1550184 20.1131335,58.3388014 16.4068473,52.7739967 Z"/>
        <rect width="64" height="16" y="17"/>
        <polygon points="32.5 0 57 17 8 17"/>
      </g>
    </g>
  </g>
</svg>
