<svg xmlns="http://www.w3.org/2000/svg" width="30" height="14" viewBox="0 0 30 14">
  <path fill="#ED9E9A" d="M27.8936765,2.03663793 C26.5375836,0.72737069 24.7342686,0 22.8083282,0 C20.889601,0 19.086286,0.720096983 17.7301932,2.02936422 L16.4606594,3.18588362 L18.8482485,5.52074353 L20.0745027,4.40059267 L20.0817159,4.39331897 C20.8102552,3.6950431 21.776832,3.30226293 22.801115,3.30226293 C23.8253979,3.30226293 24.7919747,3.6877694 25.520514,4.38604526 C26.24184,5.08432112 26.631356,6.0080819 26.631356,6.99003233 C26.631356,7.97198276 26.2346267,8.88846983 25.520514,9.57947198 C24.7919747,10.2777478 23.8253979,10.670528 22.801115,10.670528 C21.776832,10.670528 20.8102552,10.2850216 20.0817159,9.58674569 L12.2769686,2.03663793 C10.9136624,0.72737069 9.11034742,0 7.19883351,0 C5.27289308,0 3.46957807,0.720096983 2.11348519,2.03663793 C0.750179043,3.35317888 0,5.10614224 0,6.98275862 C0,8.85210129 0.750179043,10.6123384 2.11348519,11.9288793 C3.46957807,13.2381466 5.27289308,13.9655172 7.19883351,13.9655172 C9.12477394,13.9655172 10.9280889,13.2454203 12.2769686,11.9288793 L15.0035809,9.30307112 L17.7229799,11.9288793 C19.086286,13.2381466 20.889601,13.9655172 22.801115,13.9655172 C24.7270554,13.9655172 26.5303704,13.2454203 27.87925,11.936153 C29.2497694,10.6196121 29.9999485,8.86664871 29.9999485,6.99003233 C30.0071617,5.11341595 29.2569827,3.35317888 27.8936765,2.03663793 Z M9.91823254,9.57947198 C9.18969328,10.2777478 8.22311643,10.670528 7.19883351,10.670528 C6.17455058,10.670528 5.20797374,10.2850216 4.47943448,9.58674569 C3.75810848,8.88846983 3.36859243,7.96470905 3.36859243,6.98275862 C3.36859243,6.00080819 3.76532174,5.08432112 4.47943448,4.39331897 C5.20797374,3.6950431 6.17455058,3.30226293 7.19883351,3.30226293 C8.22311643,3.30226293 9.18969328,3.6877694 9.91823254,4.38604526 L12.6159918,6.99003233 L9.91823254,9.57947198 Z"/>
</svg>
