<svg xmlns="http://www.w3.org/2000/svg" width="30" height="30" viewBox="0 0 30 30">
  <g fill="#ED9E9A" fill-rule="evenodd">
    <path d="M0.0401785714,15 L15,15 L15,0.0401785714 C14.6651786,0.0133928571 14.2901786,0 13.9285714,0 C6.234375,0 0,6.234375 0,13.9285714 C0,14.2901786 0.0133928571,14.6651786 0.0401785714,15 Z"/>
    <path d="M5.24474402,24.7975178 C7.79248917,27.9671535 11.7043813,30 16.0910501,30 C23.7744075,30 30,23.7744075 30,16.0910501 C30,11.7043813 27.9671535,7.79248917 24.7975178,5.24474402 C22.6777403,3.53956026 20.0363773,2.44289306 17.1609693,2.22222222 L17.1609693,17.1609693 L2.22222222,17.1609693 C2.44289306,20.0363773 3.53956026,22.6777403 5.24474402,24.7975178 Z"/>
  </g>
</svg>
