<svg xmlns="http://www.w3.org/2000/svg" width="30" height="25" viewBox="0 0 30 25">
  <g fill="#ED9E9A" fill-rule="evenodd">
    <path d="M6.87237367,4.73582538 C6.70607817,4.93764842 6.54643449,5.13947145 6.39344262,5.35474936 C8.5353287,7.79680809 11.4554777,10.5012368 14.6550032,13.0038424 C17.1693912,14.9682533 19.7303419,16.7173863 22.0651308,18.0561457 C22.4575882,18.2781511 22.8433937,18.493429 23.2158957,18.6885246 C23.3821912,18.4867016 23.5418348,18.2848785 23.6948267,18.0696006 C24.4730897,16.9864837 24.8988062,15.8360924 25.2447008,14.4636957 C25.2979154,14.2484178 25.3444781,14.0331399 25.384389,13.8245894 C26.4353766,8.24081877 23.0163411,2.73104989 17.5019822,1.31828864 C15.0408088,0.685909798 12.5729835,0.975189483 10.4310974,1.97084979 C9.00760792,2.63686581 7.89010215,3.5114323 6.87237367,4.73582538 Z"/>
    <path d="M25.858935,16.7822104 C25.5843832,17.5184354 25.3634026,17.9534775 25.3634026,17.9534775 C26.5821444,19.365691 27.010713,20.2223893 27.499549,21.0590086 C27.6602622,21.3334198 27.9950814,21.9357857 27.5598165,21.8889351 C27.4459779,21.8688562 27.325443,21.8420844 27.1915153,21.8019266 C25.7651856,21.4405071 23.7629668,20.550344 21.5464638,19.2987615 C19.1491584,17.9400916 16.5308723,16.1731515 13.9594609,14.1920368 C10.5376088,11.5483195 7.43048666,8.68373479 5.21398361,6.12702597 C4.18943688,4.94906589 3.36578167,3.83803536 2.82337458,2.92110052 C2.66266137,2.64668936 2.56221561,2.49944435 2.44837709,2.2250332 C2.28096749,1.81006999 2.78319628,1.88369249 2.91712395,1.91715727 C3.91488515,2.17148956 5.2608583,2.57975981 6.81441934,3.51008056 C6.81441934,3.51008056 7.10236385,3.18881872 7.7452167,2.74708369 C6.21844118,1.71636862 4.75862951,0.893135148 3.37917444,0.371084656 C1.83230977,-0.217895386 0.626960685,-0.0840362855 0.19839212,0.618723992 C-0.618566708,1.95062204 1.13588586,5.45773047 4.57113076,9.45342462 C3.13140824,15.2093659 6.62022421,21.0523157 12.3724179,22.5046869 C15.1246317,23.2007542 17.8902382,22.7657122 20.1937942,21.5007437 C22.7451165,22.6787037 25.021887,23.4149288 26.6825902,23.836585 C28.2830259,24.2448552 29.3879292,24.2046975 29.8164978,23.5086302 C30.5597964,22.2905124 29.0062354,20.0416795 25.858935,16.7822104 Z"/>
  </g>
</svg>
