<svg xmlns="http://www.w3.org/2000/svg" width="399" height="283" viewBox="0 0 399 283">
  <defs>
    <filter id="sh-study-a" width="166.7%" height="166.7%" x="-33.3%" y="-33.3%" filterUnits="objectBoundingBox">
      <feOffset dy="2" in="SourceAlpha" result="shadowOffsetOuter1"/>
      <feGaussianBlur in="shadowOffsetOuter1" result="shadowBlurOuter1" stdDeviation="3"/>
      <feColorMatrix in="shadowBlurOuter1" result="shadowMatrixOuter1" values="0 0 0 0 0.505882353   0 0 0 0 0.560784314   0 0 0 0 0.588235294  0 0 0 0.15 0"/>
      <feMerge>
        <feMergeNode in="shadowMatrixOuter1"/>
        <feMergeNode in="SourceGraphic"/>
      </feMerge>
    </filter>
    <filter id="sh-study-b" width="184.2%" height="166.7%" x="-42.1%" y="-33.3%" filterUnits="objectBoundingBox">
      <feOffset dy="2" in="SourceAlpha" result="shadowOffsetOuter1"/>
      <feGaussianBlur in="shadowOffsetOuter1" result="shadowBlurOuter1" stdDeviation="3"/>
      <feColorMatrix in="shadowBlurOuter1" result="shadowMatrixOuter1" values="0 0 0 0 0.505882353   0 0 0 0 0.560784314   0 0 0 0 0.588235294  0 0 0 0.15 0"/>
      <feMerge>
        <feMergeNode in="shadowMatrixOuter1"/>
        <feMergeNode in="SourceGraphic"/>
      </feMerge>
    </filter>
    <filter id="sh-study-c" width="157.1%" height="166.7%" x="-28.6%" y="-33.3%" filterUnits="objectBoundingBox">
      <feOffset dy="2" in="SourceAlpha" result="shadowOffsetOuter1"/>
      <feGaussianBlur in="shadowOffsetOuter1" result="shadowBlurOuter1" stdDeviation="3"/>
      <feColorMatrix in="shadowBlurOuter1" result="shadowMatrixOuter1" values="0 0 0 0 0.505882353   0 0 0 0 0.560784314   0 0 0 0 0.588235294  0 0 0 0.15 0"/>
      <feMerge>
        <feMergeNode in="shadowMatrixOuter1"/>
        <feMergeNode in="SourceGraphic"/>
      </feMerge>
    </filter>
  </defs>
  <g fill="none">
    <path fill="#FFFAF8" d="M2.89595145,184.127093 C-17.1040486,83.5641018 69.8959514,26.0995354 158.895951,13.6488793 C247.895951,1.19822325 329,-12.5287808 369,20.9922163 C409,54.5132134 414,130.136376 352,154.992216 C290,179.848057 292,229.555734 196,264.992216 C100,300.428699 22.8959514,284.690084 2.89595145,184.127093 Z"/>
    <g transform="translate(170 58)">
      <path stroke="#FCD2C3" stroke-dasharray="3 5" stroke-width="3" d="M106,174 C146.869071,174 180,140.869071 180,100 C180,59.1309285 146.869071,26 106,26 C65.1309285,26 32,59.1309285 32,100 C32,140.869071 65.1309285,174 106,174 Z"/>
      <path fill="#ED9E9A" d="M48,27.4285714 L48,20.5714286 L44.2821429,20.5714286 C44.0678571,19.275 43.725,18.0214286 43.2857143,16.8214286 L46.5,14.9678571 L43.0714286,9.03214286 L39.8571429,10.8857143 C39.0321429,9.88928571 38.1107143,8.96785714 37.1142857,8.14285714 L38.9678571,4.92857143 L33.0321429,1.5 L31.1785714,4.71428571 C29.9785714,4.26428571 28.725,3.93214286 27.4285714,3.71785714 L27.4285714,0 L20.5714286,0 L20.5714286,3.71785714 C19.275,3.93214286 18.0214286,4.275 16.8214286,4.71428571 L14.9678571,1.5 L9.03214286,4.92857143 L10.8857143,8.14285714 C9.88928571,8.96785714 8.96785714,9.88928571 8.14285714,10.8857143 L4.92857143,9.03214286 L1.5,14.9678571 L4.71428571,16.8214286 C4.26428571,18.0214286 3.93214286,19.275 3.71785714,20.5714286 L0,20.5714286 L0,27.4285714 L3.71785714,27.4285714 C3.93214286,28.725 4.275,29.9785714 4.71428571,31.1785714 L1.5,33.0321429 L4.92857143,38.9678571 L8.14285714,37.1142857 C8.96785714,38.1107143 9.88928571,39.0321429 10.8857143,39.8571429 L9.03214286,43.0714286 L14.9678571,46.5 L16.8214286,43.2857143 C18.0214286,43.7357143 19.275,44.0678571 20.5714286,44.2821429 L20.5714286,48 L27.4285714,48 L27.4285714,44.2821429 C28.725,44.0678571 29.9785714,43.725 31.1785714,43.2857143 L33.0321429,46.5 L38.9678571,43.0714286 L37.1142857,39.8571429 C38.1107143,39.0321429 39.0321429,38.1107143 39.8571429,37.1142857 L43.0714286,38.9678571 L46.5,33.0321429 L43.2857143,31.1785714 C43.7357143,29.9785714 44.0678571,28.725 44.2821429,27.4285714 L48,27.4285714 Z M24,20.5714286 C25.8964286,20.5714286 27.4285714,22.1035714 27.4285714,24 C27.4285714,25.8964286 25.8964286,27.4285714 24,27.4285714 C22.1035714,27.4285714 20.5714286,25.8964286 20.5714286,24 C20.5714286,22.1035714 22.1035714,20.5714286 24,20.5714286 Z M11.7,33.3214286 C9.73928571,30.7285714 8.57142857,27.5035714 8.57142857,24 C8.57142857,23.3464286 8.61428571,22.7035714 8.68928571,22.0714286 L13.7142857,23.9035714 L13.7142857,24 C13.7142857,25.9071429 14.2392857,27.6964286 15.1392857,29.2285714 L11.7,33.3214286 Z M16.0607143,17.4642857 L11.0357143,15.6321429 C13.1892857,12.3 16.5857143,9.85714286 20.5714286,8.95714286 L20.5714286,14.3035714 C18.7928571,14.9357143 17.2392857,16.0392857 16.0607143,17.4642857 Z M24,39.4285714 C21.4607143,39.4285714 19.0714286,38.8178571 16.95,37.725 L20.3892857,33.6321429 C21.5142857,34.05 22.725,34.2857143 24,34.2857143 C25.275,34.2857143 26.4857143,34.05 27.6107143,33.6321429 L31.05,37.725 C28.9285714,38.8178571 26.5392857,39.4285714 24,39.4285714 Z M27.4285714,14.3035714 L27.4285714,8.95714286 C31.4142857,9.85714286 34.8107143,12.3 36.9642857,15.6321429 L31.9392857,17.4642857 C30.7607143,16.0392857 29.2071429,14.9357143 27.4285714,14.3035714 Z M36.3,33.3214286 L32.8607143,29.2285714 C33.7607143,27.6964286 34.2857143,25.9071429 34.2857143,24 L34.2857143,23.9035714 L39.3107143,22.0714286 C39.3857143,22.7035714 39.4285714,23.3464286 39.4285714,24 C39.4285714,27.5035714 38.2607143,30.7285714 36.3,33.3214286 Z" filter="url(#sh-study-a)" transform="translate(86)"/>
      <path fill="#ED9E9A" d="M10.5974026,45.6102418 C10.5974026,46.8768137 11.7099229,48 13.1846591,48 L24.5685877,48 C26.0433239,48 27.1558442,46.8768137 27.1558442,45.6102418 L27.1558442,43.4594595 L10.5974026,43.4594595 L10.5974026,45.6102418 Z M18.5454545,0 C8.28106061,0 0,7.46220439 0,16.6934122 C0,22.3866132 3.10378788,27.4320101 7.90757576,30.4717061 L7.90757576,35.8783784 C7.90757576,37.198902 9.10530303,38.2702703 10.5606061,38.2702703 L26.5174242,38.2702703 C27.9856061,38.2702703 29.1704545,37.198902 29.1704545,35.8783784 L29.1704545,30.4717061 C33.9871212,27.4320101 37.0909091,22.3866132 37.0909091,16.6934122 C37.0909091,7.46220439 28.8098485,0 18.5454545,0 Z" filter="url(#sh-study-b)" transform="translate(150 120)"/>
      <path fill="#ED9E9A" d="M10.1875,27.15 L10.1875,37.8125 L28,48 L45.8125,37.8125 L45.8125,27.15 L28,37.3375 L10.1875,27.15 Z M28,0 L0,16 L28,32 L50.9125,18.9125 L50.9125,37.3375 L56,37.3375 L56,16 L28,0 Z" filter="url(#sh-study-c)" transform="translate(0 83)"/>
    </g>
  </g>
</svg>
