<svg xmlns="http://www.w3.org/2000/svg" width="468" height="309" viewBox="0 0 468 309">
  <defs>
    <filter id="sh-toui-a" width="126.9%" height="126.9%" x="-13.4%" y="-13.4%" filterUnits="objectBoundingBox">
      <feOffset dy="2" in="SourceAlpha" result="shadowOffsetOuter1"/>
      <feGaussianBlur in="shadowOffsetOuter1" result="shadowBlurOuter1" stdDeviation="3"/>
      <feColorMatrix in="shadowBlurOuter1" result="shadowMatrixOuter1" values="0 0 0 0 0.505882353   0 0 0 0 0.560784314   0 0 0 0 0.588235294  0 0 0 0.35 0"/>
      <feMerge>
        <feMergeNode in="shadowMatrixOuter1"/>
        <feMergeNode in="SourceGraphic"/>
      </feMerge>
    </filter>
  </defs>
  <g fill="none">
    <path fill="#FFFAF8" d="M29.879484,115.926379 C65.336767,79.0685554 150.962713,85.3725785 202.0212,40.9263792 C253.079688,-3.51982005 330.194162,-13.6792836 405.363602,19.9263792 C480.533042,53.5320421 491.316882,162.631269 418.984025,240.683131 C346.651168,318.734994 99.1981563,327.597956 40.6383413,275.127742 C-17.9214737,222.657527 -5.5777989,152.784203 29.879484,115.926379 Z"/>
    <path fill="#ED9E9A" d="M107.666578,0 L11.3334219,0 C5.09946875,0 0,5.09920312 0,11.3331562 L0,86.4165781 C0,92.6505312 5.09946875,97.75 11.3334219,97.75 L48.1665781,97.75 L36.8334219,110.5 L36.8334219,119 L82.1665781,119 L82.1665781,110.5 L70.8334219,97.75 L107.666578,97.75 C113.900531,97.75 119,92.6505312 119,86.4165781 L119,11.3331562 C119,5.09920312 113.900531,0 107.666578,0 Z M107.666578,76.5 L11.3334219,76.5 L11.3334219,11.3331562 L107.666578,11.3331562 L107.666578,76.5 Z" filter="url(#sh-toui-a)" transform="translate(150 160)"/>
    <path fill="#FCD2C3" d="M24,0 C10.7450769,0 0,10.7451923 0,24 C0,37.2548077 10.7450769,48 24,48 C37.2548077,48 48,37.2548077 48,24 C48,10.7451923 37.2548077,0 24,0 Z M21.5135769,44.4229615 C16.9600385,43.8776538 12.7468846,41.8392692 9.45369231,38.5461923 C5.56823077,34.6607308 3.42853846,29.4948462 3.42853846,24 C3.42853846,19.0534615 5.16346154,14.3741538 8.34403846,10.6547308 C8.42596154,11.6374615 8.62823077,12.6910385 8.57642308,13.4441538 C8.38719231,16.1897308 8.11626923,17.9080385 9.72334615,20.2243846 C10.3494231,21.1265769 10.5032308,22.4199231 10.8079615,23.4641538 C11.106,24.4857692 12.2966538,25.0216154 13.1178462,25.6510385 C14.7746538,26.9213077 16.3596923,28.3977692 18.1165385,29.5157308 C19.2760385,30.2536154 20.0003077,30.6206538 19.6607308,32.0356154 C19.3876154,33.1735385 19.3113462,33.8745 18.7226538,34.8882692 C18.543,35.1976154 19.4007692,37.1865 19.6862308,37.4719615 C20.5513846,38.337 21.4098462,39.1306154 22.3528846,39.9094615 C23.8149231,41.1174231 22.2108462,42.687 21.5135769,44.4229615 Z M38.5461923,38.5461923 C35.5885385,41.5038462 31.8886154,43.4484231 27.8666538,44.2093846 C28.4366538,42.7998462 29.4515769,41.5474615 30.393,40.8214615 C31.2118846,40.1896154 32.2375385,38.9742692 32.6652692,38.0116154 C33.0926538,37.0502308 33.6588462,36.2168077 34.2318462,35.3327308 C35.0470385,34.0751538 32.2219615,32.1785769 31.3065,31.7810769 C29.2464231,30.8867308 27.6956538,29.6799231 25.8648462,28.3916538 C24.5604231,27.4738846 21.9121154,28.8709615 20.4394615,28.2281538 C18.4224231,27.3474231 16.7606538,25.8170769 15.0073846,24.4967308 C13.1981538,23.1341538 13.2856154,21.5456538 13.2856154,19.5355385 C14.7027692,19.5878077 16.7187692,19.1433462 17.6596154,20.283 C17.9565,20.6426538 18.9773077,22.2493846 19.6606154,21.6784615 C20.2188462,21.2119615 19.2469615,19.3420385 19.0592308,18.9024231 C18.4817308,17.5506923 20.3750769,17.0235 21.3441923,16.1068846 C22.6088077,14.9110385 25.3215,13.0355769 25.1071154,12.1783846 C24.8927308,11.3211923 22.3928077,8.89257692 20.9245385,9.2715 C20.7045,9.32826923 18.7671923,11.3596154 18.3928846,11.6783077 C18.4028077,11.0153077 18.4127308,10.3524231 18.4228846,9.68942308 C18.4292308,9.27080769 17.6419615,8.84111538 17.6785385,8.57111538 C17.7708462,7.88873077 19.6703077,6.65030769 20.1428077,6.10684615 C19.8117692,5.89996154 18.6821538,4.92969231 18.3402692,5.07207692 C17.5125,5.41707692 16.5776538,5.65476923 15.7498846,5.99965385 C15.7498846,5.71257692 15.7150385,5.44292308 15.6735,5.17661538 C17.3404664,4.43919107 19.0988495,3.92879041 20.9015769,3.65907692 L22.5266538,4.31215385 L23.6740385,5.67380769 L24.8191154,6.85453846 L25.8200769,7.17703846 L27.4099615,5.67761538 L27,4.60719231 L27,3.645 C30.1442308,4.10169231 33.1135385,5.27469231 35.7140769,7.08346154 C35.2488462,7.12511538 34.7375769,7.19353846 34.1607692,7.26692308 C33.9225,7.12615385 33.6168462,7.06223077 33.3571154,6.96426923 C34.1106923,8.5845 34.8966923,10.1823462 35.6952692,11.7811154 C36.5483077,13.4889231 38.4406154,15.3207692 38.7729231,17.1235385 C39.1645385,19.2484615 38.8928077,21.1786154 39.1070769,23.6786538 C39.3133846,26.0861538 41.8213846,28.8215769 41.8213846,28.8215769 C41.8213846,28.8215769 42.9795,29.2160769 43.9426154,29.0786538 C43.0448077,32.6305385 41.2041923,35.8879615 38.5461923,38.5461923 Z" transform="translate(186 180)"/>
    <path fill="#ED9E9A" d="M21.9207921,12.5357143 L21.9207921,9.40178571 L20.2229093,9.40178571 C20.1250486,8.80927734 19.9684715,8.23635603 19.7678571,7.68791853 L21.2357673,6.84077846 L19.6699965,4.12797154 L18.2020863,4.97511161 C17.8253227,4.51971261 17.4045217,4.09859096 16.9494696,3.72154018 L17.7959645,2.25251116 L15.0852237,0.685546875 L14.2387288,2.15457589 C13.690709,1.94891183 13.118224,1.79711217 12.5261669,1.6991769 L12.5261669,0 L9.39462518,0 L9.39462518,1.6991769 C8.80256807,1.79711217 8.2300831,1.95380859 7.6820633,2.15457589 L6.83556842,0.685546875 L4.12482762,2.25251116 L4.97132249,3.72154018 C4.51627033,4.09859096 4.09546941,4.51971261 3.7187058,4.97511161 L2.25079562,4.12797154 L0.685024752,6.84077846 L2.15293494,7.68791853 C1.94742751,8.23635603 1.79574346,8.80927734 1.69788278,9.40178571 L0,9.40178571 L0,12.5357143 L1.69788278,12.5357143 C1.79574346,13.1282227 1.95232054,13.701144 2.15293494,14.2495815 L0.685024752,15.0967215 L2.25079562,17.8095285 L3.7187058,16.9623884 C4.09546941,17.4177874 4.51627033,17.838909 4.97132249,18.2159598 L4.12482762,19.6849888 L6.83556842,21.2519531 L7.6820633,19.7829241 C8.2300831,19.9885882 8.80256807,20.1403878 9.39462518,20.2383231 L9.39462518,21.9375 L12.5261669,21.9375 L12.5261669,20.2383231 C13.118224,20.1403878 13.690709,19.9836914 14.2387288,19.7829241 L15.0852237,21.2519531 L17.7959645,19.6849888 L16.9494696,18.2159598 C17.4045217,17.838909 17.8253227,17.4177874 18.2020863,16.9623884 L19.6699965,17.8095285 L21.2357673,15.0967215 L19.7678571,14.2495815 C19.9733646,13.701144 20.1250486,13.1282227 20.2229093,12.5357143 L21.9207921,12.5357143 Z M10.960396,9.40178571 C11.826463,9.40178571 12.5261669,10.1020229 12.5261669,10.96875 C12.5261669,11.8354771 11.826463,12.5357143 10.960396,12.5357143 C10.094329,12.5357143 9.39462518,11.8354771 9.39462518,10.96875 C9.39462518,10.1020229 10.094329,9.40178571 10.960396,9.40178571 Z M5.34319307,15.2289342 C4.44776786,14.0439174 3.91442716,12.5699916 3.91442716,10.96875 C3.91442716,10.6700474 3.93399929,10.3762416 3.96825053,10.0873326 L6.26308345,10.9246791 L6.26308345,10.96875 C6.26308345,11.8403739 6.50284211,12.6581334 6.91385697,13.3583705 L5.34319307,15.2289342 Z M7.33465789,7.98172433 L5.03982496,7.14437779 C6.02332479,5.62148438 7.57441655,4.50502232 9.39462518,4.0936942 L9.39462518,6.53717913 C8.58238154,6.82608817 7.87289162,7.3304548 7.33465789,7.98172433 Z M10.960396,18.0200893 C9.80074699,18.0200893 8.70960042,17.7409738 7.7407797,17.2415039 L9.3114436,15.3709403 C9.82521216,15.5619141 10.378125,15.6696429 10.960396,15.6696429 C11.5426671,15.6696429 12.0955799,15.5619141 12.6093485,15.3709403 L14.1800124,17.2415039 C13.2111917,17.7409738 12.1200451,18.0200893 10.960396,18.0200893 Z M12.5261669,6.53717913 L12.5261669,4.0936942 C14.3463755,4.50502232 15.8974673,5.62148438 16.8809671,7.14437779 L14.5861342,7.98172433 C14.0479005,7.3304548 13.3384105,6.82608817 12.5261669,6.53717913 Z M16.577599,15.2289342 L15.0069351,13.3583705 C15.41795,12.6581334 15.6577086,11.8403739 15.6577086,10.96875 L15.6577086,10.9246791 L17.9525415,10.0873326 C17.9867928,10.3762416 18.0063649,10.6700474 18.0063649,10.96875 C18.0063649,12.5699916 17.4730242,14.0439174 16.577599,15.2289342 Z" transform="rotate(-23 387.117 -415.152)"/>
    <path fill="#ED9E9A" d="M21.9207921,12.5357143 L21.9207921,9.40178571 L20.2229093,9.40178571 C20.1250486,8.80927734 19.9684715,8.23635603 19.7678571,7.68791853 L21.2357673,6.84077846 L19.6699965,4.12797154 L18.2020863,4.97511161 C17.8253227,4.51971261 17.4045217,4.09859096 16.9494696,3.72154018 L17.7959645,2.25251116 L15.0852237,0.685546875 L14.2387288,2.15457589 C13.690709,1.94891183 13.118224,1.79711217 12.5261669,1.6991769 L12.5261669,0 L9.39462518,0 L9.39462518,1.6991769 C8.80256807,1.79711217 8.2300831,1.95380859 7.6820633,2.15457589 L6.83556842,0.685546875 L4.12482762,2.25251116 L4.97132249,3.72154018 C4.51627033,4.09859096 4.09546941,4.51971261 3.7187058,4.97511161 L2.25079562,4.12797154 L0.685024752,6.84077846 L2.15293494,7.68791853 C1.94742751,8.23635603 1.79574346,8.80927734 1.69788278,9.40178571 L0,9.40178571 L0,12.5357143 L1.69788278,12.5357143 C1.79574346,13.1282227 1.95232054,13.701144 2.15293494,14.2495815 L0.685024752,15.0967215 L2.25079562,17.8095285 L3.7187058,16.9623884 C4.09546941,17.4177874 4.51627033,17.838909 4.97132249,18.2159598 L4.12482762,19.6849888 L6.83556842,21.2519531 L7.6820633,19.7829241 C8.2300831,19.9885882 8.80256807,20.1403878 9.39462518,20.2383231 L9.39462518,21.9375 L12.5261669,21.9375 L12.5261669,20.2383231 C13.118224,20.1403878 13.690709,19.9836914 14.2387288,19.7829241 L15.0852237,21.2519531 L17.7959645,19.6849888 L16.9494696,18.2159598 C17.4045217,17.838909 17.8253227,17.4177874 18.2020863,16.9623884 L19.6699965,17.8095285 L21.2357673,15.0967215 L19.7678571,14.2495815 C19.9733646,13.701144 20.1250486,13.1282227 20.2229093,12.5357143 L21.9207921,12.5357143 Z M10.960396,9.40178571 C11.826463,9.40178571 12.5261669,10.1020229 12.5261669,10.96875 C12.5261669,11.8354771 11.826463,12.5357143 10.960396,12.5357143 C10.094329,12.5357143 9.39462518,11.8354771 9.39462518,10.96875 C9.39462518,10.1020229 10.094329,9.40178571 10.960396,9.40178571 Z M5.34319307,15.2289342 C4.44776786,14.0439174 3.91442716,12.5699916 3.91442716,10.96875 C3.91442716,10.6700474 3.93399929,10.3762416 3.96825053,10.0873326 L6.26308345,10.9246791 L6.26308345,10.96875 C6.26308345,11.8403739 6.50284211,12.6581334 6.91385697,13.3583705 L5.34319307,15.2289342 Z M7.33465789,7.98172433 L5.03982496,7.14437779 C6.02332479,5.62148437 7.57441655,4.50502232 9.39462518,4.0936942 L9.39462518,6.53717913 C8.58238154,6.82608817 7.87289162,7.3304548 7.33465789,7.98172433 Z M10.960396,18.0200893 C9.80074699,18.0200893 8.70960042,17.7409738 7.7407797,17.2415039 L9.3114436,15.3709403 C9.82521216,15.5619141 10.378125,15.6696429 10.960396,15.6696429 C11.5426671,15.6696429 12.0955799,15.5619141 12.6093485,15.3709403 L14.1800124,17.2415039 C13.2111917,17.7409738 12.1200451,18.0200893 10.960396,18.0200893 Z M12.5261669,6.53717913 L12.5261669,4.0936942 C14.3463755,4.50502232 15.8974673,5.62148437 16.8809671,7.14437779 L14.5861342,7.98172433 C14.0479005,7.3304548 13.3384105,6.82608817 12.5261669,6.53717913 Z M16.577599,15.2289342 L15.0069351,13.3583705 C15.41795,12.6581334 15.6577086,11.8403739 15.6577086,10.96875 L15.6577086,10.9246791 L17.9525415,10.0873326 C17.9867928,10.3762416 18.0063649,10.6700474 18.0063649,10.96875 C18.0063649,12.5699916 17.4730242,14.0439174 16.577599,15.2289342 Z" transform="rotate(16 -236.994 601.549)"/>
    <path fill="#ED9E9A" d="M21.9207921,12.5357143 L21.9207921,9.40178571 L20.2229093,9.40178571 C20.1250486,8.80927734 19.9684715,8.23635603 19.7678571,7.68791853 L21.2357673,6.84077846 L19.6699965,4.12797154 L18.2020863,4.97511161 C17.8253227,4.51971261 17.4045217,4.09859096 16.9494696,3.72154018 L17.7959645,2.25251116 L15.0852237,0.685546875 L14.2387288,2.15457589 C13.690709,1.94891183 13.118224,1.79711217 12.5261669,1.6991769 L12.5261669,0 L9.39462518,0 L9.39462518,1.6991769 C8.80256807,1.79711217 8.2300831,1.95380859 7.6820633,2.15457589 L6.83556842,0.685546875 L4.12482762,2.25251116 L4.97132249,3.72154018 C4.51627033,4.09859096 4.09546941,4.51971261 3.7187058,4.97511161 L2.25079562,4.12797154 L0.685024752,6.84077846 L2.15293494,7.68791853 C1.94742751,8.23635603 1.79574346,8.80927734 1.69788278,9.40178571 L0,9.40178571 L0,12.5357143 L1.69788278,12.5357143 C1.79574346,13.1282227 1.95232054,13.701144 2.15293494,14.2495815 L0.685024752,15.0967215 L2.25079562,17.8095285 L3.7187058,16.9623884 C4.09546941,17.4177874 4.51627033,17.838909 4.97132249,18.2159598 L4.12482762,19.6849888 L6.83556842,21.2519531 L7.6820633,19.7829241 C8.2300831,19.9885882 8.80256807,20.1403878 9.39462518,20.2383231 L9.39462518,21.9375 L12.5261669,21.9375 L12.5261669,20.2383231 C13.118224,20.1403878 13.690709,19.9836914 14.2387288,19.7829241 L15.0852237,21.2519531 L17.7959645,19.6849888 L16.9494696,18.2159598 C17.4045217,17.838909 17.8253227,17.4177874 18.2020863,16.9623884 L19.6699965,17.8095285 L21.2357673,15.0967215 L19.7678571,14.2495815 C19.9733646,13.701144 20.1250486,13.1282227 20.2229093,12.5357143 L21.9207921,12.5357143 Z M10.960396,9.40178571 C11.826463,9.40178571 12.5261669,10.1020229 12.5261669,10.96875 C12.5261669,11.8354771 11.826463,12.5357143 10.960396,12.5357143 C10.094329,12.5357143 9.39462518,11.8354771 9.39462518,10.96875 C9.39462518,10.1020229 10.094329,9.40178571 10.960396,9.40178571 Z M5.34319307,15.2289342 C4.44776786,14.0439174 3.91442716,12.5699916 3.91442716,10.96875 C3.91442716,10.6700474 3.93399929,10.3762416 3.96825053,10.0873326 L6.26308345,10.9246791 L6.26308345,10.96875 C6.26308345,11.8403739 6.50284211,12.6581334 6.91385697,13.3583705 L5.34319307,15.2289342 Z M7.33465789,7.98172433 L5.03982496,7.14437779 C6.02332479,5.62148438 7.57441655,4.50502232 9.39462518,4.0936942 L9.39462518,6.53717913 C8.58238154,6.82608817 7.87289162,7.3304548 7.33465789,7.98172433 Z M10.960396,18.0200893 C9.80074699,18.0200893 8.70960042,17.7409738 7.7407797,17.2415039 L9.3114436,15.3709403 C9.82521216,15.5619141 10.378125,15.6696429 10.960396,15.6696429 C11.5426671,15.6696429 12.0955799,15.5619141 12.6093485,15.3709403 L14.1800124,17.2415039 C13.2111917,17.7409738 12.1200451,18.0200893 10.960396,18.0200893 Z M12.5261669,6.53717913 L12.5261669,4.0936942 C14.3463755,4.50502232 15.8974673,5.62148438 16.8809671,7.14437779 L14.5861342,7.98172433 C14.0479005,7.3304548 13.3384105,6.82608817 12.5261669,6.53717913 Z M16.577599,15.2289342 L15.0069351,13.3583705 C15.41795,12.6581334 15.6577086,11.8403739 15.6577086,10.96875 L15.6577086,10.9246791 L17.9525415,10.0873326 C17.9867928,10.3762416 18.0063649,10.6700474 18.0063649,10.96875 C18.0063649,12.5699916 17.4730242,14.0439174 16.577599,15.2289342 Z" transform="rotate(-23 342.382 -528.628)"/>
    <path fill="#ED9E9A" d="M21.9207921,12.5357143 L21.9207921,9.40178571 L20.2229093,9.40178571 C20.1250486,8.80927734 19.9684715,8.23635603 19.7678571,7.68791853 L21.2357673,6.84077846 L19.6699965,4.12797154 L18.2020863,4.97511161 C17.8253227,4.51971261 17.4045217,4.09859096 16.9494696,3.72154018 L17.7959645,2.25251116 L15.0852237,0.685546875 L14.2387288,2.15457589 C13.690709,1.94891183 13.118224,1.79711217 12.5261669,1.6991769 L12.5261669,0 L9.39462518,0 L9.39462518,1.6991769 C8.80256807,1.79711217 8.2300831,1.95380859 7.6820633,2.15457589 L6.83556842,0.685546875 L4.12482762,2.25251116 L4.97132249,3.72154018 C4.51627033,4.09859096 4.09546941,4.51971261 3.7187058,4.97511161 L2.25079562,4.12797154 L0.685024752,6.84077846 L2.15293494,7.68791853 C1.94742751,8.23635603 1.79574346,8.80927734 1.69788278,9.40178571 L0,9.40178571 L0,12.5357143 L1.69788278,12.5357143 C1.79574346,13.1282227 1.95232054,13.701144 2.15293494,14.2495815 L0.685024752,15.0967215 L2.25079562,17.8095285 L3.7187058,16.9623884 C4.09546941,17.4177874 4.51627033,17.838909 4.97132249,18.2159598 L4.12482762,19.6849888 L6.83556842,21.2519531 L7.6820633,19.7829241 C8.2300831,19.9885882 8.80256807,20.1403878 9.39462518,20.2383231 L9.39462518,21.9375 L12.5261669,21.9375 L12.5261669,20.2383231 C13.118224,20.1403878 13.690709,19.9836914 14.2387288,19.7829241 L15.0852237,21.2519531 L17.7959645,19.6849888 L16.9494696,18.2159598 C17.4045217,17.838909 17.8253227,17.4177874 18.2020863,16.9623884 L19.6699965,17.8095285 L21.2357673,15.0967215 L19.7678571,14.2495815 C19.9733646,13.701144 20.1250486,13.1282227 20.2229093,12.5357143 L21.9207921,12.5357143 Z M10.960396,9.40178571 C11.826463,9.40178571 12.5261669,10.1020229 12.5261669,10.96875 C12.5261669,11.8354771 11.826463,12.5357143 10.960396,12.5357143 C10.094329,12.5357143 9.39462518,11.8354771 9.39462518,10.96875 C9.39462518,10.1020229 10.094329,9.40178571 10.960396,9.40178571 Z M5.34319307,15.2289342 C4.44776786,14.0439174 3.91442716,12.5699916 3.91442716,10.96875 C3.91442716,10.6700474 3.93399929,10.3762416 3.96825053,10.0873326 L6.26308345,10.9246791 L6.26308345,10.96875 C6.26308345,11.8403739 6.50284211,12.6581334 6.91385697,13.3583705 L5.34319307,15.2289342 Z M7.33465789,7.98172433 L5.03982496,7.14437779 C6.02332479,5.62148437 7.57441655,4.50502232 9.39462518,4.0936942 L9.39462518,6.53717913 C8.58238154,6.82608817 7.87289162,7.3304548 7.33465789,7.98172433 Z M10.960396,18.0200893 C9.80074699,18.0200893 8.70960042,17.7409738 7.7407797,17.2415039 L9.3114436,15.3709403 C9.82521216,15.5619141 10.378125,15.6696429 10.960396,15.6696429 C11.5426671,15.6696429 12.0955799,15.5619141 12.6093485,15.3709403 L14.1800124,17.2415039 C13.2111917,17.7409738 12.1200451,18.0200893 10.960396,18.0200893 Z M12.5261669,6.53717913 L12.5261669,4.0936942 C14.3463755,4.50502232 15.8974673,5.62148437 16.8809671,7.14437779 L14.5861342,7.98172433 C14.0479005,7.3304548 13.3384105,6.82608817 12.5261669,6.53717913 Z M16.577599,15.2289342 L15.0069351,13.3583705 C15.41795,12.6581334 15.6577086,11.8403739 15.6577086,10.96875 L15.6577086,10.9246791 L17.9525415,10.0873326 C17.9867928,10.3762416 18.0063649,10.6700474 18.0063649,10.96875 C18.0063649,12.5699916 17.4730242,14.0439174 16.577599,15.2289342 Z" transform="rotate(9 -210.988 666.323)"/>
    <path fill="#ED9E9A" d="M4.89303395,20.8453058 C4.89303395,21.4241687 5.40670694,21.9375 6.08762231,21.9375 L11.3438111,21.9375 C12.0247265,21.9375 12.5383995,21.4241687 12.5383995,20.8453058 L12.5383995,19.8623311 L4.89303395,19.8623311 L4.89303395,20.8453058 Z M8.56280941,0 C3.82353226,0 0,3.4104606 0,7.62941103 C0,10.2313818 1.4330813,12.5372859 3.65108679,13.9265219 L3.65108679,16.3975401 C3.65108679,17.0010607 4.20410156,17.4907095 4.87604425,17.4907095 L12.2436282,17.4907095 C12.9215172,17.4907095 13.4685856,17.0010607 13.4685856,16.3975401 L13.4685856,13.9265219 C15.6925375,12.5372859 17.1256188,10.2313818 17.1256188,7.62941103 C17.1256188,3.4104606 13.3020866,0 8.56280941,0 Z" transform="rotate(-17 550.753 -536.113)"/>
    <path fill="#ED9E9A" d="M4.89303395,20.8453058 C4.89303395,21.4241687 5.40670694,21.9375 6.08762231,21.9375 L11.3438111,21.9375 C12.0247265,21.9375 12.5383995,21.4241687 12.5383995,20.8453058 L12.5383995,19.8623311 L4.89303395,19.8623311 L4.89303395,20.8453058 Z M8.56280941,0 C3.82353226,0 0,3.4104606 0,7.62941103 C0,10.2313818 1.4330813,12.5372859 3.65108679,13.9265219 L3.65108679,16.3975401 C3.65108679,17.0010607 4.20410156,17.4907095 4.87604425,17.4907095 L12.2436282,17.4907095 C12.9215172,17.4907095 13.4685856,17.0010607 13.4685856,16.3975401 L13.4685856,13.9265219 C15.6925375,12.5372859 17.1256188,10.2313818 17.1256188,7.62941103 C17.1256188,3.4104606 13.3020866,0 8.56280941,0 Z" transform="rotate(-44 147.13 -148.448)"/>
    <path fill="#ED9E9A" d="M4.89303395,20.8453058 C4.89303395,21.4241687 5.40670694,21.9375 6.08762231,21.9375 L11.3438111,21.9375 C12.0247265,21.9375 12.5383995,21.4241687 12.5383995,20.8453058 L12.5383995,19.8623311 L4.89303395,19.8623311 L4.89303395,20.8453058 Z M8.56280941,0 C3.82353226,0 0,3.4104606 0,7.62941103 C0,10.2313818 1.4330813,12.5372859 3.65108679,13.9265219 L3.65108679,16.3975401 C3.65108679,17.0010607 4.20410156,17.4907095 4.87604425,17.4907095 L12.2436282,17.4907095 C12.9215172,17.4907095 13.4685856,17.0010607 13.4685856,16.3975401 L13.4685856,13.9265219 C15.6925375,12.5372859 17.1256188,10.2313818 17.1256188,7.62941103 C17.1256188,3.4104606 13.3020866,0 8.56280941,0 Z" transform="rotate(27 -103.153 526.27)"/>
    <path fill="#ED9E9A" d="M10.960396,0 C4.87753432,0 0,4.9359375 0,10.96875 C0,17.0015625 4.87753432,21.9375 10.960396,21.9375 C17.0432578,21.9375 21.9207921,17.0015625 21.9207921,10.96875 C21.9207921,4.9359375 16.9886666,0 10.960396,0 Z M10.960396,19.8808594 C6.06269383,19.8808594 2.05507426,15.8702495 2.05507426,10.96875 C2.05507426,6.06719696 6.06274734,2.05664062 10.960396,2.05664062 C15.8580447,2.05664062 19.8657178,6.06719696 19.8657178,10.96875 C19.8657178,15.870303 15.8580983,19.8808594 10.960396,19.8808594 Z M14.7280047,10.2832031 C15.6986056,10.2832031 16.4405941,9.54063721 16.4405941,8.56933594 C16.4405941,7.59803467 15.6985507,6.85546875 14.7280047,6.85546875 C13.7574588,6.85546875 13.0154703,7.59803467 13.0154703,8.56933594 C13.0154703,9.54063721 13.7574588,10.2832031 14.7280047,10.2832031 Z M7.19278735,10.2832031 C8.1633333,10.2832031 8.90532178,9.54063721 8.90532178,8.56933594 C8.90532178,7.59803467 8.16327842,6.85546875 7.19278735,6.85546875 C6.2221865,6.85546875 5.48019802,7.59803467 5.48019802,8.56933594 C5.48019802,9.54063721 6.22224139,10.2832031 7.19278735,10.2832031 Z M10.960396,17.1386719 C13.4857165,17.1386719 15.580705,15.4343956 16.4405941,13.0253906 L5.48019802,13.0253906 C6.34008712,15.4343956 8.43507558,17.1386719 10.960396,17.1386719 Z" transform="rotate(19 -282.336 709.336)"/>
    <path fill="#ED9E9A" d="M10.960396,0 C4.87753432,0 0,4.9359375 0,10.96875 C0,17.0015625 4.87753432,21.9375 10.960396,21.9375 C17.0432578,21.9375 21.9207921,17.0015625 21.9207921,10.96875 C21.9207921,4.9359375 16.9886666,0 10.960396,0 Z M10.960396,19.8808594 C6.06269383,19.8808594 2.05507426,15.8702495 2.05507426,10.96875 C2.05507426,6.06719696 6.06274734,2.05664062 10.960396,2.05664062 C15.8580447,2.05664062 19.8657178,6.06719696 19.8657178,10.96875 C19.8657178,15.870303 15.8580983,19.8808594 10.960396,19.8808594 Z M14.7280047,10.2832031 C15.6986056,10.2832031 16.4405941,9.54063721 16.4405941,8.56933594 C16.4405941,7.59803467 15.6985507,6.85546875 14.7280047,6.85546875 C13.7574588,6.85546875 13.0154703,7.59803467 13.0154703,8.56933594 C13.0154703,9.54063721 13.7574588,10.2832031 14.7280047,10.2832031 Z M7.19278735,10.2832031 C8.1633333,10.2832031 8.90532178,9.54063721 8.90532178,8.56933594 C8.90532178,7.59803467 8.16327842,6.85546875 7.19278735,6.85546875 C6.2221865,6.85546875 5.48019802,7.59803467 5.48019802,8.56933594 C5.48019802,9.54063721 6.22224139,10.2832031 7.19278735,10.2832031 Z M10.960396,17.1386719 C13.4857165,17.1386719 15.580705,15.4343956 16.4405941,13.0253906 L5.48019802,13.0253906 C6.34008712,15.4343956 8.43507558,17.1386719 10.960396,17.1386719 Z" transform="rotate(-25 344.929 -316.921)"/>
    <path fill="#ED9E9A" d="M10.960396,0 C4.87753432,0 0,4.9359375 0,10.96875 C0,17.0015625 4.87753432,21.9375 10.960396,21.9375 C17.0432578,21.9375 21.9207921,17.0015625 21.9207921,10.96875 C21.9207921,4.9359375 16.9886666,0 10.960396,0 Z M10.960396,19.8808594 C6.06269383,19.8808594 2.05507426,15.8702495 2.05507426,10.96875 C2.05507426,6.06719696 6.06274734,2.05664062 10.960396,2.05664062 C15.8580447,2.05664062 19.8657178,6.06719696 19.8657178,10.96875 C19.8657178,15.870303 15.8580983,19.8808594 10.960396,19.8808594 Z M14.7280047,10.2832031 C15.6986056,10.2832031 16.4405941,9.54063721 16.4405941,8.56933594 C16.4405941,7.59803467 15.6985507,6.85546875 14.7280047,6.85546875 C13.7574588,6.85546875 13.0154703,7.59803467 13.0154703,8.56933594 C13.0154703,9.54063721 13.7574588,10.2832031 14.7280047,10.2832031 Z M7.19278735,10.2832031 C8.1633333,10.2832031 8.90532178,9.54063721 8.90532178,8.56933594 C8.90532178,7.59803467 8.16327842,6.85546875 7.19278735,6.85546875 C6.2221865,6.85546875 5.48019802,7.59803467 5.48019802,8.56933594 C5.48019802,9.54063721 6.22224139,10.2832031 7.19278735,10.2832031 Z M10.960396,17.1386719 C13.4857165,17.1386719 15.580705,15.4343956 16.4405941,13.0253906 L5.48019802,13.0253906 C6.34008712,15.4343956 8.43507558,17.1386719 10.960396,17.1386719 Z" transform="rotate(-2 2554.817 -5571.532)"/>
    <path fill="#ED9E9A" d="M10.960396,0 C4.87753432,0 0,4.9359375 0,10.96875 C0,17.0015625 4.87753432,21.9375 10.960396,21.9375 C17.0432578,21.9375 21.9207921,17.0015625 21.9207921,10.96875 C21.9207921,4.9359375 16.9886666,0 10.960396,0 Z M10.960396,19.8808594 C6.06269383,19.8808594 2.05507426,15.8702495 2.05507426,10.96875 C2.05507426,6.06719696 6.06274734,2.05664062 10.960396,2.05664062 C15.8580447,2.05664062 19.8657178,6.06719696 19.8657178,10.96875 C19.8657178,15.870303 15.8580983,19.8808594 10.960396,19.8808594 Z M14.7280047,10.2832031 C15.6986056,10.2832031 16.4405941,9.54063721 16.4405941,8.56933594 C16.4405941,7.59803467 15.6985507,6.85546875 14.7280047,6.85546875 C13.7574588,6.85546875 13.0154703,7.59803467 13.0154703,8.56933594 C13.0154703,9.54063721 13.7574588,10.2832031 14.7280047,10.2832031 Z M7.19278735,10.2832031 C8.1633333,10.2832031 8.90532178,9.54063721 8.90532178,8.56933594 C8.90532178,7.59803467 8.16327842,6.85546875 7.19278735,6.85546875 C6.2221865,6.85546875 5.48019802,7.59803467 5.48019802,8.56933594 C5.48019802,9.54063721 6.22224139,10.2832031 7.19278735,10.2832031 Z M10.960396,17.1386719 C13.4857165,17.1386719 15.580705,15.4343956 16.4405941,13.0253906 L5.48019802,13.0253906 C6.34008712,15.4343956 8.43507558,17.1386719 10.960396,17.1386719 Z" transform="rotate(18 -54.764 757.597)"/>
  </g>
</svg>
